<?xml version="1.0" encoding="utf-8"?>
<!-- Generator: Adobe Illustrator 25.0.0, SVG Export Plug-In . SVG Version: 6.00 Build 0)  -->
<svg version="1.1" id="Слой_1" xmlns="http://www.w3.org/2000/svg" xmlns:xlink="http://www.w3.org/1999/xlink" x="0px" y="0px"
	 viewBox="0 0 1536 500" style="enable-background:new 0 0 1536 500;" xml:space="preserve">
<style type="text/css">
	.st0{fill:url(#SVGID_1_);}
	.st1{fill:#BAF4F4;}
	.st2{fill:#2E3552;}
	.st3{fill:#FFB27D;}
	.st4{fill:#233862;}
	.st5{fill:#EFCBAB;}
	.st6{fill:#D8A987;}
	.st7{fill:#ED985F;}
	.st8{fill:#132644;}
	.st9{fill:#FFFFFF;}
	.st10{fill:#D2E3FC;}
	.st11{fill:#EE9849;}
	.st12{fill:#1C468A;}
	.st13{fill:#BC3F3F;}
	.st14{fill:#FFF0E6;}
	.st15{fill:#FCECDB;}
	.st16{fill:#932424;}
	.st17{fill:#EF9E67;}
	.st18{fill:#A53D38;}
	.st19{fill:#C45446;}
	.st20{fill:#912F2F;}
	.st21{fill:#9B2323;}
	.st22{fill:#C94C43;}
	.st23{fill:#ED975D;}
	.st24{fill:#F99746;}
	.st25{fill:#DDB08E;}
	.st26{fill:#B56F40;}
	.st27{fill:#99592E;}
	.st28{fill:#2C3A64;}
	.st29{fill:#82B378;}
	.st30{fill:#EF7E29;}
	.st31{fill:#AA443E;}
	.st32{fill:#6BB7BF;}
	.st33{fill:#86D1CD;}
	.st34{fill:#5685D8;}
	.st35{fill:#739AF0;}
	.st36{fill:#ED7D2B;}
	.st37{fill:#383884;}
	.st38{font-family:'CalisMTBol';}
	.st39{font-size:80px;}
</style>
<linearGradient id="SVGID_1_" gradientUnits="userSpaceOnUse" x1="0" y1="252.115" x2="1536" y2="252.115" gradientTransform="matrix(1 0 0 -1 0 502)">
	<stop  offset="0" style="stop-color:#22BABC"/>
	<stop  offset="0.5375" style="stop-color:#94DEDE"/>
	<stop  offset="1" style="stop-color:#FFFFFF"/>
</linearGradient>
<rect class="st0" width="1536" height="499.8"/>
<path class="st1" d="M78.2,479.9c0,0-75.3-162.5,11.8-263.8c71.6-83.3,168.8-99.6,244.4-49.5c32.2,21.4,122,16.3,230.3-85.3
	c140.6-132,493.1-58.8,425,205c-32.9,127.7,108.1,66.2,40.3,193.8L78.2,479.9z"/>
<path class="st2" d="M1083.6,481H56.6c-0.8,0-1.4-0.6-1.4-1.4l0,0c0-0.8,0.6-1.4,1.4-1.4h1027c0.8,0,1.4,0.6,1.4,1.4l0,0
	C1085,480.4,1084.3,481,1083.6,481z"/>
<g>
	<polygon class="st3" points="194.3,290.2 190.9,327.9 196,328.7 210.5,295.2 	"/>
	<path class="st3" d="M196.7,324.8c0,0-1.2,3.9-0.4,6.9c0.5,2-2.6,4.6-5.9,8.4c-0.3,0.4-1,0-0.9-0.5c0-0.3,0.1-0.6,0.3-0.9
		c0.6-1.4,2.4-3.9,2.4-3.9c-0.1-0.5-3.7,1.4-5.8,2.7c-1.2,0.8-4.6,4.5-5.5,3.9s0.6-4.1,2.1-6.7c1.6-2.6,7.2-4.8,7.9-6.8
		C191.6,325.9,196.7,324.8,196.7,324.8z"/>
	<polygon class="st4" points="213.2,153.6 250.7,137.6 285.3,154.1 250.7,171.6 	"/>
	<g>
		<g>
			<path class="st5" d="M219.3,172l0.5-0.7c-7.6-5.7-6.1-15.2-5.6-17.4c0.1-0.3-0.1-0.6-0.3-0.7l0,0c-0.2-0.2-0.6,0-0.6,0.2
				C212.8,155.9,211.4,166,219.3,172z"/>
		</g>
		<polygon class="st6" points="219.8,171.3 221,171.7 220,172.9 219.3,172 		"/>
		<path class="st5" d="M221,171.7c0,0,1.4,1,1.9,0.7c0,0-0.5,1.3-1.1,1.5c0,0-1.3-0.4-1.7-1L221,171.7z"/>
	</g>
	<polygon class="st3" points="237.5,439.5 234.9,450.2 231.6,464.4 221,464.4 220.4,450.8 219.9,440.3 	"/>
	<path class="st4" d="M216.8,480c0,0,0-5.2,0.7-6.9c0.7-1.7,3.4-8.7,3.4-8.7h10.6c0,0,2,6.4,2.1,8.5c0.1,2.1,0,7.1,0,7.1L216.8,480
		L216.8,480z"/>
	<path class="st4" d="M283.8,480c0,0,0-5.2-0.7-6.9c-0.7-1.7-3.4-8.7-3.4-8.7h-10.5c0,0-2,6.4-2.1,8.5c-0.1,2.1,0,7.1,0,7.1
		L283.8,480L283.8,480z"/>
	<path class="st3" d="M241.6,190c0,0-0.4,11.5-1.8,16.7l-11.6,25.1l25.8,35.7l18.1-46.1l-10.5-14.4c0,0-3.2-15.4-1.5-21.1
		C261.6,180.1,241.6,190,241.6,190z"/>
	<path class="st7" d="M241.5,191.6c0,0,3.5,8.4,10,8.2c6.5-0.2,8-7.6,8-7.6L241.5,191.6z"/>
	<path class="st8" d="M237.6,184.8c0,0-2.1-10.5-3.6-13.7s-2.7-17.4,13.6-18.2c0,0,6.3,0.7,9.7-1.4c0,0,0,2.1-0.9,2.8
		c0,0,4.2-2.7,8.7,2.2c4.4,4.9-1.5,23.4-1.2,27.5L237.6,184.8z"/>
	<path class="st3" d="M250.7,196.5c-4.7-0.1-13.4-6.4-13.4-14.2v-12.2c0-2.9,2-5.2,4.4-5.2h18.1c2.4,0,4.4,2.3,4.4,5.2v11.5
		C264.2,189.8,256.2,196.6,250.7,196.5z"/>
	<path class="st8" d="M237.3,176.7c0,0,0-7.3,5.8-8.4c5.8-1.1,18.8,3.6,20.6-1.8c1.8-5.3-25.1-5.2-26.4-1.8
		C235.9,168,237.3,176.7,237.3,176.7z"/>
	<polygon class="st9" points="239.7,206.7 250.5,209.1 261.4,206.5 264.2,223.2 251.9,264.9 238.6,214.9 	"/>
	<polygon class="st10" points="239.2,210.1 247.8,216.5 250.6,211.9 253.1,216.5 262.3,208.5 260.5,206.5 250.5,209.1 239.7,208.6 	
		"/>
	<path class="st11" d="M284.1,301l-25.7,1.6c-0.1-0.2-0.3-0.2-0.5,0l-7.6,0.5l-32.2-2c0,0-8.1,37-4.9,86.2c1,15.7,3.3,62.2,5.4,78.7
		l22.1,0.2c2.9-18.6,6.2-65.1,7.9-73c0.8-3.6,1.6-7.2,2.3-10.8c0.6,4,1.1,7.3,1,9.4c0,3.3,0.9,8.5,2.3,14.8c1.9,8.8,7.3,49.6,9,60.3
		h23.2c0.3-14.7,1.5-64.5,1.8-79.5C288.9,347.1,284.1,301,284.1,301z"/>
	<path class="st12" d="M301.8,430.8c-11.8,6.2-92.2,13.5-106.6-3.5c-2.4-2.9,31.8-218.3,31.8-218.3s2.2-0.6,5.9-1.3
		c1.9-0.4,4.2-0.7,6.8-1c0,0.8,5.6,35.8,13.1,49.4c0,0,8.6-18.8,8.6-49.2c0-0.1,0-0.3,0-0.4c1.6,0.2,3.3,0.4,4.9,0.7
		c0.7,0.1,1.4,0.2,2.1,0.4c2.6,0.5,5.3,1.2,8,2.1C276.4,209.6,304.3,429.5,301.8,430.8z"/>
	<path class="st12" d="M236.3,207.1c0,0-12.3,94.5-17,101.6c-2,3-4.9,3.5-8.3,2.8c-0.6-0.1-1.3-0.3-2-0.5l-9.4-3.6l0,0
		c-1.5-0.6-3.1-1.2-4.6-1.7c-9.7-3-8.9-11.2-6.3-22.3s19.7-64.7,25.5-68.5C224.3,208.3,236.3,207.1,236.3,207.1z"/>
	<path class="st3" d="M261.4,206.5c-8.1-0.9-15.7-0.5-21.7,0.2c0,0,0,0,0,0S259.8,194.2,261.4,206.5z"/>
	<path class="st13" d="M254.3,264.9c-12.4-9.1-21.4-57.1-21.4-57.1c1.9-0.4,4.2-0.7,6.8-1c0,0.8,5.3,33.9,12.8,47.5
		c0,0,8.9-16.9,8.9-47.3c0-0.1,0-0.3,0-0.4c1.6,0.2,3.3,0.4,4.9,0.7c0.7,0.1,1.4,0.2,2.1,0.4C268.4,233.1,254.3,264.9,254.3,264.9z"
		/>
	<path class="st14" d="M246.6,187.5c0,0,5.7-0.6,8.3,0.1c0,0-1.4,2.3-3.7,2.3C248.8,189.8,247.1,189,246.6,187.5z"/>
	<path class="st12" d="M232.9,159.2l0.3,5.5c0,0,12.7-8.5,33.6-0.7l-0.3-8c-0.3-1.6-1.3-2.9-2.6-3.7c-3.9-2.2-13.1-6.4-27.5,0.6
		C234.3,153.9,233,156.9,232.9,159.2z"/>
	<polygon class="st9" points="240.6,201.6 236.3,207.1 247.8,214.9 250.5,209.1 	"/>
	<polygon class="st9" points="260.5,201.6 250.5,209.1 253.4,214.9 263.2,206.7 	"/>
	<path class="st10" d="M250.2,222c0.3-0.3,0.8-0.3,1.1,0s0.3,0.8,0,1.1s-0.8,0.3-1.1,0S249.9,222.3,250.2,222z"/>
	<circle class="st10" cx="250.7" cy="231.1" r="0.8"/>
	<path class="st10" d="M250.2,239.3c0.3-0.3,0.8-0.3,1.1,0s0.3,0.8,0,1.1s-0.8,0.3-1.1,0C249.9,240.1,249.9,239.6,250.2,239.3z"/>
	<path class="st12" d="M276.4,209.6c0,0,7.7,3.2,11.9,12.7c4.1,9.5,21.3,35.3,20.8,47.4s-2.8,23.1-14.4,23.5
		c-7.9,0.3-16-7.5-16-19.1C278.7,262.6,276.4,209.6,276.4,209.6z"/>
	<path class="st4" d="M300.9,286.5c-0.3,3.3-1.5,5.9-4.5,6.6c-9.2,2.3-13.3-6.6-11.4-15.4c0.1-0.3,0.1-0.6,0.2-0.8
		c2-6.4,9.1-7.4,11.7-7.5c0.6,0,1,0,1,0s0,0.1,0.1,0.4C298.8,271.7,301.5,280.2,300.9,286.5z"/>
	<path class="st3" d="M300.9,286.5c0,0-26.9-12.1-37.6-26c-0.8-1,1.2-2.3,1.2-2.3l32.5,11.3l1.1,0.4
		C298.8,271.7,301.5,280.2,300.9,286.5z"/>
	<g>
		<rect x="233.6" y="258.8" class="st15" width="35.6" height="46.9"/>
		<g>
			<polygon class="st16" points="248.2,291.8 244.2,298.5 246.8,298.2 247.9,300.2 251.3,294 			"/>
			<polygon class="st16" points="253.6,291.4 257.5,298.1 255,297.8 253.9,299.8 250.5,293.6 			"/>
			<path class="st13" d="M246.8,290.4c0.4-2.9,2-4.1,4.4-4.4c3.2-0.5,4.4,2,4.4,4.4s-2,4.4-4.4,4.4S246.5,292.8,246.8,290.4z"/>
			<g>
				<path class="st16" d="M251.3,293.9c-1.1,0-2.2-0.5-2.9-1.3c-0.6-0.7-0.8-1.5-0.7-2.3l0,0c0.3-2.1,1.4-3.2,3.5-3.5
					c1-0.1,1.8,0,2.4,0.6c0.7,0.6,1.1,1.7,1.1,3C254.8,292.3,253.2,293.9,251.3,293.9z M251.9,287.2c-0.2,0-0.4,0-0.6,0
					c-1.9,0.3-2.9,1.2-3.2,3.2l0,0c-0.1,0.7,0.1,1.4,0.6,2c0.6,0.7,1.6,1.1,2.5,1.1c1.7,0,3.1-1.4,3.1-3.1c0-1.1-0.4-2.1-1-2.6
					C253,287.4,252.5,287.2,251.9,287.2z"/>
			</g>
		</g>
		<g>
			<path class="st12" d="M256.4,264.4h-9.9c-0.2,0-0.3-0.1-0.3-0.3l0,0c0-0.2,0.1-0.3,0.3-0.3h9.9c0.2,0,0.3,0.1,0.3,0.3l0,0
				C256.7,264.3,256.5,264.4,256.4,264.4z"/>
			<path class="st12" d="M258.3,265.7h-13.8c-0.2,0-0.3-0.1-0.3-0.3l0,0c0-0.2,0.1-0.3,0.3-0.3h13.8c0.2,0,0.3,0.1,0.3,0.3l0,0
				C258.6,265.5,258.5,265.7,258.3,265.7z"/>
		</g>
		<g>
			<path class="st12" d="M261.6,276h-20.3c-0.2,0-0.3-0.1-0.3-0.3l0,0c0-0.2,0.1-0.3,0.3-0.3h20.3c0.2,0,0.3,0.1,0.3,0.3l0,0
				C261.9,275.9,261.8,276,261.6,276z"/>
			<path class="st12" d="M261.6,277.7h-20.3c-0.2,0-0.3-0.1-0.3-0.3l0,0c0-0.2,0.1-0.3,0.3-0.3h20.3c0.2,0,0.3,0.1,0.3,0.3l0,0
				C261.9,277.6,261.8,277.7,261.6,277.7z"/>
			<path class="st12" d="M261.6,279.2h-20.3c-0.2,0-0.3-0.1-0.3-0.3l0,0c0-0.2,0.1-0.3,0.3-0.3h20.3c0.2,0,0.3,0.1,0.3,0.3l0,0
				C261.9,279.1,261.8,279.2,261.6,279.2z"/>
			<path class="st12" d="M261.6,280.9h-20.3c-0.2,0-0.3-0.1-0.3-0.3l0,0c0-0.2,0.1-0.3,0.3-0.3h20.3c0.2,0,0.3,0.1,0.3,0.3l0,0
				C261.9,280.7,261.8,280.9,261.6,280.9z"/>
		</g>
		<path class="st12" d="M263.3,290.5c-0.6,0.5-1.3,1-2,1.4c0.1-0.2,0.1-0.4,0.1-0.6c0-0.2-0.2-0.4-0.4-0.5c0,0-0.1,0-0.1-0.1
			c0.1-0.1,0.1-0.2,0.1-0.3c-0.1-0.2-0.3-0.1-0.4,0c0,0,0,0.1,0,0.1c0,0-0.1,0-0.1-0.1c0.1-0.2,0.2-0.5,0.3-0.7c0,0,0-0.1,0-0.1
			c-0.2-0.1-0.4-0.1-0.5,0.1c-0.2,0.2-0.1,0.5,0,0.7c0,0,0,0,0,0c-0.1,0.3-0.3,0.5-0.5,0.8c0,0,0,0,0,0c0,0-0.1-0.1-0.1-0.2
			c0.1-0.2,0.1-0.4,0.1-0.7c0-0.1-0.1-0.1-0.2-0.1c-0.2,0.1-0.4,0.3-0.3,0.6c0,0.1,0,0.2,0.1,0.2c0,0.1-0.1,0.2-0.2,0.3
			c0,0.1,0,0.1,0,0.2c-0.1,0.3-0.2,0.5-0.4,0.7c-0.1,0.1-0.4,0.3-0.6,0.1c-0.1-0.1-0.1-0.3-0.1-0.5c0-0.4-0.1-0.8,0-1.1
			c0-0.2,0-0.4,0.1-0.5c0-0.1,0.1-0.3,0.1-0.1c0,0.1,0,0.2,0,0.3c0,0.2,0.2,0.2,0.2,0c0-0.2,0.1-0.6-0.1-0.7c-0.2-0.1-0.3,0-0.4,0.2
			c-0.3,0.5-0.2,1.2-0.1,1.8c0,0.5,0.2,1,0.8,0.9c0.5-0.1,0.8-0.8,0.9-1.3c0,0,0-0.1,0-0.1c0,0,0,0,0,0c0,0,0,0,0.1,0.1
			c0,0,0.1,0.1,0.1,0.1c-0.1,0.1-0.1,0.2-0.2,0.2c0,0,0,0.1,0,0.1c0.2,0.2,0.5,0.1,0.5-0.2c0-0.1,0-0.1,0-0.2
			c0.2-0.2,0.3-0.5,0.5-0.8c0.1,0.1,0.2,0.1,0.3,0.1c0,0,0,0,0,0c0.1,0.1,0.1,0.1,0.2,0.2c0.1,0,0.1,0.1,0.2,0.1
			c0.1,0.1,0.1,0.2,0.1,0.3c0,0.2-0.1,0.4-0.1,0.5c-0.2,0.1-0.5,0.3-0.6,0.6c-0.1,0.3,0,0.5,0.2,0.7c0.1,0,0.2,0,0.2-0.1
			c0.1-0.4,0.3-0.7,0.4-1.1c0,0,0,0,0,0c0.2-0.1,0.5-0.2,0.7-0.4c0.6-0.3,1.1-0.7,1.6-1.2C263.6,290.6,263.4,290.4,263.3,290.5z
			 M260.2,290.2c0-0.1,0-0.3,0.2-0.3C260.4,290,260.3,290.1,260.2,290.2C260.2,290.2,260.2,290.2,260.2,290.2z M260.6,293.1
			c-0.1-0.2,0-0.4,0.2-0.6C260.7,292.7,260.6,292.9,260.6,293.1z"/>
		<g>
			<path class="st12" d="M267.8,304.4h-32.6v-44h32.6V304.4z M235.6,304h31.8v-43.2h-31.8V304z"/>
		</g>
	</g>
	<path class="st3" d="M256.7,255.2c0,0-6.6,5.6-4.2,6.5c2.4,0.9,8.7-2.9,9.9-2.9s4.1,0,4.1,0s-4-4.7-6.2-4.6
		C258.2,254.3,256.7,255.2,256.7,255.2z"/>
	<path class="st4" d="M219.3,245.2l-8.3,66.3c-0.6-0.1-1.3-0.3-2-0.5l-9.4-3.6l0,0c0,0,2.9-3,6.9-13.5
		C210.4,283.5,219.3,245.2,219.3,245.2z"/>
</g>
<g>
	<path class="st3" d="M423.6,320c0,0,3.5,7.5,3.3,9.6c-0.2,2-3.3,8.6-3.3,8.6l-3.8-17.3L423.6,320z"/>
	<polygon class="st3" points="420.9,287.7 423.6,320 419.8,320.9 409.9,291.6 	"/>
	<polygon class="st4" points="340.1,183.9 377.4,161.9 403,179.8 367.5,200.5 	"/>
	<path class="st8" d="M359.2,194c0,0-1,5.4-6.2,8.2c-5.2,2.8-9.7,3.6-8.6,12.6s-5,11.1-6.1,17c-1.1,6-1,16.9,14,13.6
		c15-3.3,49.2-0.9,52.9-5.8s1.1-14.9-5.2-22.6c-6.3-7.6,2-12.6-0.9-19.4c-3-6.7-8.7-13.6-8.7-13.6S365.8,179.5,359.2,194z"/>
	<polygon class="st3" points="366.3,441.9 371.4,463.2 378.9,463.1 379.2,441.9 	"/>
	<polygon class="st3" points="429.9,442.8 444.3,463.2 449.9,456 441.2,440 	"/>
	<path class="st3" d="M386.2,227.7c0,0-0.9,23.7-5,23.7c-0.9,0-7.1-16.6-7.9-16.8c-4.3-1.2-5-11.8-4.9-11.8
		c1.8-0.4,2.4-2.9,2.3-13.7l0.8,0.2l14,2.8c0,0-0.3,4.4-0.3,8.5C385.2,224,385.4,227.3,386.2,227.7z"/>
	<g>
		<g>
			<path class="st5" d="M329.8,203.9l-0.5-0.9c10.1-4.8,10.7-16.2,10.7-18.9c0-0.3,0.2-0.6,0.5-0.8l0,0c0.3-0.1,0.7,0.1,0.7,0.4
				C341.2,186.8,340.4,198.9,329.8,203.9z"/>
		</g>
		<polygon class="st6" points="329.4,203 327.9,203.2 328.8,204.8 329.8,203.9 		"/>
		<path class="st5" d="M327.9,203.2c0,0-1.9,0.9-2.4,0.4c0,0,0.2,1.7,1,2c0,0,1.6-0.2,2.2-0.7L327.9,203.2z"/>
	</g>
	<path class="st17" d="M385.5,212c0,0-0.3,4.4-0.3,8.5c-7.8-0.2-11.9-7.3-13.6-11.3L385.5,212z"/>
	<path class="st8" d="M368.7,209.7c0,0-5.3-5.5-7.3-10.8c-1.5-3.7-2.4-18.5,12.4-19.3c0,0,4.3-0.4,8.7,1.4c3.6,1.5,9,5.1,6.5,18.7
		l-0.5,4.5L368.7,209.7z"/>
	<path class="st18" d="M448.5,451.3c0,0-3.7,0.6-6.8,0.9c-0.7,0-1.3,0.1-1.9,0.1c-1.5,0-4.1-0.5-5.9-1l-0.1,0
		c-0.8-0.2-1.4-0.3-1.6-0.4l-0.1,0c0,0-18.5-20.6-28.9-53.6c-0.2-0.8-0.5-1.5-0.8-2.3c-5.7-16.5-17.5-37.3-23.6-56.1
		c-1-3-1.9-5.8-2.7-8.5c-0.3-0.9-0.5-1.7-0.7-2.5c-4.6-15.9-5.9-26.3-7.1-37.5l37.3,9.5C405.7,299.9,421.3,367.7,448.5,451.3z"/>
	<path class="st3" d="M387.9,214.2c0,0-18,3.9-20.3-7.3s-6.2-18.4,5.3-21.4s14.5,0.9,16.2,4.4C390.8,193.5,392.6,212.9,387.9,214.2z
		"/>
	<path class="st8" d="M381.1,183.6c0,0-2.3,14.2-9.5,17.7s-10.9,2.1-10.9,2.1s4.9-5.8,4.5-14.1C365.1,189.3,376.1,178,381.1,183.6z"
		/>
	<path class="st8" d="M380.1,184.9c0,0,4.3,2.2,5.8,4.9c1.5,2.7,4.6,3.6,4.8,8c0,0,1.9-9.8-3.3-14
		C381.8,179.3,380.1,184.9,380.1,184.9z"/>
	<path class="st3" d="M371.1,462c0,0,0.6,4.2-1,8.7c0,0-1.2,5.6,4.3,5.7c5.5,0.1,6.9-0.4,6.3-3.9s-1.8-9.4-1.8-9.4L371.1,462z"/>
	<path class="st19" d="M370.1,470.7c0,0-1,5.3-0.4,8.1c0,0,1.7,1.3,5.7,1.3c3.8,0,5.8-1.3,5.8-1.3s0.1-5.8-0.9-8.3
		C380.4,470.6,376.4,476.5,370.1,470.7z"/>
	<path class="st3" d="M463.2,473.1c0,0-10.2-11.4-13.4-17.1l-7.6,3.9l17,16l4-0.5L463.2,473.1z"/>
	<path class="st19" d="M469.8,479.8c0,0-11,0-12.9-0.2s-3.4-2.9-5.5-7c-0.8-1.7-2.7-2.6-4.6-3.1v9.5h-2.9l-2.8-10.1
		c-1.8-3.3-0.1-6.4,1.1-9c1.5,0,5.5,1,13,9.5c2.5,2.8,5.2,3.8,8,3.7c0,0,0.1,0,0.1,0.1C469.6,476,469.8,479.8,469.8,479.8z"/>
	<path class="st20" d="M441.8,452.2c-0.7,0-1.3,0.1-1.9,0.1c-1.5,0-4.1-0.5-5.9-1l-0.1,0l-1.6-0.4l-0.1,0c0,0-18.5-20.6-28.9-53.6
		c-0.2-0.8-0.5-1.5-0.8-2.3c-5.7-16.5-17.5-37.3-23.6-56.1c-1-3-1.9-5.8-2.7-8.5c-0.3-0.9-0.5-1.7-0.7-2.5l6.6-5
		c0,0,19.8,32.1,25.9,62.2C413.1,410.1,435,442.5,441.8,452.2z"/>
	<path class="st18" d="M382.8,387.9c0.1,14.7-0.6,48.4-2.5,62.4c0,0-1.8,1.6-6.3,1.6c-4.6,0-6.7-1.7-6.7-1.7
		c-4.8-24.3-8.2-44.4-10.7-61.7c-2-14.2-3.9-26.4-5.2-36.9c-1.2-9.3,6.6-34.5,6.6-34.5l29.3-2.9C386.7,340,382.7,379.3,382.8,387.9z
		"/>
	<path class="st20" d="M373.9,451.9c-3.9,0.2-6.7-1.7-6.7-1.7c-4.8-24.3-8.2-44.4-10.7-61.7c-2-14.2-3.9-26.4-5.2-36.9
		c-1.2-9.3,6.6-34.5,6.6-34.5l9.9,6.4c0,0-14.1,12.8-10.6,37C360.7,384.7,369.1,448.4,373.9,451.9z"/>
	<path class="st12" d="M420,296.9c-1.8,0.6-3.9,1-5.9,1.3c-3.2,0.5-6.4,0.8-8.4,1.7c-6,2.7-20.5-77.4-20.5-77.4s10.6,0.1,15.4,7.7
		c4.9,7.6,23.7,45.4,25.4,57.5C426.7,293.1,423.9,295.6,420,296.9z"/>
	<path class="st12" d="M441.8,404.9c0,0-1,2.4-3.6,5.8c-1.3,1.7-3.1,3.6-5.3,5.6c-5.9,5.2-15.4,10.9-30,13.8
		c-0.8,0.1-1.6,0.3-2.4,0.4c-4.4,0.7-8.6,1.2-12.6,1.6c-8.2,0.7-15.5,0.8-21.8,0.5c-4.3-0.2-8.1-0.5-11.2-1c-7.1-0.9-11.2-2-11.2-2
		s0-72.4,6-115.3c3.3-23.8,14.4-91.5,14.4-91.5l5.5-0.9l13.2,29.4l2.6-28.9l6,1.9c3,0.9,5.2,3.4,6,6.4L441.8,404.9z"/>
	<g>
		<polygon class="st13" points="399.2,293.7 368.6,290.6 373.6,246.2 404.2,249.4 		"/>
		<polygon class="st21" points="373.6,246.2 371.6,246.1 367,290.4 368.6,290.6 		"/>
	</g>
	<path class="st3" d="M347.9,269.1c0,0,21.5,6.6,42.1,9.5c0,0,6.8,2.9,3.6,3.7c-0.8,0.2-42,9.2-48.1,3.4L347.9,269.1z"/>
	<path class="st12" d="M369.4,222c0,0-16.1,1.9-18.8,5.2c-8.6,10.3-16.3,54.1-9.6,64.2c8,12.1,20.4-6.9,24.2-18.1
		C367.2,267.5,370.5,232.5,369.4,222z"/>
	<path class="st3" d="M387.9,278.3c0,0,2.5-0.2,3-1c1-1.6,2.5-1.6,3.7-1.8c1.3-0.2,2.7-1.6,2.9-1.3s-0.9,1.8-1.6,2.4
		c0,0,1.4,0.1,2.2-0.4c0.9-0.4,4-4,4.1-2.5c0,3.7-0.2,4.3-3.5,7c-2.6,2.2-11.5,3-11.5,3L387.9,278.3z"/>
	<path class="st4" d="M369.3,268.1l-0.6,6.3c-1-0.2-2.1-0.6-3.5-1.1c-8.8-3.5-5.3-21.1-5.3-21.1
		C361.2,259.3,365.6,264.7,369.3,268.1z"/>
	<path class="st12" d="M390.4,184.2c0,0-13-4.9-31.2,9.9l0.4-3.4c0.3-3,1.9-5.8,4.3-7.6c2.8-2.1,7.2-4.3,13.8-5.2
		c4.5-0.6,9.1,1.3,11.7,5L390.4,184.2z"/>
	<path class="st4" d="M420,296.9c-1.8,0.6-3.9,1-5.9,1.3l-8.5-37.4C405.6,260.8,419.9,289.5,420,296.9z"/>
	<path class="st9" d="M381.5,208c0,0,0.8,1.6,2,1.6c1.2,0,4.3-0.3,4.6-0.6c0.2-0.3,0.8-2,0.8-2S383.8,206.9,381.5,208z"/>
</g>
<g>
	<path class="st3" d="M801.2,255.5c0,0-1.3-1.9-2.9-3.1c-1.5-1.2-3.2-3.4-2.7-4.1s5.1-4.1,5.1-4.1l2.5,6.1L801.2,255.5z"/>
	<polygon class="st4" points="841.1,184.3 881.4,168.4 904,190.1 865.7,205 	"/>
	<path class="st3" d="M819.2,270.4l-16-20.6l-1.9,5.7c0,0,16.4,37.4,24,33.9C828.7,287.8,819.2,270.4,819.2,270.4z"/>
	<path class="st22" d="M869.3,203.2c0,0-7.8,4.6-3,13.5c0,0-6.8-1.2-8.3-3.3c0,0,0.2,0.9,0.4,1.3c0,0-8-1-9.5-4
		c-3-6.2,4.3-5.8,7.5-12.2c4.2-8.4,10.7-14.9,20-10.3c0,0,13-0.7,7.1,15.9c-5.9,16.6-0.3,18.1-0.3,18.1s-1.7,0.4-2.5,0.1
		c0,0-1-0.7-1-1.4c0,0,0,1,0.2,1.4c0,0-6.1-1-8.5-4.1C868.9,215.3,867.5,206.5,869.3,203.2z"/>
	<path class="st3" d="M858,230C858,230,858,230,858,230C857.9,230,857.9,230,858,230z"/>
	<path class="st3" d="M877,224.5c0.2,2.1,0.5,3.9,0.6,4.8c0.1,0.6,1.5,11.9-1.1,12c-2.6,0.1-9.1,13.4-12,13.3
		c-3.3-0.1-6.2-24.6-6.6-24.6c0.8-0.4,3.4-8.4,4.2-11.5c1-3.7,1.7-7.8,1.7-7.8l13.2,0.8l0.8,0.1c-0.5,1.8-0.8,3.5-1.1,5.1
		c0,0.2-0.1,0.4-0.1,0.6C876.5,219.1,876.7,222,877,224.5z"/>
	<path class="st22" d="M862.1,209.4c0,0-2.1-6.8-1.7-12c0.3-3.7,6.2-14.3,19-8.9c0,0,3.1-0.7,6.1,2.7c2.4,2.7,5.4,8-2.3,18.3
		l-2.2,3.6L862.1,209.4z"/>
	<path class="st23" d="M877,224.5c-9.2-2.7-13.2-13.4-13.2-13.4c3.9,0.1,9,2.8,13,5.6c0,0.2-0.1,0.4-0.1,0.6
		C876.5,219.1,876.7,222,877,224.5z"/>
	<path class="st3" d="M877.7,220.8c0,0-16.7-4.1-14-14.5c2.7-10.4,2.4-17.9,13.2-15.7c10.8,2.2,11.8,6.7,11.7,10.4
		C888.6,204.6,882.1,221.6,877.7,220.8z"/>
	<path class="st22" d="M884.5,192.3c0,0-7.8,11-15.2,10.9c-7.5-0.1-10-2.7-10-2.7s6.5-2.8,9.6-10
		C868.9,190.5,882.6,185.6,884.5,192.3z"/>
	<path class="st22" d="M883.2,193c0,0,2.7,3.6,2.8,6.5s-0.9,8.4,0.7,8.6c0,0,5.6-7.4,3-13.1C886.9,189,883.2,193,883.2,193z"/>
	<path class="st22" d="M883.7,193.6c0,0-6.6,11.9-16.5,13.6c0,0,10.9-5.5,13.9-13.7C884,185.3,883.7,193.6,883.7,193.6z"/>
	<path class="st9" d="M875.1,214.1c0,0,0.2,1.6,1.2,1.9c1,0.4,3.7,1.1,4,0.9s1.3-1.4,1.3-1.4S877.3,213.9,875.1,214.1z"/>
	<path class="st3" d="M868.8,372.7c-0.2,0.9-0.4,1.8-0.6,2.6c-1.3,5.2-2.4,10.1-3.2,14.2c-1,5.3-1.2,9.2,0.1,10.9
		c3.2,4.3,2.4,27.1,1.4,43.5c-0.6,9.8-1.4,17.3-1.4,17.3l-5.9,6.1c0,0-1.9-9.7-4.2-21.5c-3.2-15.8-7.2-35.4-8.8-40.2
		c-1.3-3.8-3.1-20-4.7-36.6c-0.1-0.8-0.2-1.7-0.2-2.5c-0.3-2.9-0.5-5.8-0.8-8.6c-1.5-15.7,0.7-30.4,0.7-30.4s7.7-6.3,17.6-7.2
		c5.8-0.5,11.3,1.4,14,8.5C876.5,339.3,872.5,357.3,868.8,372.7z"/>
	<path class="st23" d="M868.8,372.7c-8.1-5.9-19.5-16.2-23.6-33.3c-0.8-8.5,5.9-16.5,13.3-19.1c5.8-0.5,11.3,1.4,14,8.5
		C876.5,339.3,872.5,357.3,868.8,372.7z"/>
	<path class="st3" d="M898.3,269.7l39.8,10.3v4.6c0,0-39.6-0.5-42.1-4.9C893.4,275.4,898.3,269.7,898.3,269.7z"/>
	<path class="st3" d="M938.1,422.8l-1.9,7.7c0,0-8.2-4.2-18.7-9.7c-16.2-8.6-37.9-20.1-42.1-23.4c-2.8-2.1-6.5-13.8-9.9-27
		c-5.1-19.6-9.6-42.7-9.6-42.7s7.5-29,27.7-11.2c12.1,10.6,10.2,31.1,8.9,47c-0.9,10.7-1.5,19.3,2.5,21.6c5.8,3.2,19.7,15,29.5,26.4
		c3.5,4.1,6.5,8.2,8.5,11.9L938.1,422.8z"/>
	<path class="st3" d="M938.1,280c0,0,7.3-3.6,10.2-3.9c2.9-0.4,7.8-0.5,7.8,0s-5.2,3.7-6.6,3.9s-4.1,2.2-3.2,2.4s5.1-0.8,5.2,0
		c0.1,0.8-2.6,1.2-3.1,1.8c-0.5,0.6-2.1,1.3-4.7,0.9s-5.5-0.5-5.5-0.5V280z"/>
	<path class="st12" d="M938.1,389.4c-25.7,37-92,41.1-92,41.1c-10.8-39.3-6.3-138.6-3.9-175.5c-0.2-6.4,0.1-11.9,1.2-14
		c1.7-3.3,10.6-8.9,13.8-11.8c0,0,0.8-0.3,1.4-0.4c0.5,1.7,6.5,22,7,21.5c0.6-0.4,10.7-19.7,11.7-21.9c1.1,0,1.8,0.1,2,0.1
		c1.8,0.1,11.4,2,12.2,3.6c0.3,0.5,3,7.8,6.5,17.5c0,0,0,0,0,0c6.5,18.1,16,14.7,19.8,20.1c2.4,3.4,1.3,9.7-3,15.1
		c-0.4,0.5-0.8,0.9-1.2,1.4c-3.3,3.5-7.9,5.6-15.3,4.5c-1.8-0.3-5.6-2-8.6-4.7C897,313.4,938.1,389.4,938.1,389.4z"/>
	<path class="st24" d="M859.1,228l-3.5,2c0,0,9.5,26.9,10,26.7s14.7-28,14.7-28l-2.9-1.2l-11.7,23L859.1,228z"/>
	<path class="st12" d="M888.7,193.4c0,0-12.2-6.8-32.3,5.2l0.9-3.3c0.8-2.9,2.7-5.5,5.4-6.9c3-1.6,7.7-3.2,14.4-3.1
		c4.6,0,8.8,2.6,10.9,6.7L888.7,193.4z"/>
	<g>
		<g>
			<path class="st5" d="M828,202.1l-0.3-1c10.8-3.2,13.1-14.4,13.5-17c0-0.3,0.3-0.6,0.6-0.7l0,0c0.3-0.1,0.6,0.2,0.6,0.5
				C841.9,187,839.3,198.8,828,202.1z"/>
		</g>
		<polygon class="st6" points="827.7,201.1 826.3,201.1 826.8,202.9 828,202.1 		"/>
		<path class="st5" d="M826.3,201.1c0,0-2,0.6-2.4,0c0,0,0,1.7,0.7,2.1c0,0,1.6,0.1,2.3-0.4L826.3,201.1z"/>
	</g>
	<path class="st9" d="M859.8,230.4c0,0,3.2,5.8,15.8,0.5l-9.9,19.5L859.8,230.4z"/>
	<path class="st12" d="M855.6,230c0,0-1.7,55.6-15.4,66.4c-1,0.8-2,1.3-3.1,1.6c-6.9,1.8-12-2.4-15.4-8.1c-4.7-7.9-6.3-19-5.5-21.5
		c1.5-4.8,5,3.7,12.5,1.4c7.4-2.4,9.4-32.1,14.6-36.5C844.6,232.1,855.6,230,855.6,230z"/>
	<g>
		<path class="st5" d="M788.7,269.6c0,0-2.1-1.1-4-2.5c-0.9-0.7-1.8-1.4-2.4-2.1c-0.4-0.4-0.7-0.8-0.8-1.2c0,0,16.7-20.1,18.1-22.5
			c1.3-2.4,14-21.9,14-21.9s1.5,0.7,3.4,1.9c0.7,0.4,1.4,1,2.1,1.5c1.3,1.1,2.5,2.3,3.3,3.6c0,0-18.4,18.6-19.7,21.3
			C801.2,250.3,788.7,269.6,788.7,269.6z"/>
		<path class="st25" d="M784.6,267c-0.9-0.7-1.8-1.4-2.4-2.1c-0.4-0.4-0.7-0.8-0.8-1.2c0,0,16.7-20.1,18.1-22.5
			c1.3-2.4,14-21.9,14-21.9s1.5,0.7,3.4,1.9c0.7,0.4,1.4,1,2.1,1.5c-5.2,5.3-19.1,19.6-20.3,22.1C797.5,247.2,788.4,261.2,784.6,267
			z"/>
		<path class="st22" d="M801.9,237.2c0,0-4.9,4.8-5.5,8.1l5.2,4.1c0,0,4.5-4.4,6-7.7L801.9,237.2z"/>
	</g>
	<path class="st3" d="M803.1,249.8c0,0,0.3-3.2-0.4-4.4c-0.8-1.1-0.8-4.3-1.5-4c-0.7,0.3-0.2,2.9-0.7,4.2s-1.1,7.1,0.7,8.2
		C803,254.9,803.1,249.8,803.1,249.8z"/>
	<path class="st3" d="M798.1,241.7c0,0-2.1-0.3-2.8,1.1c-0.8,1.4-1.7,3.6-0.3,4.5C796.5,248,798.1,241.7,798.1,241.7z"/>
	<path class="st9" d="M866.4,443.9c-0.6,9.8-1.4,17.3-1.4,17.3l-5.9,6.1c0,0-1.9-9.7-4.2-21.5C855,445.8,861.6,448.1,866.4,443.9z"
		/>
	<path class="st4" d="M871,470l-3.2,1.7c-1.2,0.4-2.1,0.5-3.3,1c-1.8,0.7-3,2-3.1,2.3c-0.9,3.7-2.2,3.4-2.2,3.4l-12.8,0.1
		c-0.6-0.3,0.4-2.9,0.9-3.4c1.2-1.2,4.8-0.6,6.2-4.3c0.8-2.1,4.4-8.7,4.4-8.7l0,0c0.1-0.1,0.8-0.2,4.5,0.6c1.9,0.4,2.7-3.5,2.7-3.5
		s0.6,0.1,1.3,0.6c0.5,0.4,1.1,1,1.4,1.9c0.5,1.3,2.3,3.2,3.7,4.5c0.8,0.8,1.4,1.3,1.4,1.3S873.6,468.2,871,470z"/>
	<path class="st9" d="M938.1,422.8l-1.9,7.7c0,0-8.2-4.2-18.7-9.7c4.1-2.6,6.1-6.4,7-9.3c3.5,4.1,6.5,8.2,8.5,11.9L938.1,422.8z"/>
	<path class="st4" d="M948.8,425.8C948.8,425.8,948.7,425.8,948.8,425.8c-0.3-0.1-1.4-0.4-2.1-2.2c-0.5-1.2-0.6-2.1-1.1-3.3
		l-1.8-3.1c-1.9-2.5-2.6-1.9-2.6-1.9s-0.5,0.6-1.2,1.5c-1.2,1.4-3.1,3.3-4.4,3.8c-0.9,0.4-1.5,0.9-1.9,1.5c-0.5,0.7-0.6,1.3-0.6,1.3
		s3.9,0.7,3.6,2.6c-0.7,3.7-0.5,4.4-0.4,4.5l0,0c0,0,6.7,3.5,8.8,4.2c3.8,1.2,5.8,3.8,7,5c0.5,0.5,1.2,0.7,1.9,0.6
		c1-0.2,2.3-0.5,2.6-1.1L948.8,425.8z"/>
	<path class="st4" d="M863,267.6c0-1.1,0.9-1.9,1.9-1.9s1.9,0.9,1.9,1.9c0,1.1-0.9,1.9-1.9,1.9S863,268.7,863,267.6z"/>
	<path class="st4" d="M863,281.9c0-1.1,0.9-1.9,1.9-1.9s1.9,0.9,1.9,1.9c0,1.1-0.9,1.9-1.9,1.9S863,283,863,281.9z"/>
	<path class="st4" d="M914.8,284.8c-0.4,0.5-0.8,0.9-1.2,1.4c-3.3,3.5-7.9,5.6-15.3,4.5c-1.8-0.3-5.6-2-8.6-4.7c0,0-6.1-16.6-5.3-19
		c0.8-2.4,12.6,15.9,22.3,16.8C910.6,284.2,913.2,284.5,914.8,284.8z"/>
	<path class="st4" d="M843.1,271.9l-2.9,24.5c-1,0.8-2,1.3-3.1,1.6c-6.9,1.8-12-2.4-15.4-8.1c3.5,0.5,12.2,1.3,14-2.5
		C838.2,282.6,843.1,271.9,843.1,271.9z"/>
</g>
<g>
	<path class="st26" d="M675,138.5c0,0,3.5-3.1,4.3-5.3c0.8-2.2,0.7-5.8,0.7-8.2c0,0-1-0.4-1.3,0.8c-0.2,1.1-0.7,3.8-1.7,4.3
		c-1,0.5-3.1,0.5-3.6,3.2C672.9,135.9,675,138.5,675,138.5z"/>
	<path class="st26" d="M667.1,139c0,0-3.1-6.4-2.5-8.5c0.6-2.1,10.3-4.4,11.5-3.4c1.3,1,0,13,0,13L667.1,139z"/>
	<path class="st26" d="M768.5,332.6c0,0-0.5,5.3,1.4,7.8c1.8,2.5,2.8,4.8,3.5,3.7c0.6-1.1-1-5.1-0.5-5.1s2,4.8,2.8,6.2
		c0.8,1.5,2.4,3.8,3.4,2.6s-1-12.1-1.8-13.5c-0.8-1.4-2.6-4.5-2.6-4.5L768.5,332.6z"/>
	<polygon class="st4" points="702.2,172.7 739,152.1 763.6,182.6 730,198.9 	"/>
	<path class="st22" d="M717.7,182.4c0,0-0.8,3.3-2.9,4.5c-2.2,1.2,1.2,4.3,0.4,6.7s2.6,5.3,2.6,5.3l23.7,2.7c0,0,3.5-1.5,3.8-5.6
		c0.3-4.1,0.7-9.2,0.7-9.2l-10.4-7.9l-14.9,0.7L717.7,182.4z"/>
	<g>
		<path class="st5" d="M638,142.9c0,0-1.1-2.6-1.9-5.4c-0.3-1.3-0.6-2.6-0.7-3.8c0-0.7,0-1.2,0.1-1.8c0,0,30.6-6.3,33.6-7.5
			s29.3-10,29.3-10s0.9,1.8,1.7,4.3c0.3,0.9,0.6,2,0.8,3c0.4,1.9,0.7,4,0.4,5.8c0,0-31,3.7-34.2,5.2C664,134.4,638,142.9,638,142.9z
			"/>
		<path class="st25" d="M636.1,137.5c-0.3-1.3-0.6-2.6-0.7-3.8c0-0.7,0-1.2,0.1-1.8c0,0,30.6-6.3,33.6-7.5s29.3-10,29.3-10
			s0.9,1.8,1.7,4.3c0.3,0.9,0.6,2,0.8,3c-8.7,1.1-32.4,4.1-35.3,5.5C662.8,128.6,643.9,134.9,636.1,137.5z"/>
		<path class="st22" d="M674.3,122.6c0,0-8.2,0.8-11.1,3.4l1.7,7.7c0,0,7.5-0.8,11.3-2.7L674.3,122.6z"/>
	</g>
	<path class="st4" d="M681.7,478.5c0,0,0-4.9,0.7-6.5s3.3-8.3,3.3-8.3h10c0,0,1.9,6.1,2,8c0.1,2,0,6.8,0,6.8L681.7,478.5
		L681.7,478.5z"/>
	<path class="st4" d="M745.4,478.5c0,0,0-4.9-0.7-6.5s-3.3-8.3-3.3-8.3h-10c0,0-1.9,6.1-2,8c-0.1,2,0,6.8,0,6.8L745.4,478.5
		L745.4,478.5z"/>
	<path class="st26" d="M720.3,202.2c0,0-2,10.8-4.1,15.4l-12.1,5.9l17,33.5l23.3-21l-7.7-15.1c0,0-0.7-14.9,1.6-20.1
		C740.6,195.8,720.3,202.2,720.3,202.2z"/>
	<path class="st27" d="M720,203.7c0,0,2,8.3,8.2,9.1c6.2,0.8,8.6-5.9,8.6-5.9L720,203.7z"/>
	<path class="st26" d="M728,209.7c-4.4-0.8-11.7-7.9-10.6-15.3l1.8-11.4c0.4-2.7,2.6-4.6,4.9-4.2l17,2.6c2.3,0.4,3.8,2.8,3.4,5.5
		l-1.7,10.8C741.6,205.3,733,210.6,728,209.7z"/>
	<path class="st24" d="M683,308.5c0-1.3,1.7,53.2-0.9,84.1c-2.6,30.6,0,73.1,0,73.1s8.4,4.6,17.5,0c0,0,10-59,9.9-73.1
		c-0.1-15,10.8-81.8,10.8-81.8L683,308.5z"/>
	<path class="st24" d="M745,465.8c0,0-8.4,4.6-17.5,0c0,0-10-59-9.9-73.1c0-6.3-1.9-21.9-4.1-37.8c-3.1-21.7-6.7-44-6.7-44l38.8-2.4
		c0,0-3.2,53.7-0.6,84.2C747.6,423.2,745,465.8,745,465.8z"/>
	<g>
		<g>
			<path class="st28" d="M724.3,195.2c-1.7-0.2-4.9-1.1-5-4.1c0-0.9,0.2-1.6,0.8-2.2c0.6-0.6,1.6-0.8,2.6-0.7l5.1,0.8
				c1,0.1,1.6,0.5,1.9,1.1c0.5,1-0.2,2.3-0.5,2.9c-1.1,1.8-2.3,2.5-3.9,2.2C725.2,195.3,724.8,195.3,724.3,195.2z M722.6,188.6
				c-0.9-0.1-1.7,0.1-2.3,0.6c-0.5,0.4-0.7,1.1-0.7,1.9c0.1,1.5,1,2.6,2.9,3.3c1.4,0.5,2.8,0.6,2.8,0.6h0c1.4,0.2,2.5-0.4,3.5-2.1
				c0.2-0.4,0.9-1.6,0.5-2.5c-0.2-0.5-0.8-0.8-1.6-0.9L722.6,188.6z"/>
		</g>
		<g>
			<path class="st28" d="M736.1,197c-0.5-0.1-0.9-0.2-0.9-0.2c-1.5-0.2-2.5-1.3-3-3.3c-0.2-0.6-0.4-2.1,0.3-2.9
				c0.5-0.5,1.2-0.7,2.1-0.5l5.1,0.8c1,0.1,1.8,0.7,2.3,1.4c0.4,0.7,0.4,1.5,0.1,2.3C741.1,197.4,737.7,197.2,736.1,197z
				 M734.6,190.4c-0.8-0.1-1.5,0-1.8,0.4c-0.7,0.7-0.4,2.1-0.3,2.6c0.5,1.9,1.3,2.8,2.7,3.1h0c0,0,1.4,0.4,2.8,0.3
				c2-0.1,3.2-0.9,3.7-2.3c0.3-0.8,0.2-1.4-0.1-2c-0.4-0.6-1.1-1.1-2-1.2L734.6,190.4z"/>
		</g>
		<g>
			<path class="st28" d="M729,191.6c-0.1,0-0.1-0.1-0.2-0.1c0-0.1,0-0.2,0.1-0.2c0.1,0,2.2-0.6,3.8,0.6c0.1,0.1,0.1,0.2,0,0.3
				s-0.2,0.1-0.3,0C731.1,191.1,729.1,191.6,729,191.6C729.1,191.6,729,191.6,729,191.6z"/>
		</g>
	</g>
	<path class="st9" d="M724.5,223.5l-11.5-5c0,0-5.9,47.2,2,50.1c0,0,22.6-40.1,21.1-45.3L724.5,223.5z"/>
	<path class="st10" d="M717.3,215.6c0,0-3.2,0.6-4.9,2.2c0,0,2.5,8,9,10.4l2.8-4.6C724.2,223.5,718.8,221,717.3,215.6z"/>
	<path class="st10" d="M724.2,223.5c0,0,10.7-0.4,12.3-5.6c0,0,2.1,2.2,2.1,5.8c0,0-3.4,5.1-11.8,5.2L724.2,223.5z"/>
	<path class="st14" d="M725,201.7c0,0,5.7,0.2,8.2,1.3c0,0-1.7,2.1-4,1.7C727,204.3,725.4,203.2,725,201.7z"/>
	<path class="st26" d="M684.8,184.9c-5.2,3.2-12.2,7.7-18,11.1c-0.3-1-0.5-1.9-0.6-2.6c-1.9-12.2,0.9-54.4,0.9-54.4s1.9-1,3.9-1.1
		c3.7-0.3,5.2,2.2,5.2,2.2S682.6,177.2,684.8,184.9z"/>
	<path class="st12" d="M776.1,331.8l-3.9,1.6c-6.2,2.2-12.9-0.8-15-7.1c-2.7-8.5-3-17.6-4-25.1c-0.5-3.7-1.1-11.3-3.3-17.2v0
		l3.9,131.3c-58.6,4.1-87.2-29.5-87.2-29.5c-1.5-35.5,12.7-115.6,17.9-143.4c-2.5-5.6-20.2-21.8-23.2-37.7
		c-1.4-7.4,2.9-12.6,8.2-16.1c6.6-4.4,14.6-6.2,14.6-6.2l18.9,25.3c0.8,0.9,1.4,1.6,1.6,2.1c1.5,3,9,7.9,9,7.9
		c0,0.2,0.8,42.7,2.4,44c2.2-0.9,17.2-30.8,20.5-40.7c4.8,1.3,9.9,3.1,15.3,5.5c0,0,10.2,5.5,11.7,29.3
		c1.2,20.2,13.6,46.1,16.4,69.5C780.3,328,778.7,330.7,776.1,331.8z"/>
	<path class="st22" d="M711.6,216.2c0,0,1.4,41.2,3.2,51.5l26.3-45.4l-3.6-1.3l-20.8,37.6l-2-40.9L711.6,216.2z"/>
	<path class="st9" d="M717.3,214.6c0,0-3.2,0.6-4.9,2.2c0,0,2.5,8,9,10.4l2.8-3.6C724.2,223.5,718.8,220,717.3,214.6z"/>
	<path class="st9" d="M724.2,223.5c0,0,10.7-1.4,12.3-6.5c0,0,2.1,2.2,2.1,5.8c0,0-3.4,5.1-11.8,5.2L724.2,223.5z"/>
	<circle class="st4" cx="710.4" cy="272.1" r="1.9"/>
	<path class="st4" d="M704.8,289.6c0-1.1,0.9-1.9,1.9-1.9s1.9,0.9,1.9,1.9s-0.9,1.9-1.9,1.9S704.8,290.7,704.8,289.6z"/>
	<g>
		<g>
			<path class="st5" d="M704.9,192.1l0.6-0.6c-6.5-6.9-3.5-16-2.7-18.1c0.1-0.3,0-0.6-0.2-0.8l0,0c-0.2-0.2-0.5-0.1-0.7,0.1
				C701.2,175.2,698.1,184.9,704.9,192.1z"/>
		</g>
		<polygon class="st6" points="705.5,191.4 706.6,192.1 705.5,193.1 704.9,192.1 		"/>
		<path class="st5" d="M706.6,192.1c0,0,1.2,1.2,1.8,1c0,0-0.7,1.2-1.4,1.3c0,0-1.2-0.6-1.5-1.2L706.6,192.1z"/>
	</g>
	<path class="st22" d="M718.2,184.9c0,0,4.5,0.3,5.9-2c0,0,3.7,0.9,5.3-0.5c0,0,5.7,1.1,5.9-1.1c0,0,4.4,8.7,9.1,6.9
		c4.8-1.8-7.6-10.7-7.6-10.7l-16.3,2.2L718.2,184.9z"/>
	<path class="st12" d="M718.6,178.4l-0.9,4.1c0,0,12.7-4.5,28.2,4.5l-0.2-6.5c0-1.3-0.6-2.5-1.6-3.3c-2.8-2.3-9.5-6.8-21.9-3.2
		C720.4,174.4,719,176.6,718.6,178.4z"/>
	<path class="st26" d="M663.1,128.4c0-0.2-0.9-2,0.3-3.6s8.7-4.1,9.4-2.8s0.3,5.9-2.2,6.9C668.2,129.9,663.3,129.4,663.1,128.4z"/>
	<path class="st4" d="M684.5,242.4c-2.5-5.6-20.2-21.8-23.2-37.7c-1.4-7.4,2.9-12.6,8.2-16.1c0,0-2.5,11.2,4.5,21.2
		C681,219.9,684.5,242.4,684.5,242.4z"/>
	<path class="st4" d="M772.2,333.4c-6.2,2.2-12.9-0.8-15-7.1c-2.7-8.5-3-17.6-4-25.1c-0.5-3.7-1.1-11.3-3.3-17.2
		c0.2,0.3,7,11,13,28.2C769.1,329.8,767.2,332.3,772.2,333.4z"/>
</g>
<path class="st29" d="M1010,478.2h-33c-1.8-1.5,1.2-4.9,4.4-5.1c1.4-0.1,3.1,0.2,5,0.6c0.5-6,3-33.2,12.8-32.1c11,1.2,0,12-3.1,18.3
	c-2.3,4.7-4.7,11.5-5.8,14.6c0.9,0.2,1.8,0.4,2.8,0.6c1.5-4.5,6.9-19.5,13.8-18.7c8.1,1,4.8,7.1-0.9,10.6c-4.2,2.6-9.4,6.4-11.8,8.2
	c2.1,0.3,4.3,0.6,6.5,0.5C1006.2,475.7,1008.9,477.3,1010,478.2z"/>
<g>
	<path class="st29" d="M172,478.2c0,0-15.2-41.9-25.9-38.3C135.3,443.5,172,478.2,172,478.2z"/>
	<path class="st29" d="M166.1,478.2c-1.3,0-25.6-25.2-27.2-18.6C137.3,466.2,166.1,478.2,166.1,478.2z"/>
	<path class="st29" d="M192.1,478.2c0,0-10.1-9.2-22.8-6.8c-12.7,2.4-18.2,5-26.2,3.2s-12.1,3.6-12.1,3.6L192.1,478.2L192.1,478.2z"
		/>
</g>
<g>
	<path class="st3" d="M542.6,374c2.3-3.7-17.4-44.3-6.8-66.9c1.3-2.8,25.9,1.4,25.9,1.4s5,57.1,2.2,72.2c-2,10.7-5.9,42.2-8,59.8
		c0,0.1,0,0.1,0,0.2c-0.5,4.2-0.9,7.6-1.2,9.7c-0.2,1.6,0,3.2,0.5,4.7c1.6,4.3,5,13.2,6.7,14.4c0,0-9.3,2.7-11.1,1.6
		c-1.8-1-6.3-17.5-6.3-17.5c0.8-1.5,1.1-3.3,0.8-5c-0.3-2.2-0.9-5.7-1.5-10.1l0,0l0,0C535.8,406,537,382.8,542.6,374z"/>
	<path class="st3" d="M490,446.9c1.3-1.1,2.2-2.7,2.5-4.4c0.5-2.2,1.2-5.7,2.2-9.9l0,0c4-33.2,13.3-54.6,21.7-60.8
		c3.5-2.6-0.6-47.6,17.3-65c2.2-2.2,23.8,10.5,23.8,10.5s-15.5,55.2-23.5,68.4c-5.6,9.3-20.4,37.4-28.6,53.1l0,0l0,0
		c-2,3.8-3.6,6.9-4.6,8.8c-0.7,1.4-1.1,3-1.1,4.6c0,4.6-0.7,16.8,1.1,17.9c1.1,0.7,2.1,1.4,2.9,2.1c0,0-8.5-0.7-9.5-0.8
		c-1,0-7.5-20.4-7.7-20.8l0,0C487.7,449,489,447.8,490,446.9z"/>
	<polygon class="st4" points="482.2,458 480,470.5 481.2,471.3 487.9,461.6 	"/>
	<path class="st12" d="M482.4,458.9c7.3,3.8,8.4,16.6,9.5,19.3l13.3,0c2-0.7,1.2-3.5-1.7-6.2c0,0-8.5-0.7-9.5-0.8
		c-1,0-7.5-20.4-7.7-20.8C483.3,453.8,480.4,457.8,482.4,458.9z"/>
	<path class="st24" d="M494.1,416.6c0.6,16,32.3,12.9,32.3,12.9l4.2-20.3l2.8-13.5l0.9-4.5l-1.4-0.7l-20.2-9.6l-6.3-3l-0.3,0.8
		l-10.9,34.1v0L494.1,416.6z"/>
	<path class="st30" d="M495.2,412.9c9.2-9.4,35.4-3.7,35.4-3.7l2.8-13.5l-0.5-5.1l-20.2-9.6l-6.6-2.2L495.2,412.9L495.2,412.9z"/>
	<polygon class="st4" points="542.1,466.3 543.8,478.2 545.8,478.2 546.7,469 	"/>
	<path class="st12" d="M542.1,466.3c4,1.9,8.5,9.8,10.5,11.9l16.8,0.1c2.1-1.7-5.2-7.3-7.5-8.9c0,0-9.3,2.7-11.1,1.6
		c-1.8-1-6.3-17.5-6.3-17.5C542.5,457.4,539.1,464.9,542.1,466.3z"/>
	<path class="st24" d="M534.3,385.4l4.2,45.8c7.8,9.8,28.3,3.8,28.3,3.8s1.6-37.9,2.3-39.4l-3-0.9L534.3,385.4z"/>
	<path class="st30" d="M534.3,385.4l4.2,45.8c0.2-22.6,29.4-20.3,29.4-20.3l-1.8-16.1L534.3,385.4z"/>
	<polygon class="st4" points="570.1,170.1 527.2,153.1 503.3,176.2 544,192.1 	"/>
	<path class="st8" d="M550,177.9c0,0,0.1,5.1,3.8,6.7c7.8,3.3,0.4,7.1,8,12.5c1.8,1.2,3,8.9-9.1,10.1c-12.1,1.1-13.6,2.2-13.6,2.2
		s-9,5.8-18.9-0.2c-5.8-3.4,1.5-13-1.2-15.4c-3.6-3.3-4-14,1.2-18.4c5.2-4.4,13.5-7,13.5-7L550,177.9z"/>
	<g>
		<g>
			<path class="st5" d="M584,189l0.3-1.1c-11.5-3.4-13.9-15.3-14.3-18.1c0-0.4-0.3-0.6-0.7-0.7l0,0c-0.3-0.1-0.7,0.2-0.6,0.6
				C569.2,172.9,572,185.4,584,189z"/>
		</g>
		<polygon class="st6" points="584.3,187.9 585.8,187.9 585.2,189.8 584,189 		"/>
		<path class="st5" d="M585.8,187.9c0,0,2.1,0.6,2.5,0c0,0,0,1.8-0.7,2.2c0,0-1.7,0.1-2.4-0.4L585.8,187.9z"/>
	</g>
	<path class="st3" d="M552.6,210.3c-0.8-0.1-3.4-2.2-4.6-5.3c-1.4-3.8-2.6-7.9-2.6-7.9l-3.7,0.6l-9.9,1.6l-0.8,0.1
		c0.8,2.1,1.4,4.1,1.8,5.9c0.8,3.3,1,6.1,0.9,8.2c-0.1,2.1-1.2,2.7-1.8,3.1c-0.3,0.2,10.5,35.5,15.7,33.7
		C552.1,248.8,553.1,210.2,552.6,210.3z"/>
	<path class="st23" d="M533.7,213.5c6-2.4,11.7-16.4,11.7-16.4c-1.2-0.1-2.5,0.1-3.7,0.6c-3.3,1.3-6.7,4.5-8.9,7.6
		C533.6,208.6,533.8,211.4,533.7,213.5z"/>
	<path class="st3" d="M529.9,207.8c0,0,17.8-2.9,15.8-13.9c-2-11-1-18.8-12.4-17.4c-11.4,1.4-12.9,6-13.1,9.8
		C519.9,190.1,525.2,208.3,529.9,207.8z"/>
	<path class="st3" d="M528.3,218.1c0,0-30-9-32.1-11.5c-2.1-2.5-7.3-35.8-7.3-40.6l-4.4,0.6c0,0-3.2,37.9,0.5,46.4
		c3.7,8.6,41.5,22.1,41.5,22.1L528.3,218.1z"/>
	<path class="st24" d="M551.7,209.9c0,0-3.7,11.5-18.1,4.2l15.1,33.3l4-29.7L551.7,209.9z"/>
	<path class="st3" d="M564,213.2c0,0-1.8,6,32.9,24.9l25.6-17.5l3.1,2.6c0,0-24.5,29.6-28.4,28.9c-3.8-0.6-30.2-18-30.2-18
		L564,213.2z"/>
	<path class="st12" d="M469.7,361.1c0,0,0.9,3,3.1,7.3c3.7,7.4,10.9,18.7,23.1,25.5c13.8,7.7,58.3,22.4,88.9,15.3
		c0,0-2.9-96.8-9.3-136.6c-0.2-0.9-0.3-1.8-0.5-2.7c1.9,7.1,11.4,9.5,15.4,8.2c8.6-2.9,11.6-9.6,12-16.7c0.6-10.9-4.9-22.8-5.5-23.1
		c-14.1-8-16.8-20.8-23.6-25.3c-6.1-4.1-20.8-3-21.5-2.9l-3.2,31.8l-14.9-27.6c0,0-24-2.1-37.4-7.6c0,0-40.1,55.5,9.6,54.8
		c0,12.8-6,24.4-11.7,41.7C488.4,320.1,469.7,361.1,469.7,361.1z"/>
	<path class="st9" d="M533.8,199.8c0,0-0.2,1.8-1.3,2.2c-1.1,0.4-4.2,1.3-4.5,1.1s-1.5-1.6-1.5-1.6S531.2,199.6,533.8,199.8z"/>
	<path class="st3" d="M489,166c0,0,1.8-1.3,0.9-4.8c-0.6-2.3-0.2-4.2-0.7-4.2c-0.5,0.1-0.9,3.1-1.2,3.9c-0.3,0.6-4.2-6.9-5.3-6.3
		s-3,3.6,1.8,13.9L489,166z"/>
	<path class="st3" d="M622.4,220.6c0,0,2.7-6.5,3.6-7.8c1.8-2.6,6.9-4.3,7.2-3.1c0.3,1.2-3.3,2.9-3.4,5.6c0,0.8,1.5-0.7,2.4-1.3
		c0.6-0.3,0.9-0.1,0.6,0.4c-1.5,2.2-2.3,4.4-3.8,5.3s-3.7,3.5-3.7,3.5L622.4,220.6z"/>
	<polygon class="st31" points="551.7,209.9 548.5,241.7 533.7,213.5 528.3,213.5 550.1,253.2 555.7,209.7 	"/>
	<path class="st8" d="M522.6,176.9c0,0-5.2,6.1,11.2,9.1c5.3,1,7.9,6.1,6.5,10.4c-2.1,6.4,3.2,13.2,11.2,10.8c6.3-2-4-31.4-9.6-31.9
		C536.2,174.8,522.6,176.9,522.6,176.9z"/>
	<path class="st8" d="M528.3,178.3c0,0-5.3,3.8-5.7,6.8s-1.7,7.4-3.7,4.3s-2.3-7.2,0-10c2.3-2.8,7.6-4.1,8.7-3.1
		C528.8,177.3,528.3,178.3,528.3,178.3z"/>
	<path class="st12" d="M519,176.5c0,0,10.1-8.7,31.4,4.1l0.3-5.3c-0.8-3.1-1.8-3.1-4.7-4.6c-3.2-1.7-8.2-3.4-15.3-3.3
		c-4.9,0-7.7-0.6-9.9,3.8L519,176.5z"/>
	<g>
		<path class="st5" d="M652.2,237c0,0,1.9-2.1,3.5-4.4c0.8-1.1,1.5-2.3,1.9-3.3c0.3-0.6,0.4-1.2,0.5-1.7c0,0-26.7-16.2-29.1-18.3
			S604.8,190,604.8,190s-1.5,1.4-3.1,3.5c-0.6,0.8-1.2,1.6-1.8,2.6c-1.1,1.7-2,3.6-2.3,5.4c0,0,28,13.8,30.5,16.3
			C630.6,220.3,652.2,237,652.2,237z"/>
		<path class="st25" d="M655.7,232.6c0.8-1.1,1.5-2.3,1.9-3.3c0.3-0.6,0.4-1.2,0.5-1.7c0,0-26.7-16.2-29.1-18.3
			c-2.4-2.1-24.2-19.2-24.2-19.2s-1.5,1.4-3.1,3.5c-0.6,0.8-1.2,1.6-1.8,2.6c7.9,3.9,29.1,14.7,31.5,17
			C633.6,215.3,649.2,227.5,655.7,232.6z"/>
		<path class="st22" d="M624.8,205.8c0,0,7.4,3.5,9.3,6.9l-4.2,6.7c0,0-6.8-3.2-9.7-6.4L624.8,205.8z"/>
	</g>
	<path class="st3" d="M629.1,219.6c0,0,1.9-0.8,3-2.2s2.7-3.7,0.8-3.1c-1.9,0.6-5.2,2.9-6.5,3.2s-0.8,1.2-0.9,1.5
		C625.4,219.3,629.1,219.6,629.1,219.6z"/>
	<path class="st4" d="M469.7,361.1c0,0,0.9,3,3.1,7.3c8-8.5,19.2-22,27-38.3c13.5-28.1,6-68.7,6-68.7c0,12.8-6,24.4-11.7,41.7
		C488.4,320.1,469.7,361.1,469.7,361.1z"/>
	<path class="st4" d="M552.7,264.7c0-0.7-0.6-1.3-1.3-1.3s-1.3,0.6-1.3,1.3s0.6,1.3,1.3,1.3S552.7,265.4,552.7,264.7z"/>
	<path class="st4" d="M552.7,289c0-0.7-0.6-1.3-1.3-1.3s-1.3,0.6-1.3,1.3s0.6,1.3,1.3,1.3S552.7,289.8,552.7,289z"/>
	<path class="st4" d="M575.4,272.4c-0.2-0.9-0.3-1.8-0.5-2.7c1.9,7.1,11.4,9.5,15.4,8.2c8.6-2.9,11.6-9.6,12-16.7
		c-0.9,0.5-14.9,7.6-21.4,3.4c-6.6-4.3-10.7-14-10.9-14.3L575.4,272.4z"/>
</g>
<g>
	<path class="st32" d="M857.3,141.6c0,0-3.9,3-8.5,2.7c-3.4-0.2-6.8-3.1-7-3.3l-2.5,4.8c0,0,6.3,3.4,11.5,2.2
		c1.6-0.4,4.1-2.1,5.2-3.4C857.4,143.2,857.3,141.6,857.3,141.6z"/>
	<path class="st33" d="M856.8,132l6.6-3.1c0,0-0.3,14-11.6,18.8C851.7,147.7,858.6,137.8,856.8,132z"/>
</g>
<g>
	<path class="st32" d="M158.4,269.1c0,0-3.9,3-8.5,2.7c-3.4-0.2-6.8-3.1-7-3.3l-2.5,4.8c0,0,6.3,3.4,11.5,2.2
		c1.6-0.4,4.1-2.1,5.2-3.4C158.5,270.7,158.4,269.1,158.4,269.1z"/>
	<path class="st33" d="M157.9,259.4l6.6-3.1c0,0-0.3,14-11.6,18.8C152.8,275.1,159.7,265.2,157.9,259.4z"/>
</g>
<g>
	<path class="st34" d="M688.5,50.5c0,0,9.6-6.7,16.8,3.3l7.9-3.4c0,0-3.9-6.2-19.2-3.4C684,48.7,688.5,50.5,688.5,50.5z"/>
	<path class="st35" d="M679.1,57c0,0,2.6-10.8,22.2-10.8c0,0-7.4,0.7-13.1,10.2L679.1,57z"/>
</g>
<path class="st36" d="M625.7,93.7c0,0-5.3-3.3-5.8-7.4c0,0-5.2,0.3-6.3,1.9c0,0,2.4,6.7,5.2,7.9C618.8,96.2,625,96.7,625.7,93.7z"/>
<path class="st36" d="M976.4,375.2c0,0-5.3-3.3-5.8-7.4c0,0-5.2,0.3-6.3,2c0,0,2.4,6.7,5.2,7.9C969.4,377.7,975.7,378.1,976.4,375.2
	z"/>
<path class="st36" d="M113.1,365.8c0,0-5.3-3.3-5.8-7.4c0,0-5.2,0.3-6.3,2c0,0,2.4,6.7,5.2,7.9C106.1,368.3,112.4,368.7,113.1,365.8
	z"/>
<text transform="matrix(1 0 0 1 1091.5004 180.7654)"><tspan x="0" y="0" class="st37 st38 st39">Achieve </tspan><tspan x="0" y="96" class="st37 st38 st39">your</tspan><tspan x="0" y="192" class="st37 st38 st39">Goals</tspan></text>
<rect x="1072.6" y="121.6" class="st37" width="3.2" height="267.7"/>
</svg>
