<?xml version="1.0" encoding="utf-8"?>
<!-- Generator: Adobe Illustrator 25.0.0, SVG Export Plug-In . SVG Version: 6.00 Build 0)  -->
<svg version="1.1" id="Layer_1" xmlns="http://www.w3.org/2000/svg" xmlns:xlink="http://www.w3.org/1999/xlink" x="0px" y="0px"
	 viewBox="0 0 1536 500" style="enable-background:new 0 0 1536 500;" xml:space="preserve">
<style type="text/css">
	.st0{fill:url(#SVGID_1_);}
	.st1{opacity:0.6;fill:#A1A3B2;enable-background:new    ;}
	.st2{fill:#A7A9AC;}
	.st3{fill:#891815;}
	.st4{fill:#A0481C;}
	.st5{fill:#723216;}
	.st6{opacity:0.2;}
	.st7{fill:#0B2025;}
	.st8{fill:#314444;}
	.st9{fill:#351E11;}
	.st10{fill:#4E6566;}
	.st11{fill:#FFA969;}
	.st12{fill:#333A70;}
	.st13{opacity:0.5;}
	.st14{opacity:0.4;}
	.st15{fill:#FFFFFF;}
	.st16{fill:#E33B0F;}
	.st17{fill:#FF8A54;}
	.st18{fill:#C66340;}
	.st19{fill:#58595B;}
	.st20{fill:#211F1F;}
	.st21{fill:#C96335;}
	.st22{fill:#FBC41C;}
	.st23{opacity:0.4;fill:#4E6566;enable-background:new    ;}
	.st24{fill:#0891C1;}
	.st25{fill:#C9E2DC;}
	.st26{fill:#E2E0C5;}
	.st27{fill:#353C4F;}
	.st28{fill:#AF6127;}
	.st29{fill:#678484;}
	.st30{fill:#E44B1A;}
	.st31{fill:#E4F4F0;}
	.st32{opacity:0.3;}
	.st33{fill:#18AED6;}
	.st34{opacity:0.4;fill:#353C4F;enable-background:new    ;}
	.st35{opacity:0.3;fill:#FFFFFF;enable-background:new    ;}
	.st36{fill:#8DCCDB;}
	.st37{fill:#7F4632;}
	.st38{fill:#C9320E;}
	.st39{fill:#EF4511;}
	.st40{fill:#DAEAE5;}
	.st41{fill:#F45F14;}
	.st42{fill:#D3380F;}
	.st43{fill:#0B5384;}
	.st44{fill:#117EC9;}
	.st45{opacity:0.3;fill:#005AA6;enable-background:new    ;}
	.st46{fill:#0C8C8C;}
	.st47{fill:#01A9B4;}
	.st48{fill:#894229;}
	.st49{fill:#ED9D11;}
	.st50{opacity:0.2;fill:#353C4F;enable-background:new    ;}
	.st51{fill:#F96921;}
	.st52{fill:#9E5B2E;}
	.st53{fill:#EA8913;}
	.st54{fill:#93B224;}
	.st55{fill:#323042;}
	.st56{opacity:0.4;fill:#231F20;enable-background:new    ;}
	.st57{fill:#324446;}
	.st58{fill:#FBB526;}
	.st59{fill:#F4A721;}
	.st60{fill:#DD7C12;}
	.st61{fill:#2294BC;}
	.st62{fill:#F5F1F1;}
	.st63{fill:url(#SVGID_2_);}
	.st64{fill:#383884;}
	.st65{font-family:'CalisMTBol';}
	.st66{font-size:80px;}
</style>
<linearGradient id="SVGID_1_" gradientUnits="userSpaceOnUse" x1="0" y1="827.9" x2="1536" y2="827.9" gradientTransform="matrix(1 0 0 1 0 -578)">
	<stop  offset="0" style="stop-color:#22BABC"/>
	<stop  offset="0.5375" style="stop-color:#94DEDE"/>
	<stop  offset="1" style="stop-color:#FFFFFF"/>
</linearGradient>
<rect class="st0" width="1536" height="499.8"/>
<path class="st1" d="M315,482.5c0,1.4,1.2,2.6,3,2.6h423.2c1.8,0,3.3-1.1,3.3-2.6l0,0c0-1.4-1.5-2.6-3.3-2.6H318
	C316.2,479.9,315,481.1,315,482.5L315,482.5z"/>
<g>
	<g>
		<path class="st2" d="M319.2,451.6c-0.1,0-0.2,0-0.3,0c-0.8-0.2-1.3-0.9-1.1-1.7c0,0,0.2-1.1,0.7-3.1c0.2-0.8,1-1.2,1.7-1.1
			c0.8,0.2,1.2,0.9,1.1,1.7c-0.5,2-0.7,3.1-0.7,3.1C320.4,451.1,319.8,451.6,319.2,451.6z"/>
	</g>
	<g>
		<path class="st2" d="M322.4,438.5c-0.1,0-0.2,0-0.4,0c-0.8-0.2-1.2-1-1-1.7c0.5-2,1.1-4,1.6-6c0.2-0.8,1-1.2,1.8-1s1.2,1,1,1.8
			c-0.6,2-1.1,4-1.6,5.9C323.6,438.1,323,438.5,322.4,438.5z M327,422.7c-0.1,0-0.3,0-0.4-0.1c-0.8-0.2-1.2-1-0.9-1.8
			c0.6-2,1.3-4,1.9-5.9c0.2-0.8,1.1-1.1,1.8-0.9c0.8,0.2,1.1,1.1,0.9,1.8c-0.6,1.9-1.3,3.9-1.9,5.8
			C328.1,422.3,327.6,422.7,327,422.7z M332.3,407.1c-0.2,0-0.3,0-0.5-0.1c-0.7-0.3-1.1-1.1-0.8-1.8c0.7-2,1.5-3.9,2.2-5.8
			c0.3-0.7,1.1-1.1,1.9-0.8s1.1,1.1,0.8,1.9c-0.7,1.9-1.5,3.8-2.2,5.7C333.4,406.8,332.9,407.1,332.3,407.1z M338.5,391.9
			c-0.2,0-0.4,0-0.6-0.1c-0.7-0.3-1-1.2-0.7-1.9c0.9-1.9,1.7-3.8,2.6-5.6c0.3-0.7,1.2-1,1.9-0.7s1,1.2,0.7,1.9
			c-0.9,1.8-1.7,3.7-2.6,5.6C339.6,391.6,339.1,391.9,338.5,391.9z M435.1,382c-0.5,0-1-0.3-1.3-0.8c-0.9-1.8-1.8-3.7-2.8-5.4
			c-0.4-0.7-0.1-1.5,0.6-1.9s1.5-0.1,1.9,0.6c1,1.8,2,3.7,2.9,5.5c0.3,0.7,0,1.6-0.7,1.9C435.5,382,435.3,382,435.1,382z
			 M345.8,377.2c-0.2,0-0.5-0.1-0.7-0.2c-0.7-0.4-0.9-1.2-0.5-1.9c1-1.9,2.1-3.7,3.1-5.4c0.4-0.7,1.3-0.9,2-0.5s0.9,1.3,0.5,2
			c-1,1.7-2.1,3.4-3.1,5.3C346.8,376.9,346.3,377.2,345.8,377.2z M426.9,367.8c-0.5,0-0.9-0.2-1.2-0.6c-1.2-1.7-2.4-3.3-3.6-4.8
			c-0.5-0.6-0.4-1.5,0.2-2s1.5-0.4,2,0.2c1.3,1.6,2.5,3.3,3.8,5c0.5,0.6,0.3,1.5-0.4,2C427.4,367.7,427.1,367.8,426.9,367.8z
			 M354.7,363.3c-0.3,0-0.6-0.1-0.9-0.3c-0.6-0.5-0.8-1.4-0.3-2c1.3-1.7,2.6-3.4,4-4.9c0.5-0.6,1.4-0.6,2-0.1s0.6,1.4,0.1,2
			c-1.3,1.5-2.6,3-3.8,4.7C355.6,363.1,355.1,363.3,354.7,363.3z M416.1,355.4c-0.3,0-0.7-0.1-1-0.4c-1.5-1.4-3.1-2.6-4.7-3.8
			c-0.6-0.5-0.8-1.4-0.3-2s1.4-0.8,2-0.3c1.7,1.2,3.3,2.5,4.9,4c0.6,0.5,0.6,1.4,0.1,2C416.9,355.2,416.5,355.4,416.1,355.4z
			 M365.9,351.4c-0.4,0-0.8-0.2-1.1-0.5c-0.5-0.6-0.4-1.5,0.2-2c1.7-1.4,3.5-2.6,5.2-3.7c0.7-0.4,1.5-0.2,2,0.5
			c0.4,0.7,0.2,1.5-0.5,2c-1.6,1-3.3,2.1-4.9,3.4C366.6,351.3,366.3,351.4,365.9,351.4z M402.4,346.5c-0.2,0-0.4,0-0.6-0.1
			c-1.8-0.8-3.7-1.4-5.6-1.9c-0.8-0.2-1.2-1-1-1.7c0.2-0.8,1-1.2,1.7-1c2,0.5,4.1,1.2,6,2c0.7,0.3,1.1,1.1,0.8,1.9
			C403.5,346.1,403,346.5,402.4,346.5z M380.4,343.9c-0.6,0-1.2-0.5-1.4-1.1c-0.2-0.8,0.3-1.5,1.1-1.7c2.1-0.5,4.2-0.7,6.4-0.8l0,0
			c0.8,0,1.4,0.6,1.4,1.4s-0.6,1.4-1.4,1.4c-1.9,0-3.9,0.2-5.8,0.7C380.6,343.9,380.5,343.9,380.4,343.9z"/>
	</g>
	<g>
		<path class="st2" d="M440.1,394.5L440.1,394.5c-0.6,0-1.2-0.4-1.4-1c0,0-0.3-1.1-1-3c-0.3-0.7,0.1-1.6,0.8-1.8
			c0.5-0.2,1.1,0,1.5,0.4c0.4-0.4,1-0.6,1.5-0.4c0.7,0.3,1.1,1.1,0.9,1.8c-0.7,1.9-1,3-1,3C441.3,394.1,440.8,394.5,440.1,394.5z"/>
	</g>
	<g>
		<path class="st2" d="M444.8,381.6c-0.2,0-0.4,0-0.5-0.1c-0.7-0.3-1.1-1.1-0.8-1.9c0.8-2,1.6-4,2.4-5.9c0.3-0.7,1.1-1.1,1.9-0.8
			c0.7,0.3,1.1,1.1,0.8,1.9c-0.8,1.9-1.6,3.9-2.4,5.8C445.9,381.2,445.4,381.6,444.8,381.6z M451.5,366.1c-0.2,0-0.4,0-0.6-0.1
			c-0.7-0.3-1-1.2-0.7-1.9c0.9-1.9,1.8-3.9,2.8-5.7c0.4-0.7,1.2-1,1.9-0.6c0.7,0.4,1,1.2,0.6,1.9c-0.9,1.9-1.8,3.8-2.7,5.7
			C452.5,365.8,452,366.1,451.5,366.1z M459.1,351c-0.2,0-0.5-0.1-0.7-0.2c-0.7-0.4-0.9-1.2-0.5-1.9c1-1.9,2.1-3.8,3.2-5.5
			c0.4-0.7,1.3-0.9,2-0.5s0.9,1.3,0.5,2c-1,1.7-2.1,3.6-3.1,5.4C460.1,350.8,459.6,351,459.1,351z M560.3,350.9
			c-0.5,0-1-0.3-1.3-0.8c-0.9-1.9-1.9-3.8-2.9-5.6c-0.4-0.7-0.1-1.6,0.6-1.9c0.7-0.4,1.6-0.1,1.9,0.6c1,1.8,2,3.8,2.9,5.7
			c0.3,0.7,0,1.6-0.7,1.9C560.7,350.9,560.5,350.9,560.3,350.9z M468,336.7c-0.3,0-0.6-0.1-0.8-0.2c-0.6-0.5-0.8-1.3-0.4-2
			c1.2-1.8,2.5-3.5,3.8-5.2c0.5-0.6,1.4-0.8,2-0.3s0.8,1.4,0.3,2c-1.2,1.6-2.5,3.3-3.7,5.1C468.9,336.5,468.4,336.7,468,336.7z
			 M552,336.2c-0.5,0-0.9-0.2-1.2-0.6c-1.2-1.8-2.3-3.5-3.5-5.1c-0.5-0.6-0.3-1.5,0.3-2s1.5-0.3,2,0.3c1.2,1.7,2.4,3.5,3.6,5.3
			c0.4,0.7,0.2,1.5-0.4,2C552.6,336.2,552.3,336.2,552,336.2z M478.4,323.5c-0.4,0-0.7-0.1-1-0.4c-0.6-0.5-0.6-1.4-0.1-2
			c1.5-1.6,3-3.1,4.6-4.5c0.6-0.5,1.5-0.5,2,0.1s0.5,1.5-0.1,2c-1.5,1.3-3,2.8-4.4,4.4C479.2,323.3,478.8,323.5,478.4,323.5z
			 M541.8,322.8c-0.4,0-0.8-0.1-1-0.5c-1.4-1.6-2.9-3-4.4-4.4c-0.6-0.5-0.6-1.4-0.1-2s1.4-0.6,2-0.1c1.5,1.4,3.1,2.9,4.6,4.5
			c0.5,0.6,0.5,1.5-0.1,2C542.5,322.7,542.2,322.8,541.8,322.8z M491.2,312.6c-0.5,0-0.9-0.2-1.2-0.7c-0.4-0.7-0.2-1.5,0.4-2
			c1.9-1.2,3.8-2.2,5.7-3.1c0.7-0.3,1.6,0,1.9,0.7s0,1.6-0.7,1.9c-1.8,0.8-3.6,1.8-5.4,2.9C491.8,312.5,491.5,312.6,491.2,312.6z
			 M529,312c-0.2,0-0.5-0.1-0.7-0.2c-1.8-1.1-3.6-2-5.4-2.8c-0.7-0.3-1.1-1.1-0.8-1.9c0.3-0.7,1.1-1.1,1.9-0.8c2,0.8,3.9,1.8,5.8,3
			c0.7,0.4,0.9,1.3,0.5,2C529.9,311.8,529.5,312,529,312z M506.9,306.8c-0.7,0-1.3-0.5-1.4-1.3s0.5-1.5,1.2-1.6
			c1-0.1,2.1-0.2,3.1-0.2c1.2,0,2.3,0,3.5,0.1c0.8,0.1,1.4,0.8,1.3,1.5c-0.1,0.8-0.7,1.4-1.5,1.3c-1-0.1-2.1-0.1-3.2-0.1
			c-0.9,0-1.9,0.1-2.8,0.2C507,306.8,506.9,306.8,506.9,306.8z"/>
	</g>
	<g>
		<path class="st2" d="M565.7,363.5c-0.6,0-1.1-0.4-1.3-1c0,0-0.4-1.1-1.1-2.9c-0.3-0.7,0.1-1.6,0.8-1.9c0.6-0.2,1.2-0.1,1.6,0.4
			c0.4-0.5,1-0.6,1.6-0.4c0.7,0.3,1.1,1.1,0.9,1.8c-0.7,1.9-1,3-1,3C566.9,363.1,566.3,363.5,565.7,363.5L565.7,363.5z"/>
	</g>
	<g>
		<path class="st2" d="M570.5,350.1c-0.2,0-0.3,0-0.5-0.1c-0.7-0.3-1.1-1.1-0.8-1.8c0.8-2.1,1.6-4.1,2.5-6.2
			c0.3-0.7,1.1-1.1,1.9-0.8s1.1,1.1,0.8,1.9c-0.8,2-1.6,4.1-2.4,6.1C571.6,349.8,571.1,350.1,570.5,350.1z M577.3,333.8
			c-0.2,0-0.4,0-0.6-0.1c-0.7-0.3-1-1.2-0.7-1.9c0.9-2,1.8-4.1,2.8-6c0.3-0.7,1.2-1,1.9-0.7s1,1.2,0.7,1.9c-0.9,2-1.8,4-2.8,6
			C578.4,333.5,577.8,333.8,577.3,333.8z M585,317.9c-0.2,0-0.5,0-0.7-0.2c-0.7-0.4-1-1.2-0.6-1.9c1.1-2,2.1-4,3.2-5.9
			c0.4-0.7,1.3-0.9,1.9-0.5c0.7,0.4,0.9,1.3,0.5,1.9c-1,1.9-2.1,3.8-3.2,5.8C586,317.6,585.5,317.9,585,317.9z M680.6,305.8
			c-0.5,0-0.9-0.2-1.2-0.6c-1.2-1.8-2.5-3.6-3.8-5.4c-0.5-0.6-0.3-1.5,0.3-2s1.5-0.3,2,0.3c1.3,1.8,2.6,3.6,3.9,5.5
			c0.4,0.6,0.3,1.5-0.4,2C681.1,305.7,680.8,305.8,680.6,305.8z M593.9,302.6c-0.3,0-0.5-0.1-0.8-0.2c-0.7-0.4-0.8-1.3-0.4-2
			c1.2-1.9,2.5-3.8,3.8-5.5c0.5-0.6,1.3-0.8,2-0.3c0.6,0.5,0.8,1.4,0.3,2c-1.2,1.7-2.5,3.5-3.7,5.4
			C594.8,302.4,594.4,302.6,593.9,302.6z M669.8,291.8c-0.4,0-0.8-0.2-1.1-0.5c-1.5-1.7-3-3.2-4.5-4.7c-0.6-0.5-0.6-1.5,0-2
			c0.5-0.6,1.5-0.6,2,0c1.6,1.5,3.1,3.1,4.7,4.8c0.5,0.6,0.5,1.5-0.1,2C670.4,291.7,670.1,291.8,669.8,291.8z M604.5,288.4
			c-0.3,0-0.7-0.1-0.9-0.4c-0.6-0.5-0.7-1.4-0.1-2c1.5-1.8,3.1-3.4,4.7-4.9c0.6-0.5,1.5-0.5,2,0c0.5,0.6,0.5,1.5,0,2
			c-1.5,1.4-3,3-4.5,4.7C605.2,288.3,604.9,288.4,604.5,288.4z M656.7,280c-0.3,0-0.6-0.1-0.8-0.3c-1.8-1.3-3.7-2.4-5.5-3.4
			c-0.7-0.4-1-1.2-0.6-1.9s1.2-1,1.9-0.6c1.9,1,3.8,2.2,5.8,3.6c0.6,0.5,0.8,1.3,0.3,2C657.6,279.8,657.1,280,656.7,280z
			 M617.6,276.8c-0.5,0-0.9-0.2-1.2-0.7c-0.4-0.7-0.2-1.5,0.4-2c2-1.3,4.1-2.4,6.1-3.2c0.7-0.3,1.6,0.1,1.8,0.8s-0.1,1.6-0.8,1.9
			c-1.9,0.8-3.8,1.7-5.6,2.9C618.2,276.7,617.9,276.8,617.6,276.8z M640.8,272.5c-0.1,0-0.2,0-0.3,0c-2.1-0.5-4.2-0.7-6.3-0.8
			c-0.8,0-1.4-0.7-1.4-1.5s0.7-1.4,1.5-1.4c2.3,0.1,4.6,0.4,6.8,0.9c0.8,0.2,1.2,0.9,1.1,1.7C642,272.1,641.5,272.5,640.8,272.5z"/>
	</g>
	<g>
		<path class="st2" d="M687.8,318c-0.5,0-1-0.3-1.3-0.8c0,0-0.5-1-1.5-2.8c-0.4-0.7-0.1-1.5,0.5-1.9c0.7-0.4,1.5-0.1,1.9,0.5l0,0
			l0,0c0.3-0.7,1.1-1.1,1.8-0.9s1.1,1.1,0.8,1.8l-1.1,3C689,317.5,688.5,317.9,687.8,318C687.9,318,687.9,318,687.8,318z"/>
	</g>
	<g>
		<path class="st2" d="M691.4,308.2c-0.2,0-0.3,0-0.5-0.1c-0.7-0.3-1.1-1.1-0.8-1.8l1.5-4c0.3-0.7,1.1-1.1,1.8-0.9
			c0.7,0.3,1.1,1.1,0.8,1.8l-1.5,4C692.5,307.9,692,308.2,691.4,308.2z"/>
	</g>
	<g>
		<path class="st2" d="M695.3,297.5c-0.2,0-0.3,0-0.5-0.1c-0.7-0.3-1.1-1.1-0.8-1.8l1.1-3c0.3-0.7,1.1-1.1,1.8-0.9s1.1,1.1,0.8,1.8
			l-1.1,3C696.4,297.1,695.9,297.5,695.3,297.5z"/>
	</g>
</g>
<g>
	<path class="st3" d="M680,231.3c0.2-8.8,10-18,19.2-20.9c9.2-2.8,28.4-6.2,35-0.2c6.5,6,6.1,8.5,6.1,8.5s29-100.1,29.2-104
		s3.3-20.1-5.4-17.4s-21.1,13.5-24.2,17.5s-13.3,26-13.3,26l-9.1,20.3l-10.1,22.4l-11.8,18.9l-9.8,14.1L680,231.3z"/>
	<path class="st4" d="M751.7,72.8c-1.2,3.4-0.3,5.3,0.4,7.5c0.8,2.2,0.4,4.6-0.3,5.4c0,0,4.8-1.3,4.7-4.6c-0.1-3.3-1.5-7.8-2.6-8.4
		C752.8,72.1,751.7,72.8,751.7,72.8z"/>
	<g>
		<g>
			<g>
				<path class="st5" d="M712.7,245.2h-10.8c0,0-3.7,8.2-2.9,8.8s1.8,3.2,1.8,3.2c-2.2,5-2.4,4.9-3,7.6c-0.8,3.4-0.2,11.5,2.3,13.9
					c1.5,1.4,5.3,1.8,5.8-0.2c1.4-6.6,2.7-11,4.3-14.2c1.7-3.4,10.2-11.2,10.2-11.2L712.7,245.2z"/>
			</g>
			<g class="st6">
				<g>
					<path class="st7" d="M712.6,261c3.1-3.6,7.8-7.9,7.8-7.9l-7.8-7.9h-4.5c0.2,0.1,0.3,0.2,0.5,0.2c1.6,0.1,2,2.5,2.4,4
						s1.5,11.2,1.5,11.2S712.6,260.8,712.6,261z"/>
				</g>
			</g>
			<g>
				<path class="st8" d="M710.3,244.8l9,12.7L746,236l0.1-25.6c0,0-14.8,9.6-18.7,13C721.7,228.3,710.3,244.8,710.3,244.8z"/>
			</g>
			<g>
				<path class="st9" d="M701,275.9c-2.3-6-0.9-12.2,0.9-16.4c1.3-2.9,1.4-10.2,3-14.3h-3c0,0-3.7,8.2-2.9,8.8s1.8,3.2,1.8,3.2
					c-2.2,5-2.4,4.9-3,7.6c-0.8,3.4-0.2,11.5,2.3,13.9c1,0.9,3.1,1.4,4.4,1C703.2,279.1,701.4,277.1,701,275.9z"/>
			</g>
		</g>
		<g>
			<g>
				<path class="st5" d="M717.3,262.4l-10.5,2.3c0,0-1.9,8.8-1,9.2c0.9,0.4,2.4,2.8,2.4,2.8c-1.1,5.4-1.3,5.3-1.4,8
					c-0.1,3.5,2.2,11.3,5.2,13.1c1.8,1,5.6,0.6,5.6-1.5c-0.1-6.8,0.3-11.3,1.2-14.8c1-3.7,7.7-13.1,7.7-13.1L717.3,262.4z"/>
			</g>
			<g class="st6">
				<g>
					<path class="st7" d="M726.6,268.4l-9.2-6.1l-2.6,0.6c0.3,0.2,0.6,0.6,1,1.4c0.7,1.6,3.8,9.9,4.3,11.3c0.2,0.5,0.5,1.2,0.9,1.8
						C723.1,273.3,726.6,268.4,726.6,268.4z"/>
				</g>
			</g>
			<g>
				<path class="st10" d="M714.9,262.4l11.1,11.7l21.9-27.8l-5.3-25.1c0,0-8.7,10.7-11.8,14.9C726.3,242.2,714.9,262.4,714.9,262.4z
					"/>
			</g>
			<g>
				<path class="st9" d="M712.3,294.8c-3.5-5.3-3.5-11.8-2.5-16.2c0.7-3.1-0.8-10.3-0.1-14.6l-2.9,0.6c0,0-1.9,8.8-1,9.2
					c0.9,0.4,2.4,2.8,2.4,2.8c-1.1,5.4-1.3,5.3-1.4,8c-0.1,3.5,2.2,11.3,5.2,13.1c1.2,0.7,3.3,0.7,4.5,0.1
					C715.2,297.5,713,295.9,712.3,294.8z"/>
			</g>
			<g class="st6">
				<g>
					<path class="st7" d="M740.7,255.4l6-7.6c-2.1-2.2-4.8-4.8-4.8-4.8l-9.7-8.6c-0.5,0.7-1,1.2-1.3,1.8c-1.3,1.8-3.2,4.7-5.2,8
						L740.7,255.4z"/>
				</g>
			</g>
		</g>
		<g>
			<polygon class="st11" points="807.6,26.2 817.6,7.8 827.7,6.5 828.7,13.5 825.4,15.5 825.6,18 817.4,21.8 815.9,27.9 			"/>
		</g>
		<g>
			<path class="st12" d="M785.4,107.4l14.4-37.3l18.1-43.9l-8.7-5.8c0,0-9.2,13.6-13,20.3c-2.2,3.8-9.7,16.6-11.7,19.5
				c-2,2.8-7.4,9.5-7.4,9.5l-7.6,16.6l2.4,20.5L785.4,107.4z"/>
		</g>
		<g class="st13">
			<g>
				<path class="st7" d="M798.3,62.9l-17,31.5c0,0,2.5,5,5.2,9.9L799.7,70l18.1-43.9l-2.7-1.8l-0.5-0.1L798.3,62.9z"/>
			</g>
		</g>
		<g>
			<path class="st12" d="M777.5,164.4c0,0,11.2-14.4,13.9-34.1c1.3-9.6-1.8-33.8-1.8-33.8l-8.8,2.4l-35.1,7.2
				c0,0-13.6,26.8-16.6,34.4c-4.3,10.7-1.9,18.2-0.1,20.5c1.8,2.3,4.9,4.2,9,2.9c3.9-1.3,14.8-5.5,14.8-5.5L777.5,164.4z"/>
		</g>
		<g>
			<path class="st12" d="M720.7,230.3l24.2,27.1c0,0,26.3-47.6,29.9-61.5c2.4-9.5,15.1-57.9,15.1-57.9l-35.5-5l-14.8,34.9l-6.6,44.6
				L720.7,230.3z"/>
		</g>
		<g class="st14">
			<g>
				<path class="st7" d="M732,147.3c0,0,4.9-3.1,8.3-4.1c4.2-1.2,8.7-1.5,11.3-4.3c2.1-2.2,10.4-14,13.2-13.4
					c2.2,0.4,8.3,8.7,8.3,8.7s-6-2.2-8.2-3.1c-1.2-0.5-5.3,5.9-7.2,10.9c-1.5,4-5.6,4.1-5.6,4.1s-0.9-0.8-5.7-1.2
					C739.2,144.5,732,147.3,732,147.3z"/>
			</g>
		</g>
		<g>
			<polygon class="st15" points="758.3,97.7 761.3,79.4 771.8,86.7 783.6,102.7 			"/>
		</g>
		<g class="st14">
			<g>
				<path class="st7" d="M784.1,105.8c-7.3-0.5,0-0.4-0.1-0.6c-0.2-0.7-0.5-2-1-4.4c-0.2-1-0.9-1.9-1.9-2.5l-6.8,1.9l-28.7,5.9
					c0,0-13.6,26.8-16.6,34.4c-4.3,10.7-1.9,18.2-0.1,20.5c1.8,2.3,4.9,4.2,9,2.9c3.9-1.3,14.8-5.5,14.8-5.5l1.6,0.4
					c0.5-0.7,0.8-1.2,0.9-1.4c0.3-1.2-2-3.6-2-3.6s-14.9,5.5-19.4,6.1c-4.5,0.5-6.1-7.7-5.6-11.6c0.5-3.9,4-9.2,6.4-15.1
					c2.5-6,4.5-6,6.7-11.9s3.8-9,9.6-13s17.3-3.8,22.8-1.8L784.1,105.8z"/>
			</g>
		</g>
		<g>
			<path class="st16" d="M745.5,110.3c6.6-6.1,14.5-6.2,18.8-6c19.7,1.2,27.1,17.2,27.1,17.2s-0.1-6.5-0.3-9.7s-14.3-24.4-14.3-24.4
				l-5.4,2.6l5,7.9l-17.1-9.2c0,0-8.9-1.8-21,16c-9.5,13.9-20.8,45.9-28.1,61c-7.1,14.9-23.4,41-29.1,50.7
				c-5.7,9.7-4.7,15.2-4.1,18.1c1.6,8.1,7,13.7,7,13.7s16.3-36.9,31.6-73.7C728.6,143.1,739.1,116.2,745.5,110.3z"/>
		</g>
		<g class="st14">
			<path class="st3" d="M768.6,93.6l-9.3-5c0,0-8.9-1.8-21,16c-3.8,5.7-8,14.3-12.1,23.6c0.2-0.3,0.3-0.7,0.5-1
				c10.6-22.5,24.1-32.7,25.5-31.7c1.5,1,5,4.8,6,5.9s4.4-3.5,8.8-4.3C766.9,97.1,767.7,95.6,768.6,93.6z"/>
		</g>
		<g>
			<path class="st11" d="M748,151.5c-0.3-2.8,4.2-7.4,4.9-8.2c2.9-3.2,4.5-3.5,5.5-3.2s7.6,1.9,8.1,3c0.5,1-0.7,2.1-0.7,2.1
				s0.8,2,0.5,2.6s-1.2,0.8-1.2,0.8s0.2,0.6-0.2,1.2c-0.9,1.2-2.6,0.8-2.6,0.8s0.3,1.3-1,2c-1.1,0.6-2.9,0.6-2.9,0.6l-2.3,1.3
				l-4.7,1.8C751.5,156.1,748.5,155.6,748,151.5z"/>
		</g>
		<g>
			<polygon class="st17" points="818.7,16.7 820.4,10.5 825.6,9.9 825.9,12.5 823,14.6 823.7,15.9 			"/>
		</g>
		<g>
			<path class="st17" d="M758.5,153.1c-0.5,0-1.4-0.8-0.8-1.5c0.7-0.7,1.8-0.9,1.8-0.9s-0.3-0.1-0.4-0.5c-0.1-0.4,0.1-0.6,0.1-0.6
				s-2.2,0.2-2.2,0.4c0.1,0.9-1.5,3.5-2.5,4.1s-3.7,1.7-3.7,1.7l0.7,0.4l4.7-1.8C756.2,154.4,758.7,153.1,758.5,153.1z"/>
		</g>
		<g class="st14">
			<g>
				<path class="st7" d="M741.8,162.3c0,0-1.8,2.2-3,7.4c-0.9,4-5.9,42.6-5.9,42.6s12.2-36.1,15.1-43.9c2.9-7.8,8.1-14.1,8.1-14.1
					l-4.7,1.8L741.8,162.3z"/>
			</g>
		</g>
		<g>
			<path class="st17" d="M758.9,90.4l3.4-13.8l18.4,6c0,0-3.1,1.8-3.5,3.1c-0.2,0.7,0.6,2.6,0.3,3.2c-1.8,3.3-1.1,4.2,3.2,10.4
				C783,102.8,758.9,90.4,758.9,90.4z"/>
		</g>
		<g>
			<path class="st18" d="M762,77.8l-0.3,1.2c1,2.7,3.7,9.5,14.7,12.3c0.2-0.7,0.6-1.5,1-2.4c0.3-0.7-0.5-2.5-0.3-3.2
				c0.4-1.3,3.5-3.1,3.5-3.1l-17.9-5.8C762.5,77.1,762.2,77.4,762,77.8z"/>
		</g>
		<g>
			<path class="st15" d="M759.4,87.9l-3.8,4.8l2.6,8.7l7.3-1.5l1,2.7l20,3.3l-10.3-13.3l4.3,6.8c0,0-8.6-2.6-11.9-4.3
				C766.1,94,759.4,87.9,759.4,87.9z"/>
		</g>
		<g>
			<path class="st11" d="M774.1,50.3c0,0,5.1,5.8,6.1,8.2c0.5,1.2,0.7,3.9,1.4,4.9c1.3,1.7,6.6,3.4,6.6,3.4s-0.2,1.5-1.1,3.1
				c-0.5,0.8-1.2,1.5-1.2,1.5s0.2,0.7,0.6,1.2c0.3,0.4,0.9,0.8,0.8,1.1c-0.3,1.2-4.6,2.3-4.6,2.3s2.8,0,4.5,0.1
				c0.7,0.1-0.5,1.3,0,3.3c0.3,1.3,1.7,2.2,1.8,3.5c0,0.8-1.2,2.8-2.2,3.3c-3.9,2.3-13.8,0.7-17.8-1.3c-5.1-2.5-5.4-4.5-5.4-4.5
				L757.7,66l1.2-10.8L774.1,50.3z"/>
		</g>
		<g>
			<path class="st4" d="M759.8,69.4c0,0,1.9,1.5,2.7,1.8c0.5,0.2,2,0.4,2,0.4s-2.5-4.6-2-6.3c0.1-0.5,1.4-2.2,1.4-2.2
				s-3.2-6.3,3.1-9.8c4.9-2.7,4.3-8.6-4.9-5.2c-3.4,1.2-9.5,3.2-11.3,6.2c-3.2,5.2-6.1,7.4-6.1,7.4s1.1,2,2.8,6.8
				c1.3,3.6-0.1,8.8,3.6,10.2c3,1.1,5.6,3.1,7,4.8c1.8,2.1,1.5,4.5,1.5,4.5s1.7-2.3,2.3-5.3C762.9,77.5,759.8,69.4,759.8,69.4z"/>
		</g>
		<g>
			<g>
				<g>
					<path class="st17" d="M771.7,67c-0.4-1.1,0.6-2.6,0.8-3.7c0.5-2.3,2.5-3.7,4.1-4.8c0.4-0.3,3.5,4,2.6,4.6
						c-2,1.4-3.1,3.7-3.9,4.8C775,68.4,772.9,70,771.7,67z"/>
				</g>
			</g>
			<g>
				<g>
					<path class="st15" d="M778.2,64c-0.9-0.1-1.9,1.8-2.4,4c-0.1,0.4,2.2,0.1,3.9-1.5c0.7-0.6,0.2-1.3-0.3-1.9
						C779,64.3,779,64.1,778.2,64z"/>
				</g>
			</g>
			<g>
				<g>
					<path class="st11" d="M778.4,63.6c0.7-0.3,1.2-0.2,1.5,0c0-0.8-1.8-1.1-3-0.9c-2.6,0.6-5.2,5.6-5,6.6c0.1,0.6,2.4,0.5,2.9,0.5
						C775,68.5,775.5,64.8,778.4,63.6z"/>
				</g>
			</g>
			<g>
				<g>
					<path class="st19" d="M779.7,64.6c0.5,0.7,0.5,1.5,0.1,1.8s-1.2,0.1-1.7-0.6s-0.5-1.5-0.1-1.8
						C778.5,63.7,779.2,63.9,779.7,64.6z"/>
				</g>
			</g>
			<g>
				<g>
					<path class="st20" d="M779.3,64.9c0.2,0.3,0.2,0.6,0,0.8c-0.2,0.2-0.5,0-0.8-0.2s-0.2-0.6,0-0.8S779,64.7,779.3,64.9z"/>
				</g>
			</g>
			<g>
				<path class="st21" d="M778.8,63.7c0-0.2-0.1-0.4-0.1-0.6c-2.7,0.4-3.6,5.2-3.6,5.2c0,0.2,0.1,0.3,0.3,0.3s0.3-0.1,0.3-0.3
					C775.7,68.3,776.6,64.2,778.8,63.7z"/>
			</g>
		</g>
		<g>
			<path class="st4" d="M772,67.3c0,0.2-0.6-0.2-0.6-0.4c-0.4-4.1,4.8-9.2,5.7-8.8c0.5,0.2,0.7,1,0.7,1.5
				C777.8,60.5,772.3,63.6,772,67.3z"/>
		</g>
		<g>
			<g>
				<path class="st11" d="M758.1,76.9c2.9,2.2,6.4,2.5,7.9,0.6s-3.3-2.1-3.8-5.7c-1-6.6-5.1-4.3-6.6-2.4
					C754.1,71.3,755.2,74.6,758.1,76.9z"/>
			</g>
			<g>
				<path class="st17" d="M759.3,73.9c0.7,1.3,2,1.9,2.9,1.5s-0.2-1.6-0.9-2.9s-0.8-2.3-1.7-1.8C758.7,71.1,758.6,72.6,759.3,73.9z"
					/>
			</g>
		</g>
		<g>
			<g>
				
					<rect x="739.3" y="49.2" transform="matrix(0.7114 -0.7028 0.7028 0.7114 176.6218 549.811)" class="st7" width="36.8" height="21.3"/>
			</g>
			<g>
				
					<rect x="721.2" y="51.2" transform="matrix(0.7114 -0.7028 0.7028 0.7114 179.5162 543.5982)" class="st10" width="60.9" height="4"/>
			</g>
			<g>
				<g>
					<path class="st22" d="M739.7,70.3c0,1.2,1,2.2,2.2,2.2s2.2-1,2.2-2.2s-1-2.2-2.2-2.2C740.7,68.2,739.7,69.1,739.7,70.3z"/>
				</g>
				<g>
					<path class="st22" d="M737.9,87.5v-8.7c0-2.2,1.8-3.9,3.9-3.9s3.9,1.8,3.9,3.9v8.7H737.9z"/>
				</g>
				<g>
					<polygon class="st22" points="740.8,76.7 742.8,76.7 742.3,58.3 740.4,59.5 					"/>
				</g>
				<g>
					
						<rect x="739.3" y="55.3" transform="matrix(0.7114 -0.7028 0.7028 0.7114 175.6927 539.7766)" class="st22" width="11.5" height="1.4"/>
				</g>
			</g>
		</g>
	</g>
	<path class="st17" d="M764.6,150.1c-1.1,0.8-1.9-0.9-2.2-1.8c-0.3-0.9-0.3-1.8-0.8-1.8s-2.3,0-2.3,0s1.8,0.3,2.3,0.5s0.6,3,0.7,3.6
		C762.3,150.6,763.7,150.9,764.6,150.1z"/>
	<g>
		<path class="st17" d="M765.1,148.6v0.1C765.1,148.6,765.1,148.6,765.1,148.6z"/>
		<path class="st17" d="M766.2,148c-0.4,0.4-0.9-0.7-1.3-1.5c-0.4-1.1-0.3-2-2-2.3c-1.8-0.3-3.4-0.3-3.4-0.3s3.8,0.5,4.3,1.2
			s1.2,2.5,1.3,3.5C765.1,148.6,765.9,148.4,766.2,148C766.2,147.9,766.2,147.9,766.2,148z"/>
	</g>
	<path class="st17" d="M766.6,144c0,0,0,0.1-0.1,0.1c-0.2,0.4-0.7,0-0.9-0.3s-0.5-1.1-1.6-1.1c-1-0.1-3.6-0.3-3.6-0.3
		s2.4,0.6,3.5,0.7c1.1,0.1,1.4,1.1,1.8,2.1C765.8,145.2,766.4,144.6,766.6,144z"/>
	<path class="st23" d="M767.7,43.7c-2,2.9-8,11.8-9.7,14.5c-2,3.3,0.8,7.8,4.3,11.5c0.1,0.1,0.2,0.2,0.3,0.2l15.7-15.5L767.7,43.7z"
		/>
</g>
<g>
	<g>
		<g>
			<path class="st24" d="M407.9,421.7h66.5v3.1h-26.9c-2.8,0-5.1,2.3-5.1,5.1v1.7c0,2.8,2.3,5.1,5.1,5.1h26.9v3.1h-66.5
				c-4.5,0-8.2-3.7-8.2-8.2v-1.7C399.6,425.4,403.3,421.7,407.9,421.7z"/>
		</g>
		<g>
			<path class="st25" d="M447.5,436.8c-2.8,0-5.1-2.3-5.1-5.1V430c0-2.8,2.3-5.1,5.1-5.1h23.2c0,0-2.2,1.3-2.2,5.6
				c0,5.1,2.2,6.4,2.2,6.4L447.5,436.8z"/>
		</g>
		<g>
			<path class="st26" d="M499.8,478.8c2.8,0,5.1-2.3,5.1-5.1v-4.6c0-2.8-2.3-5.1-5.1-5.1h-90.1c0,0,2.2,2.7,2.2,7.1
				c0,5.1-2.2,7.8-2.2,7.8L499.8,478.8z"/>
		</g>
		<g>
			<path class="st27" d="M480.3,464h-11.1c0,0,1.1,2.3,1.1,7.3s-1.1,7.6-1.1,7.6h11.1V464z"/>
		</g>
		<g>
			<g>
				<path class="st28" d="M469.2,479.5c-0.1,0-0.2,0-0.2,0c-0.3-0.1-0.5-0.5-0.3-0.8c0,0,1-2.6,1-7.4s-1-7-1-7
					c-0.1-0.3,0-0.7,0.3-0.8s0.7,0,0.8,0.3c0,0.1,1.1,2.5,1.1,7.5c0,5.1-1.1,7.7-1.1,7.8C469.7,479.3,469.5,479.5,469.2,479.5z"/>
			</g>
		</g>
		<g>
			<path class="st10" d="M492.2,460.9h-85.4v3.1h61.7c2.8,0,5.1,2.3,5.1,5.1v4.6c0,2.8-2.3,5.1-5.1,5.1h-61.7v3.1h85.4
				c4.5,0,8.2-3.7,8.2-8.2v-4.6C500.4,464.6,496.7,460.9,492.2,460.9z"/>
		</g>
		<g>
			<path class="st29" d="M499.8,460.9H469c4.5,0,8.2,3.7,8.2,8.2v4.6c0,4.5-3.7,8.2-8.2,8.2h30.8c4.5,0,8.2-3.7,8.2-8.2v-4.6
				C508,464.6,504.3,460.9,499.8,460.9z"/>
		</g>
		<g>
			<g>
				<path class="st30" d="M481.4,439.8h-66.5v3.1h66.5c2.8,0,5.1,2.3,5.1,5.1v4.6c0,2.8-2.3,5.1-5.1,5.1h-66.5v3.1h66.5
					c4.5,0,8.2-3.7,8.2-8.2V448C489.6,443.5,485.9,439.8,481.4,439.8z"/>
			</g>
			<g>
				<path class="st31" d="M481.4,457.8c2.8,0,3.9-2.3,3.9-5.1v-4.6c0-2.8-1-5.1-3.9-5.1h-62.9c0,0,2.2,2.7,2.2,7.1
					c0,5.1-2.2,7.8-2.2,7.8L481.4,457.8z"/>
			</g>
			<g class="st32">
				<path class="st27" d="M460.9,450.1L460.9,450.1h-14.3c-0.4,0-0.6-0.3-0.6-0.6s0.3-0.6,0.6-0.6h14.3c0.4,0,0.6,0.3,0.6,0.6
					C461.5,449.9,461.2,450.1,460.9,450.1z"/>
			</g>
		</g>
		<g class="st32">
			<g>
				<polygon class="st7" points="462,460.9 459.6,449.5 447.9,449.5 450.3,460.9 				"/>
			</g>
		</g>
		<g class="st32">
			<g>
				<polygon class="st7" points="460,469.5 454.8,467.8 449.5,469.5 449.5,460.9 460,460.9 				"/>
			</g>
		</g>
	</g>
	<path class="st33" d="M407.9,421.7h66.5v3.1h-26.9c-2.8,0-5.1,2.3-5.1,5.1v1.7c0,2.8,2.3,5.1,5.1,5.1h26.9v3.1h-66.5
		c-4.5,0-8.2-3.7-8.2-8.2v-1.7C399.6,425.4,403.3,421.7,407.9,421.7z"/>
	<path class="st34" d="M447.5,436.8c-2.8,0-5.1-2.3-5.1-5.1V430c0-2.8,2.3-5.1,5.1-5.1h26.9v-3.1h-28.1c-4.5,0-8.2,3.7-8.2,8.2v1.7
		c0,4.5,3.7,8.2,8.2,8.2h28.1v-3.1H447.5z"/>
	<polygon class="st22" points="459.6,468.3 453.8,466.4 447.9,468.3 447.9,449.5 459.6,449.5 	"/>
	<rect x="447.9" y="449.5" class="st35" width="11.7" height="11.3"/>
	<path class="st27" d="M482.1,443c0,0,1,2,1,7.2s-1,7.6-1,7.6c2.5-0.3,4.5-2.5,4.5-5.1v-4.6C486.5,445.5,484.6,443.3,482.1,443z"/>
	<path class="st27" d="M447.1,424.8c-2.6,0.2-4.7,2.4-4.7,5.1v1.7c0,2.7,2.1,4.9,4.7,5.1c0,0-0.8-2.2-0.8-6S447.1,424.8,447.1,424.8
		z"/>
	<path class="st36" d="M481.5,443.2c0,0,0.9,2,0.9,6.9s-0.9,7.3-0.9,7.4s0,0.2,0,0.3c0.5,0,1-0.1,1.4-0.2c0.3-0.9,0.9-3.3,0.9-7.4
		c0-3.9-0.5-6.1-0.9-7c-0.4-0.1-0.9-0.2-1.4-0.2C481.4,443,481.5,443.1,481.5,443.2z"/>
</g>
<g>
	<g>
		<path class="st26" d="M734.9,478.6c2.8,0,5.2-2.3,5.2-5.1v-4.6c0-2.8-2.3-5.1-5.2-5.1h-82.7c0,0,2.2,2.7,2.2,7.1
			c0,5.1-2.2,7.8-2.2,7.8L734.9,478.6z"/>
		<path class="st27" d="M723,463.7h-11.1c0,0,1.1,2.3,1.1,7.3s-1.1,7.6-1.1,7.6H723V463.7z"/>
		<g>
			<path class="st37" d="M711.9,479.2c-0.1,0-0.2,0-0.2,0c-0.3-0.1-0.5-0.5-0.3-0.8c0,0,1-2.6,1-7.4s-1-7-1-7
				c-0.2-0.3,0-0.7,0.3-0.8c0.3-0.1,0.7,0,0.8,0.3c0,0.1,1.2,2.5,1.2,7.6s-1.1,7.7-1.1,7.9C712.3,479.1,712.1,479.2,711.9,479.2z"/>
		</g>
		<path class="st38" d="M727.3,460.6h-78v3.1h61.8c2.8,0,5.2,2.3,5.2,5.1v4.6c0,2.8-2.3,5.1-5.2,5.1h-61.8v3.1h78
			c4.5,0,8.2-3.7,8.2-8.2v-4.6C735.5,464.3,731.8,460.6,727.3,460.6z"/>
		<path class="st39" d="M734.9,460.6h-23.3c4.5,0,8.2,3.7,8.2,8.2v4.6c0,4.5-3.7,8.2-8.2,8.2h23.3c4.5,0,8.2-3.7,8.2-8.2v-4.6
			C743.1,464.3,739.4,460.6,734.9,460.6z"/>
	</g>
	<g>
		<g>
			<path class="st39" d="M726.4,381.2h-67.6v-3.1h67.6c2.9,0,5.2-2.3,5.2-5.2v-4.7c0-2.9-2.3-5.2-5.2-5.2h-67.6v-3.1h67.6
				c4.6,0,8.4,3.8,8.4,8.4v4.7C734.8,377.5,731,381.2,726.4,381.2z"/>
			<path class="st40" d="M726.4,363c2.9,0,3.9,2.3,3.9,5.2v4.7c0,2.9-1.1,5.2-3.9,5.2h-63.9c0,0,2.2-2.8,2.2-7.2
				c0-5.2-2.2-7.9-2.2-7.9L726.4,363z"/>
		</g>
		<path class="st27" d="M727.1,378c0,0,1-2.1,1-7.3s-1-7.7-1-7.7c2.5,0.4,4.5,2.5,4.5,5.2v4.7C731.6,375.5,729.7,377.7,727.1,378z"
			/>
		<path class="st28" d="M726.5,377.8c0,0,0.9-2.1,0.9-7c0-5-0.9-7.5-0.9-7.5c0-0.1,0-0.2,0-0.3c0.5,0,1,0.1,1.4,0.2
			c0.3,0.9,0.9,3.4,0.9,7.5c0,4-0.6,6.2-0.9,7.1c-0.4,0.1-0.9,0.2-1.4,0.2C726.5,378,726.5,377.9,726.5,377.8z"/>
	</g>
	<g>
		<path class="st26" d="M688.6,338.6c2.8,0,5.1-2.3,5.1-5.1v-1.7c0-2.8-2.3-5.1-5.1-5.1h-23.2c0,0,2.2,1.3,2.2,5.6
			c0,5.1-2.2,6.4-2.2,6.4L688.6,338.6z"/>
		<path class="st41" d="M720.7,323.6h-58.9v3.1h26.8c2.8,0,5.1,2.3,5.1,5.1v1.7c0,2.8-2.3,5.1-5.1,5.1h-26.8v3.1h58.9
			c4.5,0,8.2-3.7,8.2-8.2v-1.7C728.9,327.3,725.2,323.6,720.7,323.6z"/>
		<path class="st42" d="M688.6,338.6c2.8,0,5.1-2.3,5.1-5.1v-1.7c0-2.8-2.3-5.1-5.1-5.1h-26.8v-3.1h28.1c4.5,0,8.2,3.7,8.2,8.2v1.7
			c0,4.5-3.7,8.2-8.2,8.2h-28.1v-3.1H688.6z"/>
		<path class="st27" d="M689,326.7c2.6,0.2,4.7,2.4,4.7,5.1v1.7c0,2.7-2.1,4.9-4.7,5.1c0,0,0.8-2.2,0.8-6
			C689.8,328.8,689,326.7,689,326.7z"/>
	</g>
	<g>
		<path class="st26" d="M723.3,399.2c2.8,0,5.2-2.3,5.2-5.1v-4.6c0-2.8-2.3-5.1-5.2-5.1h-59c0,0,2.2,2.7,2.2,7.1
			c0,5.1-2.2,7.8-2.2,7.8L723.3,399.2z"/>
		<path class="st27" d="M717.8,384.3h-11.1c0,0,1.1,2.3,1.1,7.3s-1.1,7.6-1.1,7.6h11.1V384.3z"/>
		<g>
			<path class="st27" d="M706.8,399.9c-0.1,0-0.2,0-0.2,0c-0.3-0.1-0.5-0.5-0.3-0.8c0,0,1-2.6,1-7.4s-1-7-1-7
				c-0.2-0.3,0-0.7,0.3-0.8c0.3-0.1,0.7,0,0.8,0.3c0,0.1,1.2,2.5,1.2,7.6s-1.1,7.8-1.1,7.9C707.2,399.7,707,399.9,706.8,399.9z"/>
		</g>
		<path class="st43" d="M723.3,381.2h-61.8v3.1H706c2.8,0,5.2,2.3,5.2,5.1v4.6c0,2.8-2.3,5.1-5.2,5.1h-44.6v3.1h61.8
			c4.5,0,8.2-3.7,8.2-8.2v-4.6C731.5,384.9,727.8,381.2,723.3,381.2z"/>
		<path class="st44" d="M730.8,381.2h-24.3c4.5,0,8.2,3.7,8.2,8.2v4.6c0,4.6-3.7,8.2-8.2,8.2h24.3c4.5,0,8.2-3.7,8.2-8.2v-4.6
			C739.1,384.9,735.4,381.2,730.8,381.2z"/>
		<path class="st45" d="M712.9,399.3c-1.5,1.8-3.8,3-6.4,3h24.3c2.6,0,4.9-1.2,6.4-3H712.9z"/>
		<path class="st33" d="M730.8,381.2h-24.3c3.3,0,6.2,2,7.5,4.8h24.3C737,383.2,734.2,381.2,730.8,381.2z"/>
	</g>
	<g>
		<path class="st25" d="M693.5,445.5c-2.8,0-5.1,2.3-5.1,5.1v1.7c0,2.8,2.3,5.1,5.1,5.1h30.8c0,0-2.2-1.3-2.2-5.6
			c0-5.1,2.2-6.4,2.2-6.4L693.5,445.5z"/>
		<path class="st46" d="M669,460.6h58.9v-3.1h-34.4c-2.8,0-5.1-2.3-5.1-5.1v-1.7c0-2.8,2.3-5.1,5.1-5.1h34.4v-3.1H669
			c-4.5,0-8.2,3.7-8.2,8.2v1.7C660.7,456.9,664.4,460.6,669,460.6z"/>
		<path class="st47" d="M693.5,445.5c-2.8,0-5.1,2.3-5.1,5.1v1.7c0,2.8,2.3,5.1,5.1,5.1h34.4v3.1h-35.7c-4.5,0-8.2-3.7-8.2-8.2v-1.7
			c0-4.5,3.7-8.2,8.2-8.2h35.7v3.1H693.5z"/>
		<path class="st27" d="M693,457.5c-2.6-0.2-4.7-2.4-4.7-5.1v-1.7c0-2.7,2.1-4.9,4.7-5.1c0,0-0.8,2.2-0.8,6
			C692.2,455.4,693,457.5,693,457.5z"/>
	</g>
	<g>
		<path class="st40" d="M661.1,405.1c-2.6,0-4.7,2.1-4.7,4.7v4.2c0,2.6,2.1,4.7,4.7,4.7H735c0,0-2-2.5-2-6.4c0-4.6,2-7.1,2-7.1
			L661.1,405.1z"/>
		<path class="st27" d="M686.4,418.6h10.1c0,0-1-2.1-1-6.6s1-6.9,1-6.9h-10.1V418.6z"/>
		<g>
			<path class="st36" d="M696.5,404.5c0.1,0,0.2,0,0.2,0c0.3,0.1,0.4,0.5,0.3,0.8c0,0-1,2.3-1,6.7c0,4.3,0.9,6.4,0.9,6.4
				c0.1,0.3,0,0.6-0.3,0.8c-0.3,0.1-0.6,0-0.8-0.3c0-0.1-1-2.2-1-6.9c0-4.6,1-7,1-7.1C696,404.6,696.2,404.5,696.5,404.5z"/>
		</g>
		<path class="st28" d="M668.7,421.4h68.9v-2.8h-40.4c-2.6,0-4.7-2.1-4.7-4.7v-4.2c0-2.6,2.1-4.7,4.7-4.7h40.4v-2.8h-68.9
			c-4.1,0-7.5,3.4-7.5,7.5v4.2C661.2,418,664.6,421.4,668.7,421.4z"/>
		<path class="st48" d="M661.1,421.4h35.6c-4.1,0-7.5-3.4-7.5-7.5v-4.2c0-4.1,3.3-7.5,7.5-7.5h-35.6c-4.1,0-7.5,3.4-7.5,7.5v4.2
			C653.7,418,657,421.4,661.1,421.4z"/>
	</g>
	<g>
		<g>
			<path class="st26" d="M713.7,438.8c3.3,0,6-2.7,6-6v-2c0-3.3-2.7-6-6-6h-42.9c0,0,2.5,1.5,2.5,6.6c0,6-2.5,7.4-2.5,7.4H713.7z"/>
			<path class="st22" d="M729.2,421.1h-62.6v3.6h47.1c3.3,0,6,2.7,6,6v2c0,3.3-2.7,6-6,6h-47.1v3.6h62.6c5.3,0,9.6-4.3,9.6-9.6v-2
				C738.9,425.4,734.5,421.1,729.2,421.1z"/>
			<path class="st49" d="M713.7,438.8c3.3,0,6-2.7,6-6v-2c0-3.3-2.7-6-6-6h-47.1v-3.6h48.6c5.3,0,9.6,4.3,9.6,9.6v2
				c0,5.3-4.3,9.6-9.6,9.6h-48.6v-3.6H713.7z"/>
			<path class="st27" d="M714.2,424.8c3.1,0.3,5.5,2.9,5.5,6v2c0,3.1-2.4,5.7-5.5,6c0,0,1-2.6,1-7.1
				C715.2,427.2,714.2,424.8,714.2,424.8z"/>
		</g>
	</g>
	<g>
		<path class="st31" d="M664.2,344.4c-2.5,0-4.5,2-4.5,4.5v4c0,2.5,2,4.5,4.5,4.5h53.5c0,0-1.9-2.4-1.9-6.2c0-4.5,1.9-6.9,1.9-6.9
			L664.2,344.4z"/>
		<path class="st27" d="M672.6,357.5h9.7c0,0-1-2-1-6.4s1-6.7,1-6.7h-9.7V357.5z"/>
		<g>
			<path class="st36" d="M682.3,343.9c0.1,0,0.1,0,0.2,0c0.3,0.1,0.4,0.4,0.3,0.7c0,0-0.9,2.3-0.9,6.5s0.9,6.1,0.9,6.2
				c0.1,0.3,0,0.6-0.3,0.7s-0.6,0-0.7-0.3c0-0.1-1-2.2-1-6.6c0-4.5,1-6.8,1-6.9C681.9,344,682.1,343.9,682.3,343.9z"/>
		</g>
		<path class="st47" d="M655.4,360.2H719v-2.7h-36c-2.5,0-4.5-2-4.5-4.5v-4c0-2.5,2-4.5,4.5-4.5h36v-2.7h-63.6c-4,0-7.2,3.2-7.2,7.2
			v4C648.2,357,651.4,360.2,655.4,360.2z"/>
		<path class="st34" d="M655.4,360.2h27.1c-4,0-7.2-3.2-7.2-7.2v-4c0-4,3.2-7.2,7.2-7.2h-27.1c-4,0-7.2,3.2-7.2,7.2v4
			C648.2,357,651.4,360.2,655.4,360.2z"/>
	</g>
	<g>
		<path class="st50" d="M688.6,338.6h-18.4l0,0H688.6L688.6,338.6L688.6,338.6z"/>
		<path class="st50" d="M690,338.5c0.2,0,0.3-0.1,0.4-0.1C690.3,338.4,690.2,338.4,690,338.5z"/>
		<path class="st50" d="M696.6,338.3c-1.5,2.1-3.9,3.4-6.7,3.4h30.8c2.8,0,5.2-1.4,6.7-3.4H696.6z"/>
		<path class="st50" d="M689.6,338.6c0.2,0,0.3-0.1,0.5-0.1C689.9,338.5,689.7,338.5,689.6,338.6z"/>
		<path class="st50" d="M689.1,338.6c0.1,0,0.2,0,0.4,0C689.3,338.6,689.2,338.6,689.1,338.6z"/>
	</g>
	<path class="st51" d="M734.9,460.6h-23.3c3.2,0,6.1,1.9,7.4,4.6h23.3C740.9,462.5,738.1,460.6,734.9,460.6z"/>
	<path class="st52" d="M654.6,406.1h35.6c1.3-2.3,3.7-3.9,6.5-3.9h-35.6C658.3,402.3,655.9,403.8,654.6,406.1z"/>
</g>
<g>
	<g>
		<path class="st26" d="M570.6,396.5c2.8,0,5.1-2.3,5.1-5.1v-1.7c0-2.8-2.3-5.1-5.1-5.1h-23.2c0,0,2.2,1.3,2.2,5.6
			c0,5.1-2.2,6.4-2.2,6.4L570.6,396.5z"/>
		<path class="st22" d="M595.1,381.5h-51.4v3.1h26.8c2.8,0,5.1,2.3,5.1,5.1v1.7c0,2.8-2.3,5.1-5.1,5.1h-26.8v3.1h51.4
			c4.5,0,8.2-3.7,8.2-8.2v-1.7C603.3,385.1,599.6,381.5,595.1,381.5z"/>
		<path class="st49" d="M573.9,395.3c-0.9,0.8-2.1,1.2-3.3,1.2h-24.3v3.1h48.8c3.1,0,5.9-1.8,7.2-4.3L573.9,395.3L573.9,395.3z"/>
		<path class="st53" d="M570.6,396.5c2.8,0,5.1-2.3,5.1-5.1v-1.7c0-2.8-2.3-5.1-5.1-5.1h-26.8v-3.1h28.1c4.5,0,8.2,3.7,8.2,8.2v1.7
			c0,4.5-3.7,8.2-8.2,8.2h-28.1v-3.1H570.6z"/>
		<path class="st27" d="M571,384.6c2.6,0.2,4.7,2.4,4.7,5.1v1.7c0,2.7-2.1,4.9-4.7,5.1c0,0,0.8-2.2,0.8-6
			C571.8,386.6,571,384.6,571,384.6z"/>
	</g>
	<g>
		<path class="st26" d="M588.2,478.3c3.3,0,6-2.7,6-6v-2c0-3.3-2.7-6-6-6h-50.5c0,0,2.5,1.5,2.5,6.6c0,6-2.5,7.4-2.5,7.4H588.2z"/>
		<path class="st33" d="M603.7,460.7h-70.2v3.6h54.7c3.3,0,6,2.7,6,6v2c0,3.3-2.7,6-6,6h-54.7v3.6h70.2c5.3,0,9.6-4.3,9.6-9.6v-2
			C613.3,465,609,460.7,603.7,460.7z"/>
		<path class="st34" d="M588.2,478.3c3.3,0,6-2.7,6-6v-2c0-3.3-2.7-6-6-6h-54.7v-3.6h56.2c5.3,0,9.6,4.3,9.6,9.6v2
			c0,5.3-4.3,9.6-9.6,9.6h-56.2v-3.6H588.2z"/>
		<path class="st27" d="M588.7,464.3c3.1,0.3,5.5,2.9,5.5,6v2c0,3.1-2.4,5.7-5.5,6c0,0,1-2.6,1-7.1
			C589.7,466.7,588.7,464.3,588.7,464.3z"/>
	</g>
	<g>
		<path class="st48" d="M535.5,420.8h77.8v3.6h-54.6c-3.3,0-6,2.7-6,6v2c0,3.3,2.7,6,6,6h54.6v3.6h-77.8c-5.3,0-9.6-4.3-9.6-9.6v-2
			C525.9,425.1,530.2,420.8,535.5,420.8z"/>
		<path class="st31" d="M558.8,438.4c-3.3,0-6-2.7-6-6v-2c0-3.3,2.7-6,6-6h50.4c0,0-2.5,1.5-2.5,6.6c0,6,2.5,7.4,2.5,7.4H558.8z"/>
		<path class="st28" d="M558.8,438.4c-3.3,0-6-2.7-6-6v-2c0-3.3,2.7-6,6-6h54.6v-3.6h-56.1c-5.3,0-9.6,4.3-9.6,9.6v2
			c0,5.3,4.3,9.6,9.6,9.6h56.1v-3.6H558.8z"/>
		<path class="st27" d="M558.2,424.5c-3.1,0.3-5.5,2.9-5.5,6v2c0,3.1,2.4,5.7,5.5,6c0,0-1-2.6-1-7.1
			C557.3,426.9,558.2,424.5,558.2,424.5z"/>
	</g>
	<g>
		<g>
			<g>
				<path class="st54" d="M540.3,399.5h67.6v3.1h-67.6c-2.9,0-5.2,2.3-5.2,5.2v4.7c0,2.9,2.3,5.2,5.2,5.2h67.6v3.1h-67.6
					c-4.6,0-8.4-3.8-8.4-8.4v-4.7C531.9,403.2,535.7,399.5,540.3,399.5z"/>
			</g>
			<g>
				<path class="st31" d="M540.3,417.7c-2.9,0-3.9-2.3-3.9-5.2v-4.7c0-2.9,1.1-5.2,3.9-5.2h63.9c0,0-2.2,2.8-2.2,7.2
					c0,5.2,2.2,7.9,2.2,7.9L540.3,417.7z"/>
			</g>
			<g class="st32">
				<path class="st27" d="M561.1,409.9c-0.4,0-0.6-0.3-0.6-0.6c0-0.4,0.3-0.6,0.6-0.6h14.5c0.4,0,0.6,0.3,0.6,0.6
					c0,0.4-0.3,0.6-0.6,0.6H561.1z"/>
			</g>
		</g>
		<g class="st32">
			<g>
				<polygon class="st7" points="560,420.9 562.4,409.3 574.4,409.3 571.9,420.9 				"/>
			</g>
		</g>
		<g>
			<polygon class="st42" points="562.4,428.4 568.4,426.5 574.4,428.4 574.4,409.3 562.4,409.3 			"/>
		</g>
		<g>
			<rect x="562.4" y="409.3" class="st41" width="11.9" height="11.5"/>
		</g>
		<g>
			<path class="st27" d="M539.6,402.6c0,0-1,2.1-1,7.3s1,7.7,1,7.7c-2.5-0.4-4.5-2.5-4.5-5.2v-4.7C535.1,405.2,537,403,539.6,402.6z
				"/>
		</g>
		<g>
			<path class="st28" d="M540.2,402.9c0,0-0.9,2.1-0.9,7c0,5,0.9,7.5,0.9,7.5c0,0.1,0,0.2,0,0.3c-0.5,0-1-0.1-1.4-0.2
				c-0.3-0.9-0.9-3.4-0.9-7.5c0-4,0.6-6.2,0.9-7.1c0.4-0.1,0.9-0.2,1.4-0.2C540.2,402.7,540.2,402.8,540.2,402.9z"/>
		</g>
	</g>
	<g>
		<path class="st26" d="M612.4,457.9c2.5,0,4.5-2,4.5-4.5v-4c0-2.5-2-4.5-4.5-4.5h-79.2c0,0,1.9,2.4,1.9,6.2c0,4.5-1.9,6.9-1.9,6.9
			L612.4,457.9z"/>
		<path class="st27" d="M595.3,444.8h-9.7c0,0,1,2,1,6.4s-1,6.7-1,6.7h9.7V444.8z"/>
		<g>
			<path class="st52" d="M585.6,458.5c-0.1,0-0.1,0-0.2,0c-0.3-0.1-0.4-0.4-0.3-0.7c0,0,0.9-2.3,0.9-6.5s-0.9-6.1-0.9-6.2
				c-0.1-0.3,0-0.6,0.3-0.7s0.6,0,0.7,0.3c0,0.1,1,2.2,1,6.6c0,4.5-1,6.8-1,6.9C586,458.3,585.8,458.5,585.6,458.5z"/>
		</g>
		<path class="st53" d="M604.9,442.1h-74.2v2.7H585c2.5,0,4.5,2,4.5,4.5v4c0,2.5-2,4.5-4.5,4.5h-54.3v2.7h74.2c4,0,7.2-3.2,7.2-7.2
			v-4C612.1,445.4,608.8,442.1,604.9,442.1z"/>
		<path class="st22" d="M612.4,442.1h-27.1c4,0,7.2,3.2,7.2,7.2v4c0,4-3.2,7.2-7.2,7.2h27.1c4,0,7.2-3.2,7.2-7.2v-4
			C619.7,445.4,616.4,442.1,612.4,442.1z"/>
	</g>
	<path class="st49" d="M591.7,456.9c-1.2,2.2-3.6,3.7-6.3,3.7h27.1c2.7,0,5.1-1.5,6.3-3.7H591.7z"/>
</g>
<g>
	<path class="st55" d="M336.8,131.2v3.7v0.1c1.6-0.1,2.8-0.1,3.8-0.1h11.9c0,1.3,0,2.2-0.1,2.9c-0.4,2.6-2.1,3.9-5.2,3.9h-13.6
		c-1.5,0-2.6-0.4-3.5-1.3s-1.3-2-1.3-3.5v-30l0.4-0.4h22.1c0.2,1,0.3,2.1,0.3,3.2s-0.2,2.4-0.7,3.6h-14v3.7v3.6c0.9,0,2-0.1,3.5-0.1
		h7.8c0.3,1,0.5,2.1,0.5,3.3c0,1.2-0.1,2.4-0.5,3.4h-11.3L336.8,131.2L336.8,131.2z"/>
	<path class="st55" d="M371,126.1c0-2.3-0.8-3.4-2.3-3.4c-0.5,0-1.1,0.2-1.7,0.5s-1.1,0.7-1.7,1.3v17.1c-0.6,0.1-1.2,0.2-1.9,0.2
		c-0.7,0.1-1.4,0.1-2.1,0.1s-1.4,0-2.1-0.1s-1.3-0.1-1.9-0.2V116l0.4-0.4h3c2.2,0,3.6,1.1,4.3,3.2c2.4-2.2,4.8-3.3,7.1-3.3
		c2.8,0,4.8,1.2,6,3.5c2.7-2.4,5.2-3.5,7.6-3.5s4.2,0.7,5.4,2.2c1.2,1.5,1.8,3.5,1.8,5.9v11.5c0,2.2,0.4,3.9,1.3,5.1
		c-1.3,1.2-2.9,1.7-4.7,1.7c-1.8,0-3-0.4-3.6-1.2s-1-2.1-1-3.7v-10.9c0-2.3-0.8-3.4-2.4-3.4c-1,0-2.1,0.6-3.3,1.8v17.1
		c-0.6,0.1-1.2,0.2-1.9,0.2c-0.7,0.1-1.4,0.1-2.1,0.1s-1.4,0-2.1-0.1s-1.3-0.1-1.9-0.2L371,126.1L371,126.1z"/>
	<path class="st55" d="M411.2,142.1c-1.6,0-3.1-0.4-4.7-1.1v6.8c0,1.8-0.3,3-1,3.7c-0.6,0.7-1.8,1.1-3.4,1.1H399l-0.4-0.4V116
		l0.4-0.4h2.1c2,0,3.4,0.8,4.4,2.5c1.9-1.9,4.3-2.9,7.1-2.9c1.4,0,2.7,0.3,3.8,0.9s2,1.5,2.8,2.7s1.4,2.6,1.7,4.2
		c0.4,1.6,0.6,3.5,0.6,5.5c0,2-0.3,3.9-0.8,5.6s-1.2,3.1-2.2,4.3c-0.9,1.2-2,2.1-3.2,2.7C414.1,141.8,412.7,142.1,411.2,142.1z
		 M410.3,121.6c-1.4,0-2.7,0.7-3.7,2.1V135c1.3,0.8,2.4,1.2,3.3,1.2c2.3,0,3.5-2.6,3.5-7.7C413.4,123.9,412.4,121.6,410.3,121.6z"/>
	<path class="st55" d="M444.8,118.2c2.5,2.5,3.7,6,3.7,10.6c0,2.1-0.3,3.9-0.8,5.6s-1.3,3.1-2.3,4.3s-2.2,2.1-3.7,2.7
		c-1.5,0.6-3.2,0.9-5.1,0.9s-3.6-0.3-5-1c-1.5-0.6-2.7-1.6-3.7-2.7c-1-1.2-1.8-2.6-2.3-4.3s-0.8-3.5-0.8-5.5c0-2.1,0.3-3.9,0.8-5.6
		s1.3-3.1,2.3-4.3c1-1.2,2.2-2.1,3.7-2.8c1.5-0.7,3.2-1,5.1-1C439.9,115.2,442.7,116.2,444.8,118.2z M436.6,121.2
		c-0.8,0-1.4,0.2-1.8,0.5s-0.8,0.8-1.1,1.5c-0.3,0.6-0.5,1.3-0.6,2.1c-0.1,0.8-0.1,1.7-0.1,2.6c0,1.4,0,2.7,0.1,3.7s0.3,1.9,0.5,2.6
		c0.3,0.7,0.6,1.2,1.1,1.6s1.1,0.5,1.8,0.5c1.5,0,2.5-0.7,3-2s0.7-3.2,0.7-5.6c0-2.5-0.2-4.3-0.7-5.6
		C439,121.9,438,121.2,436.6,121.2z"/>
	<path class="st55" d="M455.1,138.1l-5-21.7c1.7-0.6,3.1-0.9,4.4-0.9s2.2,0.3,2.7,0.8s0.9,1.4,1.2,2.6l1.6,8.2
		c0.8,3.7,1.2,6.4,1.3,8c0,0.3,0.2,0.5,0.4,0.5l2.8-19.4c1.2-0.2,2.8-0.4,4.7-0.4s3.5,0.1,4.7,0.4l2.9,19c0,0.3,0.2,0.5,0.4,0.5
		c0.6-4.1,1.1-6.9,1.4-8.5l2.3-11.2c0.8-0.2,1.9-0.4,3.3-0.4c1.7,0,3.1,0.2,4,0.7l0.3,0.5l-6,24.7c-1.3,0.2-3,0.3-5.1,0.3
		s-3.6-0.2-4.4-0.7s-1.2-1.4-1.4-2.9l-0.8-5.5c-0.5-3.2-1-6.4-1.3-9.7h-0.3c0,0.3-0.5,3.5-1.3,9.6l-1.4,8.9
		c-1.6,0.2-3.5,0.3-5.4,0.3c-2,0-3.4-0.3-4.1-0.8C456,140.6,455.5,139.6,455.1,138.1z"/>
	<path class="st55" d="M511.3,131.4H498c0.1,1.5,0.5,2.7,1.2,3.6c0.7,0.9,1.9,1.3,3.5,1.3c0.8,0,1.8-0.1,2.8-0.4
		c1.1-0.2,2.3-0.6,3.7-1.1c1.1,1.2,1.8,2.7,2.1,4.7c-2.7,1.9-6.1,2.9-10,2.9c-2.1,0-4-0.3-5.4-1c-1.5-0.7-2.6-1.6-3.5-2.9
		s-1.5-2.7-1.9-4.4s-0.6-3.5-0.6-5.5c0-1.9,0.2-3.7,0.7-5.3c0.5-1.6,1.2-3,2.1-4.2s2.1-2.1,3.6-2.8c1.5-0.7,3.1-1,5.1-1
		c1.6,0,3.1,0.3,4.4,0.8c1.3,0.6,2.4,1.3,3.4,2.3c0.9,1,1.6,2.1,2.1,3.4s0.7,2.8,0.7,4.4C512,128.2,511.7,129.9,511.3,131.4z
		 M497.9,125.8h6.7v-0.6c0-1.3-0.3-2.3-0.8-3.1s-1.4-1.2-2.5-1.2s-1.9,0.4-2.4,1.2C498.3,122.8,498,124.1,497.9,125.8z"/>
	<path class="st55" d="M515.3,119.7c0.2-0.7,0.5-1.4,1-2.3c0.5-0.8,1-1.4,1.4-1.8c3.1,0.2,5.3,1.8,6.6,4.7c1.3-3.1,3.4-4.6,6.4-4.6
		c0.9,0,2,0.1,3.4,0.4c0,1.1-0.2,2.3-0.5,3.8s-0.8,2.7-1.5,3.7c-0.6-0.2-1.5-0.4-2.6-0.5c-1.7,0-3.1,0.9-4.2,2.6v15.9
		c-1.1,0.2-2.5,0.3-4,0.3s-2.9-0.1-4-0.3V125C517.2,122.4,516.6,120.7,515.3,119.7z"/>
	<path class="st55" d="M547.4,121.9v19.7c-0.6,0.1-1.2,0.2-1.9,0.2c-0.7,0.1-1.4,0.1-2.1,0.1s-1.4,0-2.1-0.1s-1.3-0.1-1.9-0.2v-17
		c0-2-0.8-3-2.4-3h-0.8c-0.2-0.7-0.3-1.6-0.3-2.7s0.1-2.1,0.3-2.9c0.9-0.1,1.7-0.1,2.5-0.2s1.4-0.1,2-0.1h1.1c1.7,0,3.1,0.6,4.1,1.6
		C546.9,118.5,547.4,120,547.4,121.9z M538.5,105.7c1-0.6,2.3-0.8,3.8-0.8c1.6,0,2.8,0.3,3.7,0.8c0.4,0.9,0.6,1.9,0.6,3
		s-0.2,2.1-0.6,3c-1,0.5-2.3,0.8-3.9,0.8c-1.6,0-2.8-0.3-3.7-0.8c-0.4-0.9-0.6-1.9-0.6-3S538,106.6,538.5,105.7z"/>
	<path class="st55" d="M575.5,124.7v10.5c0,2.3,0.4,3.9,1.2,5.1c-1.3,1.2-2.8,1.7-4.7,1.7c-1.8,0-3-0.4-3.6-1.2
		c-0.7-0.8-1-2.1-1-3.7v-10.9c0-1.2-0.2-2-0.5-2.6s-0.9-0.8-1.8-0.8c-0.5,0-1.1,0.1-1.7,0.4c-0.7,0.3-1.3,0.7-2,1.3v17.1
		c-0.6,0.1-1.2,0.2-1.9,0.2c-0.7,0.1-1.4,0.1-2.1,0.1s-1.4,0-2.1-0.1s-1.3-0.1-1.9-0.2V116l0.4-0.4h3c2.1,0,3.5,1,4.2,3.1
		c2.4-2.1,4.8-3.2,7.1-3.2c2.4,0,4.2,0.8,5.5,2.5S575.5,121.9,575.5,124.7z"/>
	<path class="st55" d="M597.1,117.6c1.2-1.3,2.8-2,4.8-2.1c0.5,0.4,1.1,1,1.6,1.8s0.8,1.6,0.9,2.3c-1,0.7-1.4,1.9-1.4,3.7v13.5
		c0,3.1-0.2,5.8-0.7,7.8c-0.5,2.1-1.2,3.7-2.3,4.9c-1,1.2-2.3,2.1-3.8,2.5s-3.3,0.7-5.4,0.7c-3.5,0-6.7-0.6-9.6-1.7
		c0-1,0.2-2,0.6-3.1c0.4-1.1,0.8-2,1.4-2.7c2.3,1,4.6,1.5,7,1.5c3.5,0,5.2-1.7,5.2-5.2v-1.7c-1.8,1.3-3.8,2-5.8,2
		c-3,0-5.3-1.2-6.9-3.6c-1.5-2.4-2.3-5.7-2.3-9.8c0-2.1,0.3-4,0.8-5.6c0.5-1.7,1.3-3.1,2.2-4.2s2-2.1,3.2-2.7s2.5-0.9,3.9-0.9
		C592.9,115.2,595.2,116,597.1,117.6z M595.2,133.9v-11c-1.2-1.2-2.3-1.7-3.4-1.7c-2.3,0-3.5,2.6-3.5,7.7c0,4.5,1,6.8,3,6.8
		C592.7,135.6,594,135,595.2,133.9z"/>
	<path class="st55" d="M336.8,192.7v3.7v0.1c1.6-0.1,2.8-0.1,3.8-0.1h11.9c0,1.3,0,2.2-0.1,2.9c-0.4,2.6-2.1,3.9-5.2,3.9h-13.6
		c-1.5,0-2.6-0.4-3.5-1.3s-1.3-2-1.3-3.5v-30l0.4-0.4h22.1c0.2,1,0.3,2.1,0.3,3.2c0,1.2-0.2,2.4-0.7,3.6h-14v3.7v3.6
		c0.9,0,2-0.1,3.5-0.1h7.8c0.3,1,0.5,2.1,0.5,3.3s-0.1,2.4-0.5,3.4h-11.3L336.8,192.7L336.8,192.7z"/>
	<path class="st55" d="M365.6,177c1.6,0,3.2,0.4,4.8,1.1v-12.4l0.3-0.4h3.1c1.6,0,2.8,0.4,3.4,1.1s1,2,1,3.7v25.5
		c0,1.8,0.5,3,1.4,3.7c-0.2,0.7-0.5,1.5-1,2.3s-1,1.4-1.5,1.8c-2.5-0.1-4.3-1-5.5-2.9c-2,2.1-4.5,3.2-7.4,3.2s-5.1-1.2-6.6-3.6
		c-1.5-2.4-2.3-5.7-2.3-9.8c0-2.1,0.3-3.9,0.8-5.6s1.3-3.1,2.2-4.2c0.9-1.2,2-2.1,3.2-2.7C362.9,177.3,364.2,177,365.6,177z
		 M366.6,197.4c1.4,0,2.7-0.7,3.8-2v-11.2c-1.4-0.8-2.5-1.2-3.4-1.2c-2.3,0-3.5,2.6-3.5,7.7C363.5,195.1,364.6,197.4,366.6,197.4z"
		/>
	<path class="st55" d="M384.3,194.4v-10.5c0-2.2-0.4-3.9-1.2-5.1c1.3-1.1,2.8-1.7,4.6-1.7s3,0.4,3.7,1.2c0.6,0.8,1,2.1,1,3.7v10.9
		c0,1.2,0.1,2.1,0.4,2.6c0.3,0.6,1,0.8,2.1,0.8s2.3-0.6,3.4-1.7v-17.1c1.1-0.2,2.4-0.3,4-0.3c1.5,0,2.9,0.1,4,0.3v18.2
		c0,1.9,0.5,3.1,1.4,3.7c-0.2,0.7-0.5,1.4-1,2.2s-1,1.4-1.5,1.8c-2.8-0.1-4.8-1.3-6-3.6c-2.7,2.4-5.2,3.6-7.6,3.6s-4.2-0.8-5.5-2.5
		C384.9,199.4,384.3,197.2,384.3,194.4z"/>
	<path class="st55" d="M425.4,188.8v-0.7c0-1.9-0.2-3.3-0.6-4.2s-1.2-1.3-2.3-1.3c-1.2,0-2,0.6-2.5,1.8s-0.7,3.1-0.7,5.9
		c0,1.4,0.1,2.5,0.3,3.4s0.5,1.7,0.8,2.2c0.4,0.6,0.8,1,1.4,1.2s1.2,0.4,2,0.4s1.7-0.2,2.6-0.5c1-0.3,2-0.9,3.1-1.6
		c0.3,0.2,0.6,0.4,1,0.7c0.3,0.3,0.6,0.7,0.9,1.1c0.3,0.4,0.5,0.9,0.7,1.3c0.2,0.5,0.4,0.9,0.5,1.3c-1.1,1.2-2.6,2.1-4.4,2.9
		s-3.7,1.1-5.5,1.1c-3.7,0-6.5-1.2-8.4-3.6s-2.9-5.8-2.9-10.2c0-2.3,0.3-4.2,1-5.9c0.6-1.7,1.5-3.1,2.5-4.1s2.2-1.9,3.6-2.5
		s2.8-0.8,4.2-0.8c1.5,0,2.9,0.2,4.1,0.6c1.2,0.4,2.3,1,3.2,1.7s1.6,1.6,2.1,2.7c0.5,1,0.7,2.2,0.7,3.5c0,1.4-0.4,2.4-1.3,3
		s-1.9,0.9-3.1,0.9C427.2,189.1,426.2,189,425.4,188.8z"/>
	<path class="st55" d="M458.7,199.4c-0.2,0.7-0.5,1.5-1,2.3s-1,1.4-1.5,1.8c-2.4-0.1-4.2-1-5.5-2.7c-2.2,2.1-4.6,3.1-7.2,3.1
		c-1.3,0-2.5-0.2-3.5-0.6s-1.8-1-2.5-1.7s-1.2-1.6-1.5-2.5s-0.5-1.9-0.5-2.9c0-1.5,0.3-2.8,0.8-3.9s1.3-2,2.2-2.8
		c0.9-0.7,2-1.3,3.2-1.7s2.5-0.6,4-0.6c0.8,0,1.5,0,2.1,0s1.1,0,1.6,0.1v-1c0-2.2-1.1-3.3-3.3-3.3c-1.4,0-4,0.6-7.5,1.7
		c-1-1.2-1.7-3.1-2-5.6c0.8-0.3,1.7-0.6,2.7-0.9c1-0.3,2-0.5,3.1-0.7s2.1-0.4,3.1-0.5s2-0.2,2.8-0.2c1.2,0,2.4,0.2,3.5,0.5
		s2.1,0.9,2.9,1.6c0.8,0.7,1.5,1.6,2,2.7s0.7,2.4,0.7,4V196C457.2,197.6,457.7,198.8,458.7,199.4z M443.2,195.6
		c0,1.6,0.9,2.4,2.8,2.4c1,0,2-0.5,3.2-1.5v-4.1c-0.7,0-1.3-0.1-1.7-0.1s-0.8,0-1,0C444.3,192.3,443.2,193.4,443.2,195.6z"/>
	<path class="st55" d="M477.9,177.5c0.2,0.9,0.3,1.9,0.3,2.9c0,0.9-0.1,1.9-0.3,2.8l-6.1-0.1v11.8c0,1.6,0.8,2.4,2.3,2.4h2.9
		c0.4,1.2,0.7,2.4,0.7,3.4s-0.1,1.8-0.2,2.2c-2.5,0.3-4.9,0.5-7,0.5c-4.3,0-6.5-2.4-6.5-7.1v-13.2l-4,0.1c-0.2-0.9-0.4-1.8-0.4-2.8
		s0.1-2,0.4-2.9l4,0.1v-3c0-1.7,0.3-3,1-3.7s1.8-1.1,3.4-1.1h3.1l0.4,0.4v7.4L477.9,177.5z"/>
	<path class="st55" d="M492.3,183.4v19.7c-0.6,0.1-1.2,0.2-1.9,0.2c-0.7,0.1-1.4,0.1-2.1,0.1s-1.4,0-2.1-0.1s-1.3-0.1-1.9-0.2v-17
		c0-2-0.8-3-2.4-3h-0.8c-0.2-0.6-0.3-1.6-0.3-2.7c0-1.1,0.1-2.1,0.3-2.9c0.9-0.1,1.7-0.1,2.5-0.2c0.8-0.1,1.4-0.1,2-0.1h1.1
		c1.7,0,3.1,0.6,4.1,1.6C491.8,180,492.3,181.5,492.3,183.4z M483.4,167.2c1-0.6,2.3-0.8,3.9-0.8s2.9,0.3,3.7,0.8
		c0.4,0.9,0.6,1.9,0.6,3s-0.2,2.1-0.6,3c-1,0.5-2.3,0.8-3.9,0.8s-2.8-0.3-3.7-0.8c-0.4-0.9-0.6-1.9-0.6-3
		C482.7,169.1,482.9,168.1,483.4,167.2z"/>
	<path class="st55" d="M516.8,179.8c2.5,2.5,3.7,6,3.7,10.6c0,2.1-0.3,3.9-0.8,5.6c-0.5,1.7-1.3,3.1-2.3,4.3s-2.2,2.1-3.7,2.7
		c-1.5,0.6-3.2,0.9-5.1,0.9s-3.6-0.3-5-1c-1.5-0.6-2.7-1.6-3.7-2.7c-1-1.2-1.8-2.6-2.3-4.3s-0.8-3.5-0.8-5.5c0-2.1,0.3-3.9,0.8-5.6
		c0.5-1.7,1.3-3.1,2.3-4.3s2.2-2.1,3.7-2.8c1.5-0.6,3.2-1,5.1-1C512,176.7,514.7,177.8,516.8,179.8z M508.6,182.7
		c-0.8,0-1.4,0.2-1.8,0.5s-0.8,0.9-1.1,1.5c-0.3,0.6-0.5,1.3-0.6,2.1s-0.1,1.7-0.1,2.6c0,1.4,0,2.7,0.1,3.7s0.3,1.9,0.5,2.6
		c0.3,0.7,0.6,1.2,1.1,1.6s1.1,0.5,1.8,0.5c1.5,0,2.5-0.7,3-2s0.7-3.2,0.7-5.6c0-2.5-0.2-4.3-0.7-5.6
		C511.1,183.4,510.1,182.7,508.6,182.7z"/>
	<path class="st55" d="M547.2,186.2v10.5c0,2.3,0.4,3.9,1.2,5.1c-1.3,1.2-2.8,1.7-4.7,1.7c-1.8,0-3-0.4-3.6-1.2
		c-0.7-0.8-1-2.1-1-3.7v-10.9c0-1.2-0.2-2-0.5-2.6s-0.9-0.8-1.8-0.8c-0.5,0-1.1,0.1-1.7,0.4c-0.7,0.3-1.3,0.7-2,1.3v17.1
		c-0.6,0.1-1.2,0.2-1.9,0.2c-0.7,0.1-1.4,0.1-2.1,0.1s-1.4,0-2.1-0.1s-1.3-0.1-1.9-0.2v-25.6l0.4-0.4h3c2.1,0,3.5,1,4.2,3.1
		c2.4-2.1,4.8-3.2,7.1-3.2c2.4,0,4.2,0.8,5.5,2.5C546.5,181.2,547.2,183.4,547.2,186.2z"/>
</g>
<g>
	<g>
		<g>
			<path class="st8" d="M225.6,158.3l-45.9-25.1l0.1,36.8c0,7.3,7.8,13.8,20.5,20.6c12.6,6.9,40.1,6.9,52.7,0s18.7-14.6,18.5-20.6
				l0.1-36.8L225.6,158.3z"/>
			<path class="st56" d="M179.7,135l0.1,28.7c6.4,4.7,36.6,23.3,46.5,23.4c10.1,0,40-18,45.2-22.7l0.1-28l-45.9-4.6L179.7,135z"/>
			<polygon class="st57" points="225.6,105.8 176,132.6 162.2,135.2 162.2,140.1 162.2,140.1 225.6,174.7 289.5,140.1 289.5,140.1 
				289.5,135.2 275.5,132.6 			"/>
			<polygon class="st10" points="162.2,135.2 225.6,169.8 289.5,135.2 225.6,100.9 			"/>
			<g>
				<polygon class="st58" points="190.4,169.9 192.7,169.5 192.7,151.9 190.4,150.7 				"/>
			</g>
			<polygon class="st58" points="190.4,150.7 192.7,151.9 227.8,132.9 225.6,131.3 			"/>
			<g>
				<path class="st7" d="M225.8,130.2c-3.5,0-6.3,1.3-6.3,3c0,1.6,2.8,3,6.3,3c3.4,0,6.3-1.3,6.3-3S229.3,130.2,225.8,130.2z"/>
				<rect x="219.6" y="131.2" class="st7" width="12.5" height="2.1"/>
				<path class="st8" d="M225.8,128.3c-3.5,0-6.3,1.3-6.3,3c0,1.6,2.8,3,6.3,3c3.4,0,6.3-1.3,6.3-3
					C232.1,129.7,229.3,128.3,225.8,128.3z"/>
			</g>
		</g>
	</g>
	<path class="st59" d="M194.3,176.8c1.1-0.9,1.9-2.2,1.8-3.7c0-2.6-2.1-4.6-4.7-4.6c-2.6,0-4.6,2.1-4.6,4.7c0,1.5,0.8,2.9,1.9,3.7
		c-3.2,1.2-5.6,4.3-5.5,7.9c0,0,0.1,9.7,0.1,11.4c0,5.9,16.8,5.5,16.7-0.1c0-4.9-0.1-11.4-0.1-11.4C200,181,197.6,177.9,194.3,176.8
		z"/>
	<path class="st60" d="M196.2,173.1c0-2.2-1.6-4.1-3.7-4.5c0,0,0.1,0.1,0.2,0.1c1.1,0.5,2.8,3,1.3,5.5s-5.5,2.3-6.3,1.3l0,0
		c0.3,0.5,0.7,1,1.2,1.4c-0.6,0.2-1.1,0.5-1.6,0.8l0,0c1-0.4,2.2,0.7,5.2,0.6c2.8-0.1,3.8-0.5,4.6,0.1c-0.8-0.7-1.7-1.2-2.7-1.6
		C195.4,175.9,196.2,174.6,196.2,173.1z"/>
</g>
<rect x="-141.8" y="-218.6" class="st61" width="60.5" height="60.5"/>
<rect x="-60.5" y="-218.6" class="st62" width="60.5" height="60.5"/>
<linearGradient id="SVGID_2_" gradientUnits="userSpaceOnUse" x1="192.7" y1="670.1" x2="281" y2="670.1" gradientTransform="matrix(1 0 0 -1 0 502)">
	<stop  offset="0" style="stop-color:#22BABC"/>
	<stop  offset="0.5375" style="stop-color:#94DEDE"/>
	<stop  offset="1" style="stop-color:#FFFFFF"/>
</linearGradient>
<rect x="192.7" y="-206.4" class="st63" width="88.3" height="76.6"/>
<text transform="matrix(1 0 0 1 1002.0622 156.1998)"><tspan x="0" y="0" class="st64 st65 st66">Get your</tspan><tspan x="0" y="96" class="st64 st65 st66">Scholarship</tspan><tspan x="0" y="192" class="st64 st65 st66">here</tspan></text>
<rect x="984.1" y="97.4" class="st64" width="3.6" height="267.7"/>
</svg>
