<?xml version="1.0" encoding="utf-8"?>
<!-- Generator: Adobe Illustrator 25.0.0, SVG Export Plug-In . SVG Version: 6.00 Build 0)  -->
<svg version="1.1" id="Layer_1" xmlns="http://www.w3.org/2000/svg" xmlns:xlink="http://www.w3.org/1999/xlink" x="0px" y="0px"
	 viewBox="0 0 1536 500" style="enable-background:new 0 0 1536 500;" xml:space="preserve">
<style type="text/css">
	.st0{fill:url(#SVGID_1_);}
	.st1{display:none;}
	.st2{display:inline;fill:#F5F5F5;}
	.st3{fill:#263238;}
	.st4{fill:#83ABF2;}
	.st5{opacity:0.7;}
	.st6{fill:#FFFFFF;}
	.st7{opacity:0.3;}
	.st8{fill:#F5F5F5;}
	.st9{fill:#E0E0E0;}
	.st10{fill:#EBEBEB;}
	.st11{fill:#FAFAFA;}
	.st12{opacity:0.3;enable-background:new    ;}
	.st13{fill:none;stroke:#455A64;stroke-width:2;stroke-miterlimit:10;}
	.st14{fill:#455A64;}
	.st15{font-family:'Montserrat-ExtraBold';}
	.st16{font-size:16.1166px;}
	.st17{fill:#FFBF9D;}
	.st18{fill:#FF9A6C;}
	.st19{opacity:0.2;}
	.st20{fill:#383884;}
	.st21{font-family:'CalisMTBol';}
	.st22{font-size:80px;}
</style>
<g id="Layer_2_1_">
	
		<linearGradient id="SVGID_1_" gradientUnits="userSpaceOnUse" x1="0" y1="827.9" x2="1536" y2="827.9" gradientTransform="matrix(1 0 0 1 0 -578)">
		<stop  offset="0" style="stop-color:#22BABC"/>
		<stop  offset="0.5375" style="stop-color:#94DEDE"/>
		<stop  offset="1" style="stop-color:#FFFFFF"/>
	</linearGradient>
	<rect class="st0" width="1536" height="499.8"/>
</g>
<g id="Background_Simple" class="st1">
	<path class="st2" d="M959.5,59.2l-1.1-1.8c-9.2-15.1-25.7-24.2-43.1-23.1c-2.2,0.1-4.5,0.5-6.7,0.9C892.8,38.6,879,50.6,873.3,66
		c-3.4,9-4.3,19.4-10.7,26.6c-8.3,9.3-22.4,9.6-34.8,9.2c-12.4-0.4-26.5-0.1-34.8,9.3c-5.2,5.9-6.8,14.2-6.4,22.1
		c1.1,20.8,15.6,39.4,34,48.6c18.4,9.2,40.1,10.1,60.3,6c28.3-5.7,55.1-21.3,71.3-45.5C968.4,118.2,972.5,85.2,959.5,59.2z"/>
	<circle class="st2" cx="823.7" cy="64.2" r="21.7"/>
</g>
<g id="Floor">
	<g>
		<path class="st3" d="M653.4,484c0,0.1-105.4,0.3-235.4,0.3s-235.4-0.1-235.4-0.3s105.4-0.3,235.4-0.3S653.4,483.8,653.4,484z"/>
	</g>
</g>
<g>
	<g>
		<g>
			<polygon class="st4" points="615.3,188.4 586.3,214.4 544.4,305.8 573.1,317.5 614,227.9 			"/>
		</g>
		<g class="st5">
			<g>
				<path class="st6" d="M614,227.9c-1.5,0.2-3-0.7-2.9-2.2c-1.8,2.2-5,3.2-7.8,2.2s-4.6-3.7-4.6-6.7c-2.4,1.4-5.7,1.4-8.1,0
					c-2.4-1.4-4.1-4.3-4.1-7l28.6-25.8L614,227.9z"/>
			</g>
		</g>
		<g>
			<path class="st4" d="M603.7,198.9c0,0,0.8,7.4,11.1,5.7l0.5-16.1L603.7,198.9z"/>
		</g>
		<g class="st7">
			<path d="M598.7,221.3L558.3,311l-13.9-5.2l41.9-91.4l0.2-0.2c0,0-0.1,1.6,0.8,3.5c0.5,1.2,1.5,2.5,3.1,3.5c1.9,1.2,4,1.4,5.5,1.1
				C597.5,222,598.7,221.3,598.7,221.3z"/>
		</g>
		<g class="st7">
			<path d="M611,225.8l-41.6,90.3l3.7,1.5l40.8-89.6c0,0-2.2,0.4-2.9-1.6C611,226.1,611.1,226,611,225.8z"/>
		</g>
		<g>
			<g>
				<path class="st6" d="M598.2,212.7c0,0-0.1,0.1-0.1,0.4c0,0.2,0.2,0.8,0.8,0.8s1.2-0.2,1.9-0.7c0.3-0.2,0.7-0.5,0.8-0.9
					c0.1-0.4,0.1-0.9-0.1-1.3c-0.3-0.3-0.8-0.5-1.3-0.7c-0.5,0-1.1,0-1.6,0.1c-1.1,0.2-2.3,0.7-3.4,1.4c-0.5,0.4-1,0.9-1,1.5
					c0,0.7,0.3,1.3,0.9,1.6c1.2,0.8,2.7,0.7,4.2,0.3c2.9-0.8,5.2-3.2,5.6-5.7c0.1-0.7-0.1-1.3-0.5-1.6c-0.4-0.4-1-0.7-1.5-0.9
					c-1.1-0.3-2.2-0.5-3.2-0.5c-2,0-3.5,0.4-4.6,0.9c-0.5,0.2-0.9,0.4-1.1,0.5c-0.2,0.1-0.4,0.2-0.4,0.2s0.5-0.3,1.5-0.9
					c1-0.4,2.6-1,4.6-1c1,0,2.1,0.1,3.2,0.4c0.5,0.2,1.1,0.4,1.5,1c0.4,0.4,0.7,1.2,0.5,1.9c-0.4,2.6-2.7,5-5.8,5.9
					c-0.8,0.2-1.5,0.2-2.3,0.2s-1.5-0.2-2.1-0.7s-1-1.1-1-1.9c0-0.8,0.5-1.3,1.1-1.8c1.1-0.8,2.3-1.2,3.4-1.4
					c0.5-0.1,1.1-0.2,1.8-0.1c0.5,0,1.1,0.2,1.4,0.7c0.3,0.4,0.3,1,0.1,1.4c-0.2,0.4-0.5,0.8-0.9,1c-0.7,0.4-1.3,0.7-2,0.5
					c-0.7-0.1-0.9-0.5-0.9-0.9C598.1,212.8,598.2,212.7,598.2,212.7z"/>
			</g>
		</g>
		<g>
			<g>
				<path class="st6" d="M614.2,211.6c0,0-0.4,0-1.2,0c-0.8,0.1-1.9,0.3-3.2,1c-1.3,0.7-2.6,1.6-4.1,2.9s-3,2.6-5,3.4
					c-2.1,0.8-4.2,0.9-6,0.4c-1.9-0.4-3.4-1.3-4.5-2.2c-1.1-1-1.8-1.9-2.2-2.6c-0.4-0.7-0.5-1.1-0.5-1.1s0.1,0.1,0.1,0.2
					c0,0.1,0.2,0.4,0.4,0.8c0.4,0.7,1.1,1.6,2.2,2.5c1.1,0.9,2.5,1.8,4.4,2.2c1.9,0.4,4,0.3,5.9-0.4c2-0.8,3.6-2.2,5-3.4
					s2.7-2.3,4.1-2.9c1.3-0.7,2.4-0.9,3.2-0.9C613.8,211.5,614.2,211.6,614.2,211.6z"/>
			</g>
		</g>
		<g>
			<g>
				<path class="st6" d="M614.3,220.6c0,0.1-0.5-0.8-2.1-0.9c-1.4-0.1-3.4,0.4-5.5,1c-2.1,0.7-4,1.5-5.3,2.2
					c-0.7,0.3-1.1,0.7-1.5,0.9c-0.3,0.2-0.5,0.3-0.5,0.3s0.2-0.1,0.5-0.3c0.3-0.2,0.9-0.5,1.4-0.9c1.3-0.8,3.1-1.5,5.3-2.2
					c1.1-0.3,2.1-0.5,3.1-0.8c1-0.2,1.9-0.3,2.5-0.2c0.8,0.1,1.3,0.3,1.6,0.5C614.2,220.4,614.3,220.6,614.3,220.6z"/>
			</g>
		</g>
		<g>
			<g>
				<path class="st6" d="M602.2,227.4c0,0,0.3-0.3,1-0.9c0.7-0.4,1.5-1.1,2.7-1.3c1.2-0.3,2.4,0.1,3,0.7c0.3,0.2,0.5,0.5,0.7,0.8
					c0.1,0.2,0.1,0.3,0.1,0.3s-0.2-0.4-0.9-0.9s-1.6-0.8-2.9-0.5c-1.2,0.2-2.1,0.9-2.7,1.3C602.6,227.1,602.2,227.4,602.2,227.4z"/>
			</g>
		</g>
		<g>
			<g>
				<path class="st6" d="M614.7,206.2c0,0,0,0-0.1,0.1c-0.1,0.1-0.2,0.2-0.4,0.3c-0.2,0.1-0.4,0.3-0.8,0.3c-0.3,0-0.8,0-1.1,0
					c-0.8-0.1-1.8-0.5-2.7-0.9c-1-0.3-2.2-0.5-3.4-0.8c-2.5-0.3-4.7-0.2-6.4-0.2c-0.8,0-1.3,0-2,0.1c-0.4,0-0.8,0-0.8,0
					s0.2,0,0.7-0.1c0.4,0,1.1-0.1,2-0.1c1.6-0.1,4-0.2,6.5,0.1c1.2,0.1,2.4,0.4,3.5,0.8c1,0.3,2,0.7,2.7,0.9c0.8,0.2,1.4,0,1.9-0.3
					C614.5,206.3,614.7,206.2,614.7,206.2z"/>
			</g>
		</g>
	</g>
	<g id="Background_Complete">
		<g>
			<g>
				<g>
					<g>
						<g>
							<g>
								<g>
									<g>
										<g>
											
												<rect x="199.8" y="293.6" transform="matrix(0.9829 -0.1839 0.1839 0.9829 -55.5145 49.2623)" class="st8" width="75.9" height="60.7"/>
											<g>
												<path class="st9" d="M269.6,287.1c0,0-0.1,0-0.3,0.1c-0.2,0-0.5,0.1-1.1,0.2c-1,0.2-2.3,0.4-4.1,0.8
													c-3.5,0.7-8.8,1.6-15.3,3c-13.1,2.5-31.7,6-53.9,10.2l0.2-0.3c3.3,17.8,7.1,38.2,11.2,59.7l0,0l-0.3-0.2
													c27.7-5.2,53.3-10,74.6-13.9l-0.2,0.3c-3.3-18-6-32.9-8-43.4c-1-5.3-1.6-9.3-2.2-12.1c-0.2-1.4-0.4-2.4-0.5-3.2
													C269.7,287.5,269.6,287.1,269.6,287.1s0.1,0.3,0.2,1.1s0.3,1.8,0.7,3.2c0.5,2.7,1.3,6.8,2.3,12.1
													c2,10.4,4.8,25.4,8.2,43.4v0.2h-0.2c-21.3,4-47.1,8.8-74.6,14h-0.3l-0.1-0.3l0,0c-4.1-21.5-7.8-41.9-11.1-59.7v-0.2h0.2
													c22.2-4.1,40.9-7.6,54.1-10c6.6-1.2,11.7-2.1,15.3-2.7c1.8-0.3,3.1-0.5,4.1-0.8c0.4-0.1,0.8-0.1,1-0.2
													C269.5,287.1,269.7,287.1,269.6,287.1z"/>
											</g>
										</g>
									</g>
								</g>
							</g>
						</g>
					</g>
				</g>
			</g>
			<g>
				<g>
					<g>
						<g>
							
								<rect x="202.5" y="297.4" transform="matrix(0.9829 -0.1839 0.1839 0.9829 -55.5228 49.2647)" class="st10" width="70.7" height="53.1"/>
						</g>
					</g>
				</g>
			</g>
			<g>
				<g>
					<g>
						<g>
							<polygon class="st9" points="208,356.6 226.2,319.6 245,337 253.1,324.3 277.4,343.6 							"/>
						</g>
					</g>
				</g>
			</g>
			<g>
				<g>
					<g>
						<g>
							<g>
								<g>
									<path class="st9" d="M246.8,311.7c0.5,3.1-1.4,5.9-4.5,6.5c-3.1,0.5-5.9-1.4-6.5-4.4c-0.5-3.1,1.4-5.9,4.5-6.5
										C243.4,306.8,246.2,308.6,246.8,311.7z"/>
								</g>
							</g>
						</g>
					</g>
				</g>
			</g>
		</g>
		<g>
			<g>
				
					<rect x="333.2" y="77.3" transform="matrix(0.1781 -0.984 0.984 0.1781 207.7887 562.3334)" class="st11" width="214.7" height="158.9"/>
				<g>
					<path class="st9" d="M499.6,276.6c0,0,0-0.3,0.1-1c0.1-0.7,0.3-1.6,0.5-3c0.4-2.6,1.1-6.5,2.1-11.5c1.8-10,4.4-24.7,7.8-43.4
						c6.7-37.2,16.2-89.9,27.4-152.5l0.2,0.3c-47-8.6-100.2-18.1-156.3-28.3l0,0l0.3-0.2c-14.3,78.8-27.5,151.8-38.3,211.2l-0.2-0.2
						c47.3,8.7,86.4,15.7,113.6,20.7c13.6,2.5,24.3,4.4,31.6,5.8c3.6,0.7,6.4,1.2,8.3,1.5C498.7,276.3,499.6,276.6,499.6,276.6
						s-1-0.1-2.9-0.4c-1.9-0.3-4.6-0.9-8.2-1.4c-7.2-1.3-17.9-3.2-31.5-5.6c-27.3-4.9-66.4-12-113.8-20.5H343v-0.2
						c10.8-59.4,23.9-132.5,38.2-211.2v-0.3l0.3,0.1l0,0c56.2,10.2,109.3,19.9,156.4,28.3h0.2v0.2c-11.4,62.6-21,115.4-27.8,152.6
						c-3.4,18.5-6,33.3-7.9,43.2c-0.9,4.9-1.6,8.8-2.1,11.4c-0.2,1.3-0.4,2.3-0.5,3C499.7,276.2,499.6,276.6,499.6,276.6z"/>
				</g>
			</g>
			
				<rect x="393.2" y="60.5" transform="matrix(0.1781 -0.984 0.984 0.1781 254.6081 493.3613)" class="st9" width="58.8" height="67.5"/>
			
				<rect x="488.3" y="59.2" transform="matrix(0.1781 -0.984 0.984 0.1781 324.9371 550.7643)" class="st9" width="7.7" height="43.2"/>
			
				<rect x="439.1" y="82.2" transform="matrix(0.1781 -0.984 0.984 0.1781 222.5058 554.0306)" class="st9" width="7.7" height="123.3"/>
			
				<rect x="436.7" y="95.5" transform="matrix(0.1781 -0.984 0.984 0.1781 207.4479 562.5891)" class="st9" width="7.7" height="123.3"/>
			
				<rect x="434.2" y="108.8" transform="matrix(0.1781 -0.984 0.984 0.1781 192.3743 571.1423)" class="st9" width="7.7" height="123.3"/>
			
				<rect x="431.8" y="122.1" transform="matrix(0.1781 -0.984 0.984 0.1781 177.3167 579.7009)" class="st9" width="7.7" height="123.3"/>
			
				<rect x="429.4" y="135.4" transform="matrix(0.1781 -0.984 0.984 0.1781 162.2433 588.2542)" class="st9" width="7.7" height="123.3"/>
			
				<rect x="421.2" y="180.9" transform="matrix(0.1781 -0.984 0.984 0.1781 110.6814 617.5627)" class="st9" width="7.7" height="123.3"/>
			
				<rect x="399.8" y="171.5" transform="matrix(0.1781 -0.984 0.984 0.1781 129.6824 565.9232)" class="st9" width="7.7" height="67.7"/>
			
				<rect x="486.1" y="71.4" transform="matrix(0.1781 -0.984 0.984 0.1781 311.099 558.5728)" class="st9" width="7.7" height="43.2"/>
			
				<rect x="484" y="83.6" transform="matrix(0.1781 -0.984 0.984 0.1781 297.3415 566.5275)" class="st9" width="7.7" height="43.2"/>
			
				<rect x="473.5" y="102.7" transform="matrix(0.1781 -0.984 0.984 0.1781 278.1548 565.1471)" class="st9" width="7.7" height="26.7"/>
		</g>
		<g>
			<g>
				<path class="st9" d="M570.4,36l-13.5,0.5l-1.4,3.7c-0.4,1.3-0.7,2.3-0.7,3.1c0,1.1,0.5,1.9,1.4,2.3c0.5,0.3,1.8,0.4,3.7,0.5v1
					l-12.7,0.5v-1c1.3-0.2,2.4-0.9,3.3-1.9c0.9-1,1.9-3,3.1-5.9L566,8.1h0.5l15,30.7c1.4,3,2.6,4.7,3.5,5.5c0.7,0.5,1.5,0.9,2.7,0.9
					v1L569.3,47v-1h0.8c1.4-0.1,2.5-0.3,3.1-0.8c0.4-0.3,0.5-0.8,0.5-1.3c0-0.3-0.1-0.7-0.2-1c0-0.2-0.3-0.9-0.9-2.1L570.4,36z
					 M569.3,34l-6.3-13l-5.4,13.4L569.3,34z"/>
			</g>
		</g>
		<g>
			<g>
				<g>
					<g>
						<g>
							<g>
								<g>
									<g>
										<g>
											
												<rect x="540.8" y="124.8" transform="matrix(0.9485 -0.3168 0.3168 0.9485 -18.2389 189.3966)" class="st8" width="65.1" height="52"/>
										</g>
									</g>
								</g>
							</g>
						</g>
					</g>
				</g>
				<g>
					<g>
						<g>
							<g>
								
									<rect x="543.1" y="128.1" transform="matrix(0.9485 -0.3168 0.3168 0.9485 -18.2341 189.3943)" class="st10" width="60.5" height="45.4"/>
							</g>
						</g>
					</g>
				</g>
				<g>
					<g>
						<g>
							<g>
								<polygon class="st9" points="551.7,182 562.8,148.4 580.8,161 586.3,149.3 609.1,162.8 								"/>
							</g>
						</g>
					</g>
				</g>
				<g>
					<g>
						<g>
							<g>
								<g>
									<g>
										<path class="st9" d="M579.4,139.3c0.9,2.5-0.5,5.2-3,6c-2.5,0.9-5.2-0.5-6-3c-0.9-2.4,0.5-5.2,3-6
											C575.9,135.4,578.6,136.7,579.4,139.3z"/>
									</g>
								</g>
							</g>
						</g>
					</g>
				</g>
			</g>
			<g>
				<g>
					<g>
						<g>
							<g>
								<g>
									<g>
										<g>
											<g>
												
													<rect x="599" y="57.2" transform="matrix(0.1922 -0.9814 0.9814 0.1922 411.2794 712.3645)" class="st8" width="78.6" height="98.2"/>
												<g>
													<path class="st9" d="M694.1,77.4c0,0-0.2,0-0.4-0.1c-0.3-0.1-0.8-0.1-1.3-0.2c-1.2-0.2-3-0.5-5.3-1
														c-4.6-0.9-11.3-2.2-19.8-3.8c-16.9-3.3-41-7.9-69.7-13.5l0.3-0.2c-4.5,22.9-9.7,49.3-15,77l0,0l-0.2-0.3
														c35.7,7,68.9,13.5,96.5,18.9l-0.3,0.2c4.6-23.2,8.5-42.5,11.1-55.9c1.3-6.7,2.4-12,3.1-15.6c0.3-1.8,0.7-3.2,0.9-4.2
														C694,77.8,694.1,77.4,694.1,77.4s-0.1,0.4-0.2,1.4c-0.2,1-0.4,2.3-0.8,4.1c-0.7,3.6-1.6,8.9-3,15.6
														c-2.6,13.5-6.4,32.8-10.9,56.1v0.2h-0.2c-27.5-5.4-60.7-11.9-96.5-18.9l-0.3-0.1v-0.3l0,0c5.5-27.9,10.6-54.1,15.1-77
														v-0.2l0.2,0.1c28.6,5.7,52.8,10.4,69.8,13.8c8.5,1.6,15.1,3,19.6,4c2.3,0.4,4,0.8,5.2,1c0.5,0.1,1,0.2,1.3,0.2
														C694,77.3,694.1,77.4,694.1,77.4z"/>
												</g>
											</g>
										</g>
									</g>
								</g>
							</g>
						</g>
					</g>
				</g>
				<g>
					<g>
						<g>
							<g>
								
									<rect x="603.9" y="60.7" transform="matrix(0.1922 -0.9814 0.9814 0.1922 411.1936 712.327)" class="st10" width="68.7" height="91.4"/>
							</g>
						</g>
					</g>
				</g>
				<g>
					<g>
						<g>
							<g>
								<polygon class="st9" points="586.9,131.4 626.4,95.6 640.6,125.5 656.6,114.1 676.5,148.9 								"/>
							</g>
						</g>
					</g>
				</g>
				<g>
					<g>
						<g>
							<g>
								<g>
									<g>
										<path class="st9" d="M655,95.9c-0.8,4-4.5,6.5-8.5,5.7c-4-0.8-6.5-4.5-5.7-8.5c0.8-4,4.5-6.5,8.5-5.7
											C653.3,88.1,655.8,92,655,95.9z"/>
									</g>
								</g>
							</g>
						</g>
					</g>
				</g>
			</g>
		</g>
		<g>
			<g>
				<polygon class="st8" points="226.5,15.7 231.6,73.9 254.1,79.9 297.9,74.8 291.7,9.4 				"/>
				<path class="st10" d="M238.4,68.6l-6.9,5.3c0,0,4.2,3.7,9,4.9c4.8,1.2,9.2,1.6,13.6,1.1C254.1,79.9,243.7,78.1,238.4,68.6z"/>
			</g>
			<g>
				<path class="st9" d="M286.5,30.8c0,0.1-11.1,1.3-24.7,2.6c-13.7,1.3-24.8,2.3-24.8,2.2c0-0.1,11.1-1.3,24.7-2.6
					C275.3,31.6,286.5,30.6,286.5,30.8z"/>
			</g>
			<g>
				<path class="st9" d="M287.1,39.7c0,0.1-11.1,1.3-24.7,2.6c-13.7,1.3-24.8,2.3-24.8,2.2c0-0.1,11.1-1.3,24.7-2.6
					C275.9,40.6,287,39.6,287.1,39.7z"/>
			</g>
			<g>
				<path class="st9" d="M288.1,47.6c0,0.1-11.1,1.3-24.7,2.6c-13.7,1.3-24.8,2.3-24.8,2.2c0-0.1,11.1-1.3,24.7-2.6
					C277,48.5,288.1,47.5,288.1,47.6z"/>
			</g>
			<g>
				<path class="st9" d="M288.8,55.2c0,0.1-11.1,1.3-24.7,2.6c-13.7,1.3-24.8,2.3-24.8,2.2s11.1-1.3,24.7-2.6
					C277.7,56.1,288.8,55.1,288.8,55.2z"/>
			</g>
		</g>
	</g>
	<g>
		<polygon class="st9" points="212.5,116.8 258.8,381.8 454,351.1 463,329.3 410.2,84.3 227.3,95.3 		"/>
		<polygon class="st12" points="258.8,381.8 272.6,360.5 226.4,95.6 212.5,116.8 		"/>
		<g>
			<polygon class="st11" points="226.4,95.6 272.6,360.5 463,329.3 414.9,68.7 			"/>
			<g>
				<path class="st3" d="M226.4,95.6c2-0.2,74.1-10.6,188.5-27.1h0.2v0.2c13.4,72.8,30.1,163,48.2,260.6v0.3H463
					c-1,0.1-2.1,0.3-3.2,0.5c-67,11-130.5,21.4-187.1,30.7h-0.2v-0.2C245.2,204,226.8,97.9,226.4,95.6c0.4,2.3,19.1,108.4,46.5,265
					l-0.3-0.2c56.6-9.3,120.2-19.8,187.1-30.7c1.1-0.2,2.2-0.3,3.2-0.5l-0.2,0.3c-18-97.6-34.6-187.8-48.1-260.7l0.2,0.2
					C300.5,85,228.3,95.3,226.4,95.6z"/>
			</g>
		</g>
		<ellipse class="st4" cx="346.8" cy="216.8" rx="32.5" ry="32.5"/>
		<path class="st6" d="M331.9,225.3l-1.4-9.3l32.4-5.2l1.4,8.8c0,0-2,7.6-15,9.7C336.1,231.2,331.9,225.3,331.9,225.3z"/>
		<polygon class="st6" points="325.3,216 348.5,220 368.5,208.8 345.3,205.2 		"/>
		<path class="st9" d="M391.2,132.9L276.5,151c-1.4,0.2-2.7-0.8-3-2.1l-0.4-2.4c-0.2-1.4,0.8-2.7,2.2-3L390,125.4
			c1.4-0.2,2.7,0.8,3,2.1l0.4,2.4C393.5,131.4,392.5,132.7,391.2,132.9z"/>
		<path class="st9" d="M373,152l-72.7,11.5c-1.4,0.2-2.7-0.8-3-2.1l-0.4-2.4c-0.2-1.4,0.8-2.7,2.2-3l72.8-11.5
			c1.4-0.2,2.7,0.8,3,2.1l0.4,2.4C375.4,150.5,374.4,151.8,373,152z"/>
		<path class="st9" d="M399.2,314.7l-72.8,11.5c-1.4,0.2-2.7-0.8-3-2.2l-0.4-2.4c-0.2-1.4,0.8-2.7,2.2-3l72.8-11.5
			c1.4-0.2,2.7,0.8,3,2.2l0.4,2.4C401.5,313,400.6,314.4,399.2,314.7z"/>
		<g>
			<path class="st3" d="M453.2,336.7c0,0-0.3,0.1-0.9,0.2c-0.7,0.1-1.5,0.2-2.7,0.4c-2.4,0.4-5.9,1-10.5,1.8
				c-9.2,1.5-22.5,3.7-39.1,6.4c-33.3,5.4-79.6,13-132,21.5h-0.3v-0.3c-1.9-10.4-3.8-21.4-5.7-32.6
				c-10.5-60.1-20.2-114.5-27.1-153.9c-3.4-19.6-6.3-35.6-8.1-46.6c-1-5.5-1.6-9.8-2.2-12.7c-0.2-1.4-0.4-2.5-0.5-3.3
				c-0.1-0.8-0.1-1.1-0.1-1.1s0.1,0.3,0.2,1.1c0.1,0.8,0.3,1.9,0.7,3.3c0.5,2.9,1.3,7.1,2.3,12.6c2,11,4.8,26.9,8.3,46.6
				c7,39.4,16.6,93.7,27.2,153.8c2,11.2,4,22.2,5.7,32.6l-0.3-0.2c52.6-8.5,98.9-15.9,132-21.3c16.6-2.6,30-4.8,39.1-6.3
				c4.6-0.7,8.1-1.3,10.5-1.6c1.2-0.2,2.1-0.3,2.7-0.4C452.9,336.7,453.2,336.7,453.2,336.7z"/>
		</g>
		<g>
			<path class="st3" d="M438.7,346.6c0,0-0.3,0.1-0.9,0.2c-0.5,0.1-1.4,0.2-2.5,0.4c-2.3,0.4-5.6,1-10,1.6c-8.7,1.4-21.3,3.5-37,6.1
				c-31.4,5.2-75.4,12.5-125.5,20.7h-0.3v-0.2c-2.3-12.6-4.7-25.8-7.1-39.2c-10.8-59.3-20.5-112.8-27.5-151.7
				c-3.5-19.4-6.4-35.1-8.2-46c-1-5.4-1.8-9.7-2.2-12.5c-0.2-1.4-0.4-2.5-0.5-3.3c-0.1-0.8-0.2-1.1-0.2-1.1s0.1,0.3,0.2,1.1
				c0.1,0.8,0.3,1.9,0.7,3.3c0.5,2.9,1.3,7,2.3,12.5c2,10.9,4.8,26.6,8.5,46c7.1,38.9,16.9,92.4,27.7,151.7
				c2.4,13.4,4.8,26.6,7.1,39.2l-0.3-0.2c50-8.2,94-15.4,125.5-20.5c15.7-2.5,28.3-4.6,37-6c4.3-0.7,7.7-1.2,10-1.6
				c1.1-0.2,2-0.3,2.6-0.4C438.4,346.7,438.7,346.6,438.7,346.6z"/>
		</g>
		<g>
			<polygon class="st3" points="230.9,207.8 226.6,213.8 237.1,276.2 243.3,278.3 			"/>
			
				<rect x="236.9" y="204.7" transform="matrix(0.9851 -0.172 0.172 0.9851 -37.6145 46.9204)" class="st3" width="30.2" height="71.7"/>
			<path class="st3" d="M274.8,275.4l-2,0.3c-1.1,0.2-2.2-0.5-2.3-1.6L258,202.6c-0.2-1.1,0.5-2.2,1.6-2.3l2-0.3
				c1.1-0.2,2.2,0.5,2.3,1.6l12.5,71.6C276.7,274,275.9,275.1,274.8,275.4z"/>
			<path class="st13" d="M254.3,225.8l-19.3,11c-2.7-2.9-6.7-4.5-11-3.8c-6.7,1-11.5,7.4-10.5,14c1,7.1,7.6,11.9,14.6,10.6
				c4.4-0.8,7.8-3.7,9.3-7.5l21.7,3.5c1,0.1,1.9-0.7,1.6-1.6l-4.4-25.1C256.3,225.8,255.2,225.2,254.3,225.8z"/>
			<g>
				<path class="st14" d="M270.4,273.1c0,0-0.1-0.2-0.1-0.7c-0.1-0.5-0.2-1.2-0.4-2c-0.3-1.9-0.8-4.4-1.3-7.5
					c-1.1-6.4-2.6-15-4.4-24.6c-1.6-9.5-3.2-18.2-4.3-24.6c-0.5-3.1-1-5.6-1.2-7.5c-0.1-0.9-0.2-1.5-0.3-2.1
					c-0.1-0.4-0.1-0.7-0.1-0.7s0.1,0.2,0.2,0.7c0.1,0.5,0.2,1.2,0.4,2c0.3,1.9,0.9,4.4,1.4,7.5c1.2,6.3,2.7,15,4.4,24.6
					c1.6,9.7,3.2,18.3,4.3,24.7c0.5,3.2,0.9,5.7,1.2,7.5c0.1,0.9,0.2,1.5,0.2,2.1C270.4,272.8,270.4,273.1,270.4,273.1z"/>
			</g>
			<g>
				<path class="st14" d="M242.7,278.7c0,0-0.1-0.2-0.1-0.7c-0.1-0.5-0.2-1.2-0.4-2c-0.3-1.9-0.8-4.4-1.3-7.5
					c-1.1-6.4-2.6-15-4.4-24.6c-1.6-9.5-3.2-18.2-4.3-24.6c-0.5-3.1-1-5.6-1.2-7.5c-0.1-0.9-0.2-1.5-0.3-2.1
					c-0.1-0.4-0.1-0.7-0.1-0.7s0.1,0.2,0.2,0.7c0.1,0.5,0.2,1.2,0.4,2c0.3,1.9,0.9,4.4,1.4,7.5c1.2,6.3,2.7,15,4.4,24.6
					c1.6,9.7,3.2,18.3,4.3,24.7c0.5,3.2,0.9,5.7,1.2,7.5c0.1,0.9,0.2,1.5,0.2,2.1C242.7,278.3,242.8,278.7,242.7,278.7z"/>
			</g>
		</g>
		<g>
			<path class="st3" d="M368.5,208.8c0,0-0.5,0.4-1.5,1c-1.1,0.7-2.5,1.5-4.3,2.5c-3.6,2.1-8.6,4.9-14.2,8l-0.1,0.1h-0.1
				c-0.1,0-0.1,0-0.2,0c-6.4-1.1-12.1-2.2-16.1-3c-2-0.4-3.6-0.7-4.9-1c-1.1-0.2-1.8-0.4-1.8-0.4s0.7,0,1.8,0.2
				c1.2,0.2,3,0.4,4.9,0.8c4.2,0.7,9.9,1.6,16.1,2.7c0.1,0,0.1,0,0.2,0H348c5.5-3.1,10.5-5.9,14.3-7.9c1.8-1,3.2-1.8,4.4-2.3
				C367.9,209.1,368.5,208.7,368.5,208.8z"/>
		</g>
		<text transform="matrix(0.9878 -0.156 0.156 0.9878 299.5793 128.3097)" class="st3 st15 st16">THESIS</text>
	</g>
	<g>
		<path class="st4" d="M478.6,385.9H385c-10.8,0-19.3-8.7-19.3-19.3v-10.4c0-10.8,8.7-19.3,19.3-19.3h93.6L478.6,385.9L478.6,385.9z
			"/>
		<path class="st4" d="M651.6,344.9H454.2v-8.1h197.5c1.8,0,3.2,1.4,3.2,3.2v1.8C654.8,343.5,653.4,344.9,651.6,344.9z"/>
		<path class="st4" d="M651.6,385.9H454.2v-8.1h197.5c1.8,0,3.2,1.4,3.2,3.2v1.8C654.8,384.5,653.4,385.9,651.6,385.9z"/>
		<path class="st8" d="M648.9,377.8H476.6c-9,0-16.4-7.4-16.4-16.4l0,0c0-9,7.4-16.4,16.4-16.4h172.2
			C644.2,355.9,644.2,366.8,648.9,377.8z"/>
		<path class="st12" d="M460.2,385.9h-74.7c-10.9,0-19.8-8.9-19.8-19.8v-9.8c0-10.9,8.8-19.6,19.6-19.6h76.7
			C444.3,347.6,445.6,373.4,460.2,385.9z"/>
		<g>
			<path class="st3" d="M627.9,362.8c0,0.1-35.3,0.3-78.9,0.3c-43.6,0-78.9-0.1-78.9-0.3c0-0.2,35.3-0.3,78.9-0.3
				C592.6,362.6,627.9,362.7,627.9,362.8z"/>
		</g>
		<g>
			<path class="st3" d="M644.2,370.2c0,0.1-35.3,0.3-78.9,0.3c-43.6,0-78.9-0.1-78.9-0.3s35.3-0.3,78.9-0.3S644.2,370,644.2,370.2z"
				/>
		</g>
		<g>
			<path class="st3" d="M639.3,352.5c0,0.1-35.3,0.3-78.9,0.3c-43.6,0-78.9-0.1-78.9-0.3c0-0.2,35.3-0.3,78.9-0.3
				C604,352.3,639.3,352.4,639.3,352.5z"/>
		</g>
		<g>
			<path class="st3" d="M451.5,382.5c0,0.1-16.6,0.3-37,0.3c-20.4,0-37-0.1-37-0.3c0-0.2,16.6-0.3,37-0.3
				C435,382.2,451.5,382.3,451.5,382.5z"/>
		</g>
		<g>
			<path class="st3" d="M451.5,340.9c0,0.1-16.6,0.3-37,0.3c-20.4,0-37-0.1-37-0.3c0-0.2,16.6-0.3,37-0.3
				C435,340.6,451.5,340.7,451.5,340.9z"/>
		</g>
	</g>
	<g>
		<path class="st4" d="M469.9,483.6H343.8c-10.8,0-19.3-8.7-19.3-19.3v-24.5c0-10.8,8.7-19.3,19.3-19.3h126.1V483.6z"/>
		<path class="st4" d="M693.4,430.9H438.4v-10.5h255.1c1.8,0,3.2,1.4,3.2,3.2v4.1C696.7,429.5,695.3,430.9,693.4,430.9z"/>
		<path class="st4" d="M693.4,483.6H438.4V473h255.1c1.8,0,3.2,1.4,3.2,3.2v4.1C696.7,482.1,695.3,483.6,693.4,483.6z"/>
		<path class="st8" d="M688.9,473.1H467.2c-11.6,0-21.1-9.4-21.1-21.1l0,0c0-11.6,9.4-21.1,21.1-21.1h221.7
			C683,444.9,683,459,688.9,473.1z"/>
		<path class="st12" d="M446.1,483.6H343.5c-10.5,0-19.1-8.6-19.1-19.1v-24.4c0-11,8.9-19.8,19.8-19.8h104.3
			C425.5,434.3,427.3,467.4,446.1,483.6z"/>
		<g>
			<path class="st3" d="M662.1,453.9c0,0.1-45.5,0.3-101.6,0.3c-56.2,0-101.6-0.1-101.6-0.3s45.5-0.3,101.6-0.3
				C616.5,453.7,662.1,453.8,662.1,453.9z"/>
		</g>
		<g>
			<path class="st3" d="M683,463.4c0,0.1-45.5,0.3-101.6,0.3c-56.2,0-101.6-0.1-101.6-0.3c0-0.2,45.5-0.3,101.6-0.3
				C637.5,463,683,463.2,683,463.4z"/>
		</g>
		<g>
			<path class="st3" d="M676.8,445.3c0,0.1-45.5,0.3-101.6,0.3c-56.2,0-101.6-0.1-101.6-0.3c0-0.2,45.5-0.3,101.6-0.3
				C631.3,444.9,676.8,445,676.8,445.3z"/>
		</g>
		<g>
			<path class="st3" d="M435,479.2c0,0.1-21.3,0.3-47.6,0.3s-47.6-0.1-47.6-0.3c0-0.2,21.3-0.3,47.6-0.3
				C413.7,478.8,435,479.1,435,479.2z"/>
		</g>
		<g>
			<path class="st3" d="M435,425.6c0,0.1-21.3,0.3-47.6,0.3s-47.6-0.1-47.6-0.3c0-0.2,21.3-0.3,47.6-0.3S435,425.5,435,425.6z"/>
		</g>
	</g>
	<g>
		<path class="st14" d="M507.6,420.6H403.7c-7.9,0-14.3-6.4-14.3-14.3v-7.7c0-7.9,6.4-14.3,14.3-14.3h103.9V420.6z"/>
		<path class="st14" d="M688.6,392.9H482.1v-8.6h206.6c1.9,0,3.4,1.5,3.4,3.4v1.8C691.9,391.4,690.5,392.9,688.6,392.9z"/>
		<path class="st14" d="M688.6,420.6H482.1V412h206.6c1.9,0,3.4,1.5,3.4,3.4v1.8C691.9,419.1,690.5,420.6,688.6,420.6z"/>
		<path class="st8" d="M685.6,412.1H497.9c-5.3,0-9.5-4.3-9.5-9.5l0,0c0-5.3,4.3-9.5,9.5-9.5h187.8
			C680.8,399.3,680.8,405.6,685.6,412.1z"/>
		<path class="st12" d="M488.3,420.6h-84.5c-7.9,0-14.4-6.5-14.4-14.4v-7.1c0-8.1,6.6-14.7,14.7-14.7h86.2
			C471.6,392.4,473.1,411.3,488.3,420.6z"/>
		<g>
			<path class="st3" d="M663.8,401c0,0.1-37,0.3-82.6,0.3c-45.7,0-82.6-0.1-82.6-0.3c0-0.2,37-0.3,82.6-0.3S663.8,400.8,663.8,401z"
				/>
		</g>
		<g>
			<path class="st3" d="M680.8,406.2c0,0.1-37,0.3-82.6,0.3c-45.7,0-82.6-0.1-82.6-0.3c0-0.2,37-0.3,82.6-0.3
				C643.8,405.9,680.8,406,680.8,406.2z"/>
		</g>
		<g>
			<path class="st3" d="M479.3,417.1c0,0.1-17.3,0.3-38.6,0.3c-21.4,0-38.6-0.1-38.6-0.3c0-0.2,17.3-0.3,38.6-0.3
				S479.3,416.8,479.3,417.1z"/>
		</g>
		<g>
			<path class="st3" d="M479.3,388.6c0,0.1-17.3,0.3-38.6,0.3c-21.4,0-38.6-0.1-38.6-0.3c0-0.2,17.3-0.3,38.6-0.3
				C462,388.4,479.3,388.5,479.3,388.6z"/>
		</g>
		<g>
			<path class="st3" d="M689.5,384.3c0,0.1-63.5,0.3-141.8,0.3c-78.4,0-141.8-0.1-141.8-0.3s63.5-0.3,141.8-0.3
				C625.9,384.1,689.5,384.2,689.5,384.3z"/>
		</g>
	</g>
	<polygon class="st4" points="575.6,352 575.6,371.6 582.4,367.3 589.9,371.6 589.9,352 	"/>
	<g id="Graduation_Cap">
		<g>
			<g>
				<path class="st4" d="M679.8,270.4c0,23.3,0,46.6,0,69.9c0,6.7,0,13.3,0,20c0,0.9,1.4,0.9,1.4,0c0-23.3,0-46.6,0-69.9
					c0-6.7,0-13.3,0-20C681.3,269.4,679.8,269.4,679.8,270.4L679.8,270.4z"/>
			</g>
			<path class="st4" d="M685.6,340.4c0,2.7-2.3,5-5,5s-5-2.3-5-5s2.3-5,5-5S685.6,337.7,685.6,340.4z"/>
			<path class="st4" d="M679.2,343.1c0,0-3.7,3.7-4.8,14.5c-1.1,10.9-1.3,16.2-1.3,16.2l10,0.7c0,0,0-8.1,0-7.8s2,5.8,2,5.8l7.9-2.6
				C692.8,370,690,341.1,679.2,343.1z"/>
			<rect x="458" y="277.8" class="st3" width="169.2" height="61"/>
			<rect x="397.3" y="267.2" class="st3" width="289.5" height="10.5"/>
			<path class="st12" d="M458,321.5c0,0,51.5-18.4,84.6-25.2c33.1-6.8,84.6-4.5,84.6-4.5v-13.9H458V321.5L458,321.5z"/>
			<rect x="397.3" y="267.2" class="st12" width="104.7" height="10.5"/>
			<g>
				<path class="st14" d="M684.7,277.8c0,0.1-64.4,0.3-143.8,0.3c-79.5,0-143.8-0.1-143.8-0.3c0-0.2,64.3-0.3,143.8-0.3
					C620.3,277.4,684.7,277.6,684.7,277.8z"/>
			</g>
			<g>
				<path class="st14" d="M501.8,277.8c-0.1,0-0.3-2.4-0.3-5.4s0.1-5.4,0.3-5.4c0.2,0,0.3,2.4,0.3,5.4
					C502.1,275.5,502,277.8,501.8,277.8z"/>
			</g>
			<g>
				<path class="st14" d="M526,338.7c-0.1,0-0.3-12-0.3-26.6c0-14.7,0.1-26.6,0.3-26.6s0.3,11.9,0.3,26.6S526.2,338.7,526,338.7z"/>
			</g>
		</g>
	</g>
	<g id="Character">
		<g>
			<g>
				<g>
					<g>
						<path class="st17" d="M281.1,413.7l19.4-7.8l14.8-38.9l19.8,10.2c0,0-2,3.8-6,13.3c-1.5,3.6-6.8,13.8-9,18.9
							c-4.1,9.3-13.2,15.6-23.4,15.9l-18.2,0.4L281.1,413.7z"/>
					</g>
				</g>
				<path class="st17" d="M271.4,406.2l-3-3.1c-0.5-0.3-1.2-0.5-1.9-0.5l-9.3,0.3c-1.8,0.2-3.3,1.1-4.3,2.6l-3.4,5.7
					c0,0-2.3,4-2,4.9c0.4,1.4,2,1.1,2,1.1s0.3,1.9,1,2.2c1,0.7,2.3,0.1,2.3,0.1c0.3,0.7,1.1,1.2,1.9,1.1c0.1,0,0.3,0,0.4-0.1
					c1.1-0.3,1.6-2.5,1.6-2.5l4.7-0.9c0,0,6.8,4.5,9.2,7.5c2.4,3,8.7,0.7,8.7,0.7l2.3-11.2L271.4,406.2z"/>
				<g>
					<path class="st18" d="M264.6,407.5c0,0.1-0.8,0.2-2.1,0.3c-1.3,0.1-3.1,0.2-5.2,0.4l0.2-0.1c-0.3,0.8-0.8,1.5-1.2,2.2
						c-1.4,2.3-3.2,4.2-4.5,5.3c-1.3,1.2-2.3,1.8-2.3,1.6c-0.1-0.1,0.8-0.8,2.1-2c1.2-1.2,2.9-3.1,4.3-5.3c0.4-0.8,0.9-1.4,1.2-2.2
						l0.1-0.1h0.1c2.1-0.2,4-0.2,5.2-0.2C263.9,407.4,264.6,407.4,264.6,407.5z"/>
				</g>
				<g>
					<path class="st18" d="M264.8,411.9c0,0-0.7,0.3-1.8,0.4c-1.1,0.1-2.7,0.2-4.5-0.1l0.3-0.2c-0.2,0.5-0.4,1.1-0.7,1.6
						c-1,2.1-2.4,3.6-3.5,4.6c-1.1,1-2,1.3-2,1.3c-0.1-0.1,0.7-0.5,1.8-1.6c1.1-1.1,2.3-2.5,3.3-4.5c0.2-0.5,0.4-1.1,0.7-1.6
						l0.1-0.2h0.2C262.1,412.4,264.7,411.8,264.8,411.9z"/>
				</g>
				<g>
					<path class="st17" d="M276.6,414.2c-2.7-1.3-5.5-2.6-8.3-3.8c-1.1-0.5-2.3-1.1-3.6-1.1c-1.3,0-2.6,0.7-3.8,1.3
						c-1.5,0.8-3,1.5-4.5,2.3c-0.2,0.1-0.5,0.2-0.5,0.5c-0.1,0.3,0.1,0.7,0.4,1c2.2,2.3,6.3,2.4,8.7,0.3c0.7,2,1.4,4,2.7,5.5
						c1.3,1.5,3.4,2.7,5.5,2.3"/>
					<g>
						<path class="st18" d="M273.1,422.5c0,0-0.1,0-0.2,0.1c-0.1,0-0.3,0.1-0.7,0.1c-0.5,0-1.5-0.1-2.5-0.5c-1-0.5-2.1-1.4-3-2.7
							c-0.9-1.3-1.5-2.9-2.2-4.6l0.4,0.1c-1.2,1.1-3,1.6-4.8,1.5c-0.9-0.1-1.9-0.3-2.7-0.8c-0.4-0.2-0.9-0.5-1.2-0.9
							c-0.2-0.1-0.3-0.3-0.5-0.5c-0.1-0.2-0.3-0.5-0.2-0.9c0.1-0.3,0.3-0.5,0.4-0.7c0.2-0.1,0.3-0.2,0.5-0.3c0.3-0.2,0.7-0.3,1-0.5
							c0.7-0.3,1.3-0.7,2.1-1.1c1.3-0.7,2.6-1.4,4-1.8c1.4-0.3,2.9,0.1,4,0.5c1.1,0.5,2.2,1,3.1,1.4c1.8,0.9,3.3,1.6,4.4,2.2
							c1.1,0.5,1.6,0.9,1.6,0.9s-0.7-0.2-1.6-0.7c-1.1-0.5-2.6-1.2-4.5-2c-1-0.4-2-0.9-3.1-1.4c-1.1-0.4-2.3-0.9-3.6-0.5
							c-1.3,0.3-2.5,1.1-3.8,1.8c-0.7,0.3-1.3,0.7-2,1.1c-0.3,0.2-0.7,0.3-1,0.5c-0.3,0.2-0.8,0.3-0.8,0.5c-0.1,0.2,0.2,0.5,0.5,0.9
							c0.3,0.3,0.7,0.5,1.1,0.8c0.8,0.4,1.6,0.7,2.4,0.7c1.6,0.1,3.3-0.3,4.5-1.3l0.3-0.2l0.1,0.3c0.7,1.8,1.2,3.3,2.1,4.6
							c0.8,1.2,1.8,2.1,2.7,2.6C271.8,422.9,273.1,422.5,273.1,422.5z"/>
					</g>
				</g>
			</g>
			<g>
				<g>
					<path class="st3" d="M384.7,305.5c0.1-6.3,1.1-12.4,0.9-18.7c-0.2-6.3-1.9-12.7-6.3-17.2c-4.4-4.5-11.9-6.1-17-2.5l-1.1,5.3
						c2,24,1.8,48.5,3.7,72.5c0.2,3.2,2.9,6,4.3,8.8c1.4,2.9,4.3,5.2,7.5,4.9c4.2-0.2,6.8-4.4,8.1-8.3
						C389.5,335.9,384.5,320.5,384.7,305.5z"/>
				</g>
				<g>
					<path class="st4" d="M369.7,273.2c-0.9-1.5-1.9-3.1-3.2-4.3c-1.3-1.2-3.2-2-4.9-1.6c-0.9,0.1-1.6,0.7-2,1.4s0.3,1.9,1.1,1.8
						l0.2,0.1c1.9,1.6,3.7,3.3,5.7,4.8c0.4,0.4,1,0.8,1.6,1c0.5,0.2,1.3,0.1,1.8-0.3C370.8,275.3,370.2,274,369.7,273.2z"/>
				</g>
				<g>
					<path class="st3" d="M373.2,279.3c-6.3-7.6-14.6-12-24.4-12.1c-5.5-0.1-7.8,1.1-11.9,2.1s-7.6,3.2-10,6.6
						c-2.9,4-5.2,8.5-5.7,13.4c-0.5,5-1.1,10-0.8,15c0.3,5,1.8,10.1,4.7,14.2l12.7,2.2c7,0.2,14.3,0.4,21.1-1.1
						c6.9-1.6,13.6-5.3,17.2-11.3C381.5,299.8,379.4,286.9,373.2,279.3z"/>
				</g>
				<g>
					<path class="st17" d="M361.9,279.2l-17-6.8l-4.4,0.5c-10,0-16.9,11.1-17,19.2c-0.1,9,0.2,20,1.6,26.7
						c2.9,13.4,14.3,14.5,14.3,14.5s-0.2,7.1-0.3,11.6l26.1-1.9l1.3-59.2C366.3,281.3,364.3,279.3,361.9,279.2z"/>
					<g>
						<g>
							<path class="st18" d="M345,315.6c-0.1-0.7-0.4-1.3-1-1.8c-1-0.9-2.4-1-3.5-0.2s-1.6,2.2-1.5,3.6l0,0c0.5,0.9,1.5,1.4,2.5,1.4
								c0.1,0,0.3,0,0.4,0c0.8,0,1.5-0.3,2.2-0.9C344.7,317.4,345.2,316.5,345,315.6z"/>
						</g>
					</g>
					<g>
						<g>
							<g>
								<g>
									<g>
										<g>
											<g>
												<g>
													<g>
														<g>
															<g>
																<g>
																	<g>
																		<g>
																			<g>
																				<g>
																					<g>
																						<g>
																							<g>
																								<g>
																									<path class="st3" d="M327.8,303.6c0,0.9,0.8,1.6,1.8,1.6c1,0,1.8-0.8,1.6-1.6c0-0.9-0.8-1.6-1.8-1.6
																										C328.6,301.9,327.8,302.7,327.8,303.6z"/>
																								</g>
																							</g>
																						</g>
																					</g>
																				</g>
																			</g>
																		</g>
																	</g>
																</g>
															</g>
														</g>
													</g>
												</g>
											</g>
										</g>
									</g>
								</g>
								<g>
									<g>
										<g>
											<g>
												<g>
													<g>
														<g>
															<g>
																<g>
																	<g>
																		<g>
																			<g>
																				<g>
																					<g>
																						<g>
																							<g>
																								<g>
																									<g>
																										<path class="st3" d="M326.4,296.7c0.2,0.2,1.5-0.9,3.3-0.9c1.9-0.1,3.3,0.8,3.4,0.5
																											c0.1-0.1-0.1-0.5-0.8-0.9c-0.5-0.4-1.6-0.8-2.7-0.7c-1.1,0.1-2.1,0.5-2.6,1
																											C326.5,296.1,326.3,296.5,326.4,296.7z"/>
																									</g>
																								</g>
																							</g>
																						</g>
																					</g>
																				</g>
																			</g>
																		</g>
																	</g>
																</g>
															</g>
														</g>
													</g>
												</g>
											</g>
										</g>
									</g>
								</g>
								<g>
									<g>
										<g>
											<g>
												<g>
													<g>
														<g>
															<g>
																<g>
																	<g>
																		<g>
																			<g>
																				<g>
																					<g>
																						<g>
																							<g>
																								<g>
																									<path class="st3" d="M338.4,311.3c0-0.1-1.2-0.2-3.1-0.4c-0.4,0-1-0.1-1-0.4c-0.1-0.3,0-0.9,0.2-1.4
																										c0.4-1.2,0.8-2.4,1.2-3.7c1.6-5.3,2.9-9.5,2.6-9.7s-1.8,4.2-3.4,9.4c-0.4,1.3-0.8,2.5-1.1,3.7
																										c-0.1,0.5-0.4,1.2-0.1,1.9c0.1,0.3,0.5,0.5,0.9,0.7c0.3,0.1,0.5,0.1,0.8,0.1
																										C337.2,311.4,338.4,311.4,338.4,311.3z"/>
																								</g>
																							</g>
																						</g>
																					</g>
																				</g>
																			</g>
																		</g>
																	</g>
																</g>
															</g>
														</g>
													</g>
												</g>
											</g>
										</g>
									</g>
								</g>
								<g>
									<g>
										<g>
											<g>
												<g>
													<g>
														<g>
															<g>
																<g>
																	<g>
																		<g>
																			<g>
																				<g>
																					<g>
																						<g>
																							<g>
																								<path class="st18" d="M339.3,333.2c0,0,9.1,0.1,17.8-5.8c0,0-4.3,9.7-17.9,9.1L339.3,333.2z"/>
																							</g>
																						</g>
																					</g>
																				</g>
																			</g>
																		</g>
																	</g>
																</g>
															</g>
														</g>
													</g>
												</g>
											</g>
										</g>
									</g>
								</g>
								<g>
									<g>
										<g>
											<g>
												<g>
													<g>
														<g>
															<g>
																<g>
																	<g>
																		<g>
																			<g>
																				<g>
																					<g>
																						<g>
																							<g>
																								<g>
																									<path class="st3" d="M343.9,312.2c-0.3,0-0.2,2-1.9,3.5c-1.6,1.5-3.8,1.4-3.8,1.6c0,0.1,0.5,0.3,1.4,0.3
																										c0.9,0,2.2-0.3,3.2-1.3c1-1,1.4-2.1,1.4-3C344.3,312.7,344.1,312.2,343.9,312.2z"/>
																								</g>
																							</g>
																						</g>
																					</g>
																				</g>
																			</g>
																		</g>
																	</g>
																</g>
															</g>
														</g>
													</g>
												</g>
											</g>
										</g>
									</g>
								</g>
								<g>
									<g>
										<g>
											<g>
												<g>
													<g>
														<g>
															<g>
																<g>
																	<g>
																		<g>
																			<g>
																				<g>
																					<g>
																						<g>
																							<g>
																								<g>
																									<g>
																										<g>
																											<path class="st3" d="M327.1,290.2c0.3,0.4,1.8,0,3.4,0.1c1.6,0,3.1,0.4,3.4,0c0.1-0.2,0-0.7-0.7-1.1
																												c-0.5-0.4-1.6-0.8-2.7-0.8s-2.2,0.3-2.7,0.8C327.1,289.5,326.9,290,327.1,290.2z"/>
																										</g>
																									</g>
																								</g>
																							</g>
																						</g>
																					</g>
																				</g>
																			</g>
																		</g>
																	</g>
																</g>
															</g>
														</g>
													</g>
												</g>
											</g>
										</g>
									</g>
								</g>
								<g>
									<g>
										<g>
											<g>
												<g>
													<g>
														<g>
															<g>
																<g>
																	<g>
																		<g>
																			<g>
																				<g>
																					<g>
																						<g>
																							<g>
																								<g>
																									<path class="st3" d="M348.1,303c0,0.9-0.7,1.8-1.6,1.8s-1.8-0.7-1.8-1.5c0-0.9,0.7-1.8,1.6-1.8
																										C347.3,301.5,348.1,302.1,348.1,303z"/>
																								</g>
																							</g>
																						</g>
																					</g>
																				</g>
																			</g>
																		</g>
																	</g>
																</g>
															</g>
														</g>
													</g>
												</g>
											</g>
										</g>
									</g>
								</g>
								<g>
									<g>
										<g>
											<g>
												<g>
													<g>
														<g>
															<g>
																<g>
																	<g>
																		<g>
																			<g>
																				<g>
																					<g>
																						<g>
																							<g>
																								<g>
																									<g>
																										<path class="st3" d="M351.6,295.9c-0.2,0.2-1.5-0.7-3.4-0.7c-1.9,0-3.2,1-3.4,0.8c-0.1-0.1,0.1-0.5,0.7-1
																											c0.5-0.4,1.5-0.9,2.7-0.9c1.2,0,2.2,0.4,2.7,0.9C351.4,295.4,351.7,295.8,351.6,295.9z"/>
																									</g>
																								</g>
																							</g>
																						</g>
																					</g>
																				</g>
																			</g>
																		</g>
																	</g>
																</g>
															</g>
														</g>
													</g>
												</g>
											</g>
										</g>
									</g>
								</g>
								<g>
									<g>
										<g>
											<g>
												<g>
													<g>
														<g>
															<g>
																<g>
																	<g>
																		<g>
																			<g>
																				<g>
																					<g>
																						<g>
																							<g>
																								<g>
																									<g>
																										<g>
																											<path class="st3" d="M350.5,290c-0.3,0.4-1.8,0-3.5,0s-3.2,0.3-3.5-0.1c-0.1-0.2,0.1-0.7,0.7-1.1
																												c0.7-0.4,1.6-0.8,2.9-0.8c1.2,0,2.2,0.3,2.9,0.8C350.5,289.3,350.7,289.7,350.5,290z"/>
																										</g>
																									</g>
																								</g>
																							</g>
																						</g>
																					</g>
																				</g>
																			</g>
																		</g>
																	</g>
																</g>
															</g>
														</g>
													</g>
												</g>
											</g>
										</g>
									</g>
								</g>
							</g>
						</g>
					</g>
					<g>
						<g>
							<g>
								<g>
									<g>
										<g>
											<g>
												<g>
													<g>
														<g>
															<g>
																<g>
																	<g>
																		<g>
																			<g>
																				<g>
																					<g>
																						<path class="st17" d="M364.1,306.4c0-1,1-3.4,2-3.6c2.6-0.5,7.5-0.5,7.8,6.1c0.5,9.2-8.8,7.9-8.8,7.6
																							C364.9,316.3,364.2,309.9,364.1,306.4z"/>
																					</g>
																				</g>
																			</g>
																		</g>
																	</g>
																</g>
															</g>
														</g>
													</g>
												</g>
											</g>
										</g>
									</g>
								</g>
							</g>
						</g>
						<g>
							<g>
								<g>
									<g>
										<g>
											<g>
												<g>
													<g>
														<g>
															<g>
																<g>
																	<g>
																		<g>
																			<g>
																				<g>
																					<g>
																						<g>
																							<path class="st18" d="M367.4,313c0,0,0.1,0.1,0.4,0.2c0.2,0.1,0.8,0.1,1.2,0c1-0.4,1.6-2,1.6-3.6
																								c0-0.9-0.2-1.6-0.5-2.3s-0.8-1.1-1.3-1.1c-0.5-0.1-0.9,0.2-0.9,0.5c-0.1,0.2,0,0.4-0.1,0.4
																								c0,0-0.2-0.1-0.1-0.5c0-0.2,0.1-0.4,0.3-0.5c0.2-0.1,0.5-0.3,0.9-0.3c0.7,0,1.4,0.7,1.8,1.3
																								c0.4,0.7,0.7,1.5,0.7,2.5c0,1.9-0.8,3.6-2.1,4.1c-0.7,0.2-1.2,0-1.5-0.1C367.4,313.2,367.4,313,367.4,313z"
																								/>
																						</g>
																					</g>
																				</g>
																			</g>
																		</g>
																	</g>
																</g>
															</g>
														</g>
													</g>
												</g>
											</g>
										</g>
									</g>
								</g>
							</g>
						</g>
					</g>
				</g>
				<g>
					<g>
						<path class="st3" d="M366.4,302.8l-2.3,2.4c-10.1-9.7-29.7-33.8-28.6-32.4c0,0,6.9-2.9,14.4-1.5c7.5,1.3,21.7,5,21.5,13.8
							C371,294,366.4,302.8,366.4,302.8z"/>
					</g>
				</g>
				<g>
					<path class="st14" d="M379.6,300.8c0,0,0-0.2-0.1-0.5s-0.3-0.9-0.7-1.4c-0.7-1.2-1.9-2.9-3.8-4.3c-2-1.5-4.6-2.7-7.7-3.7
						s-6.6-1.8-9.9-3.3c-3.4-1.4-6.5-3.2-9.1-5s-4.7-3.8-6.4-5.6c-1.6-1.8-2.9-3.3-3.7-4.4c-0.3-0.5-0.7-1-0.9-1.2
						c-0.2-0.3-0.3-0.4-0.3-0.4s0.1,0.2,0.2,0.4c0.2,0.3,0.4,0.8,0.9,1.3c0.8,1.1,2,2.7,3.6,4.5s3.8,3.8,6.4,5.7
						c2.6,1.9,5.7,3.7,9.1,5.2c3.4,1.5,6.9,2.2,10,3.2c3.1,1,5.7,2.1,7.7,3.5c2,1.4,3.2,3,3.8,4.2
						C379.4,300.1,379.6,300.8,379.6,300.8z"/>
				</g>
				<g>
					<path class="st14" d="M377,302.3c0,0,0.1-0.8-0.3-2c-0.4-1.2-1.5-3-3.4-4.3c-2-1.4-4.6-2.3-7.7-3s-6.3-1.5-9.5-3.1
						c-3.2-1.5-6.1-3.3-8.5-5.3c-2.4-2-4.3-4-5.8-5.7c-1.5-1.8-2.5-3.4-3.3-4.5c-0.3-0.5-0.5-1-0.8-1.3c-0.2-0.3-0.3-0.4-0.3-0.4
						s0.1,0.2,0.2,0.4c0.2,0.3,0.4,0.8,0.7,1.3c0.7,1.1,1.6,2.7,3.2,4.6c1.4,1.9,3.4,3.8,5.8,5.8c2.4,2,5.3,3.8,8.6,5.4
						c3.3,1.5,6.6,2.4,9.7,3.1c3,0.7,5.7,1.5,7.6,2.9s3,3,3.5,4.2C377,301.5,377,302.3,377,302.3z"/>
				</g>
				<g>
					<g>
						<path class="st14" d="M366,318.4c0-0.1,0.8-0.1,2.2-0.5c1.3-0.3,3.3-1.2,5.2-2.9c1.9-1.6,3.6-4.2,4.8-7.2
							c1.2-3.1,1.9-6.7,2-10.5c0-2-0.1-3.8-0.4-5.6s-0.9-3.4-1.5-4.9c-1.3-3.1-3.1-5.5-4.7-7.5c-3.4-3.7-6.3-5.3-6.1-5.4
							c0,0,0.2,0.1,0.5,0.2c0.3,0.2,0.8,0.4,1.4,0.9c1.2,0.8,2.9,2.1,4.6,4c1.8,1.9,3.6,4.4,4.9,7.5c0.7,1.5,1.2,3.3,1.6,5
							c0.3,1.9,0.5,3.7,0.4,5.7c-0.1,4-0.9,7.6-2.1,10.8c-1.2,3.2-3.1,5.8-5,7.5s-4,2.4-5.4,2.7c-0.7,0.2-1.2,0.2-1.6,0.2
							C366.3,318.4,366,318.4,366,318.4z"/>
					</g>
				</g>
			</g>
			<g>
				<g>
					<path class="st3" d="M377.8,431.3l-54.3,7.9c-20.4,5.8-41.9,7.5-64.3,5.5l81.8,38.1l32.8,0.5c0,0,10,0,11.7-8.7
						c1.8-8.9,3.7-35.2,3.7-35.2S382.6,433.7,377.8,431.3z"/>
				</g>
				<g class="st7">
					<g>
						<g>
							<path d="M377.6,454.2c0.9,5.5,1.2,11,1,16.5c3.4-3.6,4.9-8.9,4.1-13.7c-0.4-2.7-1.6-5.6-0.2-8c1-1.5,3.4-3.4,3.1-5.2
								c0,0-2.2,0-4.2-0.1c-1.6-0.1-4.9-0.1-4.9-0.1c1.6,4.3,1.5,6.9,0.9,10.8"/>
						</g>
					</g>
				</g>
				<g>
					<g>
						<g>
							<polygon class="st17" points="339,342.6 365.4,339.8 370.2,344.2 351.4,355.3 343.1,359.5 334.9,357 332.2,352.2 							"/>
						</g>
					</g>
					<g>
						<g>
							<g>
								<path class="st14" d="M303.5,374.8c0,0,8.2-15.9,10.3-19.3c3.5-5.9,10-9.2,10-9.2l15.3-3.5c0,0-1.5,7.7,7.9,8.1
									c12.1,0.7,19.5-10.9,19.5-10.9s13.7,1.4,17.6,3.1s14.6,6,16.1,20.4l3.7,23.4l-29.1,2.2l0.4,31.1l-12.4,10.1
									c0,0-35.5,12.2-37.8,13.1c-1.1,0.4-0.8-14.7-3.3-27.7L317,404c-2-4.6-3.1-9.5-3.4-14.6c-0.2-3.3-0.1-5.8-0.1-5.8
									S306,380.8,303.5,374.8z"/>
							</g>
						</g>
						<g>
							<g>
								<g>
									<path class="st17" d="M326.4,430.9l48.7-14.6l-0.3-27.3l24.8-1.9c0,0-2,14.2-2.3,21.4c-0.4,10.4-5.5,25-8.8,28.2
										c-3.4,3.1-63.4,6.5-63.4,6.5L326.4,430.9z"/>
								</g>
							</g>
							<g>
								<g>
									<path class="st17" d="M298.8,439.4c0.4,0.7,1.2,1.1,2,1c0.1,0,0.3-0.1,0.4-0.1c1.1-0.4,0.8-2.6,0.8-2.6l5.2-1.2
										c0,0,7.1,3.8,9.9,6.6c2.6,2.7,8.7-0.1,8.7-0.1l1.3-11.4l-10.3-8c0,0,0.7,0.4-0.1-1.1c-0.8-1.5-3.8-0.8-3.8-0.8
										c-0.5-0.8-2.5-0.9-2.5-0.9l-8.5,1.6c-1.8,0.3-3.2,1.4-4.1,3l-3.2,5.9c0,0-1.5,4.3-1.2,5.2c0.5,1.4,2.1,1,2.1,1
										s0.7,2.6,1.3,2.7C297.3,440.2,298.8,439.4,298.8,439.4L298.8,439.4z"/>
								</g>
							</g>
							<g>
								<g>
									<g>
										<path class="st18" d="M316.2,430c0,0.1-1.1,0.1-3,0.3c-1.8,0.2-4.3,0.8-6.8,1.9c-1.3,0.5-2.4,1.2-3.4,1.8
											c-1,0.7-2,1.2-2.3,2c-0.1,0.3,0,0.8,0.2,1s0.4,0.4,0.7,0.5c0.4,0.1,0.8,0,0.8,0s-0.2,0.2-0.8,0.1c-0.2,0-0.5-0.2-0.9-0.5
											c-0.2-0.3-0.4-0.8-0.3-1.3c0.1-0.5,0.5-0.9,1-1.3c0.4-0.3,0.9-0.7,1.4-1c1-0.7,2.2-1.3,3.5-1.9c2.6-1.1,5.2-1.5,7-1.8
											C315,429.8,316.2,430,316.2,430z"/>
									</g>
								</g>
							</g>
							<g>
								<g>
									<g>
										<path class="st18" d="M317.2,435.4c0,0.1-3.4,0.3-7.7,0.9c-4.3,0.5-7.6,1.3-7.7,1.2c0-0.1,0.8-0.3,2.2-0.7
											c1.3-0.3,3.3-0.8,5.4-1s4.1-0.4,5.5-0.4C316.3,435.3,317.2,435.3,317.2,435.4z"/>
									</g>
								</g>
							</g>
							<g>
								<g>
									<g>
										<path class="st18" d="M298.8,439.2c0,0-0.1-0.3-0.2-0.9c-0.1-0.5-0.2-1.4-0.2-2.5c0-0.5,0-1.1,0.1-1.8
											c0.1-0.7,0.3-1.3,0.7-1.9c0.7-1.2,1.6-2.5,3-3.5c1.3-1,2.5-1.9,3.8-2.4c1.3-0.5,2.6-0.7,3.6-0.9c1.1-0.1,1.9-0.1,2.5-0.2
											c0.5,0,0.9,0,0.9,0c0,0.1-1.3,0.2-3.3,0.5c-1,0.2-2.2,0.4-3.5,0.9c-1.2,0.5-2.5,1.3-3.7,2.3c-1.2,1-2.2,2.2-2.9,3.3
											c-0.8,1.1-0.8,2.4-0.9,3.4C298.8,437.9,298.9,439.2,298.8,439.2z"/>
									</g>
								</g>
							</g>
							<g>
								<g>
									<g>
										<path class="st18" d="M309.8,422.9c0,0.1-1.2,0.2-3.3,0.5c-2,0.4-5,0.9-6.6,3.6c-1.8,2.6-3.2,5-3.7,7
											c-0.7,2-0.4,3.3-0.5,3.3c0,0-0.1-0.3-0.1-0.9s0-1.4,0.3-2.4c0.5-2.1,2-4.6,3.7-7.1c0.4-0.7,1-1.3,1.5-1.8
											c0.5-0.5,1.3-0.9,2-1.1c1.3-0.4,2.5-0.7,3.5-0.9C308.5,422.9,309.8,422.9,309.8,422.9z"/>
									</g>
								</g>
							</g>
							<g>
								<g>
									<g>
										<path class="st18" d="M314.9,441.3c0,0-0.2-0.1-0.5-0.3c-0.4-0.2-0.9-0.5-1.5-1c-1.3-0.9-3.3-2.1-5.9-3.4h0.1
											c-1.5,0.4-3.3,0.9-5.2,1.3l0.1-0.2c0,0.4,0,0.9,0,1.3c0,0.4-0.1,0.9-0.5,1.3c-0.2,0.2-0.4,0.3-0.7,0.3
											c-0.2,0.1-0.4,0.1-0.8,0.1c-0.5,0-1-0.2-1.3-0.7c-0.1-0.1-0.2-0.2-0.2-0.3v-0.1l0,0l0,0l0,0c-0.1,0,0.5,0.1,0.3,0.1l0,0
											l0,0l-0.1,0.1c-0.2,0.1-0.4,0.2-0.7,0.3c-0.2,0.1-0.4,0.2-0.7,0.2c-0.1,0-0.2,0-0.4,0.1c-0.1,0-0.3,0-0.5,0
											c-0.3-0.2-0.4-0.4-0.5-0.7c-0.1-0.2-0.2-0.4-0.3-0.7c-0.2-0.4-0.3-1-0.4-1.4l0.3,0.2c-0.7,0.2-1.5,0.1-2-0.5
											c-0.2-0.2-0.4-0.7-0.4-1s0-0.7,0.1-1c0.2-1.3,0.7-2.6,1.1-3.8l0,0l0,0c0.5-1,1.1-2.1,1.6-3.2c0.3-0.7,0.7-1.3,1.1-2
											c0.3-0.7,0.7-1.3,1.2-2c0.5-0.5,1.1-1.1,1.8-1.4s1.4-0.5,2.1-0.7c2.7-0.5,5.5-1.1,7.9-1.5l0,0l0,0c0.5,0,1,0.1,1.4,0.2
											c0.4,0.1,1,0.3,1.3,0.8l-0.3-0.1c0.9-0.4,1.9-0.5,2.7,0c0.9,0.4,1.2,1.3,1.5,2.1l-0.1-0.1c3,2.3,5.4,4.2,7.1,5.5
											c0.8,0.7,1.4,1.1,2,1.5c0.4,0.3,0.7,0.5,0.7,0.5s-0.2-0.1-0.7-0.4c-0.5-0.3-1.2-0.9-2-1.4c-1.8-1.3-4.3-3.1-7.2-5.4l0,0
											V424c-0.2-0.7-0.7-1.4-1.3-1.8c-0.7-0.3-1.5-0.3-2.3,0.1l-0.2,0.1l-0.1-0.1c-0.2-0.2-0.7-0.4-1.1-0.5
											c-0.4-0.1-0.9-0.2-1.3-0.2h0.1c-2.5,0.5-5.2,1-7.9,1.5c-0.7,0.1-1.3,0.2-2,0.5c-0.7,0.3-1.2,0.8-1.6,1.3s-0.8,1.2-1.1,1.9
											s-0.7,1.3-1.1,2c-0.5,1.1-1.1,2.2-1.6,3.2l0,0c-0.4,1.3-0.9,2.5-1.1,3.8c0,0.3-0.1,0.7-0.1,0.9s0.1,0.5,0.3,0.7
											c0.3,0.4,1,0.5,1.4,0.3l0.2-0.1l0.1,0.2c0.1,0.4,0.2,1,0.4,1.4c0.1,0.4,0.4,1,0.7,1.1c0,0,0.1,0,0.2,0c0.1,0,0.2,0,0.3,0
											c0.2,0,0.4-0.1,0.7-0.2c0.2-0.1,0.4-0.2,0.7-0.2l0.1-0.1l0,0l0,0c-0.3-0.1,0.4,0.1,0.3,0.1l0,0l0,0l0,0v0.1
											c0.1,0.1,0.1,0.1,0.2,0.2c0.3,0.3,0.7,0.4,1.1,0.5c0.2,0,0.4,0,0.5-0.1c0.2,0,0.3-0.1,0.4-0.2c0.4-0.5,0.4-1.5,0.4-2.2
											V438h0.2c1.9-0.4,3.6-0.9,5.2-1.2h0.1l0,0c2.6,1.3,4.5,2.6,5.8,3.5c0.7,0.4,1.1,0.9,1.4,1.1
											C314.8,441.1,315,441.3,314.9,441.3z"/>
									</g>
								</g>
							</g>
						</g>
					</g>
				</g>
				<g>
					<g>
						<g>
							<g>
								<path class="st3" d="M289.6,448.3c0,0-34.5-10.9-45.2-14.3c-18.5-6-30.8,0.1-34.7,6.7c-4.9,8.7,7,25.5,11.5,29.4
									c13.6,11.5,37,13.1,37,13.1l0,0l84.1-0.1l-24.6-33.3L289.6,448.3z"/>
							</g>
						</g>
						<g>
							<g>
								<g>
									<path class="st9" d="M294.8,463.9c-13.9,1.6-28.3-0.3-41.3-5.6c-2.3-0.9-4.5-2-6.9-2.5c-2.3-0.5-4.7-0.8-7.1-0.5
										c-1.9,0.2-3.8,0.8-5,2.3c-1.6,2.2-0.8,5.4,0.1,8c1.1,3.1,2.2,6.3,4.4,8.7c2.5,2.9,6.1,4.5,9.8,5.6
										c7.1,2.2,14.6,2.9,22.1,3.2l25.6-1.4L294.8,463.9z"/>
								</g>
							</g>
							<g>
								<g>
									<g>
										<path class="st3" d="M245.4,455.8c0,0,0.2,0.2,0.4,0.7c0.2,0.4,0.4,1.1,0.7,2.1c0.4,1.8,0.5,4.4-0.3,7s-2.5,4.7-3.8,5.9
											c-0.7,0.5-1.3,1-1.8,1.2c-0.4,0.2-0.7,0.3-0.7,0.3c-0.1-0.1,0.9-0.7,2.2-1.9c1.3-1.2,2.9-3.2,3.6-5.8
											c0.9-2.5,0.8-5,0.4-6.8C245.7,456.8,245.3,455.8,245.4,455.8z"/>
									</g>
								</g>
							</g>
						</g>
						<g>
							<g>
								<path class="st3" d="M377.5,446.3c-2-5.7-2.3-13.9-14.7-18c-12.3-4-21.6,3.6-28,6.4c-6.4,2.6-40.9,21.6-40.9,21.6
									s-6.5,11.6-4.6,16.8c1.9,5.2,10.3,10.2,10.3,10.2h25c0,0,3.7,0,13.7,0s28.5-0.3,28.5-0.3c3.4-5.4,6.7-12.6,6.7-12.6l0.3-1.6
									C373.7,467.2,379.4,451.8,377.5,446.3z"/>
							</g>
						</g>
						<g>
							<g>
								<g>
									<path class="st3" d="M355.9,475.7c0,0,0,0.2-0.3,0.5s-0.7,0.7-1.3,1.1c-1.2,0.9-3.1,2-5.5,3.1c-1.2,0.5-2.5,1.1-4.1,1.6
										c-1.5,0.4-3.2,0.9-4.8,1.1c-3.5,0.5-7.4,0.4-11.4,0.4c-8,0.1-15.4,0.4-20.6,0.3c-2.6,0-4.8-0.1-6.3-0.2
										c-0.8-0.1-1.3-0.1-1.6-0.2c-0.4-0.1-0.5-0.1-0.5-0.1s0.8,0.1,2.3,0.1c1.4,0.1,3.6,0.1,6.3,0.1c5.3,0,12.6-0.4,20.6-0.5
										c4.1,0,7.9,0.1,11.3-0.4c1.8-0.2,3.3-0.5,4.8-1c1.5-0.4,2.9-1,4.1-1.5c2.4-1.1,4.3-2.1,5.5-2.9c0.7-0.4,1.1-0.8,1.3-1.1
										C355.8,475.8,355.9,475.7,355.9,475.7z"/>
								</g>
							</g>
						</g>
					</g>
					<g>
						<g>
							<g>
								<path class="st3" d="M299.5,483.1c0,0-0.2-0.1-0.5-0.2c-0.3-0.2-0.8-0.5-1.4-0.9c-1.2-0.9-3.1-2.1-5-4.1
									c-1-1-2.1-2.2-2.9-3.7c-0.9-1.5-0.9-3.5-0.5-5.5c0.7-4,2.4-8.2,4.7-12.6l0,0l0,0c6.4-3.5,13.6-7.5,21.5-11.7
									c4-2.1,8.1-4.4,12.4-6.6c2.2-1.1,4.3-2.2,6.6-3.3c2.3-1,4.4-2.2,6.7-3.4c3.2-1.6,6.6-3.1,10-3.7c1.8-0.3,3.5-0.4,5.3-0.4
									c1.8,0.1,3.4,0.3,5,0.8c3.3,0.9,6.4,2.2,8.9,4.3c1.2,1,2.3,2.2,3.2,3.5c0.9,1.3,1.5,2.7,2.1,4.1c0.5,1.4,1,2.9,1.3,4.2
									c0.3,1.4,0.9,2.6,1.1,4.1c0.2,2.9-0.2,5.5-0.7,7.9c-0.5,2.4-1.1,4.8-1.8,6.9c-0.3,1.1-0.7,2.1-0.9,3.1c-0.3,1-0.7,2-0.8,2.9
									l0,0c-0.1,0.7-0.2,1.1-0.3,1.6l0,0l0,0c-1.4,4.4-3.1,7.6-4.4,9.7c-1.3,2.1-2.3,3-2.3,3s0-0.1,0.1-0.2
									c0.1-0.1,0.2-0.3,0.4-0.5c0.4-0.5,1-1.2,1.6-2.3c1.3-2.1,3-5.3,4.3-9.7l0,0c0.7-0.5,0.5-1.1,0.3-1.6l0,0c0.1-1,0.4-2,0.8-3
									c0.3-1,0.5-2.1,0.9-3.1c0.5-2.2,1.2-4.4,1.6-6.9c0.4-2.4,0.9-5,0.7-7.8c-0.2-1.3-0.8-2.6-1.1-4.1c-0.4-1.4-0.8-2.7-1.3-4.2
									c-0.5-1.4-1.2-2.7-2.1-4c-0.9-1.2-2-2.4-3.2-3.4c-2.4-2-5.5-3.3-8.7-4.2c-1.6-0.4-3.3-0.7-4.9-0.7s-3.4,0.1-5,0.4
									c-3.4,0.7-6.7,2.1-9.9,3.7c-2.3,1.1-4.4,2.4-6.7,3.4c-2.2,1-4.4,2.2-6.6,3.3c-4.3,2.2-8.5,4.4-12.4,6.6
									c-7.9,4.3-15.3,8.2-21.6,11.6l0.1-0.1c-2.3,4.4-4.1,8.6-4.7,12.5c-0.3,2-0.3,3.8,0.5,5.4c0.8,1.5,1.9,2.6,2.7,3.7
									c2,2,3.8,3.3,4.9,4.2c0.5,0.4,1.1,0.7,1.4,1C299.3,483,299.5,483.1,299.5,483.1z"/>
							</g>
						</g>
					</g>
					<g>
						<g>
							<path class="st9" d="M362.5,468.9c0,0,11.5,1.3,10.5,7c-1,5.6-4.8,7.6-4.8,7.6l-31.4,0.1
								C336.8,483.5,355.6,482.1,362.5,468.9z"/>
						</g>
						<g>
							<g>
								<path class="st3" d="M363.6,466.1c0.1,0,0,0.7-0.3,1.6s-0.9,2.2-1.9,3.5c-2,2.5-4.4,3.5-4.4,3.4c-0.1-0.1,2.2-1.3,4-3.7
									C362.7,468.4,363.4,466,363.6,466.1z"/>
							</g>
						</g>
					</g>
					<g>
						<g>
							<g>
								<path class="st3" d="M359.6,468.3c0.1,0,0,2-1.1,4.1c-1.1,2.1-2.4,3.4-2.5,3.3c-0.1-0.1,1-1.5,2.1-3.5
									C359,470.1,359.5,468.3,359.6,468.3z"/>
							</g>
						</g>
					</g>
					<g>
						<g>
							<g>
								<path class="st14" d="M374.3,481.8c-0.1,0,0.7-1.4,1.5-3.8c0.9-2.4,1.9-5.9,2.3-9.8c0.4-4,0.2-7.5-0.1-10.1
									c-0.3-2.5-0.8-4.2-0.7-4.2c0,0,0.1,0.3,0.3,1.1c0.2,0.7,0.4,1.8,0.7,3.1c0.4,2.5,0.7,6.3,0.2,10.2c-0.4,4-1.5,7.5-2.5,9.9
									c-0.5,1.2-1,2.2-1.3,2.7C374.6,481.5,374.4,481.8,374.3,481.8z"/>
							</g>
						</g>
					</g>
					<g class="st7">
						<g>
							<g>
								<path d="M367.8,465.8c-0.1-0.8-0.4-1.6-1.1-1.8c-0.9-0.2-1.5,0.9-1.9,1.8c-4,9.2-17,16.4-27,17.2c4.1,0,10.4-0.4,14.5-1.2
									s8-2.3,11.1-5C366.3,474,368.2,469.8,367.8,465.8z"/>
							</g>
						</g>
					</g>
					<g>
						<g>
							<g>
								<path class="st3" d="M291.4,453.3c-0.1,0.1-2.5-0.8-5.5-2.1c-3-1.3-5.4-2.4-5.4-2.6c0-0.1,2.5,0.8,5.6,2.1
									C289.1,452,291.5,453.2,291.4,453.3z"/>
							</g>
						</g>
					</g>
				</g>
				<g class="st19">
					<g>
						<path d="M302.6,448.4c-14.9-2.9-29.9-5.4-44.9-7.6l-11.2,3.5c3.2,5.8,9.3,9.5,15.8,11.1c6.5,1.5,13.2,1.2,19.8,0.5
							c7.2-0.7,14.7-1.6,21.1-5.4c0.4-0.2,1-0.7,1-1.2C304,448.8,303.3,448.6,302.6,448.4z"/>
					</g>
				</g>
				<g>
					<g>
						<g>
							<g>
								<path class="st9" d="M229.1,404l18.8,41.6c0.8,1.8,2.5,2.9,4.4,2.9l54.9,0.7l6.9-3.7l-10.9-0.8l-16.9-40.5
									c-0.5-1.3-1.8-2.1-3.2-2.2l-52.6-0.4C229.4,401.6,228.6,402.9,229.1,404z"/>
							</g>
							<g>
								<g>
									<path class="st3" d="M229.1,404c0,0-0.1-0.1-0.1-0.5c-0.1-0.3,0-1,0.5-1.4c0.2-0.2,0.7-0.4,1.1-0.4c0.4,0,0.9,0,1.4,0
										c1,0,2.2,0,3.4,0c5.2,0,12.7,0,22.1,0.1c4.6,0,9.8,0,15.3,0.1c2.7,0,5.6,0,8.6,0c0.8,0,1.5,0,2.2,0c0.8,0,1.6,0.4,2.2,0.9
										c0.7,0.5,1,1.3,1.2,2c0.3,0.7,0.5,1.4,0.9,2.2c4.8,11.5,10.1,24.1,15.7,37.6l-0.2-0.2c3.3,0.2,6.9,0.5,10.4,0.8
										c0.1,0,0.2,0,0.3,0l1.1,0.1l-1,0.5c-2.4,1.3-4.7,2.5-6.9,3.7h-0.1H307c-14.8-0.2-28.9-0.4-41.6-0.5c-3.2,0-6.3-0.1-9.3-0.1
										c-1.5,0-3,0-4.5-0.1c-1.5-0.1-3-1.1-3.7-2.3c-2.4-5.2-4.5-9.9-6.5-14.3c-3.8-8.7-7-15.7-9.2-20.6c-1.1-2.4-1.9-4.3-2.4-5.6
										c-0.2-0.7-0.4-1.1-0.7-1.4C229.2,404.1,229.1,404,229.1,404s0.1,0.1,0.2,0.4c0.1,0.3,0.4,0.9,0.7,1.4
										c0.5,1.3,1.4,3.2,2.5,5.5c2.2,4.8,5.4,11.9,9.3,20.5c2,4.3,4.2,9.2,6.5,14.2c0.8,1.1,2,2,3.4,2.1c1.4,0.1,3,0,4.4,0.1
										c3,0,6.1,0.1,9.3,0.1c12.7,0.1,26.8,0.3,41.6,0.5h-0.1c2.2-1.2,4.5-2.4,6.9-3.7l0.1,0.5c-0.1,0-0.2,0-0.3,0
										c-3.6-0.2-7.1-0.5-10.4-0.8h-0.2l-0.1-0.2c-5.6-13.4-10.9-26.1-15.7-37.6c-0.3-0.8-0.5-1.4-0.9-2.2s-0.5-1.3-1.1-1.9
										c-0.5-0.4-1.2-0.8-1.9-0.8c-0.8,0-1.4,0-2.2,0c-3,0-5.8,0-8.6-0.1c-5.5,0-10.6-0.1-15.3-0.1c-9.3-0.1-16.8-0.2-22.1-0.2
										c-1.3,0-2.4,0-3.4,0c-0.4,0-1,0-1.3,0c-0.4,0-0.8,0.2-1,0.4c-0.4,0.4-0.5,1-0.5,1.3C229.1,403.8,229.2,404,229.1,404z"/>
								</g>
							</g>
						</g>
					</g>
					<g>
						<g>
							<g>
								<path class="st3" d="M301.6,449.1c0,0-0.1-0.1-0.2-0.4c-0.1-0.3-0.3-0.8-0.7-1.3c-0.5-1.2-1.3-3-2.2-4.9
									c-1.9-4.2-4.3-10.1-7-16.6c-2.6-6.5-5-12.4-6.7-16.7c-0.8-2.2-1.4-3.8-1.9-5.2c-0.2-0.5-0.3-1-0.4-1.4
									c-0.1-0.3-0.1-0.5-0.1-0.5s0.1,0.1,0.2,0.4c0.1,0.3,0.3,0.9,0.5,1.3c0.5,1.3,1.2,3,2.1,5c1.8,4.3,4.2,10.2,6.8,16.6
									c2.6,6.5,5,12.3,6.8,16.6c0.9,2.1,1.5,3.7,2.1,5c0.2,0.5,0.4,1,0.5,1.4C301.6,448.9,301.6,449.1,301.6,449.1z"/>
							</g>
						</g>
					</g>
					<g>
						<g>
							<path class="st6" d="M267.6,424.2c0,1.5-1.2,2.7-2.7,2.7c-1.5,0-2.7-1.2-2.7-2.7c0-1.5,1.2-2.7,2.7-2.7
								C266.4,421.4,267.6,422.7,267.6,424.2z"/>
						</g>
					</g>
				</g>
				<g>
					<path class="st3" d="M321,357.2c0.1,0-0.7,1.5-1.8,4c-1.1,2.4-2.5,5.9-3.6,9.9c-1.1,4-1.8,7.7-2.1,10.3
						c-0.3,2.6-0.4,4.4-0.5,4.4c0,0,0-0.4,0-1.2s0-1.9,0.1-3.2c0.2-2.7,0.8-6.5,1.9-10.4c1.1-4,2.5-7.5,3.8-9.9
						c0.5-1.2,1.1-2.2,1.5-2.9C320.7,357.6,320.9,357.2,321,357.2z"/>
				</g>
				<g>
					<path class="st3" d="M403.9,386.7c0,0-0.2,0-0.5,0.1c-0.4,0-1,0.1-1.8,0.2c-1.6,0.1-3.8,0.3-6.5,0.5c-5.6,0.4-13.4,1-22.3,1.6
						h-0.3v-0.3c-0.2-3-0.4-6-0.5-9.3c-0.3-5.6-0.5-11-0.7-15.8c-0.2-4.9,1-9.3,2.9-12.5c1.9-3.2,4.4-5,6.3-6c1-0.4,1.6-0.8,2.2-0.9
						c0.5-0.1,0.8-0.2,0.8-0.2c0,0.1-1.1,0.3-2.9,1.2c-1.8,1-4.2,2.9-6,6c-1.9,3.2-3,7.5-2.6,12.3c0.1,4.8,0.4,10.2,0.7,15.8
						c0.2,3.2,0.4,6.4,0.5,9.3l-0.3-0.2c8.9-0.5,16.7-1.1,22.3-1.4c2.7-0.1,4.9-0.3,6.6-0.3c0.8,0,1.3,0,1.8-0.1
						C403.7,386.7,403.9,386.7,403.9,386.7z"/>
				</g>
				<g>
					<path class="st3" d="M349.2,405.6c0,0-0.3-0.1-1-0.3c-0.3-0.1-0.7-0.3-1.1-0.5c-0.4-0.2-0.9-0.4-1.4-0.9
						c-1-0.7-2.1-1.5-3.2-2.7c-1.1-1.2-2.2-2.5-3.1-4.2c-0.9-1.6-1.5-3.3-2-4.7c-0.4-1.5-0.7-3-0.7-4.2c-0.1-0.5,0-1.1,0-1.6
						s0-0.9,0.1-1.2c0.1-0.7,0.1-1,0.2-1c0.1,0-0.1,1.5,0.1,3.8c0.1,1.2,0.3,2.5,0.8,4.1c0.4,1.5,1.1,3.1,2,4.6c0.9,1.5,2,2.9,3,4.1
						c1.1,1.1,2.1,2.1,3.1,2.7C347.9,405,349.2,405.5,349.2,405.6z"/>
				</g>
			</g>
		</g>
	</g>
</g>
<text transform="matrix(1 0 0 1 973.8673 158.5746)"><tspan x="0" y="0" class="st20 st21 st22">Scholarships </tspan><tspan x="0" y="96" class="st20 st21 st22">for</tspan><tspan x="0" y="192" class="st20 st21 st22">everyone</tspan></text>
<rect x="945.4" y="99.2" class="st20" width="4" height="267.7"/>
</svg>
