<?xml version="1.0" encoding="utf-8"?>
<!-- Generator: Adobe Illustrator 25.0.0, SVG Export Plug-In . SVG Version: 6.00 Build 0)  -->
<svg version="1.1" xmlns="http://www.w3.org/2000/svg" xmlns:xlink="http://www.w3.org/1999/xlink" x="0px" y="0px"
	 viewBox="0 0 1536 500" style="enable-background:new 0 0 1536 500;" xml:space="preserve">
<style type="text/css">
	.st0{fill:url(#SVGID_1_);}
	.st1{fill:#F5F5F5;}
	.st2{fill:#E0E0E0;}
	.st3{fill:#EBEBEB;}
	.st4{fill:#263238;}
	.st5{fill:#FAFAFA;}
	.st6{opacity:0.6;}
	.st7{fill:#455A64;}
	.st8{fill:#83ABF2;}
	.st9{fill:#FFFFFF;}
	.st10{opacity:0.1;}
	.st11{opacity:0.7;}
	.st12{opacity:0.3;}
	.st13{fill:#FFBF9D;}
	.st14{fill:#FF9A6C;}
	.st15{fill:#383884;}
	.st16{font-family:'CalisMTBol';}
	.st17{font-size:80px;}
</style>
<g id="Layer_2">
	
		<linearGradient id="SVGID_1_" gradientUnits="userSpaceOnUse" x1="0" y1="252" x2="1536" y2="252" gradientTransform="matrix(1 0 0 -1 0 502)">
		<stop  offset="0" style="stop-color:#22BABC"/>
		<stop  offset="0.5375" style="stop-color:#94DEDE"/>
		<stop  offset="1" style="stop-color:#FFFFFF"/>
	</linearGradient>
	<rect y="0.1" class="st0" width="1536" height="499.8"/>
</g>
<g id="Layer_1">
	<g id="Background_Complete">
	</g>
	<g>
		<path class="st1" d="M728.6,46.3l-1.5,0.5c-12.4,4.4-21.6,15.2-23.4,28.1c-0.2,1.7-0.3,3.3-0.3,5c0.1,12.1,6.8,24,17.2,30.5
			c6.1,3.8,13.6,6.1,17.8,11.8c5.6,7.5,3.7,17.9,1.5,26.9c-2.2,9-4,19.4,1.6,26.9c3.5,4.7,9.4,7.1,15.2,8
			c15.4,2.3,31.2-5.5,40.7-17.6s13.4-27.8,13.5-43.2c0.1-21.5-7.3-43.6-22.5-59C773.1,48.7,749.6,40.7,728.6,46.3z"/>
	</g>
	<g>
		<path class="st1" d="M596.6,404.8l1.5-0.2c13-2.1,24-11,28.1-23.3c0.5-1.6,1-3.2,1.2-4.9c2.1-11.9-2.3-24.9-11.3-33.1
			c-5.3-4.9-12.2-8.5-15.4-14.9c-4.1-8.4-0.3-18.2,3.4-26.7c3.8-8.5,7.5-18.3,3.4-26.7c-2.6-5.2-7.9-8.7-13.5-10.6
			c-14.7-5.1-31.7-0.3-43.2,9.8c-11.6,10.1-18.3,24.9-21.2,40c-4,21.2-0.8,44.2,11.4,62.1C553.3,394.2,574.9,406.3,596.6,404.8z"/>
	</g>
	<g>
		<circle class="st1" cx="716.8" cy="419.6" r="27.7"/>
	</g>
	<g>
		<circle class="st1" cx="581.7" cy="103.1" r="27.7"/>
	</g>
	<g id="Desk">
	</g>
	<g id="World">
	</g>
	<g id="Plane">
	</g>
	<g id="Location">
	</g>
	<g id="Pencil">
	</g>
	<g id="Passport">
	</g>
	<g id="Book">
	</g>
	<g>
		<g>
			<g>
				<g>
					<g>
						<g>
							<path class="st2" d="M171.8,276.9c25.8-13.9,51.5-6.1,51.5-6.1C205,287.5,171.8,276.9,171.8,276.9z"/>
						</g>
					</g>
				</g>
			</g>
		</g>
		<g>
			<g>
				<g>
					<g>
						<g>
							<path class="st2" d="M253.5,251.6c5.1,17.3-3,32.7-3,32.7C242.8,271.4,253.5,251.6,253.5,251.6z"/>
						</g>
					</g>
				</g>
			</g>
		</g>
		<g>
			<g>
				<g>
					<g>
						<g>
							<path class="st2" d="M250.7,292.4c-19.2,10-39.1,4.1-39.1,4.1C224.9,284.4,250.7,292.4,250.7,292.4z"/>
						</g>
					</g>
				</g>
			</g>
		</g>
		<g>
			<g>
				<g>
					<g>
						<g>
							<g>
								<path class="st2" d="M210.4,255.2c0.2-0.3,12.7,9.2,27.8,21.2c15.1,12,27.1,22.1,26.9,22.4s-12.7-9.2-27.8-21.2
									C222.2,265.5,210.1,255.5,210.4,255.2z"/>
							</g>
						</g>
					</g>
				</g>
			</g>
		</g>
		<g>
			<g>
				<g>
					<g>
						<g>
							<path class="st2" d="M170.4,231.2c0,0,33.4,1.8,45.6,29.1C216.1,260.4,187.5,259.2,170.4,231.2z"/>
						</g>
					</g>
				</g>
			</g>
		</g>
		<g>
			<g>
				<g>
					<g>
						<g>
							<path class="st2" d="M217,221.2c0,0,25.8,21.4,19.3,50.6C236.3,271.8,214.1,253.8,217,221.2z"/>
						</g>
					</g>
				</g>
			</g>
		</g>
	</g>
	<g>
		<g>
			<g>
				<g>
					<g>
						<g>
							<path class="st2" d="M603.3,200.6c-30.4-6.1-53.8,9.8-53.8,9.8C573.1,221.6,603.3,200.6,603.3,200.6z"/>
						</g>
					</g>
				</g>
			</g>
		</g>
		<g>
			<g>
				<g>
					<g>
						<g>
							<path class="st2" d="M513.1,200.4c0.2,19,13.1,32,13.1,32C530,217.1,513.1,200.4,513.1,200.4z"/>
						</g>
					</g>
				</g>
			</g>
		</g>
		<g>
			<g>
				<g>
					<g>
						<g>
							<path class="st2" d="M528.5,240.7c22.5,4.1,40.7-8,40.7-8C552,224.7,528.5,240.7,528.5,240.7z"/>
						</g>
					</g>
				</g>
			</g>
		</g>
		<g>
			<g>
				<g>
					<g>
						<g>
							<g>
								<path class="st2" d="M557.7,190.7c-0.3-0.2-10,13.2-21.5,30s-20.5,30.6-20.2,30.9c0.3,0.2,10-13.2,21.5-30
									S558,191,557.7,190.7z"/>
							</g>
						</g>
					</g>
				</g>
			</g>
		</g>
		<g>
			<g>
				<g>
					<g>
						<g>
							<path class="st2" d="M590.6,154.2c0,0-33.2,12.1-37,43.4C553.5,197.7,582,187.7,590.6,154.2z"/>
						</g>
					</g>
				</g>
			</g>
		</g>
		<g>
			<g>
				<g>
					<g>
						<g>
							<path class="st2" d="M540.5,158.4c0,0-19.4,29.5-3.8,57C536.7,215.4,553.6,190.5,540.5,158.4z"/>
						</g>
					</g>
				</g>
			</g>
		</g>
	</g>
	<g>
		<g>
			<g>
				<g>
					<g>
						<g>
							<path class="st2" d="M528.1,51.8c-21.3-4.3-37.8,6.9-37.8,6.9C507,66.5,528.1,51.8,528.1,51.8z"/>
						</g>
					</g>
				</g>
			</g>
		</g>
		<g>
			<g>
				<g>
					<g>
						<g>
							<path class="st2" d="M464.8,51.6c0.1,13.3,9.2,22.5,9.2,22.5C476.7,63.3,464.8,51.6,464.8,51.6z"/>
						</g>
					</g>
				</g>
			</g>
		</g>
		<g>
			<g>
				<g>
					<g>
						<g>
							<path class="st2" d="M475.7,79.8c15.8,2.9,28.6-5.6,28.6-5.6C492.2,68.6,475.7,79.8,475.7,79.8z"/>
						</g>
					</g>
				</g>
			</g>
		</g>
		<g>
			<g>
				<g>
					<g>
						<g>
							<g>
								<path class="st2" d="M496.1,44.8c-0.2-0.2-7,9.3-15,21c-8.1,11.8-14.4,21.5-14.2,21.7c0.2,0.2,7-9.2,15-21.1
									S496.4,45,496.1,44.8z"/>
							</g>
						</g>
					</g>
				</g>
			</g>
		</g>
		<g>
			<g>
				<g>
					<g>
						<g>
							<path class="st2" d="M519.2,19.2c0,0-23.3,8.5-26,30.5C493.2,49.7,513.2,42.7,519.2,19.2z"/>
						</g>
					</g>
				</g>
			</g>
		</g>
		<g>
			<g>
				<g>
					<g>
						<g>
							<path class="st2" d="M484.1,22.1c0,0-13.6,20.7-2.7,40C481.4,62.1,493.2,44.6,484.1,22.1z"/>
						</g>
					</g>
				</g>
			</g>
		</g>
	</g>
	<g>
		<g>
			<g>
				<g>
					<g>
						<g>
							<g>
								<g>
									<g>
										
											<rect x="163.8" y="156.2" transform="matrix(0.1028 -0.9947 0.9947 0.1028 -16.487 351.9345)" class="st1" width="46.2" height="57.7"/>
									</g>
								</g>
							</g>
						</g>
					</g>
				</g>
			</g>
		</g>
		<g>
			<g>
				<g>
					<g>
						<g>
							
								<rect x="166.6" y="158.3" transform="matrix(0.1028 -0.9947 0.9947 0.1028 -16.5296 351.8927)" class="st3" width="40.3" height="53.7"/>
						</g>
					</g>
				</g>
			</g>
		</g>
		<g>
			<g>
				<g>
					<g>
						<g>
							<polygon class="st2" points="158,202.4 179.3,179.4 189.2,196.2 197.9,188.7 211.4,207.9 							"/>
						</g>
					</g>
				</g>
			</g>
		</g>
		<g>
			<g>
				<g>
					<g>
						<g>
							<g>
								<g>
									<path class="st2" d="M196,178c-0.2,2.3-2.3,4-4.6,3.8c-2.3-0.2-4-2.3-3.8-4.6c0.2-2.3,2.3-4,4.6-3.8
										C194.6,173.6,196.3,175.7,196,178z"/>
								</g>
							</g>
						</g>
					</g>
				</g>
			</g>
		</g>
	</g>
	<g>
		<g>
			<g>
				<g>
					<g>
						<g>
							<g>
								<g>
									<g>
										<g>
											
												<rect x="516.5" y="385.7" transform="matrix(0.1453 -0.9894 0.9894 0.1453 53.4356 874.9824)" class="st1" width="33.3" height="41.7"/>
										</g>
									</g>
								</g>
							</g>
						</g>
					</g>
				</g>
			</g>
			<g>
				<g>
					<g>
						<g>
							<g>
								
									<rect x="518.5" y="387.2" transform="matrix(0.1453 -0.9894 0.9894 0.1453 53.4127 874.949)" class="st3" width="29.1" height="38.8"/>
							</g>
						</g>
					</g>
				</g>
			</g>
			<g>
				<g>
					<g>
						<g>
							<g>
								<polygon class="st2" points="511.8,418.2 527.8,402.2 534.5,414.6 541,409.5 550.2,423.8 								"/>
							</g>
						</g>
					</g>
				</g>
			</g>
			<g>
				<g>
					<g>
						<g>
							<g>
								<g>
									<g>
										<path class="st2" d="M540,401.8c-0.2,1.7-1.8,2.8-3.5,2.6c-1.7-0.2-2.8-1.8-2.6-3.5c0.2-1.7,1.8-2.8,3.5-2.6
											C539.1,398.5,540.2,400.1,540,401.8z"/>
									</g>
								</g>
							</g>
						</g>
					</g>
				</g>
			</g>
		</g>
	</g>
	<g>
		<g>
			<g>
				<g>
					<g>
						<g>
							<g>
								<g>
									<g>
										<g>
											
												<rect x="177.4" y="344.2" transform="matrix(0.8827 -0.47 0.47 0.8827 -146.3324 135.4879)" class="st1" width="41.7" height="33.3"/>
										</g>
									</g>
								</g>
							</g>
						</g>
					</g>
				</g>
			</g>
			<g>
				<g>
					<g>
						<g>
							<g>
								
									<rect x="178.8" y="346.3" transform="matrix(0.8827 -0.47 0.47 0.8827 -146.3395 135.4772)" class="st3" width="38.8" height="29.1"/>
							</g>
						</g>
					</g>
				</g>
			</g>
			<g>
				<g>
					<g>
						<g>
							<g>
								<polygon class="st2" points="187.9,382.8 191.3,360.5 204.1,366.5 206.2,358.5 222.1,364.6 								"/>
							</g>
						</g>
					</g>
				</g>
			</g>
			<g>
				<g>
					<g>
						<g>
							<g>
								<g>
									<g>
										<path class="st2" d="M200.9,352.9c0.8,1.5,0.2,3.3-1.3,4.1c-1.5,0.8-3.3,0.2-4.1-1.3c-0.8-1.5-0.2-3.3,1.3-4.1
											C198.2,350.8,200.1,351.4,200.9,352.9z"/>
									</g>
								</g>
							</g>
						</g>
					</g>
				</g>
			</g>
		</g>
	</g>
	<g>
		<g>
			<path class="st4" d="M607.5,499.6c0,0.2-102.6,0.3-229.1,0.3c-126.5,0-229.1-0.1-229.1-0.3s102.5-0.3,229.1-0.3
				C504.9,499.3,607.5,499.4,607.5,499.6z"/>
		</g>
	</g>
	<g>
		<g>
			<g>
				<g>
					<g>
						<g>
							<path class="st5" d="M511.6,172.3c-1.4-3.2-1.8-6.8-2.7-10.2c-0.5-1.8-1.4-3.8-3.1-4.6c-1.1-0.5-2.5-0.5-3.7-0.8
								c-4.3-1.3-5.5-7.4-9.6-9.2c-1.3-0.6-2.7-0.7-4.1-0.9c-5.5-0.6-11.2-2.6-14.6-6.9c-1.1-1.4-2-3-3.4-4.2
								c-1.4-1.1-3.6-1.6-5-0.5c1.2,2.3,2.3,4.6,3.4,6.9c1,2.1,2.1,4.2,3.9,5.8c1.8,1.6,4.4,2.4,6.5,1.4c0.7-0.3,1.4-0.9,2.2-0.8
								c0.6,0.1,1,0.5,1.4,0.9c3,3.3,2,8.8-0.9,12.2c-2.9,3.4-7.2,5.1-11.4,6.8c-1.5,0.6-3.1,1.2-4.6,0.9c-2.9-0.5-4.4-3.7-5.2-6.5
								c-1.9-6.2-2.8-13-6.6-18.2c-1.2-1.6-2.8-3.1-3.5-5.1c-0.8-2.1-0.6-4.5-1.9-6.4c-1.3-1.9-4.1-3-4.2-5.4
								c-0.1-1.6,1.2-3.1,2.7-3.8c1.5-0.7,3.1-0.9,4.7-1.6c0.6-0.3,1.3-0.7,1.3-1.3c0-1-1.3-1.4-1.7-2.3c-0.4-1,0.7-2,1.1-3
								c1-2.3-1.4-4.6-3.7-5.5c-2.3-0.9-5-1.6-6.1-3.8c-0.5-1-0.5-2.2-0.7-3.3c-0.5-2.8-2.6-5.5-5.4-6c-2.9-0.5-6,2.1-5.5,4.9
								c0.3,1.6,1.4,2.8,2.1,4.2c0.6,1.4,0.5,3.6-1,4c-2.4,0.7-4.8-3.7-6.8-2.2c0.8,2.8,1.6,5.7,2.5,8.6c-3.2,1.6-7-1.3-8.4-4.7
								c-1.4-3.3-1.4-7.1-3-10.3c-1.6-3.2-6-5.6-8.8-3.3c-0.1,4.1,5.3,5.8,7.7,9.1c1.7,2.4,1.5,6.3-1.1,7.9
								c-2.5,1.5-6.6-1.1-5.6-3.9c0.4-1,1.2-1.8,1.2-2.8c0.1-1.3-1-2.3-2-3.2c-1.5-1.3-3.1-2.6-4.7-3.9c-1-0.8-2.1-1.7-3.3-2.1
								c-3.2-0.9-6.4,1.7-8.1,4.5c-1.7,2.9-2.6,6.2-5,8.6c-3.4,3.5-9.7,3.7-12.9,0.1c-3.2-3.6-1.5-10.5,3.1-11.8
								c1.8-0.5,4-0.4,4.9-2c1.6-2.8-3-6.3-1.4-9.1c1.2-2.1,4.5-1.2,6.8-1.9c2.3-0.7,3.7-3.1,5-5.1c1.4-2,3.5-4.1,5.9-3.5
								c-0.2-1.4-0.4-2.9,0.3-4.2c0.6-1.3,2.4-2.1,3.5-1.3c-1.2,1.9,0.2,4.7,2.3,5.6c2.1,1,4.5,0.7,6.8,0.5c2.3-0.3,5.1-1.1,5.3-3.4
								c0.1-0.7-0.2-1.5,0.1-2.2c1-2.7,6,1,7.9-1.2c1.1-1.1-0.1-3.2-1.7-3.5c-1.5-0.4-3.1,0.2-4.7,0.2c-1.6,0.1-3.5-0.8-3.6-2.3
								c-0.1-1.6,1.7-2.7,1.9-4.2c0.3-2.6-4.1-3.3-5.7-1.2c-1.5,2.1-1,5-0.5,7.6c0.5,2.6,0.7,5.6-1.2,7.4c-0.8,1.2-2.9,0.6-3.6-0.7
								c-0.7-1.3-0.6-2.9-0.7-4.3c-0.1-1.5-0.8-3.2-2.2-3.6c-1-0.3-2.1,0.2-3.1,0.3c-4,0.5-6.8-4.7-5.6-8.6c1.2-3.9,4.9-6.3,8.5-8.3
								c2.6-1.4,5.8-2.8,8.4-1.3c1.2,0.7,2,1.8,3.2,2.5c2,1.2,4.6,0.8,6.9,0.8c3.7,0.1,7.3,1.5,10.1,3.9c1,1,2,2.5,1.2,3.7
								c-0.9,1.2-3.4,1.5-3,2.9c2.7,0.9,6-1.2,6.3-4.1c1.3,0.6,2.3,2,2.4,3.4c2.9-3,8.6-2.5,11,0.9c0.6,0.9,1.1,2,2,2.6
								c0.9,0.6,2.5,0.3,2.7-0.8c0-0.3-0.1-0.7-0.2-1c-0.6-1.6-1.1-3.1-1.7-4.7c2.2-1.2,4.7,0.7,6.2,2.6c5.4,7.3,9.3,2.9,17,4.1
								c5.2,0.8,7.4,4.1,10.4,8.1c9,12.3,20.8,22.4,28.9,35.3c0.9,1.3,1.7,2.7,2.4,4.1c-0.1-0.3-0.2-0.7-0.4-1
								c-3.2-8.4-7.2-16.5-11.8-24c-1-1.6-2-3.2-3.1-4.8c-0.6-1-1.3-2-2-2.9c-0.9-1.2-1.8-2.5-2.7-3.7c-0.7-1-1.4-1.9-2.2-2.8
								c-0.5-0.7-1-1.3-1.6-1.9c-0.6-0.7-1.2-1.5-1.8-2.2l-2-2.2c-0.2-0.2-0.4-0.5-0.6-0.7c-0.7-0.8-1.4-1.6-2.1-2.3
								c0-0.1-0.1-0.2-0.2-0.2c-0.2-0.2-0.4-0.4-0.6-0.6c-0.6-0.7-1.2-1.3-1.8-1.9c-1-1-2-2-3.1-3c-0.9-0.9-1.7-1.7-2.6-2.5
								c-0.8-0.7-1.6-1.4-2.4-2.1c-0.8-0.7-1.6-1.4-2.4-2c-1-0.8-2-1.7-3-2.5h0c-2.8-2.2-5.7-4.4-8.7-6.4c-0.7-0.5-1.5-1-2.2-1.5
								c-0.7-0.5-1.5-1-2.2-1.4c-0.8-0.5-1.5-1-2.3-1.4c-0.8-0.5-1.5-0.9-2.3-1.4c-0.6-0.4-1.2-0.7-1.9-1c-0.3-0.2-0.6-0.4-1-0.5
								c-1.3-0.7-2.7-1.5-4-2.1c-0.7-0.3-1.3-0.7-2-1c-0.9-0.4-1.7-0.9-2.6-1.2c-0.1-0.1-0.3-0.1-0.4-0.2c-0.8-0.4-1.6-0.7-2.4-1.1
								c-1.1-0.5-2.3-1-3.4-1.4c-1.3-0.5-2.6-1.1-3.9-1.5c-1.5-0.6-2.9-1.1-4.4-1.6c-1.5-0.5-3-1-4.5-1.5s-3-0.9-4.5-1.3
								c-3-0.8-6.1-1.5-9.2-2.2c0,0-0.1,0-0.2,0c-1.2-0.2-2.4-0.5-3.5-0.6c-0.1,0-0.2,0-0.2,0c-0.5-0.1-1-0.2-1.6-0.2
								c-2.2-0.4-4.4-0.7-6.7-0.9c-0.2,0-0.5-0.1-0.8-0.1c-0.6-0.1-1.3-0.1-2-0.2c-1.5-0.1-3-0.3-4.5-0.4c-1.5-0.1-3.1-0.2-4.7-0.2
								c-1.6-0.1-3.3-0.1-4.9-0.1c-4.4,0-8.7,0.2-12.9,0.6c-1,0.1-2,0.2-3,0.3c-1,0.1-2.1,0.2-3.1,0.4c-1,0.1-2.1,0.3-3.1,0.4
								c-1,0.2-2.1,0.3-3.1,0.5c-0.9,0.1-1.8,0.3-2.7,0.5c-2.2,0.4-4.3,0.9-6.5,1.4c-1,0.2-2,0.5-3,0.8c-1,0.2-2,0.5-3,0.8
								c-1.6,0.5-3.2,1-4.9,1.5h0c-1.3,0.4-2.6,0.9-3.9,1.3c0,0-0.1,0-0.1,0c-1.3,0.5-2.6,1-3.9,1.5c-0.1,0-0.1,0-0.2,0.1
								c-1.2,0.5-2.4,1-3.5,1.4c-1.5,0.6-2.9,1.2-4.3,1.9c-1.2,0.6-2.4,1.1-3.5,1.7c-1.2,0.6-2.5,1.2-3.7,1.9c0,0-0.1,0-0.1,0.1
								c-1.2,0.6-2.4,1.3-3.5,2c-1.2,0.7-2.4,1.4-3.6,2.1h0c-1.1,0.7-2.2,1.3-3.3,2c-0.4,0.3-0.8,0.5-1.2,0.8
								c-1.2,0.7-2.3,1.5-3.4,2.3c-1.4,1-2.7,2-4.1,2.9c-1.2,0.9-2.3,1.8-3.5,2.7c-6.6,5.2-12.7,11-18.2,17.3
								c-2,2.2-3.8,4.4-5.6,6.7c-1.5,1.9-3,3.9-4.4,6c-1.3,1.8-2.5,3.6-3.7,5.4c1.2-1.8,2.4-3.7,3.7-5.4c0.4-0.1,0.7-0.1,1.1-0.1
								c2.1-0.2,4.3-0.1,6.2-1c1.7-0.9,3-2.4,4.5-3.5c4-2.9,10.6-3.4,11.7-8.2c0.4-1.6-0.1-3.4,0.5-4.9c1.1-2.9,5-3.3,8.1-3.3
								c1.3,0,2.9,0.2,3.5,1.3c0.4,0.8,0.2,1.8-0.1,2.7c-1.9,5.4-5.8,10.1-10.6,13.1c-4,2.5-9.3,4.4-10.4,8.9
								c0.6,1.6,3.4,1.4,3.6,3.1c0.2,1.3-1.5,2-2.1,3.1c-0.9,1.7,1.1,3.8,3.1,3.7c1.9-0.1,3.5-1.5,4.9-2.8
								c4.2-3.9,8.6-8.1,10.2-13.7c0.6-2.3,0.9-5,2.7-6.5c2.2-1.8,6.1-0.6,6.9,2.2c1.8-1,4.7-1.8,5.6,0.1c0.3,0.7,0.2,1.5,0.4,2.2
								c0.6,3,4.7,4.3,5.1,7.3c0.5,3.4-3.9,5.2-7.4,5.8c-3.1,0.5-6.3,1-9.4,1.5c-1.4,0.2-2.8,0.4-3.9,1.2c-1.1,0.8-1.8,2.4-1.2,3.6
								c0.4,0.7,1.1,1.1,1.6,1.7c2.6,2.6,0.5,7.9-3.2,8.1c-1.2,0.1-2.5-0.4-3.7-0.5c-3.7-0.2-6.6,3.1-8.4,6.4c-1.8,3.3-3.1,7-6,9.2
								c-4.8,3.6-13,2.8-15.3,8.3c-0.9,2.2-0.4,4.7-0.1,7.1c0.4,2.4,0.5,5-0.9,7c-1.4,1.9-4.9,2.4-6,0.2c-0.4-0.9-0.3-2.1-0.1-3.1
								c0.6-3.4,1.1-6.9,1.6-10.3c0.4-2.6,0.7-5.4-0.8-7.5c-2.1-2.9-6.8-2.6-9.6-0.3c-2.7,2.3-3.9,6-4.6,9.5
								c-0.6,2.6-1.2,6.3-2.6,9.2l0,0c-0.5,2.9-0.9,5.8-1.2,8.7c-0.3,3-0.5,6-0.6,9.1c0.4-0.3,0.8-0.7,1.2-1.1
								c1.5-1.5,4.4-7.9,7.1-4.8c0.7,0.8,0.7,2.1,0.1,2.9c-0.8,1-2.4,1.3-3.1,2.4c-0.8,1.3,0.3,3,1.6,3.9c1.2,0.9,2.8,1.5,3.7,2.7
								c1.7,2.4,0.1,6.1,1.7,8.6c1.4,2.1,4.4,2.3,7,2.6c0.3,0.1,0.6,0.1,0.9,0.1c0.7-5.1,3.1-9.2,10.1-10.8
								c9.6-2.2,22.2,5.8,27.6,13c6,8.1,8.9,19.5,18.1,23.6c6.6,2.9,16,1.9,19.2,8.3c2.9,5.8-2.1,12.3-2.9,18.7
								c-0.5,4.2,0.9,8.5,1.2,12.7c0.3,4.3-1,9.2-4.8,11c-2.2,1-4.9,0.9-6.6,2.5c-3.1,2.9-0.6,9-3.6,11.9c-1.1,1-2.6,1.4-3.9,2.1
								c-6.9,3.5-6.8,13.7-3.5,20.8c0.1,0.3,0.2,0.5,0.4,0.7c10.2,6.1,21.3,11.1,32.9,14.5c13.4,4.1,27.5,6.2,42.2,6.2
								c24.8,0,48.2-6.2,68.7-17.1h0c4.5-2.4,8.8-5,13-7.8c6.5-4.3,12.5-9.2,18.2-14.5c3.9-3.7,7.6-7.5,11.1-11.6
								c2.5-2.8,4.8-5.8,7-8.8c1.1-1.6,2.2-3.1,3.3-4.7c3.2-4.7,6.1-9.6,8.7-14.6c3.8-7.3,7-14.9,9.5-22.9c2.6-8,4.5-16.3,5.6-24.8
								c0.4-3.3,0.8-6.6,1-10c-1.6,1.6-3.7,2.7-5.9,2.6C515.9,178.4,513,175.5,511.6,172.3z"/>
						</g>
					</g>
					<g>
						<g>
							<path class="st3" d="M344.2,58.1c-2.9,1.7-4.5,5-6.7,7.5s-6.3,4.3-8.9,2.2c-1.3-1-1.8-2.7-2-4.3c-0.2-2.3,0.4-4.7,1.6-6.7
								c1.3-2.1,3.2-3.7,4.3-5.8c1.1-2.2,0.9-5.3-1.3-6.3c-1.2-0.5-2.7-0.3-3.7-1.1c-1.9-1.4-0.5-4.7,1.7-5.5c2.2-0.8,4.6-0.2,7,0
								c8.5,0.5,14.7-5,21.1-9.6c5-3.6,15.5-7.8,21.3-4.2c2.3,1.5,3.2,5.2,1,6.9c-1,0.7-2.3,0.9-3.2,1.7c-1.1,1-1.2,2.6-1.9,3.9
								c-1.6,3.4-6.2,4.7-7.7,8.2c-0.9,2.1-0.5,4.7-1.9,6.5c-1.1,1.4-3,2-4.8,2.4c-3.7,0.9-7.4,1.8-11.1,2.6
								C347.3,56.8,345.6,57.2,344.2,58.1z"/>
						</g>
					</g>
					<g>
						<g>
							<path class="st3" d="M443.2,238.4c-3.7,5.5-4.3,12.4-5.4,19s-2.8,13.5-7.8,17.9c-5,4.3-14.3,4.1-17.1-2
								c-1.5-3.3-0.7-7.1-1.6-10.6c-1.1-4.6-4.7-8.1-6.4-12.5c-1.5-3.7-1.5-7.8-1.6-11.9c-0.7-21.9-6-44.7-20.9-60.8
								c-1.8-2-3.9-3.9-6.5-4.6c-3.1-0.8-6.6,0.4-8.5,2.9c-1.2,1.6-1.8,3.6-3.3,4.9c-3.2,2.9-8.8,0.8-10.9-2.9
								c-2.1-3.8-1.8-8.4-1.5-12.6c0.4-5.3,0.9-10.7,1.3-16c0.2-2.8,0.5-5.8,2.4-7.9c2.6-3,7.3-3.1,10.5-5.5
								c4.2-3.1,4.7-9.1,7.4-13.6c2.6-4.5,10.9-6.4,12.1-1.3c8.7-18.7,28,9.1,39.4,7c3.3-0.6,6.6-2.2,9.9-1.7c5.9,0.8,9,7.3,11,13
								c3.3,9.3,6.7,18.6,10,28c1.3,3.6,2.9,7.5,6.4,8.9c2.7,1.1,5.8,0.2,8.5,1.2c7.2,2.6,4.9,13.9-0.9,18.9s-13.9,8.2-16.6,15.3
								c-2.1,5.4-0.4,11.7-2.6,17C448.8,232.2,445.5,235,443.2,238.4z"/>
						</g>
					</g>
					<g>
						<g>
							<path class="st3" d="M470.5,244.5c-2.4,0.3-5.1-0.8-6.9,0.7c-1,0.9-1.3,2.4-1.7,3.8c-0.6,1.8-1.7,3.6-3.4,4.6
								c-1.7,1-3.9,1.1-5.5-0.1c-1.5-1.2-2-3.6-0.8-5.1c0.6-0.7,1.4-1.1,2-1.7c3.1-3,1-8.4,3.4-12c1.4-2.1,3.6-4.2,5.2-6.3
								c1.2-1.6,1.6-2.9,3.8-3.3C476.2,223.2,480.5,243.1,470.5,244.5z"/>
						</g>
					</g>
					<g class="st6">
						<g>
							<path class="st4" d="M297.6,287.9c1.2,0.8,2.5,1.6,3.7,2.4c0.9,0.6,1.8,1.1,2.7,1.6c-0.9-0.5-1.8-1.1-2.7-1.6
								C300.1,289.5,298.9,288.7,297.6,287.9z"/>
						</g>
					</g>
					<g class="st6">
						<g>
							<path class="st4" d="M232.8,160.1L232.8,160.1L232.8,160.1L232.8,160.1L232.8,160.1c0,0.3-0.1,0.5-0.1,0.8
								c0,0.9,0,1.8-0.1,2.6c0-0.9,0-1.8,0.1-2.6C232.8,160.6,232.8,160.4,232.8,160.1z"/>
						</g>
					</g>
					<g>
						<g>
							<g>
								<path class="st3" d="M251.8,204.7c-0.5-4.2,0.9-8.4,1-12.6c0.1-2.9-0.2-6-0.2-8.9c-2.5-0.1-5-0.5-7.4-1
									c-0.5-0.1-1.1-0.3-1.4-0.7c-0.3-0.4-0.3-1-0.3-1.6c-0.2-3.3-3.4-5.5-6.2-7.1c-1.5-0.9-2.9-1.7-4.5-2.2c0,0.4,0,0.7,0,1
									c0.6,16.3,3.8,31.9,9.3,46.5c2.5,6.6,5.5,13.1,8.9,19.2c1.4,2.7,3,5.3,4.7,7.9c2,3.2,4.2,6.3,6.5,9.3
									c2.1,2.9,4.4,5.7,6.8,8.4c3.3,3.7,6.7,7.3,10.4,10.7c3.2,3,6.6,5.9,10.1,8.6c-8-21.5-15.5-43.4-29.2-61.6
									C256.6,215.5,252.5,210.6,251.8,204.7z"/>
							</g>
						</g>
						<g>
							<g>
								<path class="st3" d="M252.9,177.4c-0.3-0.1-0.6-0.1-0.9-0.1c-2.6-0.3-5.6-0.4-7-2.6c-1.6-2.5,0-6.2-1.7-8.6
									c-0.9-1.3-2.4-1.8-3.7-2.7c-1.2-0.9-2.3-2.6-1.6-3.9c0.6-1.1,2.2-1.4,3.1-2.4c0.6-0.8,0.6-2.1-0.1-2.9
									c-2.6-3.1-5.6,3.2-7.1,4.8c-0.4,0.4-0.8,0.8-1.2,1.1v0c0,0.3-0.1,0.5-0.1,0.8c0,0.9,0,1.8-0.1,2.6c0,0.9-0.1,1.8-0.1,2.6
									c0,0.7,0,0.7,0,1.4s0.1,2.2,0.1,2.9c1.6,0.5,3.1,1.4,4.5,2.2c2.9,1.6,6,3.8,6.2,7.1c0,0.5,0,1.1,0.3,1.6
									c0.3,0.4,0.9,0.6,1.4,0.7c2.4,0.6,4.9,0.9,7.4,1"/>
							</g>
						</g>
						<g>
							<g>
								<path class="st3" d="M252.6,183.1c0.1,2.9,0.2,6,0.2,8.9c-0.1,4.2-1.5,8.4-1,12.6c0.7,5.9,4.8,10.8,8.4,15.6
									c13.7,18.3,21.2,40.2,29.2,61.7h0c1.5,1.2,3,2.3,4.5,3.4c1.2,0.9,2.4,1.7,3.6,2.5c1.2,0.8,2.5,1.6,3.7,2.4
									c0.9,0.6,1.8,1.1,2.7,1.6c-0.1-0.3-0.2-0.5-0.4-0.7c-3.2-7.1-3.4-17.3,3.5-20.8c1.3-0.7,2.8-1,3.9-2.1
									c3.1-2.9,0.6-9,3.6-11.9c1.7-1.6,4.5-1.5,6.6-2.5c3.9-1.8,5.1-6.8,4.8-11c-0.3-4.2-1.7-8.5-1.2-12.7
									c0.8-6.4,5.8-12.9,2.9-18.7c-3.2-6.5-12.6-5.4-19.2-8.3c-9.2-4.1-12.1-15.5-18.1-23.6c-5.4-7.2-18-15.2-27.6-13
									c-7,1.6-9.3,5.7-10.1,10.8"/>
							</g>
						</g>
						<g>
							<g>
								<path class="st3" d="M241.9,123.6c2.7-2.3,7.5-2.6,9.6,0.3c1.5,2.1,1.2,4.9,0.8,7.5c-0.5,3.4-1.1,6.9-1.6,10.3
									c-0.2,1-0.3,2.1,0.1,3.1c1,2.2,4.6,1.8,6-0.2c1.4-2,1.2-4.6,0.9-7c-0.4-2.4-0.9-4.9,0.1-7.1c2.3-5.5,10.5-4.7,15.3-8.3
									c3-2.2,4.3-6,6-9.2c1.8-3.3,4.7-6.5,8.4-6.4c1.2,0.1,2.5,0.5,3.7,0.5c3.7-0.1,5.8-5.5,3.2-8.1c-0.5-0.6-1.2-1-1.6-1.7
									c-0.6-1.2,0-2.8,1.2-3.6c1.1-0.8,2.5-1,3.9-1.2c3.1-0.5,6.3-1,9.4-1.5c3.5-0.5,7.9-2.3,7.4-5.8c-0.4-3-4.5-4.3-5.1-7.3
									c-0.2-0.7-0.1-1.5-0.4-2.2c-1-1.9-3.8-1.1-5.6-0.1c-0.7-2.8-4.7-4-6.9-2.2c-1.9,1.5-2.1,4.2-2.7,6.5
									c-1.5,5.6-6,9.8-10.2,13.7c-1.4,1.3-3,2.7-4.9,2.8c-1.9,0.1-3.9-2-3.1-3.7c0.6-1.2,2.3-1.8,2.1-3.1
									c-0.2-1.6-3.1-1.5-3.6-3.1c1.1-4.6,6.4-6.5,10.4-8.9c4.9-3,8.7-7.7,10.6-13.1c0.3-0.9,0.6-1.9,0.1-2.7
									c-0.6-1.2-2.2-1.3-3.5-1.3c-3.1,0-7,0.4-8.1,3.3c-0.6,1.5-0.2,3.3-0.5,4.9c-1.1,4.8-7.7,5.4-11.7,8.2
									c-1.6,1.1-2.8,2.7-4.5,3.5c-1.9,0.9-4.1,0.8-6.2,1c-0.4,0-0.7,0.1-1.1,0.1c-1.3,1.8-2.5,3.6-3.7,5.4s-2.3,3.7-3.4,5.6
									c-5.2,8.9-9.5,18.4-12.7,28.3c-1.1,3.5-2.1,7-3,10.6c-0.9,3.6-1.6,7.2-2.2,10.9c1.4-3,2.1-6.6,2.6-9.2
									C238.1,129.6,239.2,125.9,241.9,123.6z"/>
							</g>
						</g>
						<g>
							<g>
								<path class="st3" d="M525.3,175.9c0,0-3.7,2.7-5.9,2.6c-3.5-0.1-6.4-3-7.8-6.2c-1.4-3.2-1.8-6.8-2.7-10.2
									c-0.5-1.8-1.4-3.8-3.1-4.6c-1.1-0.5-2.5-0.5-3.7-0.8c-4.3-1.3-5.5-7.4-9.6-9.2c-1.3-0.6-2.7-0.7-4.1-0.9
									c-5.5-0.6-11.2-2.6-14.6-6.9c-1.1-1.4-2-3-3.4-4.2c-1.4-1.1-3.6-1.6-5-0.5c1.2,2.3,2.3,4.6,3.4,6.9c1,2.1,2.1,4.2,3.9,5.8
									c1.8,1.6,4.4,2.4,6.5,1.4c0.7-0.3,1.4-0.9,2.2-0.8c0.6,0.1,1,0.5,1.4,0.9c3,3.3,2,8.8-0.9,12.2c-2.9,3.4-7.2,5.1-11.4,6.8
									c-1.5,0.6-3.1,1.2-4.6,0.9c-2.9-0.5-4.4-3.7-5.2-6.5c-1.9-6.2-2.8-13-6.6-18.2c-1.2-1.6-2.8-3.1-3.5-5.1
									c-0.8-2.1-0.6-4.5-1.9-6.4c-1.3-1.9-4.1-3-4.2-5.4c-0.1-1.6,1.2-3.1,2.7-3.8c1.5-0.7,3.1-0.9,4.7-1.6
									c0.6-0.3,1.3-0.7,1.3-1.3c0-1-1.3-1.4-1.7-2.3c-0.4-1,0.7-2,1.1-3c1-2.3-1.4-4.6-3.7-5.5c-2.3-0.9-5-1.6-6.1-3.8
									c-0.5-1-0.5-2.2-0.7-3.3c-0.5-2.8-2.6-5.5-5.4-6c-2.9-0.5-6,2.1-5.5,4.9c0.3,1.6,1.4,2.8,2.1,4.2c0.6,1.4,0.5,3.6-1,4
									c-2.4,0.7-4.8-3.7-6.8-2.2c0.8,2.8,1.6,5.7,2.5,8.6c-3.2,1.6-7-1.3-8.4-4.7c-1.4-3.3-1.4-7.1-3-10.3c-1.6-3.2-6-5.6-8.8-3.3
									c-0.1,4.1,5.3,5.8,7.7,9.1c1.7,2.4,1.5,6.3-1.1,7.9c-2.5,1.5-6.6-1.1-5.6-3.9c0.4-1,1.2-1.8,1.2-2.8c0.1-1.3-1-2.3-2-3.2
									c-1.5-1.3-3.1-2.6-4.7-3.9c-1-0.8-2.1-1.7-3.3-2.1c-3.2-0.9-6.4,1.7-8.1,4.5c-1.7,2.9-2.6,6.2-5,8.6
									c-3.4,3.5-9.7,3.7-12.9,0.1c-3.2-3.6-1.5-10.5,3.1-11.8c1.8-0.5,4-0.4,4.9-2c1.6-2.8-3-6.3-1.4-9.1c1.2-2.1,4.5-1.2,6.8-1.9
									c2.3-0.7,3.7-3.1,5-5.1c1.4-2,3.5-4.1,5.9-3.5c-0.2-1.4-0.4-2.9,0.3-4.2c0.6-1.3,2.4-2.1,3.5-1.3c-1.2,1.9,0.2,4.7,2.3,5.6
									c2.1,1,4.5,0.7,6.8,0.5c2.3-0.3,5.1-1.1,5.3-3.4c0.1-0.7-0.2-1.5,0.1-2.2c1-2.7,6,1,7.9-1.2c1.1-1.1-0.1-3.2-1.7-3.5
									c-1.5-0.4-3.1,0.2-4.7,0.2c-1.6,0.1-3.5-0.8-3.6-2.3c-0.1-1.6,1.7-2.7,1.9-4.2c0.3-2.6-4.1-3.3-5.7-1.2
									c-1.5,2.1-1,5-0.5,7.6c0.5,2.6,0.7,5.6-1.2,7.4c-0.8,1.2-2.9,0.6-3.6-0.7c-0.7-1.3-0.6-2.9-0.7-4.3
									c-0.1-1.5-0.8-3.2-2.2-3.6c-1-0.3-2.1,0.2-3.1,0.3c-4,0.5-6.8-4.7-5.6-8.6c1.2-3.9,4.9-6.3,8.5-8.3c2.6-1.4,5.8-2.8,8.4-1.3
									c1.2,0.7,2,1.8,3.2,2.5c2,1.2,4.6,0.8,6.9,0.8c3.7,0.1,7.3,1.5,10.1,3.9c1,1,2,2.5,1.2,3.7c-0.9,1.2-3.4,1.5-3,2.9
									c2.7,0.9,6-1.2,6.3-4.1c1.3,0.6,2.3,2,2.4,3.4c2.9-3,8.6-2.5,11,0.9c0.6,0.9,1.1,2,2,2.6c0.9,0.6,2.5,0.3,2.7-0.8
									c0-0.3-0.1-0.7-0.2-1c-0.6-1.6-1.1-3.1-1.7-4.7c2.2-1.2,4.7,0.7,6.2,2.6c5.4,7.3,9.3,2.9,17,4.1c5.2,0.8,7.4,4.1,10.4,8.1
									c9,12.3,20.8,22.4,28.9,35.3c0.9,1.3,1.7,2.7,2.4,4.1l0,0c0,0,0,0,0,0c0.7,1.8,1.3,3.7,2,5.6s1.2,3.8,1.7,5.7
									c1.4,5,2.7,9.2,3.5,14.4c0,0,1,8.3,1.3,11c0.2,2.1,0.4,4.1,0.5,6.2s0.2,4.2,0.2,6.3L525.3,175.9z"/>
							</g>
						</g>
					</g>
				</g>
			</g>
		</g>
		<g>
			<g>
				<path class="st4" d="M526.2,166.2c0,0,0-0.8-0.1-2.4c0-0.8,0-1.8-0.1-2.9c0-1.2-0.1-2.5-0.2-4.1c-0.1-1.5-0.3-3.2-0.4-5.1
					c-0.2-1.9-0.5-3.9-0.8-6.2c-0.6-4.4-1.6-9.6-3-15.2c-1.5-5.6-3.3-11.9-6-18.5c-2.7-6.6-5.9-13.6-10.2-20.7
					c-8.5-14.2-20.7-29.1-37.3-41.8c-8.3-6.4-17.7-12.1-28.1-16.8c-10.4-4.7-21.7-8.5-33.8-10.7c-12.1-2.2-24.8-3.1-37.9-2.1
					c-6.5,0.4-13.1,1.5-19.7,2.8c-6.6,1.4-13.1,3.3-19.6,5.6c-6.5,2.4-12.9,5.2-19.1,8.5c-6.2,3.4-12.3,7.2-18.1,11.5
					c-5.8,4.3-11.3,9.1-16.6,14.3c-5.2,5.3-10,10.9-14.5,16.9c-4.5,6-8.4,12.5-12,19.3c-0.8,1.7-1.8,3.4-2.6,5.1
					c-0.8,1.8-1.6,3.5-2.4,5.2c-1.4,3.6-2.9,7.2-4.1,10.8c-2.4,7.4-4.4,14.9-5.6,22.7c-1.2,7.8-1.9,15.7-1.9,23.6
					c0.1,8,0.7,15.9,1.9,23.6c1.2,7.8,3.2,15.4,5.6,22.7l0.9,2.8l0.5,1.4l0.5,1.4c0.7,1.8,1.4,3.6,2.1,5.4c0.8,1.8,1.6,3.5,2.4,5.2
					c0.8,1.8,1.7,3.4,2.6,5.1c3.6,6.8,7.5,13.3,12,19.3c4.5,6,9.3,11.7,14.5,16.9c5.2,5.2,10.8,9.9,16.6,14.3
					c5.8,4.3,11.9,8.1,18.1,11.5c6.2,3.4,12.6,6.1,19.1,8.5c6.5,2.3,13.1,4.2,19.6,5.6c6.6,1.3,13.1,2.4,19.7,2.8
					c13,1,25.8,0.1,37.9-2.1c12.1-2.2,23.4-6,33.8-10.7c10.4-4.7,19.8-10.4,28.1-16.8c16.6-12.7,28.8-27.6,37.3-41.8
					c4.3-7.1,7.6-14.1,10.2-20.7c2.7-6.6,4.5-12.8,6-18.5c1.4-5.7,2.4-10.8,3-15.2c0.3-2.2,0.6-4.3,0.8-6.2c0.2-1.9,0.3-3.6,0.4-5.1
					c0.2-1.5,0.2-2.9,0.2-4.1c0-1.2,0.1-2.1,0.1-2.9C526.2,167,526.2,166.2,526.2,166.2s0,0.8,0,2.4c0,0.8,0,1.8-0.1,2.9
					s0,2.5-0.2,4.1c-0.1,1.5-0.2,3.2-0.4,5.1c-0.2,1.9-0.5,3.9-0.8,6.2c-0.6,4.5-1.6,9.6-2.9,15.3c-1.5,5.6-3.3,11.9-6,18.5
					c-2.6,6.6-5.9,13.6-10.2,20.8c-8.5,14.3-20.7,29.2-37.4,41.9c-8.3,6.4-17.7,12.1-28.1,16.9c-10.4,4.7-21.8,8.5-33.9,10.7
					c-12.1,2.2-24.9,3.1-38,2.1c-6.5-0.4-13.1-1.4-19.8-2.8c-6.6-1.4-13.2-3.3-19.7-5.6c-6.5-2.4-12.9-5.2-19.2-8.6
					c-6.2-3.4-12.3-7.2-18.2-11.5c-5.8-4.4-11.4-9.1-16.6-14.3c-5.2-5.3-10.1-10.9-14.6-17c-4.5-6-8.5-12.6-12-19.4
					c-0.9-1.7-1.8-3.4-2.6-5.1c-0.8-1.8-1.6-3.5-2.4-5.3c-0.7-1.8-1.4-3.6-2.1-5.4l-0.5-1.4l-0.5-1.4l-0.9-2.8
					c-2.4-7.4-4.4-15-5.6-22.8c-1.2-7.8-1.9-15.7-1.9-23.7c0.1-8,0.7-15.9,1.9-23.7c1.2-7.8,3.2-15.4,5.6-22.8
					c1.2-3.7,2.6-7.3,4.1-10.9c0.8-1.8,1.6-3.5,2.4-5.3c0.8-1.8,1.7-3.4,2.6-5.2c3.6-6.8,7.5-13.3,12-19.3c4.5-6.1,9.4-11.7,14.6-17
					c5.3-5.2,10.8-10,16.6-14.3c5.8-4.3,11.9-8.1,18.2-11.5c6.2-3.4,12.7-6.1,19.2-8.6c6.5-2.3,13.1-4.2,19.7-5.6
					c6.6-1.3,13.2-2.4,19.8-2.8c13.1-1,25.9-0.1,38,2.1c12.1,2.2,23.5,6,33.9,10.7c10.4,4.7,19.8,10.5,28.1,16.9
					c16.7,12.7,28.9,27.7,37.4,41.9c4.3,7.1,7.6,14.2,10.2,20.8c2.7,6.6,4.5,12.9,6,18.5c1.4,5.7,2.3,10.8,2.9,15.3
					c0.3,2.2,0.6,4.3,0.8,6.2c0.1,1.9,0.3,3.6,0.4,5.1c0.1,1.5,0.2,2.9,0.2,4.1s0,2.1,0.1,2.9C526.2,165.4,526.2,166.2,526.2,166.2z
					"/>
			</g>
		</g>
	</g>
	<g>
		<polygon class="st4" points="351,110.8 350.2,71.8 336.9,78.7 331.3,102.1 		"/>
	</g>
	<g>
		<polygon class="st4" points="335.8,128.6 321.9,135.6 316.7,135 325.8,127.8 334.9,125.9 		"/>
	</g>
	<g>
		<polygon class="st2" points="241.3,105.2 189.2,145.7 247.9,107.9 		"/>
	</g>
	<g>
		<path class="st4" d="M273.9,116.1c-0.8,0.4-76.4,30.5-76.4,30.5l-8.3-0.9l57.4-40.8L273.9,116.1z"/>
	</g>
	<g>
		<path class="st7" d="M251.6,122.8l6.7,2.7c1,0.4,2.2-0.1,2.6-1.1l0.2-0.4c0.4-1-0.1-2.2-1.1-2.6l-6.7-2.7c-1-0.4-2.2,0.1-2.6,1.1
			l-0.2,0.4C250.1,121.2,250.6,122.4,251.6,122.8z"/>
	</g>
	<g>
		<path class="st7" d="M215.5,140.1l6.7,2.7c1,0.4,2.2-0.1,2.6-1.1l0.2-0.4c0.4-1-0.1-2.2-1.1-2.6l-6.7-2.7c-1-0.4-2.2,0.1-2.6,1.1
			l-0.2,0.4C213.9,138.4,214.4,139.6,215.5,140.1z"/>
	</g>
	<g>
		<path class="st8" d="M225.8,110c0,0,22.8,3.1,19.6,15.1s-25.6-0.6-25.6-0.6s-3.3-1.9-2.1-8.3C219,109.8,225.8,110,225.8,110z"/>
	</g>
	<g>
		<path class="st4" d="M219.6,115.8c0.5-1.5,1.2-3,2.4-3.9c1.2-0.9,3.1-1.2,4.3-0.2l0.6,0.4c1.6,1.7,2.2,4.4,1.3,6.7
			c0.1-0.2,0.2-0.5,0.2-0.7c-0.4,2.4-1.8,4.7-3.8,6.1c-0.5,0.4-1.1,0.7-1.8,0.8c-0.8,0.1-1.6-0.4-2.2-0.9c-1.1-1-1.6-2.5-1.7-3.9
			C218.9,118.6,219.2,117.1,219.6,115.8z"/>
	</g>
	<g>
		<g>
			<path class="st9" d="M363,116.1c0,0,9.3,9.3-8.4,11.6s-48.3,1.1-82.7-10.7s-65.1-28.3-70.5-32.6c-4-3.2-10.4-8.7-8.1-16.6
				c1.2-4.1,4.4-7.2,8.4-8.7c5.2-1.9,14-4,23.7-1.5C240.9,61.7,363,116.1,363,116.1z"/>
		</g>
		<g>
			<g>
				<path class="st4" d="M363,116.1c0,0-0.3-0.1-0.9-0.4c-0.6-0.3-1.5-0.7-2.7-1.2c-2.4-1-5.9-2.6-10.3-4.5c-9-3.9-22-9.6-38-16.6
					c-16.1-7-35.2-15.3-56.6-24.2c-5.4-2.2-10.8-4.5-16.5-6.7c-2.8-1.2-5.7-2.2-8.6-3.3c-1.5-0.5-2.9-1-4.4-1.4
					c-1.5-0.4-3-0.7-4.6-0.8c-6.2-0.7-12.7,0.2-18.8,2.5c-3,1.1-5.6,3.3-7.1,6.2c-1.5,2.8-1.8,6.3-0.6,9.4c1.2,3.1,3.5,5.6,5.9,7.7
					c2.4,2.2,5.3,3.8,8.1,5.5c5.6,3.2,11.3,6.2,17,9c11.3,5.5,22.5,10.4,33.3,14.6c10.8,4.2,21.2,7.7,31.2,10.2
					c10,2.6,19.4,4.2,28.1,5.2s16.6,1.4,23.6,1.3c3.5,0,6.7-0.2,9.7-0.5c3-0.3,5.7-0.6,8-1.2c2.3-0.6,4.4-1.5,5.6-2.9
					c0.6-0.7,0.9-1.5,1-2.3c0-0.8-0.1-1.5-0.3-2.1c-0.4-1.2-1-2-1.4-2.5C363.2,116.4,363,116.1,363,116.1s0.3,0.2,0.7,0.7
					s1,1.3,1.5,2.5c0.2,0.6,0.4,1.3,0.4,2.1c0,0.8-0.4,1.7-1,2.4c-1.2,1.5-3.4,2.4-5.7,3c-2.4,0.6-5.1,0.9-8.1,1.2
					c-3,0.2-6.2,0.5-9.7,0.5c-7,0.1-14.9-0.2-23.6-1.2s-18.2-2.6-28.2-5.2c-10-2.5-20.5-6-31.3-10.2c-10.8-4.2-22-9-33.3-14.5
					c-5.7-2.8-11.4-5.7-17-9c-2.8-1.7-5.7-3.3-8.1-5.6c-2.5-2.2-4.9-4.7-6.1-7.9c-1.2-3.2-0.9-6.9,0.7-9.9c1.6-3,4.3-5.3,7.4-6.4
					c6.1-2.3,12.7-3.2,19-2.5c1.6,0.2,3.1,0.5,4.7,0.9c1.5,0.4,3,1,4.5,1.4c2.9,1.1,5.8,2.1,8.6,3.3c5.6,2.2,11.1,4.5,16.5,6.7
					c21.4,9,40.5,17.3,56.5,24.3c16,7.1,29,12.8,37.9,16.8c4.5,2,7.9,3.6,10.3,4.6c1.2,0.5,2.1,0.9,2.7,1.2
					C362.7,116,363,116.1,363,116.1z"/>
			</g>
		</g>
	</g>
	<g>
		<g>
			<polygon class="st4" points="334,106.4 334,110 309,99.2 312.9,97.1 			"/>
		</g>
		<g>
			<polygon class="st9" points="332.1,104.3 332.1,110.5 329.8,109.5 329.8,103.2 			"/>
		</g>
		<g>
			<polygon class="st9" points="327.3,101.7 327.3,107.9 325,106.9 325,100.6 			"/>
		</g>
		<g>
			<polygon class="st9" points="322.5,99.9 322.5,106 320.2,105.1 320.2,98.7 			"/>
		</g>
		<g>
			<polygon class="st9" points="313,96.1 313,102.2 310.7,101.2 310.7,94.9 			"/>
		</g>
	</g>
	<g>
		<polygon class="st4" points="410.3,44.1 303.2,102.4 279.1,90.8 397.4,43.1 		"/>
	</g>
	<g>
		<g>
			<polyline class="st9" points="283.7,81.4 397.4,43.1 279.1,90.8 			"/>
		</g>
		<g>
			<g>
				<path class="st4" d="M279.1,90.8c0,0,0.2-0.1,0.6-0.3c0.4-0.2,1-0.4,1.7-0.7c1.5-0.6,3.8-1.6,6.7-2.8c5.8-2.4,14.2-5.8,24.6-10
					c20.8-8.4,49.5-20,81.1-32.8c1.2-0.5,2.4-1,3.5-1.4l0.2,0.5c-31.6,10.6-60,20.1-80.6,27c-10.3,3.4-18.6,6.2-24.3,8.1
					c-2.9,0.9-5.1,1.7-6.6,2.2c-0.7,0.2-1.3,0.4-1.7,0.6c-0.4,0.1-0.6,0.2-0.6,0.2s0.2-0.1,0.6-0.2c0.4-0.1,1-0.3,1.7-0.6
					c1.5-0.5,3.7-1.3,6.6-2.3c5.7-1.9,14-4.8,24.3-8.3c20.5-6.9,49-16.5,80.5-27.2l0.2,0.5c-1.1,0.5-2.3,0.9-3.5,1.4
					c-31.7,12.8-60.4,24.3-81.2,32.7c-10.4,4.2-18.8,7.5-24.6,9.8c-2.9,1.1-5.1,2-6.7,2.7c-0.8,0.3-1.3,0.5-1.8,0.7
					C279.4,90.8,279.1,90.8,279.1,90.8z"/>
			</g>
		</g>
	</g>
	<g>
		<path class="st7" d="M353.7,71.7l5.8,4.3c0.9,0.7,2.2,0.5,2.8-0.4l0.3-0.4c0.7-0.9,0.5-2.2-0.4-2.8l-5.8-4.3
			c-0.9-0.7-2.2-0.5-2.8,0.4l-0.3,0.4C352.6,69.8,352.8,71,353.7,71.7z"/>
	</g>
	<g>
		<path class="st4" d="M398.1,99.9c-0.4,0.2-34,17.6-34,17.6l-7.4-4.1l32.2-13.9L398.1,99.9z"/>
	</g>
	<g>
		<polygon class="st9" points="388.3,99.4 386,99.4 352.7,111.6 356.7,113.3 		"/>
	</g>
	<g>
		<polygon class="st4" points="279.9,82.9 276.7,85.2 226.7,63.9 227.3,60.3 		"/>
	</g>
	<g>
		<polygon class="st9" points="277.1,80.1 277.1,86.3 274.8,85.3 274.8,78.9 		"/>
	</g>
	<g>
		<polygon class="st9" points="272,77.8 272,83.9 269.7,83 269.7,76.6 		"/>
	</g>
	<g>
		<polygon class="st9" points="266.9,75.5 266.9,81.6 264.6,80.7 264.6,74.3 		"/>
	</g>
	<g>
		<polygon class="st9" points="261.8,73.1 261.8,79.3 259.5,78.3 259.5,72 		"/>
	</g>
	<g>
		<polygon class="st9" points="256.7,70.8 256.7,77 254.4,76 254.4,69.7 		"/>
	</g>
	<g>
		<polygon class="st9" points="251.6,68.5 251.6,74.7 249.3,73.7 249.3,67.4 		"/>
	</g>
	<g>
		<polygon class="st9" points="246.4,66.6 246.4,72.8 244.2,71.8 244.2,65.5 		"/>
	</g>
	<g>
		<polygon class="st9" points="317.8,97.9 317.8,104.1 315.5,103.1 315.5,96.8 		"/>
	</g>
	<g>
		<polygon class="st9" points="241.3,64.4 241.3,70.6 239.1,69.6 239.1,63.3 		"/>
	</g>
	<g>
		<polygon class="st9" points="236.2,62.4 236.2,68.6 233.9,67.6 233.9,61.3 		"/>
	</g>
	<g>
		<polygon class="st9" points="231,60.3 231,66.5 228.7,65.6 228.7,59.2 		"/>
	</g>
	<g>
		<path class="st4" d="M215.5,60.8c0,0-8.6-2.5-13.8-1.7c1.7-0.7,3.3-1.2,4.9-1.5c0,0,3.2-1.2,9.6,0.5L215.5,60.8z"/>
	</g>
	<g>
		<polygon class="st2" points="316.7,135 323.1,127.9 326.1,128.2 		"/>
		<path class="st4" d="M316.5,135.1l0.2-0.2l6.4-7h0l3.1,0.2l-0.1,0L316.5,135.1z M323.1,128l-6.2,6.8l9.2-6.6L323.1,128z"/>
	</g>
	<g>
		<path class="st7" d="M331.3,83.6l5.8,4.3c0.9,0.7,2.2,0.5,2.8-0.4l0.3-0.4c0.7-0.9,0.5-2.2-0.4-2.8L334,80
			c-0.9-0.7-2.2-0.5-2.8,0.4l-0.3,0.4C330.2,81.7,330.4,83,331.3,83.6z"/>
	</g>
	<g>
		<path class="st7" d="M377.4,59l5.8,4.3c0.9,0.7,2.2,0.5,2.8-0.4l0.3-0.4c0.7-0.9,0.5-2.2-0.4-2.8l-5.8-4.3
			c-0.9-0.7-2.2-0.5-2.8,0.4l-0.3,0.4C376.3,57,376.5,58.3,377.4,59z"/>
	</g>
	<g>
		<path class="st8" d="M311.6,69.4c0,0,21.9,6.9,16.8,18.2s-25.2-4.9-25.2-4.9s-3-2.4-0.6-8.5C304.9,68,311.6,69.4,311.6,69.4z"/>
	</g>
	<g>
		<path class="st4" d="M304.5,74c0.7-1.4,1.7-2.7,3-3.5c1.4-0.7,3.3-0.6,4.3,0.6l0.6,0.5c1.3,2,1.4,4.7,0.2,6.8
			c0.1-0.2,0.2-0.4,0.4-0.7c-0.8,2.3-2.6,4.3-4.8,5.4c-0.6,0.3-1.2,0.5-1.9,0.5c-0.8-0.1-1.6-0.6-2.1-1.3c-0.9-1.2-1.2-2.7-1-4.1
			C303.3,76.7,303.9,75.3,304.5,74z"/>
	</g>
	<g class="st10">
		<g>
			<path d="M209,74.2c3.1-0.9,5.9,0.8,8.4,2.3c40.2,24.2,85.2,43.6,132.1,43.5c1.1,0,2,0.6,2.5,1.6l0,0c0.7,1.7-0.5,3.6-2.3,3.7
				c-50,2.3-100.6-13.2-140.8-43.2c-1.5-1.1-3.1-2.5-2.9-4.6C206.2,75.9,207.5,74.7,209,74.2z"/>
		</g>
	</g>
	<g>
		<g>
			<g>
				<g>
					<path class="st8" d="M280.9,193.1c0-6.7-6-11.9-12.9-10.6c-4.3,0.8-7.8,4.4-8.6,8.7c-0.5,2.7,0.1,5.3,1.3,7.4h0l0,0
						c0.4,0.7,0.9,1.2,1.5,1.9l6.3,8.3c0.8,1,2.3,1,3.1,0l6.2-8.2c0,0,1.1-1.4,1.6-2.1l0,0l0,0C280.4,197,280.9,195.1,280.9,193.1z
						 M270.1,197.9c-2.6,0-4.8-2.1-4.8-4.8c0-2.6,2.1-4.8,4.8-4.8s4.8,2.1,4.8,4.8C274.9,195.7,272.7,197.9,270.1,197.9z"/>
				</g>
			</g>
		</g>
	</g>
	<g>
		<g>
			<g>
				<g>
					<path class="st8" d="M524.9,97.9c0-14.8-13.4-26.5-28.7-23.6c-9.6,1.8-17.3,9.7-19,19.3c-1.1,6,0.2,11.7,3,16.4h0l0.1,0.1
						c0.9,1.6,2.1,2.7,3.2,4.3l14,18.5c1.7,2.3,5.2,2.3,6.9,0l13.7-18.2c0,0,2.6-3.1,3.5-4.6l0-0.1h0
						C523.7,106.5,524.9,102.4,524.9,97.9z M500.9,108.4c-5.9,0-10.6-4.7-10.6-10.6c0-5.8,4.7-10.6,10.6-10.6
						c5.9,0,10.6,4.7,10.6,10.6C511.5,103.7,506.7,108.4,500.9,108.4z"/>
				</g>
			</g>
		</g>
	</g>
	<g>
		<polygon class="st8" points="197.5,287.9 211.3,315.3 272.1,366.5 287.1,347 227.3,297.1 		"/>
	</g>
	<g class="st11">
		<g>
			<path class="st9" d="M227.3,297.1c-0.1,1.2-1.1,2.1-2.3,1.8c1.3,1.8,1.4,4.5,0.1,6.4c-1.3,1.9-3.8,2.7-6,2.1
				c0.6,2.2-0.1,4.6-1.7,6.2c-1.6,1.6-4.1,2.2-6.2,1.6l-13.6-27.2L227.3,297.1z"/>
		</g>
	</g>
	<g>
		<path class="st8" d="M203.1,298.9c0,0,5.8,1,6.7-7.2l-12.2-3.8L203.1,298.9z"/>
	</g>
	<g class="st12">
		<path d="M219.1,307.3l59.9,49.6l-6.9,9.5l-60.8-51.1l-0.1-0.2c0,0,1.2,0.4,2.8,0.2c1-0.2,2.3-0.7,3.3-1.6c1.3-1.2,1.9-2.7,2-3.9
			C219.4,308.4,219.1,307.3,219.1,307.3z"/>
	</g>
	<g class="st12">
		<path d="M225.1,298.9l60.1,50.6l1.9-2.5l-59.7-49.9c0,0-0.1,1.8-1.8,1.8C225.4,299,225.2,298.9,225.1,298.9z"/>
	</g>
	<g>
		<g>
			<path class="st9" d="M212.5,306c0,0,0.1,0.1,0.3,0.2c0.2,0.1,0.6,0,0.8-0.4c0.1-0.4,0.1-1-0.1-1.5c-0.1-0.3-0.3-0.6-0.6-0.8
				c-0.3-0.2-0.7-0.3-1-0.2c-0.4,0.1-0.6,0.5-0.7,0.9c-0.1,0.4-0.2,0.8-0.2,1.3c-0.1,0.9,0,1.9,0.4,2.9c0.2,0.5,0.5,0.9,1,1.1
				c0.5,0.2,1.1,0,1.5-0.3c0.8-0.7,1.1-2,1.1-3.1c0-2.4-1.3-4.6-3.2-5.5c-0.5-0.2-1-0.2-1.4,0c-0.4,0.2-0.7,0.6-1,1
				c-0.5,0.8-0.8,1.6-1.1,2.3c-0.4,1.5-0.4,2.8-0.3,3.7c0.1,0.4,0.1,0.8,0.2,1s0.1,0.3,0.1,0.3s-0.2-0.5-0.3-1.3
				c-0.1-0.9-0.2-2.2,0.2-3.7c0.2-0.8,0.5-1.6,1.1-2.4c0.3-0.4,0.6-0.8,1.1-1c0.4-0.2,1-0.3,1.5,0c1.9,0.9,3.3,3.2,3.3,5.6
				c0,0.6-0.1,1.2-0.3,1.8s-0.5,1.1-0.9,1.5c-0.4,0.4-1.1,0.5-1.6,0.4s-0.9-0.7-1.1-1.2c-0.4-1-0.5-2-0.4-2.9c0-0.5,0.1-0.9,0.2-1.3
				c0.1-0.4,0.4-0.8,0.8-0.9c0.4-0.2,0.8,0,1.1,0.2c0.3,0.2,0.5,0.5,0.6,0.8c0.2,0.6,0.2,1.2,0,1.6c-0.2,0.5-0.6,0.5-0.8,0.5
				C212.5,306.1,212.5,305.9,212.5,306z"/>
		</g>
	</g>
	<g>
		<g>
			<path class="st9" d="M214.9,293.5c0,0-0.1,0.3-0.2,0.9c-0.1,0.6-0.1,1.5,0.1,2.6c0.2,1.1,0.7,2.3,1.4,3.7
				c0.6,1.3,1.4,2.8,1.5,4.6c0.2,1.7-0.2,3.4-0.9,4.7c-0.7,1.3-1.7,2.3-2.6,2.9c-0.9,0.6-1.8,0.9-2.4,1.1c-0.6,0.2-1,0.2-1,0.2
				c0,0,0.1,0,0.2-0.1s0.4-0.1,0.7-0.2c0.6-0.2,1.4-0.5,2.4-1.1c0.9-0.6,1.9-1.6,2.6-2.9c0.7-1.3,1.1-2.9,0.9-4.6
				c-0.2-1.7-0.9-3.2-1.5-4.5c-0.6-1.3-1.1-2.6-1.4-3.7c-0.2-1.1-0.2-2,0-2.7C214.8,293.8,214.9,293.5,214.9,293.5z"/>
		</g>
	</g>
	<g>
		<g>
			<path class="st9" d="M221.8,295.3c0,0-0.7,0.3-1.1,1.4c-0.4,1.1-0.4,2.7-0.4,4.4c0.1,1.8,0.3,3.3,0.6,4.4c0.1,0.6,0.2,1,0.3,1.3
				s0.1,0.5,0.1,0.5c0,0-0.1-0.2-0.2-0.5c-0.1-0.3-0.2-0.8-0.4-1.3c-0.3-1.1-0.6-2.7-0.6-4.5c0-0.9,0-1.7,0.1-2.5
				c0.1-0.8,0.2-1.5,0.4-2s0.5-0.9,0.8-1.1C221.6,295.3,221.8,295.3,221.8,295.3z"/>
		</g>
	</g>
	<g>
		<g>
			<path class="st9" d="M224.4,306c0,0-0.2-0.3-0.4-0.9c-0.2-0.6-0.5-1.4-0.5-2.4c0-1,0.6-1.8,1.1-2.2c0.3-0.2,0.5-0.3,0.7-0.3
				s0.3,0,0.3,0c0,0-0.4,0.1-0.9,0.5c-0.5,0.4-1,1.1-1,2.1c-0.1,0.9,0.2,1.8,0.4,2.4C224.3,305.6,224.5,306,224.4,306z"/>
		</g>
	</g>
	<g>
		<g>
			<path class="st9" d="M211,292c0,0,0,0,0.1,0.1c0,0.1,0.1,0.2,0.1,0.4s0.1,0.4,0.1,0.7s-0.1,0.6-0.3,0.9c-0.3,0.6-0.8,1.2-1.2,1.9
				s-0.9,1.6-1.3,2.5c-0.8,1.8-1.2,3.6-1.5,4.8c-0.1,0.5-0.2,1-0.4,1.5c-0.1,0.4-0.1,0.5-0.1,0.5s0-0.2,0.1-0.6
				c0.1-0.4,0.2-0.9,0.3-1.5c0.3-1.3,0.7-3,1.4-4.9c0.4-0.9,0.8-1.8,1.3-2.5c0.5-0.7,0.9-1.3,1.2-1.9c0.4-0.6,0.3-1.1,0.2-1.4
				C211,292.2,210.9,292,211,292z"/>
		</g>
	</g>
	<g>
		<g>
			<g>
				<g>
					<g>
						<path class="st7" d="M337.7,302.1l-53.4,27.2l-43.1-84.6l53.4-27.2c4.2-2.1,9.3-0.5,11.4,3.7l35.4,69.5
							C343.5,294.9,341.9,300,337.7,302.1z"/>
					</g>
				</g>
				<g>
					<g>
						<g>
							<g>
								<path class="st9" d="M307.4,284.9c-0.9,0.8-1.9,1.5-3,2.1c-3.5,1.8-7.4,2-11.1,0.7c-3.7-1.3-6.8-4-8.6-7.6
									c-3.8-7.4-1-16.4,6.1-20c3.5-1.8,7.4-2,11.2-0.7c3.7,1.3,6.8,4,8.6,7.6s2.2,7.6,1.1,11.4
									C310.8,280.9,309.4,283.1,307.4,284.9z M288.5,262.9c-4.5,4-5.8,10.9-2.9,16.7c1.7,3.3,4.6,5.9,8,7.1
									c3.5,1.2,7.1,1,10.3-0.7c3.2-1.6,5.5-4.5,6.6-8c1.1-3.5,0.7-7.3-1-10.6l0,0c-1.7-3.3-4.6-5.9-8-7.1c-3.5-1.2-7.1-1-10.3,0.7
									C290.2,261.5,289.3,262.1,288.5,262.9z"/>
							</g>
						</g>
						<g>
							<g>
								
									<rect x="283.2" y="272.7" transform="matrix(0.891 -0.454 0.454 0.891 -91.6266 164.7624)" class="st9" width="28.2" height="1"/>
							</g>
						</g>
						<g>
							<g>
								
									<rect x="296.8" y="259.1" transform="matrix(0.8911 -0.4539 0.4539 0.8911 -91.8227 164.7369)" class="st9" width="1" height="29.1"/>
							</g>
						</g>
						<g>
							<g>
								<path class="st9" d="M304.3,286.8l-1-0.4c1.5-4.2,2.1-7.5,1.9-10.6c-0.2-3.7-2.1-7.8-4.7-10.3c-2.6-2.5-6.4-3.5-9.7-4.5
									l0.3-1c3.4,1,7.3,2,10.1,4.7c2.8,2.7,4.8,7,5.1,11C306.5,280,305.2,284.1,304.3,286.8z"/>
							</g>
						</g>
						<g>
							<g>
								<path class="st9" d="M303.7,287.1c-3.5-0.8-7.1-1.9-10.3-4.5c-3.1-2.6-5.4-6.7-5.9-10.6c-0.5-3.9,1.1-8,2.3-11.4l1,0.4
									c-1.2,3.2-2.7,7.3-2.2,10.9c0.5,3.5,2.7,7.5,5.5,9.9c3,2.4,6.5,3.5,9.9,4.3L303.7,287.1z"/>
							</g>
						</g>
						<g>
							<g>
								<path class="st9" d="M301,263.9c-4.8,4.3-11,7.1-17.5,7.7l-0.1-1c7.6-0.8,14.8-4.5,19.8-10.4l0.8,0.7
									C303,261.9,302,262.9,301,263.9z"/>
							</g>
						</g>
						<g>
							<g>
								<path class="st9" d="M311.6,276.5c-8.5,0.8-16,4.4-20.5,9.8l-0.8-0.7c4.7-5.6,12.4-9.3,21.2-10.1L311.6,276.5z"/>
							</g>
						</g>
					</g>
				</g>
				<g>
					<g>
						<g>
							<path class="st4" d="M288.9,327.1c-0.1,0-9.7-18.8-21.6-42.1c-11.9-23.3-21.4-42.2-21.4-42.2c0.1,0,9.7,18.8,21.6,42.1
								C279.4,308.2,288.9,327.1,288.9,327.1z"/>
						</g>
					</g>
				</g>
				<g>
					<g>
						<g>
							<path class="st9" d="M328.9,294.4c0,0.1-7.3,3.9-16.3,8.5s-16.4,8.3-16.4,8.2c0-0.1,7.3-3.9,16.3-8.5
								C321.5,298,328.9,294.3,328.9,294.4z"/>
						</g>
					</g>
				</g>
				<g>
					<g>
						<g>
							<path class="st9" d="M326.4,299.5c0,0.1-5.4,2.9-12.1,6.3c-6.7,3.4-12.2,6.1-12.2,6.1c0-0.1,5.4-2.9,12.1-6.3
								C320.9,302.2,326.4,299.5,326.4,299.5z"/>
						</g>
					</g>
				</g>
				<g>
					<g>
						<g>
							<path class="st9" d="M269.9,251.2c0.5,1,0.2,2-0.9,2.6l-0.7,0.4l0.6,1.2l-1.1,0.6l-2.3-4.5l1.8-0.9
								C268.3,249.9,269.4,250.2,269.9,251.2z M268.7,251.8c-0.2-0.4-0.6-0.5-1-0.3l-0.6,0.3l0.7,1.3l0.6-0.3
								C268.8,252.6,268.9,252.2,268.7,251.8z"/>
						</g>
						<g>
							<path class="st9" d="M273.9,251.6l-1.7,0.9l0.1,1l-1.2,0.6l-0.5-5.4l1.1-0.6l4.1,3.6l-1.2,0.6L273.9,251.6z M273.1,250.8
								l-1.2-1.2l0.2,1.7L273.1,250.8z"/>
						</g>
						<g>
							<path class="st9" d="M275.7,251.3l-0.1-1.1c0.5,0.1,1.1,0,1.5-0.2c0.5-0.2,0.6-0.5,0.5-0.7c-0.4-0.7-2.4,1-3.2-0.7
								c-0.4-0.8-0.2-1.8,1-2.4c0.5-0.3,1.1-0.4,1.7-0.4l0.1,1.1c-0.5,0-0.9,0-1.3,0.2c-0.5,0.2-0.6,0.5-0.4,0.7
								c0.4,0.7,2.4-1,3.2,0.7c0.4,0.8,0.1,1.8-1,2.4C277,251.3,276.2,251.4,275.7,251.3z"/>
						</g>
						<g>
							<path class="st9" d="M279.4,249.4l-0.1-1.1c0.5,0.1,1.1,0,1.5-0.2c0.5-0.2,0.6-0.5,0.5-0.7c-0.4-0.7-2.4,1-3.2-0.7
								c-0.4-0.8-0.2-1.8,1-2.4c0.5-0.3,1.1-0.4,1.7-0.4l0.1,1.1c-0.5,0-0.9,0-1.3,0.2c-0.5,0.2-0.6,0.5-0.4,0.7
								c0.4,0.7,2.4-1,3.2,0.7c0.4,0.8,0.1,1.8-1,2.4C280.7,249.4,280,249.5,279.4,249.4z"/>
						</g>
						<g>
							<path class="st9" d="M285.8,243.1c0.5,1,0.2,2-0.9,2.6l-0.7,0.4l0.6,1.2l-1.1,0.6l-2.3-4.5l1.8-0.9
								C284.3,241.8,285.3,242.1,285.8,243.1z M284.7,243.7c-0.2-0.4-0.6-0.5-1-0.3l-0.6,0.3l0.7,1.3l0.6-0.3
								C284.8,244.4,284.9,244.1,284.7,243.7z"/>
						</g>
						<g>
							<path class="st9" d="M286.5,243.5c-0.7-1.4-0.2-2.8,1-3.5c1.3-0.7,2.7-0.1,3.4,1.2c0.7,1.4,0.2,2.8-1,3.5
								C288.7,245.3,287.2,244.8,286.5,243.5z M289.9,241.8c-0.4-0.8-1.1-1-1.7-0.7s-0.8,1.1-0.4,1.8s1.1,1,1.7,0.7
								S290.2,242.5,289.9,241.8z"/>
						</g>
						<g>
							<path class="st9" d="M293.9,241l-0.6,0.3l0.6,1.2l-1.1,0.6l-2.3-4.5l1.8-0.9c1.1-0.6,2.1-0.3,2.6,0.8
								c0.3,0.7,0.3,1.3-0.1,1.8l1.6,1l-1.2,0.6L293.9,241z M292.7,238.7l-0.6,0.3l0.7,1.3l0.6-0.3c0.5-0.2,0.6-0.6,0.4-1
								C293.6,238.6,293.2,238.5,292.7,238.7z"/>
						</g>
						<g>
							<path class="st9" d="M296,237.1l-1.2,0.6l-0.5-1l3.6-1.8l0.5,1l-1.2,0.6l1.8,3.5l-1.1,0.6L296,237.1z"/>
						</g>
					</g>
				</g>
				<g>
					<g>
						<g>
							<g>
								<g>
									<path class="st9" d="M321.4,263.7c0,0,0.9,4-3.3,5.1C318,268.8,317.3,264.7,321.4,263.7z"/>
								</g>
							</g>
						</g>
						<g>
							<g>
								<g>
									<path class="st9" d="M322.2,270c0,0-0.4,3.5-4.3,3.2C318,273.2,318.6,269.6,322.2,270z"/>
								</g>
							</g>
						</g>
						<g>
							<g>
								<g>
									<path class="st9" d="M321.5,275.5c0,0-1.5,3.5-5.3,2C316.1,277.5,317.9,274,321.5,275.5z"/>
								</g>
							</g>
						</g>
						<g>
							<g>
								<g>
									<path class="st9" d="M314.4,268.3c0,0,3.6-0.1,3.8,3.8C318.2,272.1,314.5,272,314.4,268.3z"/>
								</g>
							</g>
						</g>
						<g>
							<g>
								<g>
									<path class="st9" d="M315.7,272.5c0,0,2.4,1.2,1.1,4C316.8,276.4,314.4,275,315.7,272.5z"/>
								</g>
							</g>
						</g>
						<g>
							<g>
								<g>
									<path class="st9" d="M317.9,260.3c0,0,1.8,2.7-1.1,4.7C316.8,265,315.1,262.1,317.9,260.3z"/>
								</g>
							</g>
						</g>
						<g>
							<g>
								<g>
									<path class="st9" d="M311.9,259.6c0,0,3-0.2,3.4,3.3C315.4,262.9,312.2,262.9,311.9,259.6z"/>
								</g>
							</g>
						</g>
						<g>
							<g>
								<g>
									<path class="st9" d="M312.6,264.6c0,0,3.5-1.3,5,2.4C317.6,267,313.9,268.2,312.6,264.6z"/>
								</g>
							</g>
						</g>
						<g>
							<g>
								<g>
									<path class="st9" d="M314.3,279.6C314.3,279.6,314.3,279.6,314.3,279.6c0.1,0,0.1-0.1,0.1-0.1c0.1-0.1,0.2-0.2,0.4-0.4
										c0.4-0.3,0.8-0.8,1.3-1.5c0.5-0.7,1-1.6,1.4-2.7c0.2-0.5,0.4-1.1,0.5-1.7c0-0.1,0-0.3,0.1-0.5c0-0.1,0-0.2,0-0.2
										c0-0.1,0-0.2,0-0.2c0-0.2,0-0.3,0-0.5c0-0.2,0-0.3,0-0.5c0-0.1,0-0.2,0-0.2s0-0.2,0-0.2c0-0.2,0-0.3,0-0.5s0-0.3,0-0.5
										c0-0.1,0-0.2,0-0.2c0-0.1,0-0.1,0-0.2c0-0.1,0-0.3-0.1-0.5c0-0.1-0.1-0.3-0.1-0.4c0-0.1,0-0.1,0-0.2s0-0.1,0-0.2
										c0-0.1-0.1-0.3-0.1-0.4c-0.3-1.1-0.7-2-1.1-2.8c-0.4-0.8-0.8-1.3-1.1-1.7c-0.1-0.2-0.3-0.3-0.4-0.4c0,0-0.1-0.1-0.1-0.1
										s0,0,0,0s0,0,0,0s0,0.1,0.1,0.1c0.1,0.1,0.2,0.2,0.4,0.4c0.3,0.4,0.7,0.9,1.1,1.7s0.8,1.7,1.1,2.8c0,0.1,0.1,0.3,0.1,0.4
										c0,0.1,0,0.1,0,0.2c0,0.1,0,0.1,0,0.2c0,0.1,0.1,0.3,0.1,0.4s0,0.3,0.1,0.5c0,0.1,0,0.1,0,0.2c0,0.1,0,0.2,0,0.2
										c0,0.2,0,0.3,0,0.5c0,0.2,0,0.3,0,0.5c0,0.1,0,0.2,0,0.2s0,0.2,0,0.2c0,0.2,0,0.3,0,0.5c0,0.2,0,0.3,0,0.5
										c0,0.1,0,0.2,0,0.2s0,0.2,0,0.2c0,0.2,0,0.3-0.1,0.5c-0.1,0.6-0.3,1.2-0.5,1.7c-0.4,1.1-0.9,2-1.4,2.7
										c-0.5,0.7-1,1.2-1.3,1.5c-0.2,0.2-0.3,0.3-0.4,0.4C314.4,279.5,314.4,279.5,314.3,279.6
										C314.3,279.6,314.3,279.6,314.3,279.6z"/>
								</g>
							</g>
						</g>
					</g>
				</g>
				<g>
					<g>
						<g>
							<g>
								<g>
									<path class="st9" d="M275.8,286.9c0,0,2.7,3.1,6.1,0.3C281.9,287.2,279,284.2,275.8,286.9z"/>
								</g>
							</g>
						</g>
						<g>
							<g>
								<g>
									<path class="st9" d="M280.4,291.3c0,0,3.1,1.7,5.1-1.6C285.5,289.8,282.2,288.2,280.4,291.3z"/>
								</g>
							</g>
						</g>
						<g>
							<g>
								<g>
									<path class="st9" d="M285.3,293.9c0,0,3.7,0.9,4.8-3.1C290,290.8,286.2,290.2,285.3,293.9z"/>
								</g>
							</g>
						</g>
						<g>
							<g>
								<g>
									<path class="st9" d="M283.6,284c0,0-2.2,2.8,0.8,5.3C284.5,289.3,286.5,286.2,283.6,284z"/>
								</g>
							</g>
						</g>
						<g>
							<g>
								<g>
									<path class="st9" d="M286.2,287.5c0,0-0.5,2.7,2.5,3.2C288.7,290.7,289,287.9,286.2,287.5z"/>
								</g>
							</g>
						</g>
						<g>
							<g>
								<g>
									<path class="st9" d="M275.1,282.1c0,0,1.1,3,4.5,1.9C279.5,284,278.2,281,275.1,282.1z"/>
								</g>
							</g>
						</g>
						<g>
							<g>
								<g>
									<path class="st9" d="M278,276.9c0,0-2,2.3,0.6,4.7C278.7,281.6,280.5,279.1,278,276.9z"/>
								</g>
							</g>
						</g>
						<g>
							<g>
								<g>
									<path class="st9" d="M281.7,280.3c0,0-3.1,2.1-1,5.5C280.7,285.9,283.8,283.5,281.7,280.3z"/>
								</g>
							</g>
						</g>
						<g>
							<g>
								<g>
									<path class="st9" d="M292.8,290.5C292.8,290.5,292.8,290.5,292.8,290.5c-0.1,0-0.1,0-0.2,0c-0.1,0-0.3,0.1-0.5,0.1
										c-0.5,0.1-1.2,0.2-2,0.1c-0.9,0-1.9-0.2-3-0.5c-0.5-0.2-1.1-0.4-1.7-0.6c-0.1-0.1-0.3-0.1-0.4-0.2c-0.1,0-0.1-0.1-0.2-0.1
										c-0.1,0-0.1-0.1-0.2-0.1c-0.1-0.1-0.3-0.2-0.4-0.2c-0.1-0.1-0.3-0.2-0.4-0.3c-0.1,0-0.1-0.1-0.2-0.1
										c-0.1,0-0.1-0.1-0.2-0.1c-0.1-0.1-0.3-0.2-0.4-0.3c-0.1-0.1-0.2-0.2-0.4-0.3c-0.1,0-0.1-0.1-0.2-0.1s-0.1-0.1-0.2-0.2
										c-0.1-0.1-0.2-0.2-0.3-0.3c-0.1-0.1-0.2-0.2-0.3-0.3c0,0-0.1-0.1-0.1-0.2c0,0-0.1-0.1-0.1-0.2c-0.1-0.1-0.2-0.2-0.3-0.3
										c-0.7-0.9-1.2-1.8-1.6-2.5s-0.6-1.4-0.7-1.9c-0.1-0.2-0.1-0.4-0.1-0.5c0-0.1,0-0.1,0-0.1c0,0,0,0,0,0s0,0,0,0s0,0.1,0,0.1
										c0,0.1,0.1,0.3,0.1,0.5c0.1,0.5,0.3,1.1,0.7,1.9c0.4,0.8,0.9,1.7,1.6,2.6c0.1,0.1,0.2,0.2,0.3,0.3c0,0.1,0.1,0.1,0.1,0.2
										c0,0,0.1,0.1,0.1,0.2c0.1,0.1,0.2,0.2,0.3,0.3c0.1,0.1,0.2,0.2,0.3,0.3c0.1,0,0.1,0.1,0.2,0.2c0.1,0,0.1,0.1,0.2,0.1
										c0.1,0.1,0.2,0.2,0.4,0.3c0.1,0.1,0.3,0.2,0.4,0.3c0.1,0,0.1,0.1,0.2,0.1c0.1,0,0.1,0.1,0.2,0.1c0.1,0.1,0.3,0.2,0.4,0.3
										c0.1,0.1,0.3,0.2,0.4,0.2c0.1,0,0.1,0.1,0.2,0.1c0.1,0,0.1,0.1,0.2,0.1c0.1,0.1,0.3,0.1,0.4,0.2c0.6,0.3,1.1,0.5,1.7,0.6
										c1.1,0.3,2.1,0.5,3,0.5c0.9,0,1.6-0.1,2-0.2c0.2,0,0.4-0.1,0.5-0.1C292.7,290.6,292.7,290.5,292.8,290.5
										C292.8,290.5,292.8,290.5,292.8,290.5z"/>
								</g>
							</g>
						</g>
					</g>
				</g>
			</g>
		</g>
	</g>
	<g>
		<g>
			<g>
				<path class="st7" d="M549,356.3l-2.5,6.3c0,0-36.3-27.7-64.3-25.4l0,0c-1.3,1-3.1,1.4-4.9,0.9l-10.4-2.6c-2.2-0.6-4-2.3-4.4-4.3
					l0,0c0,0-21.1-17.5-49.8-14.8l-10.7,0.5l45.2-74.8L570.4,262L549,356.3z"/>
			</g>
		</g>
		<g>
			<g>
				<path class="st3" d="M558.5,349.5l-4.2,11.4c0,0-34-33.4-81.5-26l28.5-51.8C501.3,283,559.2,336.8,558.5,349.5z"/>
			</g>
		</g>
		<g>
			<g>
				<g>
					<path class="st9" d="M593.4,268.9c0,0-38.5-47-89.5-15.8l-31,81.7c0,0,56.8-22.8,89.4,18.6L593.4,268.9z"/>
				</g>
				<g>
					<g>
						<path class="st4" d="M593.4,268.9c0,0-0.2,0.5-0.5,1.5c-0.4,1-0.9,2.5-1.6,4.5c-1.5,4-3.6,9.8-6.3,17.2
							c-5.4,14.8-13.2,36-22.6,61.4l-0.2,0.4l-0.3-0.3c-4.3-5.5-9.8-10.6-16.2-14.6c-6.5-4-13.9-7-21.9-8.6c-8-1.6-16.4-1.9-25-1.1
							c-4.3,0.4-8.6,1.1-12.8,2c-4.3,0.9-8.6,2.1-12.7,3.6c-0.1,0.1-0.3,0.1-0.5,0.2l-0.6,0.2l0.2-0.6
							c11.3-29.7,21.9-57.6,31.1-81.7l0-0.1l0.1,0c6.4-3.9,13-6.8,19.5-8.5c6.6-1.8,13.1-2.4,19.2-2c6.1,0.3,11.7,1.6,16.7,3.2
							c5,1.7,9.4,3.8,13.2,6c7.6,4.4,12.8,8.9,16.2,12.1c1.7,1.6,2.9,2.9,3.8,3.8c0.4,0.5,0.7,0.8,0.9,1
							C593.3,268.7,593.4,268.9,593.4,268.9s-0.1-0.1-0.3-0.3c-0.2-0.2-0.5-0.6-0.9-1c-0.8-0.9-2.1-2.2-3.8-3.8
							c-3.4-3.2-8.7-7.6-16.3-12c-3.8-2.1-8.2-4.2-13.1-5.9c-5-1.7-10.5-2.9-16.6-3.2c-6-0.3-12.5,0.3-19,2.1
							c-6.5,1.8-13.1,4.6-19.4,8.5l0.1-0.1c-9.1,24.1-19.7,52-31,81.7l-0.4-0.4c0.1-0.1,0.3-0.1,0.5-0.2c4.2-1.5,8.5-2.7,12.8-3.6
							s8.6-1.6,12.9-2c8.6-0.8,17.1-0.5,25.1,1.1c8,1.6,15.6,4.6,22,8.7c6.5,4.1,11.9,9.2,16.3,14.8l-0.4,0.1
							c9.4-25.4,17.3-46.5,22.7-61.2c2.8-7.4,4.9-13.2,6.4-17.1c0.7-2,1.3-3.5,1.7-4.5C593.2,269.4,593.4,268.9,593.4,268.9z"/>
					</g>
				</g>
			</g>
		</g>
		<g>
			<g>
				<path class="st1" d="M472.4,334.6c0,0-34.2-35.8-72.3-22.3l33.6-72.9l69.1,16.4L472.4,334.6z"/>
				<path class="st4" d="M472.6,335.6L472,335c-0.3-0.4-34.4-35.4-71.7-22.1l-1.2,0.4l34.4-74.5l0.4,0.1l69.7,16.5l-0.2,0.6
					L472.6,335.6z M417.7,308.8c27.7,0,50.5,21,54.5,24.9l29.9-77.4l-68-16.1l-32.9,71.3C406.8,309.6,412.3,308.8,417.7,308.8z"/>
			</g>
		</g>
		<g>
			<g>
				<g>
					<path class="st9" d="M503.9,253.1c0,0-6.9-31.9-38.5-39.4l-20.4-4.2l-35.5,72.7c0,0,51,11.1,63.5,52.2L503.9,253.1z"/>
				</g>
				<g>
					<g>
						<path class="st4" d="M503.9,253.1c0,0,0,0.1-0.1,0.4c-0.1,0.3-0.2,0.6-0.4,1.1c-0.4,1-0.9,2.5-1.6,4.4
							c-1.5,3.8-3.6,9.4-6.2,16.5c-5.4,14.3-13.1,34.6-22.3,58.9l-0.3,0.7l-0.2-0.7c-1.7-5.5-4.3-11-7.8-16.2
							c-0.8-1.3-1.8-2.5-2.8-3.8c-1-1.2-2-2.5-3.1-3.7c-2.1-2.4-4.5-4.7-7-6.8c-10.1-8.6-22.7-15.3-36.4-19.7
							c-2.1-0.7-4.2-1.3-6.3-1.8l-0.4-0.1l0.2-0.3c13.1-26.7,25.2-51.6,35.6-72.6l0.1-0.2l0.2,0c5.8,1.2,11.4,2.4,16.6,3.5
							c5.3,0.9,10.3,2.6,14.6,4.7c8.7,4.4,14.7,10.6,18.6,16.2c4,5.6,6.1,10.7,7.4,14.1c0.6,1.7,1,3.1,1.3,4
							C503.8,252.6,503.9,253.1,503.9,253.1s0-0.1-0.1-0.4c-0.1-0.2-0.2-0.6-0.3-1c-0.3-0.9-0.7-2.2-1.4-4c-1.3-3.4-3.5-8.4-7.5-14
							c-4-5.6-10-11.7-18.6-16c-4.3-2.1-9.2-3.7-14.5-4.6c-5.3-1.1-10.8-2.2-16.6-3.4l0.3-0.1c-10.3,21.1-22.4,46-35.5,72.7
							l-0.2-0.4c2.1,0.5,4.2,1.1,6.3,1.8c6.9,2.2,13.5,5,19.6,8.3c6.2,3.3,11.9,7.1,17,11.5c2.5,2.2,4.9,4.5,7.1,6.9
							c1.1,1.2,2.1,2.5,3.1,3.7c0.9,1.3,1.9,2.5,2.8,3.9c3.5,5.2,6.1,10.8,7.8,16.4l-0.5,0c9.3-24.2,17.1-44.5,22.5-58.8
							c2.7-7.1,4.9-12.7,6.4-16.5c0.7-1.9,1.3-3.4,1.7-4.4c0.2-0.5,0.3-0.9,0.5-1.1C503.8,253.2,503.9,253.1,503.9,253.1z"/>
					</g>
				</g>
			</g>
		</g>
		<g>
			<g>
				<g>
					<path class="st2" d="M452.5,225.8c0,0.3,3.2,0.8,8.2,2.5c5,1.7,11.6,4.8,17.8,9.5c6.2,4.8,10.6,10.1,13.1,14.2
						c2.6,4.1,3.6,6.8,3.9,6.7c0.1,0-0.1-0.7-0.5-2c-0.4-1.3-1.2-3-2.4-5.2c-2.4-4.3-6.8-9.9-13.1-14.8c-6.4-4.9-13.4-8-18.5-9.5
						c-2.6-0.8-4.7-1.2-6.2-1.4C453.4,225.8,452.5,225.7,452.5,225.8z"/>
				</g>
			</g>
		</g>
		<g>
			<g>
				<g>
					<path class="st2" d="M447.1,233.6c0,0.3,3.2,0.8,8.2,2.5c5,1.7,11.6,4.8,17.8,9.5c6.2,4.8,10.6,10.1,13.1,14.2
						c2.6,4.1,3.6,6.8,3.9,6.8c0.1,0-0.1-0.7-0.5-2c-0.4-1.3-1.2-3-2.4-5.2c-2.4-4.3-6.8-9.9-13.1-14.8c-6.4-4.9-13.4-8-18.5-9.5
						c-2.6-0.8-4.7-1.2-6.2-1.4C448,233.6,447.1,233.5,447.1,233.6z"/>
				</g>
			</g>
		</g>
		<g>
			<g>
				<g>
					<path class="st2" d="M443.4,242.8c0,0.3,3.2,0.8,8.2,2.5c5,1.7,11.6,4.8,17.8,9.5c6.2,4.8,10.6,10.1,13.1,14.2
						c2.6,4.1,3.6,6.8,3.9,6.8c0.1,0-0.1-0.7-0.5-2c-0.4-1.3-1.2-3-2.4-5.2c-2.4-4.3-6.8-9.9-13.1-14.8c-6.4-4.9-13.4-8-18.5-9.5
						c-2.6-0.8-4.7-1.2-6.2-1.4C444.2,242.8,443.4,242.7,443.4,242.8z"/>
				</g>
			</g>
		</g>
		<g>
			<g>
				<g>
					<path class="st2" d="M438.4,250.9c0,0.3,3.2,0.8,8.2,2.5c5,1.7,11.6,4.8,17.8,9.5c6.2,4.8,10.6,10.1,13.1,14.2
						c2.6,4.1,3.6,6.8,3.9,6.8c0.1,0-0.1-0.7-0.5-2c-0.4-1.3-1.2-3-2.4-5.2c-2.4-4.3-6.8-9.9-13.1-14.8c-6.4-4.9-13.4-8-18.5-9.5
						c-2.6-0.8-4.7-1.2-6.2-1.4C439.2,250.8,438.4,250.8,438.4,250.9z"/>
				</g>
			</g>
		</g>
		<g>
			<g>
				<g>
					<path class="st2" d="M432.9,259.3c0,0.3,3.2,0.8,8.2,2.5c5,1.7,11.6,4.8,17.8,9.5c6.2,4.8,10.6,10.1,13.1,14.2
						c2.6,4.1,3.6,6.8,3.9,6.8c0.1,0-0.1-0.7-0.5-2c-0.4-1.3-1.2-3-2.4-5.2c-2.4-4.3-6.8-9.9-13.1-14.8c-6.4-4.9-13.4-8-18.5-9.5
						c-2.6-0.8-4.7-1.2-6.2-1.4C433.7,259.2,432.9,259.2,432.9,259.3z"/>
				</g>
			</g>
		</g>
		<g>
			<g>
				<g>
					<path class="st2" d="M426.3,268.5c0,0.3,3.5,0.8,8.9,2.8c2.7,0.9,5.8,2.3,9.2,4c3.3,1.8,6.9,3.9,10.3,6.3
						c3.5,2.5,6.5,5.1,9.1,7.7c2.5,2.6,4.6,5,6.1,7.2c3.1,4.3,4.1,7.3,4.5,7.2c0.1,0-0.1-0.8-0.6-2.1c-0.2-0.7-0.6-1.5-1.1-2.4
						c-0.5-0.9-1-2-1.8-3.1c-1.4-2.3-3.5-4.8-6-7.5c-2.6-2.6-5.7-5.4-9.2-8c-3.6-2.5-7.2-4.7-10.6-6.4c-3.5-1.6-6.7-3-9.5-3.8
						c-1.4-0.5-2.7-0.8-3.8-1c-1.1-0.3-2.1-0.5-2.9-0.6C427.1,268.5,426.3,268.4,426.3,268.5z"/>
				</g>
			</g>
		</g>
		<g>
			<g>
				<g>
					<path class="st2" d="M423.1,276.6c0,0.3,3.5,0.8,8.9,2.9c2.7,1,5.8,2.5,9.1,4.2c3.3,1.9,6.8,4.1,10.2,6.6
						c3.4,2.6,6.3,5.3,8.9,7.9c2.4,2.7,4.5,5.1,6,7.3c3,4.4,4.1,7.4,4.4,7.3c0.1,0-0.1-0.8-0.6-2.1c-0.2-0.7-0.6-1.5-1.1-2.4
						c-0.5-1-1-2-1.7-3.1c-1.3-2.3-3.4-4.9-5.8-7.7c-2.5-2.7-5.5-5.5-9-8.2c-3.5-2.6-7.1-4.9-10.5-6.7c-3.5-1.7-6.7-3.2-9.5-4
						c-1.4-0.5-2.7-0.8-3.8-1.1c-1.1-0.3-2.1-0.5-2.9-0.6C424,276.6,423.1,276.5,423.1,276.6z"/>
				</g>
			</g>
		</g>
		<g>
			<g>
				<g>
					<path class="st2" d="M494,318.1c0.2,0.2,3-1.5,8.3-3c5.2-1.6,13.1-2.8,22-1.7c8.8,1.1,16.5,4.4,21.6,7.3c5.1,2.9,7.8,5.3,8,5.1
						c0.1-0.1-0.5-0.7-1.7-1.8c-1.2-1.1-3.1-2.6-5.6-4.1c-5-3.2-12.9-6.7-22.1-7.9s-17.3,0.3-22.6,2.1c-2.6,0.9-4.6,1.9-5.9,2.6
						C494.6,317.5,494,318,494,318.1z"/>
				</g>
			</g>
		</g>
		<g>
			<g>
				<g>
					<path class="st2" d="M498.3,307.7c0.2,0.2,3-1.5,8.3-3c5.2-1.6,13.1-2.8,22-1.7c8.8,1.1,16.5,4.4,21.6,7.3
						c5.1,2.9,7.8,5.3,8,5.1c0.1-0.1-0.5-0.7-1.7-1.8c-1.2-1.1-3.1-2.6-5.6-4.1c-5-3.2-12.9-6.7-22.1-7.9s-17.3,0.3-22.6,2.1
						c-2.6,0.9-4.6,1.9-5.9,2.6C498.9,307.1,498.2,307.6,498.3,307.7z"/>
				</g>
			</g>
		</g>
		<g>
			<g>
				<g>
					<path class="st2" d="M502.6,297.3c0.2,0.2,3-1.5,8.3-3c5.2-1.6,13.1-2.8,22-1.7s16.5,4.4,21.6,7.3c5.1,2.9,7.8,5.3,8,5.1
						c0.1-0.1-0.5-0.7-1.7-1.8c-1.2-1.1-3.1-2.6-5.6-4.1c-5-3.2-12.9-6.7-22.1-7.9s-17.3,0.3-22.6,2.1c-2.6,0.9-4.6,1.9-5.9,2.6
						C503.2,296.7,502.5,297.2,502.6,297.3z"/>
				</g>
			</g>
		</g>
		<g>
			<g>
				<g>
					<path class="st2" d="M506.9,286.9c0.2,0.2,3-1.5,8.3-3c5.2-1.6,13.1-2.8,22-1.7s16.5,4.4,21.6,7.3c5.1,2.9,7.8,5.3,8,5.1
						c0.1-0.1-0.5-0.7-1.7-1.8c-1.2-1.1-3.1-2.6-5.6-4.1c-5-3.2-12.9-6.7-22.1-7.9s-17.3,0.3-22.6,2.1c-2.6,0.9-4.6,1.9-5.9,2.6
						C507.5,286.3,506.8,286.8,506.9,286.9z"/>
				</g>
			</g>
		</g>
		<g>
			<g>
				<g>
					<path class="st2" d="M511.2,276.5c0.2,0.2,3.1-1.5,8.3-3c5.2-1.6,13.1-2.8,22-1.7s16.5,4.4,21.6,7.3c5.1,2.9,7.8,5.3,8,5.1
						c0.1-0.1-0.5-0.7-1.7-1.8c-1.2-1.1-3.1-2.6-5.6-4.1c-5-3.2-12.9-6.7-22.1-7.9s-17.3,0.3-22.6,2.1c-2.6,0.9-4.6,1.9-5.9,2.6
						C511.8,276,511.1,276.5,511.2,276.5z"/>
				</g>
			</g>
		</g>
		<g>
			<g>
				<g>
					<path class="st2" d="M515.5,266.1c0.2,0.2,3-1.5,8.3-3c5.2-1.6,13.1-2.8,22-1.7s16.5,4.4,21.6,7.3c5.1,2.9,7.8,5.3,8,5.1
						c0.1-0.1-0.5-0.7-1.7-1.8c-1.2-1.1-3.1-2.6-5.6-4.1c-5-3.2-12.9-6.7-22.1-7.9s-17.3,0.3-22.6,2.1c-2.6,0.9-4.6,1.9-5.9,2.6
						C516,265.5,515.4,266,515.5,266.1z"/>
				</g>
			</g>
		</g>
	</g>
	<g>
		<g>
			<path class="st4" d="M248.2,487.1h-2.3c-4,0-7.2-3.2-7.2-7.2v-45.7c0-4,3.2-7.2,7.2-7.2h2.3c4,0,7.2,3.2,7.2,7.2v45.7
				C255.4,483.9,252.2,487.1,248.2,487.1z"/>
		</g>
		<g>
			<path class="st4" d="M305.8,499.6c0,0-21.8,0-31.4,0s-20,1.1-24.2-4.6c-3.3-4.4-2.7-10.3-2.4-15.6c0.7-15,1.4-29.9,2.1-44.8
				c0.2-4,0.4-8.2,2.1-12c1.7-3.8,9.3-56.2,13.9-57h38.9L305.8,499.6z"/>
		</g>
		<g>
			<g>
				<path class="st7" d="M297.6,475.6c0,0.2-10.4,0.3-23.3,0.3c-12.9,0-23.3-0.1-23.3-0.3s10.4-0.3,23.3-0.3
					C287.2,475.4,297.6,475.5,297.6,475.6z"/>
			</g>
		</g>
		<g>
			<g>
				<path class="st7" d="M279.1,414.9c0.2,0,0.3,13.6,0.3,30.3c0,16.7-0.1,30.3-0.3,30.3s-0.3-13.6-0.3-30.3
					C278.8,428.5,278.9,414.9,279.1,414.9z"/>
			</g>
		</g>
		<g>
			<g>
				<path class="st7" d="M250,483.6c0,0,0-0.2-0.1-0.6c0-0.4-0.1-1-0.1-1.6c-0.1-1.4-0.1-3.4-0.2-5.9c-0.1-5-0.2-11.8-0.1-19.4
					s0.2-14.4,0.4-19.4c0.1-2.5,0.2-4.5,0.3-5.9c0-0.6,0.1-1.2,0.1-1.6c0-0.4,0.1-0.6,0.1-0.5c0,0,0,0.2,0,0.6c0,0.4,0,1,0,1.6
					c0,1.5-0.1,3.5-0.1,5.9c-0.1,5-0.2,11.9-0.3,19.4c0,7.5,0,14.4-0.1,19.4c0,2.4,0,4.4,0,5.9c0,0.6,0,1.2,0,1.6
					C250,483.4,250,483.6,250,483.6z"/>
			</g>
		</g>
	</g>
	<g>
		<path class="st8" d="M465,289.7c0,0,17.1,3.2,25.8,30.8c9.9,31.5,26.7,96.1,26.6,103.5s-19.1,19.4-19.1,19.4l-27.2-9.1l-14.3-53.7
			L465,289.7z"/>
	</g>
	<g>
		<path class="st8" d="M465,289.7l-42-15.6l-2.9-3.7l-54.1,1.7l-4.1,2.6c0,0-40.7,8.9-44.9,9.5c-9.9,1.3-20.2,14.9-20.2,14.9
			c-1,1.3-52.2,75.6-52.2,75.6l12,46.8c0,0,5.6,2,21.8-8.6c12.8-8.4,22.8-21.7,26.4-26.9l-0.1,113.6h158.6l-8.6-72.1L465,289.7z"/>
	</g>
	<g>
		<g>
			<path class="st4" d="M457,364.6c0,0,0-0.2,0.1-0.6c0.1-0.4,0.2-1,0.3-1.6c0.3-1.5,0.7-3.4,1.2-5.8c1-4.9,2.2-11.8,3.4-19.3
				s2-14.5,2.5-19.5c0.2-2.4,0.5-4.4,0.6-5.9c0.1-0.6,0.1-1.2,0.2-1.6c0-0.4,0.1-0.6,0.1-0.6c0,0,0,0.2,0,0.6c0,0.4,0,1-0.1,1.6
				c-0.1,1.4-0.2,3.4-0.4,5.9c-0.4,5-1.2,11.9-2.3,19.5c-1.1,7.6-2.5,14.4-3.5,19.3c-0.5,2.5-1,4.4-1.4,5.8
				c-0.2,0.6-0.3,1.1-0.4,1.6C457,364.4,457,364.6,457,364.6z"/>
		</g>
	</g>
	<g>
		<g>
			<path class="st4" d="M299.7,334.2c0,0,0.1,0.2,0.1,0.7c0.1,0.5,0.2,1.2,0.3,2c0.3,1.7,0.6,4.2,1,7.3c0.8,6.2,1.6,14.7,2.3,24.1
				s1,18,1.2,24.2c0.1,3.1,0.1,5.6,0.1,7.3c0,0.8,0,1.5,0,2c0,0.5,0,0.7,0,0.7c0,0,0-0.2-0.1-0.7c0-0.5,0-1.2-0.1-2
				c-0.1-1.8-0.2-4.3-0.3-7.3c-0.2-6.2-0.7-14.7-1.4-24.2c-0.7-9.4-1.5-18-2.2-24.1c-0.3-3-0.6-5.5-0.8-7.3c-0.1-0.8-0.1-1.5-0.2-2
				C299.7,334.4,299.7,334.2,299.7,334.2z"/>
		</g>
	</g>
	<g>
		<g>
			<path class="st4" d="M423,279.8c0,0-0.2,0.2-0.6,0.5c-0.4,0.4-1,0.9-1.7,1.5c-1.5,1.3-3.7,3.1-6.5,5.2c-2.8,2.1-6.2,4.5-10.4,6.6
				c-4.2,2-9.3,3.2-14.6,3.5c-5.3,0.3-10.5-0.3-14.9-2c-4.3-1.7-7.7-4.4-9.9-7.1c-2.2-2.7-3.4-5.4-3.9-7.3c-0.2-1-0.4-1.7-0.5-2.2
				c-0.1-0.5-0.1-0.8-0.1-0.8c0,0,0.1,0.3,0.2,0.8c0.1,0.5,0.3,1.2,0.6,2.2c0.6,1.8,1.8,4.4,4,7.1c2.2,2.6,5.6,5.2,9.8,6.9
				c4.3,1.6,9.4,2.2,14.6,2c5.3-0.3,10.2-1.5,14.4-3.4c4.1-2,7.5-4.4,10.3-6.4c2.8-2,5-3.8,6.5-5c0.7-0.6,1.3-1,1.8-1.4
				C422.8,279.9,423,279.8,423,279.8z"/>
		</g>
	</g>
	<g>
		<g class="st12">
			<g>
				<path d="M342,332.4c-6.3,4.4-7.1,13.2-7.5,20.9c-1.5,31.5-21.6,91.8-29.9,122.2C330.7,435.3,346.7,380.1,342,332.4z"/>
			</g>
		</g>
		<g>
			<path class="st4" d="M343.7,278.7c0,0-2.1,67.9-7.9,108.6c-5.8,40.7-34,94.9-34,94.9l-4.5-8.9c0,0,15.6-45.2,22.7-83.1
				c5-26.8,0-107.5,0-107.5S330.2,275.5,343.7,278.7z"/>
		</g>
		<g>
			<g>
				<path class="st7" d="M328.8,345.9c-0.2,0,0.2-14.1,0.8-31.6c0.6-17.4,1.2-31.5,1.4-31.5c0.2,0-0.2,14.1-0.8,31.6
					C329.5,331.8,328.9,345.9,328.8,345.9z"/>
			</g>
		</g>
	</g>
	<g>
		<path class="st8" d="M240.8,349.8l-5.4,14c0,0-7.2,14.6-6.6,24.6s13.1,46.3,38.4,34.5s12.7-30.9,12.7-30.9L268,359.4l-18.7-12.3
			C246.3,345.1,242.1,346.4,240.8,349.8z"/>
	</g>
	<g>
		<path class="st13" d="M270.7,311c1.7,2.2,11.2-0.3,13.4,4.1s0,7.8,0,7.8s3.7,4.3,1,9.8c0,0,1.5,3,1,6.6c-0.5,3.6-3.2,5.8-3.2,5.8
			s0.8,3.9-2.5,6.1c-3.3,2.2-12,3.9-12,3.9l-3.6,6.6c0,0-5,5.5-11.1,3c-6.1-2.5-10.3-14.7-10.3-14.7c0.3-1.6,7.2-13,7.2-13
			s1.4-17,4.4-21.1c3-4.1,4.4-5,4.4-5s2.6-5.7,2.6-8.1c0-2.4-2.3-10.2-0.9-11.8c1.4-1.6,6.9-0.5,9.4,6
			C272.9,303.4,270.7,311,270.7,311z"/>
	</g>
	<g>
		<g>
			<path class="st14" d="M283.8,322.4c0,0.2-3.3-0.4-7.3-0.4c-4,0-7.3,0.5-7.4,0.3c0-0.1,0.8-0.3,2.1-0.5c1.3-0.2,3.2-0.4,5.2-0.4
				c2,0,3.9,0.2,5.2,0.5C283,322.1,283.8,322.3,283.8,322.4z"/>
		</g>
	</g>
	<g>
		<g>
			<path class="st14" d="M284.5,333.6c0,0.2-3.1-0.5-6.9-0.5c-3.8,0-6.9,0.6-6.9,0.4c0-0.1,3-1,6.9-1
				C281.5,332.6,284.6,333.5,284.5,333.6z"/>
		</g>
	</g>
	<g>
		<g>
			<path class="st14" d="M283.8,345c0,0.1-2.6,1-6,1.3c-3.4,0.3-6.2-0.2-6.1-0.4c0-0.2,2.8,0.1,6.1-0.2
				C281.1,345.5,283.7,344.8,283.8,345z"/>
		</g>
	</g>
	<g>
		<g>
			<path class="st14" d="M275.4,353.1c0,0-0.9,0.6-2.5,1.1c-1.6,0.5-4,1-6.6,0.9c-2.6-0.1-5-0.7-6.6-1.4s-2.5-1.3-2.4-1.3
				c0.1-0.2,3.8,2,9,2.1C271.4,354.8,275.4,352.9,275.4,353.1z"/>
		</g>
	</g>
	<g>
		<g>
			<path class="st14" d="M275.5,312.4c0,0.2-3.5-0.6-7.9-0.4c-4.4,0.1-7.8,1.1-7.9,0.9c0-0.1,0.8-0.4,2.2-0.7
				c1.4-0.4,3.4-0.7,5.6-0.8c2.2-0.1,4.2,0.1,5.7,0.4C274.6,312,275.5,312.3,275.5,312.4z"/>
		</g>
	</g>
	<g>
		<g>
			<path class="st4" d="M277.4,408.2c0,0,0.3-0.7,0.8-1.9c0.5-1.2,1.1-3.1,1.5-5.5c0.3-2.4,0.5-5.2-0.1-8.3
				c-0.5-3.1-1.8-6.4-3.8-9.5c-2-3-4.2-5.8-5.5-8.8c-1.3-3-1.9-5.8-2.3-8.2c-0.4-2.4-0.6-4.3-0.7-5.7c0-0.6-0.1-1.1-0.1-1.5
				c0-0.4,0-0.5,0-0.5s0.1,0.2,0.1,0.5c0.1,0.4,0.1,0.9,0.2,1.5c0.2,1.3,0.4,3.3,0.9,5.6c0.5,2.4,1.1,5.1,2.4,8
				c1.2,2.9,3.4,5.6,5.5,8.7c2,3.1,3.3,6.5,3.8,9.7c0.5,3.2,0.4,6.1,0,8.5c-0.4,2.4-1.1,4.3-1.6,5.5c-0.2,0.6-0.5,1.1-0.7,1.4
				C277.5,408.1,277.4,408.3,277.4,408.2z"/>
		</g>
	</g>
	<g>
		<g class="st12">
			<g>
				<path d="M267.5,358c0.1,0.6,0.3,1.2,0.5,1.7c0-0.6,0-1.2,0-1.8L267.5,358z"/>
			</g>
		</g>
		<g class="st12">
			<g>
				<path d="M278.4,377.5c-3.8-5.8-8.2-11.3-10.4-17.9c0,5.5,0.3,11.2,2.6,16.2c1.5,3.3,3.9,6.1,5.8,9.2c1.9,3,3.5,6.5,3.3,10.1
					c-0.1,1.3-0.4,2.6-0.1,3.8c0.3,1.2,1.6,2.4,2.8,2c0.9-0.3,1.4-1.4,1.6-2.3C285.9,391.4,282.5,383.8,278.4,377.5z"/>
			</g>
		</g>
	</g>
	<g>
		<g>
			<g>
				<g>
					<path class="st4" d="M449.6,215.2c-2.5,1.4-5.9-0.4-7-3.1c-1.1-2.6-0.6-5.7,0.3-8.4s2.1-5.4,2.2-8.3c0.3-5.2-3.2-10.4-8.2-12
						c4.9-3.9,5.3-12.2,0.8-16.5c-2.1-2-4.9-3.1-7.3-4.7c-1.4-0.9-2.7-2-3.9-3.1c2.2,0.5,4.4,0.7,6.7,0.2c3.5-0.8,6.6-3.4,7.8-6.9
						c1.2-3.4,0.3-7.5-2.4-10s-6.9-3.2-10.1-1.5c-3.2,1.7-4.9,5.1-6.4,8.3c-0.5,1-1,2-1.4,3c-4.4-5.9-8.6-12-15.5-14
						c-6.2-1.9-12.9,0.2-19.4-0.2c-4.7-0.3-9.2-2-14-2.6c-4.7-0.5-10,0.5-12.8,4.3c-1.6,2.2-2.1,5.2-3.8,7.4
						c-3.4,4.6-10.7,5.2-13.5,10.2c-2.3,4.1-0.5,9.2-1.5,13.8c-1.1,4.9-5.1,8.6-8.5,12.4c-3.4,3.8-6.2,9-4.4,13.7
						c1.6,4.1,6.5,6.4,8,10.5c1.1,3,0.3,6.4,0.2,9.7s1.2,7.1,4.4,7.8l36,9.5c12.4,5.1,25.2,10.2,38.6,10.2c13.4,0,27.7-6.4,33-18.8
						c-1.9-0.1-3.8-0.9-5.2-2.3C446,222.2,448.7,218.9,449.6,215.2z"/>
				</g>
			</g>
			<g>
				<g>
					<g>
						<g>
							<g>
								<g>
									<g>
										<g>
											<g>
												<path class="st4" d="M420,226.5c3-9.1,5.9-18.4,7.3-27.9s1.1-19.4-2.3-28.5c-0.5-1.4-4.8-10.5-6.3-10.4
													c-1,0.1,1.6,8.6,1.1,9.6c-5,8.6-6.4,18.9-5.6,28.8C415.1,208.1,417.1,217,420,226.5"/>
											</g>
										</g>
									</g>
								</g>
							</g>
							<g>
								<path class="st13" d="M384.3,145.1l-2.2,0.1c-22.4,1.2-40.2,19.4-40.8,41.9c-0.6,20.9-1.3,40.9-0.6,52.1
									c1.5,23.1,25.2,25.5,25.2,25.5v11.9c1,12.2,16.8,14.3,22.7,13.8c20.6,0,31.4-16.9,31.4-16.9l1-83.7
									C421.8,165.7,408.4,145.2,384.3,145.1z"/>
							</g>
							<g>
								<g>
									<g>
										<g>
											<g>
												<g>
													<g>
														<path class="st14" d="M365.9,264.6c0,0,14.6,0.1,29.6-10.5c0,0-6.4,17.2-29.6,16.3L365.9,264.6z"/>
													</g>
												</g>
											</g>
										</g>
									</g>
								</g>
							</g>
							<g>
								<g>
									<g>
										<g>
											<g>
												<g>
													<g>
														<g>
															<g>
																<g>
																	<g>
																		<g>
																			<g>
																				<path class="st4" d="M351.9,206c0,1.8,1.5,3.2,3.4,3.2c1.8,0,3.3-1.4,3.2-3.2s-1.5-3.2-3.4-3.2
																					S351.9,204.2,351.9,206z"/>
																			</g>
																		</g>
																	</g>
																</g>
															</g>
														</g>
													</g>
												</g>
											</g>
										</g>
									</g>
								</g>
							</g>
							<g>
								<g>
									<g>
										<g>
											<g>
												<g>
													<g>
														<g>
															<g>
																<g>
																	<g>
																		<g>
																			<g>
																				<g>
																					<path class="st4" d="M346.7,196.4c0.4,0.4,2.8-1.6,6.4-1.8c3.5-0.2,6.2,1.5,6.6,1c0.2-0.2-0.3-1-1.5-1.7
																						c-1.2-0.8-3.1-1.5-5.3-1.3c-2.2,0.1-4,1-5,1.9C346.8,195.4,346.5,196.2,346.7,196.4z"/>
																				</g>
																			</g>
																		</g>
																	</g>
																</g>
															</g>
														</g>
													</g>
												</g>
											</g>
										</g>
									</g>
								</g>
							</g>
							<g>
								<g>
									<g>
										<g>
											<g>
												<g>
													<g>
														<g>
															<g>
																<g>
																	<g>
																		<g>
																			<g>
																				<path class="st4" d="M384,206.1c0,1.8,1.5,3.2,3.4,3.2c1.8,0,3.3-1.4,3.2-3.2s-1.5-3.2-3.4-3.2
																					C385.5,202.9,384,204.3,384,206.1z"/>
																			</g>
																		</g>
																	</g>
																</g>
															</g>
														</g>
													</g>
												</g>
											</g>
										</g>
									</g>
								</g>
							</g>
							<g>
								<g>
									<g>
										<g>
											<g>
												<g>
													<g>
														<g>
															<g>
																<g>
																	<g>
																		<g>
																			<g>
																				<g>
																					<path class="st4" d="M381.6,195.9c0.4,0.4,2.8-1.6,6.4-1.8c3.5-0.2,6.2,1.5,6.6,1c0.2-0.2-0.3-1-1.5-1.7
																						c-1.2-0.8-3.1-1.5-5.3-1.3c-2.2,0.1-4,1.1-5,1.9C381.7,195,381.4,195.8,381.6,195.9z"/>
																				</g>
																			</g>
																		</g>
																	</g>
																</g>
															</g>
														</g>
													</g>
												</g>
											</g>
										</g>
									</g>
								</g>
							</g>
							<g>
								<g>
									<g>
										<g>
											<g>
												<g>
													<g>
														<g>
															<g>
																<g>
																	<g>
																		<g>
																			<g>
																				<path class="st4" d="M370.3,223.9c0-0.2-2.2-0.5-5.8-0.7c-0.9,0-1.8-0.2-2-0.8c-0.2-0.6,0.1-1.6,0.5-2.7
																					c0.7-2.2,1.5-4.6,2.3-7.1c3.2-10,5.5-18.3,5-18.4c-0.4-0.1-3.3,7.9-6.5,17.9c-0.8,2.5-1.5,4.8-2.2,7.1
																					c-0.3,1.1-0.8,2.2-0.3,3.6c0.3,0.7,1,1.1,1.6,1.2c0.6,0.1,1.1,0.1,1.5,0.1C368.1,224.2,370.3,224.1,370.3,223.9
																					z"/>
																			</g>
																		</g>
																	</g>
																</g>
															</g>
														</g>
													</g>
												</g>
											</g>
										</g>
									</g>
								</g>
							</g>
							<g>
								<g>
									<g>
										<g>
											<g>
												<g>
													<g>
														<g>
															<g>
																<g>
																	<g>
																		<g>
																			<g>
																				<path class="st4" d="M380.9,225.8c-0.6,0-0.4,3.9-3.5,6.8c-3.1,2.9-7.3,2.7-7.3,3.2c0,0.2,1,0.7,2.7,0.6
																					c1.7,0,4.2-0.7,6.1-2.5c1.9-1.8,2.7-4.1,2.7-5.7C381.6,226.7,381.1,225.8,380.9,225.8z"/>
																			</g>
																		</g>
																	</g>
																</g>
															</g>
														</g>
													</g>
												</g>
											</g>
										</g>
									</g>
								</g>
							</g>
							<g>
								<g>
									<g>
										<g>
											<g>
												<g>
													<g>
														<g>
															<g>
																<path class="st4" d="M381,181.5c0.4,0.9,3.9,0.3,8.1,0.6c4.2,0.2,7.6,1.2,8.1,0.3c0.2-0.4-0.4-1.3-1.8-2.2
																	c-1.4-0.9-3.6-1.6-6.1-1.8c-2.5-0.1-4.8,0.4-6.3,1.1C381.5,180.3,380.8,181.1,381,181.5z"/>
															</g>
														</g>
													</g>
												</g>
											</g>
										</g>
									</g>
								</g>
							</g>
							<g>
								<g>
									<g>
										<g>
											<g>
												<g>
													<g>
														<g>
															<g>
																<path class="st4" d="M347.5,184.5c0.7,0.8,3.1-0.2,6-0.4c2.9-0.3,5.5,0.2,6-0.6c0.2-0.4-0.2-1.2-1.3-1.9
																	c-1.1-0.7-2.9-1.2-5-1.1s-3.7,1-4.7,1.9C347.5,183.3,347.2,184.1,347.5,184.5z"/>
															</g>
														</g>
													</g>
												</g>
											</g>
										</g>
									</g>
								</g>
							</g>
							<g>
								<g>
									<g>
										<g>
											<g>
												<path class="st13" d="M420,207c0.4-0.2,15.6-5.6,16,10.3c0.3,15.8-15.6,12.9-15.6,12.4S420,207,420,207z"/>
											</g>
										</g>
									</g>
								</g>
							</g>
							<g>
								<g>
									<g>
										<g>
											<g>
												<g>
													<path class="st14" d="M425,223.6c0.1-0.1,0.3,0.2,0.8,0.4c0.5,0.2,1.2,0.3,2.1,0c1.7-0.6,3-3.3,3-6.2
														c0-1.4-0.3-2.8-0.9-3.9c-0.5-1.1-1.3-1.9-2.1-2.1c-0.8-0.2-1.4,0.3-1.6,0.8c-0.2,0.4-0.1,0.8-0.2,0.8
														c0,0-0.3-0.3-0.2-0.9c0.1-0.3,0.2-0.7,0.6-1c0.4-0.3,0.9-0.5,1.5-0.4c1.2,0.1,2.4,1.2,2.9,2.4c0.7,1.2,1.1,2.8,1,4.4
														c0,3.2-1.6,6.2-3.9,6.9c-1.1,0.3-2,0-2.5-0.4C425.1,224,425,223.7,425,223.6z"/>
												</g>
											</g>
										</g>
									</g>
								</g>
							</g>
							<g>
								<g>
									<g>
										<g>
											<g>
												<path class="st4" d="M351.2,160.7c-2.6-1.4,5-9.8,11.3-12.7c9.5-4.4,24-7.3,32.8-4.9c10.6,2.9,19.4,8,24.9,17.5
													c5.4,9.5,7.6,20.7,7.4,31.7c0,3.4-0.4,6.8-2.1,9.7c-2.2,3.5-6.4,5.8-6.1,10.6c0.1,1.8-0.4,3.6-1.6,4.9
													c-2.9,3.1-6.4,0.3-8.1-2.6c-3.6-6.1-4-13.6-4.4-20.6c-0.3-5-0.5-10.2,0.8-15.1c0.7-2.6,2-5.2,2.5-7.8s0.5-5.7-1.2-7.9
													c-0.3-0.4-0.7-0.8-1.3-1.3c-4.5-3.9-10.8-5-16.4-2.9c-8.9,3.3-24,8.2-28,5.2c-5.8-4.3-7.2-7.1-7.2-7.1L351.2,160.7z"/>
											</g>
										</g>
									</g>
								</g>
							</g>
						</g>
					</g>
					<g>
						<g>
							<g>
								<g>
									<g>
										<path class="st4" d="M394.3,140.9c-8.7-2.8-18.6-2.5-26.7,1.8c-4.3,2.3-8.1,5.9-9.4,10.6c-1.3,4.7,0.8,10.4,5.4,12.2
											l0.3,0.2c6.8,2.2,11.2,1.2,17.9-1.2c5.6-2,10.6-5.6,16.3-7.6c6-2.1,12.6-2.4,18.8-0.8C410.7,149.4,403,143.7,394.3,140.9z
											"/>
									</g>
								</g>
							</g>
						</g>
					</g>
				</g>
			</g>
			<g>
				<g>
					<g>
						<path class="st7" d="M424.4,156.6c-0.1,0.1-1.4-1.4-4-3.2c-1.3-0.9-2.9-1.8-4.8-2.6c-1.9-0.7-4.1-1.3-6.4-1.1
							c-4.7,0.4-8.6,2.6-11,4.6c-2.5,1.9-3.6,3.6-3.7,3.5c0,0,0.2-0.5,0.7-1.2c0.5-0.7,1.4-1.7,2.6-2.8c2.4-2.1,6.4-4.6,11.4-5
							c2.5-0.2,4.9,0.4,6.9,1.2c2,0.8,3.6,1.9,4.9,2.9C423.4,154.8,424.5,156.5,424.4,156.6z"/>
					</g>
				</g>
			</g>
			<g>
				<g>
					<g>
						<path class="st7" d="M426,162.2c0.1,0-0.2,1.8-1.2,4.5c-1,2.7-3,6.3-5.9,9.6c-3,3.3-6.3,5.7-8.8,7s-4.3,1.8-4.3,1.7
							c-0.2-0.3,6.6-2.9,12.4-9.5C423.9,169.1,425.7,162.1,426,162.2z"/>
					</g>
				</g>
			</g>
			<g>
				<g>
					<g>
						<path class="st7" d="M432.4,164.8c0.1,0,0.1,0.6,0.1,1.8s-0.2,2.8-0.7,4.9c-0.9,4-3.1,9.6-7.3,14.4s-9.4,7.8-13.2,9.2
							c-2,0.7-3.6,1.1-4.7,1.4s-1.8,0.2-1.8,0.2c0-0.2,2.5-0.6,6.2-2.2c3.7-1.6,8.7-4.5,12.7-9.2c4.1-4.7,6.3-10,7.4-13.9
							C432.1,167.3,432.2,164.8,432.4,164.8z"/>
					</g>
				</g>
			</g>
			<g>
				<g>
					<g>
						<path class="st7" d="M376.2,139.5c0,0.2-1.6,0.6-4.2,1.6c-2.5,1-5.9,2.8-9.2,5.4c-3.2,2.7-5.6,5.6-7.1,8
							c-1.5,2.3-2.2,3.9-2.4,3.8c-0.1,0,0.4-1.7,1.7-4.2c1.3-2.5,3.7-5.6,7-8.4c3.3-2.7,6.9-4.5,9.6-5.3
							C374.4,139.5,376.2,139.4,376.2,139.5z"/>
					</g>
				</g>
			</g>
			<g>
				<g>
					<g>
						<path class="st7" d="M437.4,141.5c0.3,0-0.4,4.6-4,8.8c-3.5,4.3-7.9,5.7-8,5.5c-0.2-0.3,3.8-2.1,7.2-6.2
							C436,145.6,437.1,141.4,437.4,141.5z"/>
					</g>
				</g>
			</g>
		</g>
		<g>
			<path class="st14" d="M387.3,215.7c0,0.3-0.3,0.6-0.6,0.6c-0.3,0-0.6-0.3-0.6-0.6c0-0.3,0.3-0.6,0.6-0.6
				C387.1,215.1,387.3,215.4,387.3,215.7z"/>
		</g>
		<g>
			<circle class="st14" cx="391.1" cy="215.7" r="0.6"/>
		</g>
	</g>
	<g>
		<g>
			<g>
				<path class="st7" d="M431.2,424.9l-68.5-20.5c-1.1-0.3-1.7-1.4-1.3-2.5l28.2-94.4c0.3-1.1,1.4-1.7,2.5-1.3l68.5,20.5
					c1.1,0.3,1.7,1.4,1.3,2.5l-28.2,94.4C433.4,424.6,432.3,425.2,431.2,424.9z"/>
			</g>
			<g>
				<path class="st4" d="M365,390.6c-2.9-0.6-4.9-3.1-4.8-6.1c0.1-3.3,2.9-5.9,6.2-5.7c3.3,0.1,5.9,2.9,5.7,6.2l-1.1,0
					c0.1-2.7-2-4.9-4.7-5c-2.7-0.1-4.9,2-5,4.7c-0.1,2.4,1.6,4.5,3.9,4.9L365,390.6z"/>
			</g>
			<g>
				<path class="st4" d="M367.5,382.5c-2.9-0.6-4.9-3.1-4.8-6.1c0.1-3.3,2.9-5.9,6.2-5.7c3.3,0.1,5.9,2.9,5.7,6.2l-1.1,0
					c0.1-2.7-2-4.9-4.7-5c-2.7-0.1-4.9,2-5,4.7c-0.1,2.4,1.6,4.5,3.9,4.9L367.5,382.5z"/>
			</g>
			<g>
				<path class="st4" d="M369.9,374.5c-2.9-0.6-4.9-3.1-4.8-6.1c0.1-1.6,0.7-3.1,1.9-4.1s2.7-1.6,4.3-1.6c3.3,0.1,5.9,2.9,5.7,6.2
					l-1.1,0c0.1-2.7-2-4.9-4.7-5c-1.3,0-2.5,0.4-3.5,1.3c-1,0.9-1.5,2.1-1.5,3.4c-0.1,2.4,1.6,4.5,3.9,4.9L369.9,374.5z"/>
			</g>
			<g>
				<path class="st4" d="M372.4,366.4c-2.9-0.6-4.9-3.1-4.8-6.1c0.1-3.3,2.9-5.8,6.2-5.7c1.6,0.1,3.1,0.7,4.1,1.9
					c1.1,1.2,1.6,2.7,1.6,4.3l-1.1,0c0-1.3-0.4-2.5-1.3-3.5c-0.9-1-2.1-1.5-3.4-1.5c-1.3,0-2.5,0.4-3.5,1.3c-1,0.9-1.5,2.1-1.5,3.4
					c-0.1,2.4,1.6,4.5,3.9,4.9L372.4,366.4z"/>
			</g>
			<g>
				<path class="st4" d="M374.8,358.3c-2.9-0.6-4.9-3.1-4.8-6.1c0.1-1.6,0.7-3.1,1.9-4.1c1.2-1.1,2.7-1.6,4.3-1.6
					c3.3,0.1,5.9,2.9,5.7,6.2l-1.1,0c0.1-2.7-2-4.9-4.7-5c-1.3,0-2.5,0.4-3.5,1.3c-1,0.9-1.5,2.1-1.5,3.4c-0.1,2.4,1.6,4.5,3.9,4.9
					L374.8,358.3z"/>
			</g>
			<g>
				<path class="st4" d="M377.3,350.2c-2.9-0.6-4.9-3.1-4.8-6.1c0.1-1.6,0.7-3.1,1.9-4.1c1.2-1.1,2.7-1.6,4.3-1.6
					c1.6,0.1,3.1,0.7,4.1,1.9c1.1,1.2,1.6,2.7,1.6,4.3l-1.1,0c0.1-2.7-2-4.9-4.7-5c-1.3,0-2.5,0.4-3.5,1.3c-1,0.9-1.5,2.1-1.5,3.4
					c-0.1,2.4,1.6,4.5,3.9,4.9L377.3,350.2z"/>
			</g>
			<g>
				<path class="st4" d="M379.7,342.1c-2.9-0.6-4.9-3.1-4.8-6.1c0.1-3.2,2.8-5.7,6-5.7c0.1,0,0.1,0,0.2,0c3.3,0.1,5.9,2.9,5.7,6.2
					l-1.1,0c0.1-2.7-2-4.9-4.7-5c-2.7-0.1-4.9,2-5,4.7c-0.1,2.4,1.6,4.5,3.9,4.9L379.7,342.1z"/>
			</g>
			<g>
				<path class="st4" d="M382.2,334c-2.9-0.6-4.9-3.1-4.8-6.1c0.1-3.3,2.9-5.9,6.2-5.7c1.6,0.1,3.1,0.7,4.1,1.9
					c1.1,1.2,1.6,2.7,1.6,4.3l-1.1,0c0-1.3-0.4-2.5-1.3-3.5c-0.9-1-2.1-1.5-3.4-1.5c-2.7-0.1-4.9,2-5,4.7c-0.1,2.4,1.6,4.5,3.9,4.9
					L382.2,334z"/>
			</g>
			<g>
				<path class="st4" d="M384.6,326c-2.9-0.6-4.9-3.1-4.8-6.1c0.1-1.6,0.7-3.1,1.9-4.1c1.2-1.1,2.7-1.6,4.3-1.6
					c3.3,0.1,5.9,2.9,5.7,6.2l-1.1,0c0.1-2.7-2-4.9-4.7-5c-1.3,0-2.5,0.4-3.5,1.3c-1,0.9-1.5,2.1-1.5,3.4c-0.1,2.4,1.6,4.5,3.9,4.9
					L384.6,326z"/>
			</g>
			<g>
				<path class="st4" d="M387.1,317.9c-2.9-0.6-4.9-3.1-4.8-6.1c0.1-1.6,0.7-3.1,1.9-4.1s2.7-1.6,4.3-1.6c3.3,0.1,5.9,2.9,5.7,6.2
					l-1.1,0c0.1-2.7-2-4.9-4.7-5c-2.7-0.1-4.9,2-5,4.7c-0.1,2.4,1.6,4.5,3.9,4.9L387.1,317.9z"/>
			</g>
			<g>
				<path class="st4" d="M362.5,398.7c-2.9-0.6-4.9-3.1-4.8-6.1c0.1-1.6,0.7-3.1,1.9-4.1c1.2-1.1,2.7-1.6,4.3-1.6
					c3.3,0.1,5.9,2.9,5.7,6.2l-1.1,0c0.1-2.7-2-4.9-4.7-5c-1.3,0-2.5,0.4-3.5,1.3c-1,0.9-1.5,2.1-1.5,3.4c-0.1,2.4,1.6,4.5,3.9,4.9
					L362.5,398.7z"/>
			</g>
		</g>
		<g>
			<g>
				<path class="st9" d="M370.8,392.4c1.2-3.1,14.3-49.3,20.4-68.3c1.3-4.2,6.3-6.7,10.5-5.4l67.5,20.1c4.1,1.3,6.4,5.7,5.2,9.8
					l-29.8,103.3c-1.2,4.2-5.5,6.6-9.7,5.5L366,438.8c-4.3-1.2-6.8-5.6-5.6-9.9l10.3-36.1L370.8,392.4z"/>
			</g>
		</g>
		<g>
			<g>
				<path class="st2" d="M394.9,316.5c-2.7-0.7-5.5,0.8-6.4,3.5c-5,16.5-21.2,69.5-22.4,72.8l-12,39.2c-0.9,2.8,0.8,5.8,3.7,6.6
					l74.1,19.3c2.7,0.7,5.5-0.9,6.3-3.6l32.3-111.9c0.8-2.8-0.8-5.7-3.7-6.5L394.9,316.5z"/>
			</g>
			<g>
				<g>
					<path class="st4" d="M394.9,316.5c0,0,0.4,0.1,1,0.2c0.7,0.2,1.7,0.5,3.1,0.8c2.7,0.7,6.7,1.8,11.8,3.1
						c10.2,2.7,25,6.6,43.2,11.5c2.3,0.6,4.6,1.2,7,1.9c1.2,0.3,2.4,0.6,3.6,1c0.6,0.2,1.2,0.3,1.8,0.5c0.6,0.1,1.3,0.4,1.8,0.7
						c1.1,0.7,2,1.8,2.4,3.1c0.2,0.7,0.3,1.4,0.2,2c-0.1,0.7-0.3,1.4-0.5,2c-0.7,2.6-1.5,5.2-2.3,7.9c-3.1,10.7-6.4,22.1-9.8,34.1
						c-3.5,12-7.1,24.6-10.8,37.6c-1.9,6.5-3.8,13.2-5.7,19.9c-1,3.4-2,6.8-2.9,10.2l-0.4,1.3c-0.1,0.4-0.3,0.9-0.6,1.3
						c-0.5,0.8-1.2,1.5-2,2c-0.8,0.5-1.8,0.7-2.7,0.7c-0.5,0-1-0.1-1.4-0.2l-1.3-0.3c-14-3.6-27.6-7.2-40.7-10.6
						c-6.6-1.7-13-3.4-19.4-5c-3.2-0.8-6.3-1.6-9.4-2.5c-0.8-0.2-1.5-0.4-2.3-0.6c-0.8-0.2-1.6-0.4-2.3-0.8
						c-1.5-0.8-2.5-2.3-2.7-3.9c-0.1-0.8-0.1-1.6,0.2-2.4c0.2-0.7,0.5-1.5,0.7-2.2c0.5-1.5,0.9-2.9,1.3-4.4c0.9-2.9,1.8-5.8,2.6-8.6
						c1.7-5.7,3.4-11.1,5-16.5c3.3-10.6,6.3-20.5,9.1-29.5c5.6-18,10.1-32.6,13.3-42.7c0.8-2.5,1.5-4.8,2.1-6.7c0.3-1,0.5-1.9,1-2.6
						c0.5-0.7,1.1-1.3,1.7-1.6c1.2-0.7,2.4-0.8,3-0.8C394.6,316.4,394.9,316.5,394.9,316.5c0,0-0.4-0.1-1.1-0.1
						c-0.7,0-1.8,0.1-3,0.8c-0.6,0.4-1.2,0.9-1.6,1.6c-0.5,0.7-0.7,1.6-1,2.6c-0.6,2-1.3,4.2-2,6.7c-3.1,10.1-7.6,24.7-13.1,42.8
						c-2.8,9-5.8,18.9-9,29.5c-1.6,5.3-3.3,10.8-5,16.5c-0.9,2.8-1.7,5.7-2.6,8.6c-0.4,1.5-0.9,2.9-1.3,4.4
						c-0.2,0.7-0.5,1.5-0.7,2.2c-0.2,0.7-0.3,1.5-0.1,2.2c0.2,1.5,1.1,2.8,2.5,3.6c0.6,0.4,1.4,0.5,2.2,0.7c0.8,0.2,1.5,0.4,2.3,0.6
						c3.1,0.8,6.2,1.6,9.4,2.4c6.3,1.6,12.8,3.3,19.4,5c13.1,3.4,26.8,7,40.7,10.6c0.9,0.2,1.7,0.5,2.6,0.5c0.9,0,1.7-0.2,2.4-0.6
						c0.7-0.4,1.4-1,1.8-1.8c0.5-0.7,0.6-1.6,0.9-2.4c1-3.4,2-6.8,2.9-10.2c2-6.7,3.9-13.4,5.8-19.9c3.8-13,7.4-25.6,10.9-37.6
						c3.5-12,6.8-23.4,9.9-34.1c0.8-2.7,1.5-5.3,2.3-7.9c0.2-0.6,0.4-1.3,0.5-1.9c0.1-0.6,0-1.3-0.2-1.9c-0.4-1.2-1.2-2.3-2.2-2.9
						c-0.5-0.3-1.1-0.5-1.7-0.7c-0.6-0.2-1.2-0.3-1.8-0.5c-1.2-0.3-2.4-0.6-3.6-1c-2.4-0.6-4.7-1.3-7-1.9
						c-18.2-4.9-33-8.9-43.2-11.7c-5.1-1.4-9-2.5-11.7-3.2c-1.3-0.4-2.4-0.6-3-0.9C395.3,316.6,394.9,316.5,394.9,316.5z"/>
				</g>
			</g>
		</g>
		<g class="st12">
			<g>
				<path d="M400.2,425.2l-43.9-3.4c0.6,3.2,3.1,5.9,6,7.4s6.2,2.1,9.5,2.6c5,0.8,10,1.7,14.9,2.5c1.9,0.3,3.9,0.7,5.3,2
					c1.5,1.4,2,3.6,3.2,5.3c2,2.8,5.5,3.9,8.7,4.9c13,3.8,26,7.3,39.3,9.7c3.7,0.7,7.5,1.3,11.1,0.4c3.6-0.9,7.1-3.6,7.7-7.3
					L400.2,425.2z"/>
			</g>
		</g>
		<g>
			<g>
				<path class="st4" d="M398,318.4c0.1,0-8.2,27-18.6,60.2c-10.4,33.2-19,60.1-19.1,60c-0.1,0,8.2-27,18.6-60.2
					C389.3,345.2,397.8,318.3,398,318.4z"/>
			</g>
		</g>
		<g>
			
				<rect x="413.6" y="338.2" transform="matrix(0.2861 -0.9582 0.9582 0.2861 -42.1592 664.3483)" class="st9" width="22.3" height="44.6"/>
		</g>
	</g>
	<g>
		<g>
			<path class="st13" d="M406.5,393.6c0,0-10.8-14.4-14.8-17.7s-20.1-0.7-20.1-0.7l-7,7.4c0,0,1.4,5.6,8,2.9l1.8-1.4l7.5,0l4.7,5.4
				l-14.7-0.3c0,0-7.2-4.7-8.9-4.7c-1.6,0-5.6,3.2-2.7,8.7c0,0-5.5,1.8-3.6,9.2c0,0-4.6,1.3-0.4,10.1l0.5,1c0,0-4.8,2.3-1.6,7.3
				s11.1,6.6,13.5,6.5c2.4-0.1,45.7,6.2,45.7,6.2l11.7-30.4L406.5,393.6z"/>
		</g>
		<g>
			<g>
				<path class="st14" d="M373.7,401c0,0.1-0.9,0.1-2.3-0.1c-1.4-0.2-3.4-0.8-5.3-1.9c-1.9-1.1-3.5-2.4-4.4-3.5
					c-1-1.1-1.4-1.9-1.3-1.9c0.1-0.1,2.2,2.8,6,4.9C370.1,400.7,373.7,400.8,373.7,401z"/>
			</g>
		</g>
		<g>
			<g>
				<path class="st14" d="M366.7,410.7c0,0.1-0.8-0.1-2-0.6c-1.2-0.5-2.7-1.3-4.2-2.5c-1.5-1.2-2.7-2.5-3.4-3.5s-1.1-1.7-1-1.8
					c0.1-0.1,1.8,2.5,4.8,4.8C363.9,409.6,366.8,410.6,366.7,410.7z"/>
			</g>
		</g>
		<g>
			<g>
				<path class="st14" d="M366.8,419.5c0,0.1-2.8-0.3-5.7-2c-3-1.6-4.8-3.7-4.7-3.8c0.1-0.1,2.1,1.7,5,3.3
					C364.2,418.7,366.8,419.4,366.8,419.5z"/>
			</g>
		</g>
	</g>
	<g>
		<path class="st8" d="M515.4,412.9l-47-7.3l-55.3-10.5l-12.9,43.5c0,0,66.1,19.4,84.2,21.8c19.3,2.5,26.8,0,33-12.7
			C521.2,439.5,518.8,423.3,515.4,412.9z"/>
	</g>
	<g>
		<g>
			<path class="st4" d="M471.6,457.9c0,0-0.1,0-0.4-0.1c-0.2-0.1-0.6-0.1-1-0.2c-0.9-0.2-2.3-0.6-4-1c-3.5-0.9-8.5-2.3-14.9-3.9
				c-12.7-3.4-30.6-8.2-51.3-13.7l-0.3-0.1l0.1-0.3c2.6-8.7,5.4-18.1,8.2-27.8c1.6-5.4,3.2-10.6,4.7-15.7l0.1-0.2l0.2,0
				c24.1,4.8,45.3,9,60.5,12c7.6,1.5,13.7,2.8,17.9,3.6c2.1,0.4,3.7,0.8,4.8,1c0.5,0.1,0.9,0.2,1.2,0.3c0.3,0.1,0.4,0.1,0.4,0.1
				c0,0-0.1,0-0.4-0.1c-0.3,0-0.7-0.1-1.2-0.2c-1.1-0.2-2.8-0.5-4.8-0.9c-4.2-0.8-10.3-2-17.9-3.4c-15.2-3-36.5-7.1-60.6-11.8
				l0.3-0.2c-1.5,5-3.1,10.3-4.7,15.7c-2.9,9.7-5.7,19.1-8.3,27.8l-0.2-0.3c20.7,5.6,38.5,10.5,51.2,13.9c6.3,1.7,11.4,3.1,14.8,4.1
				c1.7,0.5,3,0.9,4,1.1c0.4,0.1,0.8,0.2,1,0.3C471.5,457.8,471.6,457.9,471.6,457.9z"/>
		</g>
	</g>
	<rect x="154.8" y="-284.6" class="st8" width="88.1" height="88.1"/>
	<text transform="matrix(1 0 0 1 995.1983 154.2298)"><tspan x="0" y="0" class="st15 st16 st17">Get </tspan><tspan x="0" y="96" class="st15 st16 st17">Scholarships</tspan><tspan x="0" y="192" class="st15 st16 st17">Abroad</tspan></text>
	<rect x="969.1" y="92.6" class="st15" width="5" height="267.7"/>
</g>
</svg>
