<?xml version="1.0" encoding="utf-8"?>
<!-- Generator: Adobe Illustrator 25.0.0, SVG Export Plug-In . SVG Version: 6.00 Build 0)  -->
<svg version="1.1" xmlns="http://www.w3.org/2000/svg" xmlns:xlink="http://www.w3.org/1999/xlink" x="0px" y="0px"
	 viewBox="0 0 1536 500" style="enable-background:new 0 0 1536 500;" xml:space="preserve">
<style type="text/css">
	.st0{fill:url(#SVGID_1_);}
	.st1{fill:#383884;}
	.st2{font-family:'CalisMTBol';}
	.st3{font-size:80px;}
	.st4{fill:#EBEBEB;}
	.st5{fill:none;stroke:#E0E0E0;stroke-width:1.9163;stroke-linecap:round;stroke-linejoin:round;stroke-miterlimit:10;}
	.st6{opacity:0.4;fill:#F5F5F5;enable-background:new    ;}
	.st7{fill:#F5F5F5;}
	.st8{fill:#FAFAFA;}
	.st9{display:none;}
	.st10{display:inline;}
	.st11{fill:#407BFF;}
	.st12{opacity:0.9;fill:#FFFFFF;enable-background:new    ;}
	.st13{fill:#263238;}
	.st14{opacity:0.6;fill:#FFFFFF;enable-background:new    ;}
	.st15{opacity:0.8;fill:#FFFFFF;enable-background:new    ;}
	.st16{opacity:0.7;fill:#FFFFFF;enable-background:new    ;}
	.st17{opacity:0.3;fill:#FFFFFF;enable-background:new    ;}
	
		.st18{opacity:0.4;fill:none;stroke:#000000;stroke-width:0.9724;stroke-linecap:round;stroke-linejoin:round;stroke-miterlimit:10;stroke-dasharray:1.9448,4.862;enable-background:new    ;}
	.st19{opacity:0.2;}
	.st20{fill:none;stroke:#000000;stroke-width:0.9724;stroke-linecap:round;stroke-linejoin:round;stroke-miterlimit:10;}
	.st21{fill:#FFFFFF;}
	.st22{opacity:0.5;fill:#FFFFFF;enable-background:new    ;}
	.st23{opacity:0.2;enable-background:new    ;}
	.st24{fill:none;stroke:#263238;stroke-width:1.9259;stroke-linecap:round;stroke-linejoin:round;}
	.st25{fill:none;stroke:#263238;stroke-width:1.9259;stroke-linecap:round;stroke-linejoin:round;stroke-dasharray:1.2715,3.1788;}
	.st26{fill:none;stroke:#263238;stroke-width:2.9172;stroke-miterlimit:10;}
	.st27{opacity:0.1;fill:#FFFFFF;enable-background:new    ;}
	.st28{opacity:0.2;fill:#FFFFFF;enable-background:new    ;}
	.st29{opacity:0.4;fill:#FFFFFF;enable-background:new    ;}
	.st30{fill:#CE7A63;}
	.st31{opacity:0.5;enable-background:new    ;}
	.st32{fill:#BA4D3C;}
	.st33{opacity:0.4;enable-background:new    ;}
	.st34{opacity:0.1;enable-background:new    ;}
	.st35{fill:none;stroke:#FFFFFF;stroke-width:0.2431;stroke-miterlimit:10;}
	.st36{fill:none;stroke:#FFFFFF;stroke-width:0.2582;stroke-miterlimit:10;}
	.st37{fill:none;stroke:#263238;stroke-width:0.8434;stroke-linecap:round;stroke-linejoin:round;stroke-miterlimit:10;}
</style>
<g id="Layer_2">
	
		<linearGradient id="SVGID_1_" gradientUnits="userSpaceOnUse" x1="9.094947e-13" y1="250.765" x2="1536" y2="250.765" gradientTransform="matrix(1 0 0 -1 0 502)">
		<stop  offset="0" style="stop-color:#22BABC"/>
		<stop  offset="0.5375" style="stop-color:#94DEDE"/>
		<stop  offset="1" style="stop-color:#FFFFFF"/>
	</linearGradient>
	<rect x="0" y="1.4" class="st0" width="1536" height="499.8"/>
	<text transform="matrix(1 0 0 1 986.8716 151.8727)"><tspan x="0" y="0" class="st1 st2 st3">Achieve your </tspan><tspan x="0" y="96" class="st1 st2 st3">dreams across</tspan><tspan x="0" y="192" class="st1 st2 st3">Borders</tspan></text>
	<rect x="947" y="94.1" class="st1" width="5" height="267.7"/>
</g>
<g id="Layer_1">
	<g id="Background_Complete">
		<g>
			<rect x="130.3" y="432.5" class="st4" width="660.4" height="0.3"/>
			<rect x="680.8" y="453.7" class="st4" width="43.8" height="0.3"/>
			<rect x="556.3" y="457.3" class="st4" width="11.5" height="0.3"/>
			<rect x="654.1" y="441.5" class="st4" width="25.3" height="0.3"/>
			<rect x="199.6" y="443.7" class="st4" width="57.1" height="0.3"/>
			<rect x="268.4" y="443.7" class="st4" width="8.4" height="0.3"/>
			<rect x="303.9" y="449.3" class="st4" width="123.7" height="0.3"/>
			<path class="st4" d="M443.3,373.6h-255c-4.2,0-7.5-3.4-7.5-7.5V7.5c0-4.2,3.4-7.5,7.5-7.5h255c4.2,0,7.5,3.4,7.5,7.5V366
				C450.9,370.2,447.5,373.6,443.3,373.6z M188.3,0.3c-4,0-7.2,3.2-7.2,7.2V366c0,4,3.2,7.2,7.2,7.2h255c4,0,7.2-3.2,7.2-7.2V7.5
				c0-4-3.2-7.2-7.2-7.2C443.3,0.3,188.3,0.3,188.3,0.3z"/>
			<path class="st4" d="M729,373.6H474c-4.2,0-7.5-3.4-7.5-7.5V7.5c0-4.2,3.4-7.5,7.5-7.5h255c4.2,0,7.5,3.4,7.5,7.5V366
				C736.6,370.2,733.2,373.6,729,373.6z M474,0.3c-4,0-7.2,3.2-7.2,7.2V366c0,4,3.2,7.2,7.2,7.2h255c4,0,7.2-3.2,7.2-7.2V7.5
				c0-4-3.2-7.2-7.2-7.2C729,0.3,474,0.3,474,0.3z"/>
		</g>
		<g>
			<path class="st5" d="M237.2,141.5C219.5,188.2,304.9,264,428,310.6s237.2,46.6,254.9-0.2"/>
			<path class="st5" d="M318.3,423.8c40.2,29.7,136.2-31.9,214.5-137.7S642,70.5,601.8,40.8"/>
			<g>
				<g>
					<path class="st4" d="M644.5,247.7c0-6.2-0.2-12.2-0.8-18.2c-4.6-51.4-30.3-96.8-68.3-127.5C544,76.5,504,61.1,460.3,60.8
						c-1.1,0-2.3,0-3.4,0c-23.3,0.3-45.6,4.8-66.1,12.9h0c-62.7,24.8-108.7,82.7-116.2,152.3c-0.7,6.2-1,12.6-1.1,19
						c-0.1,15.5,1.7,30.5,5.1,44.9c10.2,42.6,35.2,79.5,69.3,105.1c30.6,22.9,68.6,36.6,109.8,36.9c22.1,0.2,43.3-3.5,63-10.5
						C592.3,396.2,644,328.1,644.5,247.7z"/>
				</g>
				<g>
					<path class="st6" d="M514.6,381.5c3.5,0.3,5,4.6,5.8,8.1c1,5.2,2.1,10.5,3.2,15.7c-6.4,3-5.8,10.8-2.9,16.1
						c71.7-25.2,123.3-93.3,123.9-173.7c0-6.2-0.2-12.2-0.8-18.2c-0.2-0.1-0.3-0.2-0.5-0.3c-5.1-2.4-9,1.9-12.9,4.4
						c-0.9,0.6-12,5.9-12.1,4.4c0.5,4.9,0.2,9.8-0.8,14.6c-0.1,0.4-0.2,0.8-0.5,1c-0.7,0.5-1.5-0.5-1.8-1.3c-0.7-2.1-1-4.4-1.8-6.5
						c-0.8-2.1-2.3-4.1-4.4-4.8c-2.2-0.7-4.5,0.1-6.7-0.2c-2.7-0.4-5-2.4-6.4-4.8c-1.3-2.3-1.9-5-2.6-7.5c-2.6,5.8-9.3,2.2-13.2,6.9
						c-1.2,1.5-2.8,3.7-4.6,3c-1.7-0.7-1.9-3.7-3.8-3.9c-1.3-0.2-2.2,1.3-2.4,2.6c-0.2,1.3,0,2.7-0.5,3.9c-0.8,1.7-3.1,2.4-4.7,1.4
						c-1.4-0.9-2-2.6-2.8-4s-2.8-2.6-4.1-1.6c-0.3,0.2-0.5,0.6-0.7,0.9c-1.3,2.5,0.2,5.5,1.9,7.7c1.7,2.2,3.8,4.4,4,7.2
						c-1,0.7-2.6,0.4-3.2-0.7c-0.2-0.4-0.3-0.8-0.7-1.1c-0.7-0.6-1.8,0-2.5,0.5c-3.7,2.4-8.3,3.2-12.6,2.2c-0.3-5.6-0.6-11.3-1-17
						c-1.3,0-2-0.1-2.5-1.4c-4.2,4.1-8.1,8.6-12.8,12.3c-0.6,0.4-1.2,0.9-1.3,1.6c-0.2,0.7,0.1,1.5,0.1,2.2
						c-0.2,2.5-3.5,3.1-5.9,3.1c-0.7,0.4-0.3,1.6,0.4,2c0.7,0.4,1.6,0.4,2.3,0.9c1,0.8,1,2.2,0.6,3.4c-1.2,4.1-6.2,6.6-10.2,5.1
						c-0.5-0.2-1-0.4-1.2-0.8c-0.6-0.9,0-2.1,0.1-3.3c0.4-4.4-4.3-3.4-6.5-2.1c-3,1.6-4.6,6-5.2,9.1c-0.6,3.6-3.4,27.8-11.5,24.5
						c-0.8-0.3-1.3-1-1.7-1.7c-1.2-2.2-1.1-4.8-1.9-7.2c-0.9-2.3-3.5-4.5-5.7-3.2c-0.9,0.5-1.4,1.4-2.3,1.9
						c-2.3,1.5-5.6-0.3-8.1,0.8c-1.2,0.5-2,1.6-3,2.3s-2.7,1-3.5-0.1c-0.8-1.2,0.1-2.9-0.5-4.2c-0.7-1.3-2.9-1-3.7,0.2
						s-0.3,3,0.6,4.2c0.5,0.6,1.1,1.2,1.3,2c0.3,1.4-1,2.5-2.2,3.3c-1.8,1.3-3.7,2.5-5.5,3.8c0.1,1.3,1.4,2.2,2.6,2.5
						s2.5,0.3,3.8,0.7c5.9,2,5.9,10.7,13.6,9c-0.5-2.3,2-4.7,4.3-4.1c2.8,0.7,4.7,4.7,7.5,3.9c1-0.3,1.7-1.1,2.7-1.4
						c2.7-0.6,4.1,3.5,4.8,5.3c2.5,5.9-1.4,6.6-1.2,11.9c0.1,2.4,1.9,4.5,2.3,6.8c0.4,2.2-0.4,4.5-0.1,6.6c0.8,6.1,8.8,2.4,12.4,1.7
						c-1.9,3.4,0.9,7.6,4.1,10c4.8,3.7,4,3.3,4.6,8.6c0.2,1.4,1,2.8,2.3,3.3c2.3,0.8,4.5-1.5,7-1.7c1.2-0.1,2.3,0.2,3.5,0.1
						c3-0.5,4.1-4.2,6.1-6.6c1.7-2.1,4.5-3.2,7.2-2.9c0.2,1.6,0.2,3.1,0,4.7c-1.7,1-3.4,2.1-5.1,3.1c-1.5,0.9-3.1,1.9-4,3.4
						c-0.5,0.8-0.8,1.8-1.6,2.5c-1.5,1.3-3.7,0.5-5.7,0.4c-4.8-0.3-12.5,2.7-17.1,4.2c-4.9,1.6-6.6,5.1-11.1,6.6
						c-0.8,0.3-1,1.4-0.5,2.1c0.5,0.7,1.3,1,2.2,1.1c1.9,0.3,4,0,5.7-0.9c-2.2,1.2,4.3,6.6,5.5,6.9c1.9,0.4,4.6-1,6.5-1.1
						c4.9-0.2,7.7,0.7,4.5,6.1c-1.2,2-2.7,4.6-1.3,6.6c1.3-0.5,2.9,0.2,3.6,1.4c0.7,1.2,0.8,2.7,0.6,4.1c-0.1,0.9-0.3,1.9-1,2.6
						c-0.4,0.4-0.8,0.6-1.1,1c-0.9,1.4,1,2.9,2.5,3.5"/>
					<path class="st6" d="M352.2,169c1.5-1.1,3.7-0.2,5.3,0.8c1.6,1.1,3.5,2.3,5.2,1.6c0-2.2,0.1-4.4,0.1-6.6c0-0.4,0-0.9,0.3-1.2
						c0.3-0.3,0.8-0.3,1.2-0.3c1.4,0.1,2.9,0.1,4.3,0.2c1.2,1.3-2.1,2.9-1.6,4.6c0.2,0.8,1.1,1.1,1.7,1.4c5.9,3.1,2.1,9.7-0.5,13.2
						c-3.1,4.1-2.9,9.7-2.5,14.9c0.1,1.8,0.3,3.9,1.8,5.1c1.4,1.2,3.4,1.1,5.1,1.6c3,0.9,5.2,3.6,8,5c9.9,4.9,16.5-5.7,13.2-14.1
						c-1.7-4.3-2.4-3.5-1.4-8.1c0.4-1.9-0.2-4.2,1.8-5.5c2.1-1.4,5.2,0.1,5.4,2.7c0.2,2.6,0.8,5-0.3,7.4c2.9-1.1,6.4-0.4,9.6-0.4
						c-0.5,2.9,3.4,5.6,5.9,4.1c-0.1-1.4,0.3-3.4,1.8-3.4c0.4,0,0.8,0.2,1.2,0.4c1.5,0.9,2.9,2.1,4.5,2.8c2.5,1.1,9.5,0.6,10.6,3.9
						c0.2,0.6,0.2,1.2,0.4,1.8c0.5,1.2,2,1.8,3.3,1.4s2.1-1.6,2.4-2.9c0.2-0.9,0.1-1.8,0.3-2.6c1.2-4.5,5.8-1,7.9-2.2
						c1-0.6,5.1-8.2,5.1-9.2c2,2.4,4.9,4.5,8.1,4.3c3.6-0.2,5.1-3,5.9-6.5c0.9-3.7,0.9-8,1.7-10.7c0.4-1.4,0.8-3.1-0.2-4.2
						c-1.3-1.4-3.9-0.8-4.9-2.5c-0.3-0.5-0.3-1.1-0.4-1.7c-0.6-3.4-4.4-5.9-7.8-5c-1.1-0.7-1.1-2.3-1.2-3.6c-0.1-1.3-0.6-2.9-1.9-3
						c-1.5-0.1-2.2,1.9-2.2,3.4c0,1.5,0.3,3.1,0.7,4.5c0.3,1.1,0.8,2.3,0.4,3.4c-0.3,0.8-1,1.4-1.7,1.9c-1.7,1.2-3.6,2.3-5.7,2.3
						s-4.3-1.5-4.4-3.6c0-0.6,0.1-1.1,0-1.7c-0.3-1.4-2.1-1.9-3.5-1.7c-1.4,0.2-2.9,0.8-4.3,0.5s-2.6-2.1-1.6-3.2
						c-1.9-0.7-4.6-1-5.4,0.9c-0.2,0.6-0.2,1.3-0.2,1.9c-0.1,4-5,9.7-8.4,5.6c-2.2-2.7,1.6-7.7-2.4-10c-1.9-1.1-4.5-0.1-6.4-1.2
						c-0.6-0.7,0.4-1.6,1.3-1.9c2.8-0.7,6,0.1,8,2.2c1.1-2.3-0.6-5.7,1.4-7.4c2-1.6,5.7,0.3,7.1-1.8c0.4-0.6,0.5-1.4,0.5-2.1
						c0.3-3.6-0.9-10.2,4.2-10.8c0.6-0.1,1.3,0,1.8-0.2c1.8-0.7,1.7-3.1,1.4-5c-1.9-0.8-4,0.6-5.8,1.6c-1.8,1-4.8,1.1-5.4-0.9
						c-0.5-1.4,0.7-3.2-0.3-4.3c-0.4-0.5-1.2-0.7-1.6-1.3c-0.9-1.4,1.3-2.8,1.7-4.4c0.5-2.2-2.5-3.7-4.8-3.5s-4.9,0.9-6.7-0.4
						c-0.6-0.4-1-1-1.6-1.5c-1.7-1.5-4.1-1.6-6.4-1.7c-3.6-0.1,4.6-14.8,4.6-15.7c0.6-6.8-6.4-10.5-10.4-14.8
						c-2.1-2.3-3.6-5-5.2-7.7C330.5,97.6,285.9,153,275.7,217.2c-0.5,2.9-1,5.9-1,8.7c4.2-1.2,10.8-4.4,15.1-1.8
						c5.5,3.3,1.5,11.4,7.8,13.8c1.6,0,1.1-2.6,2-3.9c0.5-0.7,1.4-0.9,2.2-1.3s1.5-1.2,1.2-2c1.4-1.1,3.2,0.3,4.5,1.5
						c1.5,1.4,3.2,2.7,5.2,3.1c4.1,0.9,8-2.1,11.7-4.1c3.1-1.7,6.5-2.7,9.8-3.8c-1.6,0.1-2.4-2.1-1.8-3.6s2-2.5,3.1-3.7
						c1.8-2.1,0.4-4.6,1.9-6.9c1.8-2.8,5.3-4.8,5.6-8.1c0.4-4-4.1-6.6-7.9-8.1c2-4.6,7.4-7.7,7.4-12.7c0-1.9-0.9-3.7-1.7-5.4
						c-1.7-3.5-3.4-7.1-5.1-10.6c-0.7-1.5-1.4-3.1-1-4.6c0.5-1.9,2.4-2.9,4.1-3.8c1.9-0.9,3.7-1.9,5.5-2.8c0.8-0.4,1.6-0.8,2.4-0.6
						c0.9,0.2,1.6,0.9,2.1,1.6c3,3.9,4.5,9,4,13.9c6.5-1,13-2.8,19.1-5.3c-0.7,3.8,0.9,8-0.3,11.5"/>
					<path class="st6" d="M505.6,200c1.8,1.3,3.2,3.2,3.3,5.4c0.1,1.3-0.4,2.6-0.4,4c-0.1,1.3,0.3,2.9,1.5,3.5
						c1.5,0.8,3.3-0.2,4.7-1.2c1.1-0.8,2.3-1.7,2.6-3.1c0.2-1-0.2-2-0.1-3c0.2-2,2-3.4,3.4-4.8s2.6-3.7,1.5-5.3
						c-0.7-1.1-2.2-1.5-3-2.6c-1.9-2.6,1.5-6.2,0-8.6c-1.9-2.8-6.6-1.4-9.1,0.1c-2.6,1.4-4.5,4.1-6.4,6.3
						C498.2,196.9,500,195.9,505.6,200z"/>
					<path class="st6" d="M575.3,101.9c-31-26.9-74.4-40.8-115-41.1c-1.1,0-2.3,0-3.4,0c-5.4,6-8.2,17.5,2.4,19.6
						c0,1.2-0.7,1.4-1.2,2.4c-0.9,1.5,0.6,3.3,2.2,3.9c5.2,2.2,11.6,2,10.7,9.1c-1,8.4-5,3.1-9.4,6.1c-0.6,0.4-1,1.2-1.5,1.7
						c-1.9,2.1-5.1,2.1-8,1.9c0.7-1.7-0.4-3.8-2.1-4.2c-0.7-0.2-1.4-0.1-2-0.5c-1.2-0.9-0.3-2.9,1.1-3.4c1.4-0.6,2.9-0.3,4.3-0.7
						c1.4-0.4,2.7-2.1,1.8-3.3c-0.4-0.5-1-0.7-1.6-0.9c-2.5-0.6-5.2,0.2-7.1,2c-0.5-1.3-1.9-2.3-3.3-2.1c-1.4,0.1-2.7,1.3-2.9,2.7
						c-0.3,2.1,1.1,4.9-0.7,5.8c1.6-0.4,3.5,0.2,4.6,1.4c4.3,5.1,1.7,17.4,13.1,15.3c1.8-0.3,3.6-1.1,5.4-1.2s4,0.8,4.5,2.6
						c2.4-3.5,8.5-2.7,10.5-6.4c1-1.7,0.5-4.1-1-5.4c-0.2-0.2-0.5-0.4-0.7-0.7c-0.2-0.6,0.3-1.3,0.4-1.9c0.2-1.2-1.1-2.1-1.2-3.2
						c-0.2-1.6,1.6-2.6,3.2-3s3.5-1,3.8-2.6c0.1-0.5,0-1.1,0.1-1.7c0.2-1.1,1.3-1.8,2.4-2c1.1-0.1,2.2,0.2,3.3,0.5
						c0.7,0.6,0.4,1.8-0.2,2.6c-0.6,0.7-1.6,1.2-2.1,1.9c-0.3,0.4,1.2,10.1,0.5,9.8c3.4,1.2,10.8,1.4,9.3,6.5
						c-0.5,1.8-1.6,3.7-0.9,5.5c-2.4-0.7-4.8-1.3-7.3-1.9c-0.6,0.8,0.4,1.8,1.3,2.1c1,0.2,2.1,0.2,2.7,0.9c0.5,0.5,0.5,1.3,0.5,1.9
						c0.1,2.2,0.2,4.5,0.4,6.7c0.1,2.4,0.5,5.2,2.5,6.6c2.3,1.6,5.5,0.3,7.4-1.7c0.5-0.5,1-1,1.6-1c0.6,0,1.1,0.4,1.5,0.9
						c2.4,2.1,5.6,3.4,8.7,2.6c3.1-0.7,5.6-3.8,5.1-6.9c-0.2-1.2-0.7-2.7,0.2-3.4c0.5-0.5,1.5-0.5,1.7-1.2c0.3-0.8-0.8-1.4-1.5-2
						c-1.3-1-1.8-2.9-1-4.4c0.4-0.7,7.1-3.5,8.1-3c2.4,1.2,2,7.6,2.3,10c0.1,0.9,0.3,2,1.1,2.6c1.2,0.9,2.9,0,3.9-1.2s1.6-2.7,3-3.3
						c0.8-0.4,1.7-0.4,2.6-0.4c1.8-0.1,3.8,0,5,1.2c0.6,0.6,0.9,1.4,1.5,2c1.3,1.3,3.5,1.3,5.3,0.6c1.8-0.6,3.4-1.7,5.2-2.2
						c3.9-1,8.3,0.8,11.9-1c1.7-0.9,3-3.3,1.6-4.7c-1.2-1.2-3.7-1-4-2.6c-0.3-1.6,3.6-3.8,4.2-5.2c0.5-1.1-0.6-3.1,0.6-5.2
						C571.8,104.2,574.2,103.7,575.3,101.9z"/>
					<path class="st6" d="M347.5,367.6c-2.2-1.5-4.7-2.3-5.5-5.4c-1-4.1,1.2-5.9,5.3-4.4c0.4,0.1,0.8,0.3,1.1,0.2
						c1.2-0.4,0.4-2.1-0.4-3.1c-1.8-2.3-1.9-5.4-1-8c0.2-0.6-11.4-0.9-12.6-0.2c-4.5,2.4-1.5,12-6.7,10.4c-0.4-3.6-0.2-7.4-0.2-11
						c-1.8-0.1-3.5-0.1-5.3-0.2c1.3,0,0.5-6.7,0.1-7.4c-1.7-2.9-7.1-1.6-6.6-7c0.6-6.9,13.9-8.2,12.3-0.4c4,1.5,8.8,1.9,13.1,1.8
						c0.1,1.4,0.2,2.8,0.3,4.2c1,0.6,2.3,0.7,3.4,0.3c2.1-3.5,1.8-8.3-0.8-11.5c1.5-2.3-0.3-5.3-2.1-7.4c4.9-3.5,3.5-12.6-2.2-14.5
						c-5.7-1.9-12.3,4.4-10.5,10.2c-2.8,0.3-5.5,1.5-7.5,3.4c-0.3-7.3-5.8-14-12.9-15.9c-3.5-0.9-7.8-0.9-10.2-3.6
						c-1.1-1.2-1.6-2.8-2.6-4.1c-2.3-2.9-6.3-3.5-10-3.7c-2.5-0.1-4.9-0.2-7.4-0.1c10.2,42.6,35.2,79.5,69.3,105
						c1.3,0,2.6,0,3.8-0.6c2.1-1.1,2.7-3.7,3.1-6.1c1.7-9,0.7-14.7-6.6-20.3C347.9,367.9,347.7,367.7,347.5,367.6z"/>
				</g>
				<g>
					<path class="st7" d="M514.6,381.5c3.5,0.3,5,4.6,5.8,8.1c1,5.2,2.1,10.5,3.2,15.7c-6.4,3-5.8,10.8-2.9,16.1
						c71.7-25.2,123.3-93.3,123.9-173.7c0-6.2-0.2-12.2-0.8-18.2c-0.2-0.1-0.3-0.2-0.5-0.3c-5.1-2.4-9,1.9-12.9,4.4
						c-0.9,0.6-12,5.9-12.1,4.4c0.5,4.9,0.2,9.8-0.8,14.6c-0.1,0.4-0.2,0.8-0.5,1c-0.7,0.5-1.5-0.5-1.8-1.3c-0.7-2.1-1-4.4-1.8-6.5
						c-0.8-2.1-2.3-4.1-4.4-4.8c-2.2-0.7-4.5,0.1-6.7-0.2c-2.7-0.4-5-2.4-6.4-4.8c-1.3-2.3-1.9-5-2.6-7.5c-2.6,5.8-9.3,2.2-13.2,6.9
						c-1.2,1.5-2.8,3.7-4.6,3c-1.7-0.7-1.9-3.7-3.8-3.9c-1.3-0.2-2.2,1.3-2.4,2.6c-0.2,1.3,0,2.7-0.5,3.9c-0.8,1.7-3.1,2.4-4.7,1.4
						c-1.4-0.9-2-2.6-2.8-4s-2.8-2.6-4.1-1.6c-0.3,0.2-0.5,0.6-0.7,0.9c-1.3,2.5,0.2,5.5,1.9,7.7c1.7,2.2,3.8,4.4,4,7.2
						c-1,0.7-2.6,0.4-3.2-0.7c-0.2-0.4-0.3-0.8-0.7-1.1c-0.7-0.6-1.8,0-2.5,0.5c-3.7,2.4-8.3,3.2-12.6,2.2c-0.3-5.6-0.6-11.3-1-17
						c-1.3,0-2-0.1-2.5-1.4c-4.2,4.1-8.1,8.6-12.8,12.3c-0.6,0.4-1.2,0.9-1.3,1.6c-0.2,0.7,0.1,1.5,0.1,2.2
						c-0.2,2.5-3.5,3.1-5.9,3.1c-0.7,0.4-0.3,1.6,0.4,2c0.7,0.4,1.6,0.4,2.3,0.9c1,0.8,1,2.2,0.6,3.4c-1.2,4.1-6.2,6.6-10.2,5.1
						c-0.5-0.2-1-0.4-1.2-0.8c-0.6-0.9,0-2.1,0.1-3.3c0.4-4.4-4.3-3.4-6.5-2.1c-3,1.6-4.6,6-5.2,9.1c-0.6,3.6-3.4,27.8-11.5,24.5
						c-0.8-0.3-1.3-1-1.7-1.7c-1.2-2.2-1.1-4.8-1.9-7.2c-0.9-2.3-3.5-4.5-5.7-3.2c-0.9,0.5-1.4,1.4-2.3,1.9
						c-2.3,1.5-5.6-0.3-8.1,0.8c-1.2,0.5-2,1.6-3,2.3s-2.7,1-3.5-0.1c-0.8-1.2,0.1-2.9-0.5-4.2c-0.7-1.3-2.9-1-3.7,0.2
						s-0.3,3,0.6,4.2c0.5,0.6,1.1,1.2,1.3,2c0.3,1.4-1,2.5-2.2,3.3c-1.8,1.3-3.7,2.5-5.5,3.8c0.1,1.3,1.4,2.2,2.6,2.5
						s2.5,0.3,3.8,0.7c5.9,2,5.9,10.7,13.6,9c-0.5-2.3,2-4.7,4.3-4.1c2.8,0.7,4.7,4.7,7.5,3.9c1-0.3,1.7-1.1,2.7-1.4
						c2.7-0.6,4.1,3.5,4.8,5.3c2.5,5.9-1.4,6.6-1.2,11.9c0.1,2.4,1.9,4.5,2.3,6.8c0.4,2.2-0.4,4.5-0.1,6.6c0.8,6.1,8.8,2.4,12.4,1.7
						c-1.9,3.4,0.9,7.6,4.1,10c4.8,3.7,4,3.3,4.6,8.6c0.2,1.4,1,2.8,2.3,3.3c2.3,0.8,4.5-1.5,7-1.7c1.2-0.1,2.3,0.2,3.5,0.1
						c3-0.5,4.1-4.2,6.1-6.6c1.7-2.1,4.5-3.2,7.2-2.9c0.2,1.6,0.2,3.1,0,4.7c-1.7,1-3.4,2.1-5.1,3.1c-1.5,0.9-3.1,1.9-4,3.4
						c-0.5,0.8-0.8,1.8-1.6,2.5c-1.5,1.3-3.7,0.5-5.7,0.4c-4.8-0.3-12.5,2.7-17.1,4.2c-4.9,1.6-6.6,5.1-11.1,6.6
						c-0.8,0.3-1,1.4-0.5,2.1c0.5,0.7,1.3,1,2.2,1.1c1.9,0.3,4,0,5.7-0.9c-2.2,1.2,4.3,6.6,5.5,6.9c1.9,0.4,4.6-1,6.5-1.1
						c4.9-0.2,7.7,0.7,4.5,6.1c-1.2,2-2.7,4.6-1.3,6.6c1.3-0.5,2.9,0.2,3.6,1.4c0.7,1.2,0.8,2.7,0.6,4.1c-0.1,0.9-0.3,1.9-1,2.6
						c-0.4,0.4-0.8,0.6-1.1,1c-0.9,1.4,1,2.9,2.5,3.5"/>
					<path class="st7" d="M352.2,169c1.5-1.1,3.7-0.2,5.3,0.8c1.6,1.1,3.5,2.3,5.2,1.6c0-2.2,0.1-4.4,0.1-6.6c0-0.4,0-0.9,0.3-1.2
						c0.3-0.3,0.8-0.3,1.2-0.3c1.4,0.1,2.9,0.1,4.3,0.2c1.2,1.3-2.1,2.9-1.6,4.6c0.2,0.8,1.1,1.1,1.7,1.4c5.9,3.1,2.1,9.7-0.5,13.2
						c-3.1,4.1-2.9,9.7-2.5,14.9c0.1,1.8,0.3,3.9,1.8,5.1c1.4,1.2,3.4,1.1,5.1,1.6c3,0.9,5.2,3.6,8,5c9.9,4.9,16.5-5.7,13.2-14.1
						c-1.7-4.3-2.4-3.5-1.4-8.1c0.4-1.9-0.2-4.2,1.8-5.5c2.1-1.4,5.2,0.1,5.4,2.7c0.2,2.6,0.8,5-0.3,7.4c2.9-1.1,6.4-0.4,9.6-0.4
						c-0.5,2.9,3.4,5.6,5.9,4.1c-0.1-1.4,0.3-3.4,1.8-3.4c0.4,0,0.8,0.2,1.2,0.4c1.5,0.9,2.9,2.1,4.5,2.8c2.5,1.1,9.5,0.6,10.6,3.9
						c0.2,0.6,0.2,1.2,0.4,1.8c0.5,1.2,2,1.8,3.3,1.4s2.1-1.6,2.4-2.9c0.2-0.9,0.1-1.8,0.3-2.6c1.2-4.5,5.8-1,7.9-2.2
						c1-0.6,5.1-8.2,5.1-9.2c2,2.4,4.9,4.5,8.1,4.3c3.6-0.2,5.1-3,5.9-6.5c0.9-3.7,0.9-8,1.7-10.7c0.4-1.4,0.8-3.1-0.2-4.2
						c-1.3-1.4-3.9-0.8-4.9-2.5c-0.3-0.5-0.3-1.1-0.4-1.7c-0.6-3.4-4.4-5.9-7.8-5c-1.1-0.7-1.1-2.3-1.2-3.6c-0.1-1.3-0.6-2.9-1.9-3
						c-1.5-0.1-2.2,1.9-2.2,3.4c0,1.5,0.3,3.1,0.7,4.5c0.3,1.1,0.8,2.3,0.4,3.4c-0.3,0.8-1,1.4-1.7,1.9c-1.7,1.2-3.6,2.3-5.7,2.3
						s-4.3-1.5-4.4-3.6c0-0.6,0.1-1.1,0-1.7c-0.3-1.4-2.1-1.9-3.5-1.7c-1.4,0.2-2.9,0.8-4.3,0.5s-2.6-2.1-1.6-3.2
						c-1.9-0.7-4.6-1-5.4,0.9c-0.2,0.6-0.2,1.3-0.2,1.9c-0.1,4-5,9.7-8.4,5.6c-2.2-2.7,1.6-7.7-2.4-10c-1.9-1.1-4.5-0.1-6.4-1.2
						c-0.6-0.7,0.4-1.6,1.3-1.9c2.8-0.7,6,0.1,8,2.2c1.1-2.3-0.6-5.7,1.4-7.4c2-1.6,5.7,0.3,7.1-1.8c0.4-0.6,0.5-1.4,0.5-2.1
						c0.3-3.6-0.9-10.2,4.2-10.8c0.6-0.1,1.3,0,1.8-0.2c1.8-0.7,1.7-3.1,1.4-5c-1.9-0.8-4,0.6-5.8,1.6c-1.8,1-4.8,1.1-5.4-0.9
						c-0.5-1.4,0.7-3.2-0.3-4.3c-0.4-0.5-1.2-0.7-1.6-1.3c-0.9-1.4,1.3-2.8,1.7-4.4c0.5-2.2-2.5-3.7-4.8-3.5s-4.9,0.9-6.7-0.4
						c-0.6-0.4-1-1-1.6-1.5c-1.7-1.5-4.1-1.6-6.4-1.7c-3.6-0.1,4.6-14.8,4.6-15.7c0.6-6.8-6.4-10.5-10.4-14.8
						c-2.1-2.3-3.6-5-5.2-7.7C330.5,97.6,285.9,153,275.7,217.2c-0.5,2.9-1,5.9-1,8.7c4.2-1.2,10.8-4.4,15.1-1.8
						c5.5,3.3,1.5,11.4,7.8,13.8c1.6,0,1.1-2.6,2-3.9c0.5-0.7,1.4-0.9,2.2-1.3s1.5-1.2,1.2-2c1.4-1.1,3.2,0.3,4.5,1.5
						c1.5,1.4,3.2,2.7,5.2,3.1c4.1,0.9,8-2.1,11.7-4.1c3.1-1.7,6.5-2.7,9.8-3.8c-1.6,0.1-2.4-2.1-1.8-3.6s2-2.5,3.1-3.7
						c1.8-2.1,0.4-4.6,1.9-6.9c1.8-2.8,5.3-4.8,5.6-8.1c0.4-4-4.1-6.6-7.9-8.1c2-4.6,7.4-7.7,7.4-12.7c0-1.9-0.9-3.7-1.7-5.4
						c-1.7-3.5-3.4-7.1-5.1-10.6c-0.7-1.5-1.4-3.1-1-4.6c0.5-1.9,2.4-2.9,4.1-3.8c1.9-0.9,3.7-1.9,5.5-2.8c0.8-0.4,1.6-0.8,2.4-0.6
						c0.9,0.2,1.6,0.9,2.1,1.6c3,3.9,4.5,9,4,13.9c6.5-1,13-2.8,19.1-5.3c-0.7,3.8,0.9,8-0.3,11.5"/>
					<path class="st7" d="M505.6,200c1.8,1.3,3.2,3.2,3.3,5.4c0.1,1.3-0.4,2.6-0.4,4c-0.1,1.3,0.3,2.9,1.5,3.5
						c1.5,0.8,3.3-0.2,4.7-1.2c1.1-0.8,2.3-1.7,2.6-3.1c0.2-1-0.2-2-0.1-3c0.2-2,2-3.4,3.4-4.8s2.6-3.7,1.5-5.3
						c-0.7-1.1-2.2-1.5-3-2.6c-1.9-2.6,1.5-6.2,0-8.6c-1.9-2.8-6.6-1.4-9.1,0.1c-2.6,1.4-4.5,4.1-6.4,6.3
						C498.2,196.9,500,195.9,505.6,200z"/>
					<path class="st7" d="M575.3,101.9c-31-26.9-74.4-40.8-115-41.1c-1.1,0-2.3,0-3.4,0c-5.4,6-8.2,17.5,2.4,19.6
						c0,1.2-0.7,1.4-1.2,2.4c-0.9,1.5,0.6,3.3,2.2,3.9c5.2,2.2,11.6,2,10.7,9.1c-1,8.4-5,3.1-9.4,6.1c-0.6,0.4-1,1.2-1.5,1.7
						c-1.9,2.1-5.1,2.1-8,1.9c0.7-1.7-0.4-3.8-2.1-4.2c-0.7-0.2-1.4-0.1-2-0.5c-1.2-0.9-0.3-2.9,1.1-3.4c1.4-0.6,2.9-0.3,4.3-0.7
						c1.4-0.4,2.7-2.1,1.8-3.3c-0.4-0.5-1-0.7-1.6-0.9c-2.5-0.6-5.2,0.2-7.1,2c-0.5-1.3-1.9-2.3-3.3-2.1c-1.4,0.1-2.7,1.3-2.9,2.7
						c-0.3,2.1,1.1,4.9-0.7,5.8c1.6-0.4,3.5,0.2,4.6,1.4c4.3,5.1,1.7,17.4,13.1,15.3c1.8-0.3,3.6-1.1,5.4-1.2s4,0.8,4.5,2.6
						c2.4-3.5,8.5-2.7,10.5-6.4c1-1.7,0.5-4.1-1-5.4c-0.2-0.2-0.5-0.4-0.7-0.7c-0.2-0.6,0.3-1.3,0.4-1.9c0.2-1.2-1.1-2.1-1.2-3.2
						c-0.2-1.6,1.6-2.6,3.2-3s3.5-1,3.8-2.6c0.1-0.5,0-1.1,0.1-1.7c0.2-1.1,1.3-1.8,2.4-2c1.1-0.1,2.2,0.2,3.3,0.5
						c0.7,0.6,0.4,1.8-0.2,2.6c-0.6,0.7-1.6,1.2-2.1,1.9c-0.3,0.4,1.2,10.1,0.5,9.8c3.4,1.2,10.8,1.4,9.3,6.5
						c-0.5,1.8-1.6,3.7-0.9,5.5c-2.4-0.7-4.8-1.3-7.3-1.9c-0.6,0.8,0.4,1.8,1.3,2.1c1,0.2,2.1,0.2,2.7,0.9c0.5,0.5,0.5,1.3,0.5,1.9
						c0.1,2.2,0.2,4.5,0.4,6.7c0.1,2.4,0.5,5.2,2.5,6.6c2.3,1.6,5.5,0.3,7.4-1.7c0.5-0.5,1-1,1.6-1c0.6,0,1.1,0.4,1.5,0.9
						c2.4,2.1,5.6,3.4,8.7,2.6c3.1-0.7,5.6-3.8,5.1-6.9c-0.2-1.2-0.7-2.7,0.2-3.4c0.5-0.5,1.5-0.5,1.7-1.2c0.3-0.8-0.8-1.4-1.5-2
						c-1.3-1-1.8-2.9-1-4.4c0.4-0.7,7.1-3.5,8.1-3c2.4,1.2,2,7.6,2.3,10c0.1,0.9,0.3,2,1.1,2.6c1.2,0.9,2.9,0,3.9-1.2s1.6-2.7,3-3.3
						c0.8-0.4,1.7-0.4,2.6-0.4c1.8-0.1,3.8,0,5,1.2c0.6,0.6,0.9,1.4,1.5,2c1.3,1.3,3.5,1.3,5.3,0.6c1.8-0.6,3.4-1.7,5.2-2.2
						c3.9-1,8.3,0.8,11.9-1c1.7-0.9,3-3.3,1.6-4.7c-1.2-1.2-3.7-1-4-2.6c-0.3-1.6,3.6-3.8,4.2-5.2c0.5-1.1-0.6-3.1,0.6-5.2
						C571.8,104.2,574.2,103.7,575.3,101.9z"/>
					<path class="st7" d="M347.5,367.6c-2.2-1.5-4.7-2.3-5.5-5.4c-1-4.1,1.2-5.9,5.3-4.4c0.4,0.1,0.8,0.3,1.1,0.2
						c1.2-0.4,0.4-2.1-0.4-3.1c-1.8-2.3-1.9-5.4-1-8c0.2-0.6-11.4-0.9-12.6-0.2c-4.5,2.4-1.5,12-6.7,10.4c-0.4-3.6-0.2-7.4-0.2-11
						c-1.8-0.1-3.5-0.1-5.3-0.2c1.3,0,0.5-6.7,0.1-7.4c-1.7-2.9-7.1-1.6-6.6-7c0.6-6.9,13.9-8.2,12.3-0.4c4,1.5,8.8,1.9,13.1,1.8
						c0.1,1.4,0.2,2.8,0.3,4.2c1,0.6,2.3,0.7,3.4,0.3c2.1-3.5,1.8-8.3-0.8-11.5c1.5-2.3-0.3-5.3-2.1-7.4c4.9-3.5,3.5-12.6-2.2-14.5
						c-5.7-1.9-12.3,4.4-10.5,10.2c-2.8,0.3-5.5,1.5-7.5,3.4c-0.3-7.3-5.8-14-12.9-15.9c-3.5-0.9-7.8-0.9-10.2-3.6
						c-1.1-1.2-1.6-2.8-2.6-4.1c-2.3-2.9-6.3-3.5-10-3.7c-2.5-0.1-4.9-0.2-7.4-0.1c10.2,42.6,35.2,79.5,69.3,105
						c1.3,0,2.6,0,3.8-0.6c2.1-1.1,2.7-3.7,3.1-6.1c1.7-9,0.7-14.7-6.6-20.3C347.9,367.9,347.7,367.7,347.5,367.6z"/>
				</g>
			</g>
			<path class="st8" d="M240.2,147.7c0-5.9,4.8-10.7,10.7-10.7c1.1,0,2.1,0.2,3.1,0.4c-0.2-1.1-0.2-2.2-0.2-3.3
				c0-12.5,10.2-22.7,22.7-22.7c1.4,0,2.8,0.1,4.2,0.4c3.5-5.7,9.8-9.5,17-9.5c10.9,0,19.7,8.7,19.9,19.6c0.1,0,0.2,0,0.3,0
				c10.1,0,18.3,8.2,18.3,18.3c0,10.1-8.2,18.3-18.3,18.3h-67.2l0,0C244.9,158.3,240.2,153.5,240.2,147.7z"/>
			<path class="st8" d="M603.4,182.1c0-5.1,4.1-9.2,9.2-9.2c0.9,0,1.8,0.1,2.6,0.4c-0.1-0.9-0.2-1.9-0.2-2.8
				c0-10.8,8.7-19.5,19.5-19.5c1.2,0,2.4,0.1,3.6,0.3c3-4.9,8.4-8.2,14.5-8.2c9.3,0,16.9,7.5,17,16.8c0.1,0,0.2,0,0.3,0
				c8.7,0,15.7,7,15.7,15.7c0,8.7-7,15.7-15.7,15.7h-57.6l0,0C607.4,191.2,603.4,187.1,603.4,182.1z"/>
			<path class="st8" d="M394.6,265.9c0-5.9,4.8-10.7,10.7-10.7c1.1,0,2.1,0.2,3.1,0.4c-0.2-1.1-0.2-2.2-0.2-3.3
				c0-12.5,10.2-22.7,22.7-22.7c1.4,0,2.8,0.1,4.2,0.4c3.5-5.7,9.8-9.5,17-9.5c10.9,0,19.7,8.7,19.9,19.6c0.1,0,0.2,0,0.3,0
				c10.1,0,18.3,8.2,18.3,18.3c0,10.1-8.2,18.3-18.3,18.3H405l0,0C399.2,276.5,394.6,271.7,394.6,265.9z"/>
			<path class="st8" d="M229,365.5c0-4.1,3.3-7.4,7.4-7.4c0.7,0,1.5,0.1,2.1,0.3c-0.1-0.8-0.2-1.5-0.2-2.3c0-8.7,7.1-15.7,15.7-15.7
				c1,0,2,0.1,2.9,0.3c2.4-4,6.8-6.6,11.8-6.6c7.5,0,13.6,6.1,13.8,13.6c0.1,0,0.1,0,0.2,0c7,0,12.7,5.7,12.7,12.7
				s-5.7,12.7-12.7,12.7h-46.6l0,0C232.2,372.9,229,369.6,229,365.5z"/>
			<path class="st8" d="M629.8,370.9c0-3.8,3.1-7,7-7c0.7,0,1.4,0.1,2,0.3c-0.1-0.7-0.2-1.4-0.2-2.1c0-8.1,6.6-14.7,14.7-14.7
				c0.9,0,1.8,0.1,2.7,0.2c2.3-3.7,6.3-6.2,11-6.2c7,0,12.8,5.7,12.9,12.7c0.1,0,0.1,0,0.2,0c6.5,0,11.9,5.3,11.9,11.9
				c0,6.5-5.3,11.9-11.9,11.9h-43.6l0,0C632.8,377.8,629.8,374.7,629.8,370.9z"/>
			<path class="st5" d="M682.9,310.4c17.7-46.7-67.7-122.5-190.8-169.1s-237.2-46.6-254.9,0.2"/>
			<path class="st5" d="M601.8,40.8C561.7,11,465.6,72.7,387.3,178.4c-78.3,105.8-109.2,215.7-69,245.4"/>
		</g>
	</g>
	<g id="Background_Simple" class="st9">
		<g class="st10">
			<path class="st11" d="M612.4,103.4c27.9-59.5,127.1-51.1,165.3-9.3c38.3,41.8,50.7,68.6,85.2,53s78.5-11.4,81,38.2
				s-37.9,108.3-102.1,125.6s-64.2,78.8-149.1,66.4c-46.3-6.8-47.4-56.9-40.8-98.3C658.5,237.5,580.1,172.3,612.4,103.4z"/>
			<path class="st12" d="M612.4,103.4c27.9-59.5,127.1-51.1,165.3-9.3c38.3,41.8,50.7,68.6,85.2,53s78.5-11.4,81,38.2
				s-37.9,108.3-102.1,125.6s-64.2,78.8-149.1,66.4c-46.3-6.8-47.4-56.9-40.8-98.3C658.5,237.5,580.1,172.3,612.4,103.4z"/>
		</g>
	</g>
	<g id="Shadow_1_">
		<ellipse id="_x3C_Path_x3E__1_" class="st7" cx="460.5" cy="477.2" rx="256.1" ry="15"/>
	</g>
	<g id="Book">
		<g>
			<path class="st13" d="M489.8,145.1c0,0-116.8-18.2-178.9-9.2v246.9c0,0,129.9-11.2,171.9,2.9l6.9-4.8L489.8,145.1L489.8,145.1z"
				/>
			<path class="st14" d="M489.8,145.1c0,0-116.8-18.2-178.9-9.2v246.9c0,0,129.9-11.2,171.9,2.9l6.9-4.8L489.8,145.1L489.8,145.1z"
				/>
			<path class="st13" d="M489.8,145.1c0,0,116.8-18.2,178.9-9.2v246.9c0,0-129.9-11.2-171.9,2.9l-6.9-4.8L489.8,145.1L489.8,145.1z"
				/>
			<path class="st14" d="M489.8,145.1c0,0,116.8-18.2,178.9-9.2v246.9c0,0-129.9-11.2-171.9,2.9l-6.9-4.8L489.8,145.1L489.8,145.1z"
				/>
			<path class="st11" d="M489.8,381.7V145.9c0,0-63.4-35-173.5-13.6v245.1C316.3,377.4,411.2,361.6,489.8,381.7z"/>
			<path class="st15" d="M489.8,381.7V145.9c0,0-63.4-35-173.5-13.6v245.1C316.3,377.4,411.2,361.6,489.8,381.7z"/>
			<path class="st11" d="M489.8,381.7V145.9c0,0-62.3-38-170.6-21.7v245.1C319.2,369.3,412.6,357.9,489.8,381.7z"/>
			<path class="st16" d="M489.8,381.7V145.9c0,0-62.3-38-170.6-21.7v245.1C319.2,369.3,412.6,357.9,489.8,381.7z"/>
			<path class="st11" d="M489.8,381.6V145.8c0,0-61.9-40-167.5-27.2v245.1C322.3,363.6,414.5,355.3,489.8,381.6z"/>
			<path class="st15" d="M489.8,381.6V145.8c0,0-61.9-40-167.5-27.2v245.1C322.3,363.6,414.5,355.3,489.8,381.6z"/>
			<path class="st11" d="M489.8,380.9V145.1c0,0-60.2-41.3-164-30.7v245.1C325.8,359.5,415.7,353,489.8,380.9z"/>
			<path class="st16" d="M489.8,380.9V145.1c0,0-60.2-41.3-164-30.7v245.1C325.8,359.5,415.7,353,489.8,380.9z"/>
			<path class="st11" d="M489.8,381.7V145.9c0,0,63.4-35,173.5-13.6v245.1C663.3,377.4,568.3,361.6,489.8,381.7z"/>
			<path class="st16" d="M489.8,381.7V145.9c0,0,63.4-35,173.5-13.6v245.1C663.3,377.4,568.3,361.6,489.8,381.7z"/>
			<path class="st11" d="M489.8,381.7V145.9c0,0,62.3-38,170.6-21.7v245.1C660.3,369.3,567,357.9,489.8,381.7z"/>
			<path class="st15" d="M489.8,381.7V145.9c0,0,62.3-38,170.6-21.7v245.1C660.3,369.3,567,357.9,489.8,381.7z"/>
			<path class="st11" d="M489.8,381.6V145.8c0,0,61.9-40,167.5-27.2v245.1C657.3,363.6,565.1,355.3,489.8,381.6z"/>
			<path class="st16" d="M489.8,381.6V145.8c0,0,61.9-40,167.5-27.2v245.1C657.3,363.6,565.1,355.3,489.8,381.6z"/>
			<path class="st11" d="M489.8,380.9V145.1c0,0,60.2-41.3,164-30.7v245.1C653.8,359.5,563.9,353,489.8,380.9z"/>
			<path class="st15" d="M489.8,380.9V145.1c0,0,60.2-41.3,164-30.7v245.1C653.8,359.5,563.9,353,489.8,380.9z"/>
		</g>
		<path class="st11" d="M539.4,292.2c-4.2-4.2-9.8-6.3-15.3-6.3c-5.5,0-11.1,2.1-15.3,6.3c-8.5,8.5-8.5,22.1,0,30.6l15.3,15.3
			l15.3-15.3C547.8,314.4,547.8,300.7,539.4,292.2z M531.2,314.6c-2,1.9-4.5,2.9-7.1,2.9s-5.1-1-7.1-2.9c-3.9-3.9-3.9-10.2,0-14.1
			c2-2,4.5-3,7.1-3s5.1,1,7.1,3C535.1,304.4,535.1,310.7,531.2,314.6z"/>
		<path class="st17" d="M517,300.5c-3.9,3.9-3.9,10.2,0,14.1c2,1.9,4.5,2.9,7.1,2.9v20.6l-15.3-15.3c-8.5-8.5-8.5-22.1,0-30.6
			c4.2-4.2,9.8-6.3,15.3-6.3v11.6C521.5,297.5,519,298.5,517,300.5z"/>
		<g>
			<path class="st11" d="M632,141c-4.5-4.4-10.3-6.7-16.2-6.7s-11.7,2.2-16.2,6.7c-8.9,8.9-8.9,23.4,0,32.3l16.2,16.1l16.2-16.1
				C641,164.4,641,149.9,632,141z M623.3,164.6c-2.1,2.1-4.8,3.1-7.5,3.1c-2.7,0-5.4-1.1-7.5-3.1c-4.1-4.1-4.1-10.8,0-14.9
				c2.1-2.1,4.8-3.1,7.5-3.1c2.7,0,5.4,1.1,7.5,3.1C627.5,153.8,627.5,160.5,623.3,164.6z"/>
			<path class="st17" d="M608.4,149.7c-4.1,4.1-4.1,10.8,0,14.9c2.1,2.1,4.8,3.1,7.5,3.1v21.8l-16.2-16.1c-8.9-8.9-8.9-23.4,0-32.3
				c4.5-4.4,10.3-6.7,16.2-6.7v12.3C613.2,146.6,610.5,147.6,608.4,149.7z"/>
		</g>
		<path class="st18" d="M528.8,340.8c25,5.8,53.1,8.8,76.2-5c11.3-6.7,20-17.3,25.5-29.3c4.7-10.4,7-22,5.3-33.3
			c-4.3-29.2-32-41.2-57.8-28.9c-8.1,3.9-16.1,8.6-24.9,10.2c-13.2,2.4-27.5-2.5-35.8-13.3c-6.8-8.8-9.5-20.3-8.6-31.4
			c1.3-17.2,9.7-35.1,26.8-41.1c9.6-3.4,22.1-1.5,28,7.4c5.9,9,4.6,21.1,12,29.4c3.8,4.3,9.1,7.1,14.7,8.4
			c13.8,3.1,31.9-3.6,28.1-20.5"/>
		<g class="st19">
			<path class="st20" d="M347.4,144.1c0,0,65.4-3.6,126.4,22.8"/>
			<path class="st20" d="M347.4,171c0,0,65-4,126.4,21.4"/>
			<path class="st20" d="M347.4,197.9c0,0,64.6-4.4,126.4,19.9"/>
			<path class="st20" d="M347.4,224.8c0,0,64.2-4.9,126.4,18.4"/>
			<path class="st20" d="M347.4,251.7c0,0,63.8-5.3,126.4,17"/>
			<path class="st20" d="M347.4,278.6c0,0,63.5-5.7,126.4,15.5"/>
			<path class="st20" d="M347.4,305.5c0,0,63.1-6.1,126.4,14"/>
			<path class="st20" d="M347.4,332.4c0,0,62.7-6.6,126.4,12.6"/>
		</g>
		<path class="st21" d="M380.9,216.2c0-3.5-2.9-6.4-6.4-6.4c-0.6,0-1.2,0.1-1.8,0.3c0.1-0.6,0.1-1.3,0.1-2c0-7.4-6-13.5-13.5-13.5
			c-0.9,0-1.7,0.1-2.5,0.2c-2.1-3.4-5.8-5.7-10.1-5.7c-6.5,0-11.7,5.2-11.8,11.6c-0.1,0-0.1,0-0.2,0c-6,0-10.9,4.9-10.9,10.9
			s4.9,10.9,10.9,10.9h39.9l0,0C378.1,222.4,380.9,219.6,380.9,216.2z"/>
		<path class="st21" d="M500,199.5c0-3.5-2.9-6.4-6.4-6.4c-0.6,0-1.2,0.1-1.8,0.3c0.1-0.6,0.1-1.3,0.1-2c0-7.4-6-13.5-13.5-13.5
			c-0.9,0-1.7,0.1-2.5,0.2c-2.1-3.4-5.8-5.7-10.1-5.7c-6.5,0-11.7,5.2-11.8,11.6c-0.1,0-0.1,0-0.2,0c-6,0-10.9,4.9-10.9,10.9
			s4.9,10.9,10.9,10.9h39.9l0,0C497.2,205.8,500,203,500,199.5z"/>
		<path class="st21" d="M464,293.1c0-3.5-2.9-6.4-6.4-6.4c-0.6,0-1.2,0.1-1.8,0.3c0.1-0.6,0.1-1.3,0.1-2c0-7.5-6-13.5-13.5-13.5
			c-0.9,0-1.7,0.1-2.5,0.2c-2.1-3.4-5.8-5.7-10.1-5.7c-6.5,0-11.7,5.2-11.8,11.6c-0.1,0-0.1,0-0.2,0c-6,0-10.9,4.9-10.9,10.9
			s4.9,10.9,10.9,10.9h39.9l0,0C461.2,299.4,464,296.6,464,293.1z"/>
		<path d="M482.9,385.7c0,0,4.9,2.4,13.9,0c0,0-1.5-4.8-6.9-4.8C484.4,380.9,482.9,385.7,482.9,385.7z"/>
		<path class="st22" d="M482.9,385.7c0,0,4.9,2.4,13.9,0c0,0-1.5-4.8-6.9-4.8C484.4,380.9,482.9,385.7,482.9,385.7z"/>
	</g>
	<g id="Plant">
		<g>
			<path class="st11" d="M615.4,447.9c0,0,6.3-13.7-0.9-27.2c-7.2-13.5-9.2-16.7-4.7-19.4c4.6-2.8,6.7,10.8,6.7,10.8
				s3.8-9.3,0.7-19.1s-5.2-25.7-0.8-27.4c4.3-1.7,0.8,19.8,4.6,27.2c0,0,3.2-8.2,3.7-16c0.5-7.8-0.3-20.4,3.1-23.6s5.6-1,2.3,16.3
				s-3.3,31.4-3.3,31.4s7.4-22.7,12.4-23.4s5,6.7,0.7,13.1c-4.3,6.4-12.5,17.8-13.9,23.7c0,0,8.2-17.1,15.5-11.9
				c7.3,5.2-6.4,15.5-12.5,19.3s-10.4,27.1-10.4,27.1L615.4,447.9z"/>
			<path class="st23" d="M615.4,447.9c0,0,6.3-13.7-0.9-27.2c-7.2-13.5-9.2-16.7-4.7-19.4c4.6-2.8,6.7,10.8,6.7,10.8
				s3.8-9.3,0.7-19.1s-5.2-25.7-0.8-27.4c4.3-1.7,0.8,19.8,4.6,27.2c0,0,3.2-8.2,3.7-16c0.5-7.8-0.3-20.4,3.1-23.6s5.6-1,2.3,16.3
				s-3.3,31.4-3.3,31.4s7.4-22.7,12.4-23.4s5,6.7,0.7,13.1c-4.3,6.4-12.5,17.8-13.9,23.7c0,0,8.2-17.1,15.5-11.9
				c7.3,5.2-6.4,15.5-12.5,19.3s-10.4,27.1-10.4,27.1L615.4,447.9z"/>
			<path class="st11" d="M620.3,453.5c0,0-6.1-13.8,1.2-27.2c7.3-13.4,9.5-16.5,4.9-19.4s-6.8,10.7-6.8,10.7s-3.7-9.4-0.4-19.1
				s5.5-25.6,1.2-27.4c-4.3-1.8-1.1,19.8-4.9,27.1c0,0-3.1-8.2-3.5-16.1s0.5-20.4-2.8-23.6c-3.4-3.3-5.6-1.1-2.5,16.3
				c3.2,17.4,3,31.4,3,31.4s-7.2-22.8-12.2-23.5s-5.1,6.6-0.9,13s12.3,18,13.6,23.9c0,0-8-17.2-15.4-12.1
				c-7.4,5.1,6.2,15.6,12.3,19.5c6.1,3.8,10.1,27.2,10.1,27.2L620.3,453.5z"/>
			<g>
				<polygon class="st13" points="592.2,443.6 642.6,443.6 638.5,479.8 596.2,479.8 				"/>
			</g>
		</g>
	</g>
	<g id="Plane">
		<g>
			<g>
				<path class="st11" d="M413.7,175.9l-0.7,0.4L412,177l-24.5-2.3h0l8.6-6.9l17.4,6.1C414.4,174.3,414.5,175.4,413.7,175.9z"/>
				<path class="st23" d="M413.1,176.3L412,177l-24.5-2.3l7.5-6l17.4,6.1C413.1,175.1,413.3,175.8,413.1,176.3z"/>
				<path class="st11" d="M392.5,164.6L378,174l-0.1-0.3l-8-19.8l3.8-1.9c0,0,0.1,0,0.1-0.1c1.8-0.8,3.8-0.5,5.3,0.8L392.5,164.6z"
					/>
				<path class="st23" d="M391.3,164.9l-13.4,8.7l-8-19.8l3.8-1.9c0,0,0.1,0,0.1-0.1c1.5-0.3,3,0.1,4.1,1.2L391.3,164.9z"/>
			</g>
			<g>
				<path class="st11" d="M557.6,136.1C557.5,136.2,557.5,136.2,557.6,136.1l-6,4.9H468l10.5-10.6l8.6-8.6l8.2,1.2l60.9,8.6
					C558.4,131.9,559.2,134.7,557.6,136.1z"/>
				<path class="st12" d="M523.9,141H468l10.5-10.6l8.6-8.6l8.2,1.2c3.7,1.4,6.7,2.8,8.2,3.6C506,127.9,517.5,136.3,523.9,141z"/>
				<path class="st23" d="M557.6,136.1C557.5,136.2,557.5,136.2,557.6,136.1l-6,4.9h-82.7l17.4-17.5l69.1,9.8
					C556.8,133.5,557.7,134.9,557.6,136.1z"/>
				<g>
					<path class="st11" d="M516.2,132.7c0.7-0.8,1-1.9,1-3.2c0-2.9-2-5.5-4.4-5.9c-1-0.2-2,0.1-2.7,0.7
						c-4.5,2.9-19.8,13.8-22.2,19.5c-1.5,3.6,3.9,1.6,7.6,0.9c3.6-0.7,14.2-7,19.9-11.2c0.1-0.1,0.2-0.2,0.4-0.3l0,0
						C516,133.1,516.1,132.9,516.2,132.7z"/>
					<path class="st12" d="M517.3,129.5c0,1.3-0.4,2.4-1,3.2c-0.1,0.2-0.3,0.4-0.5,0.5c-0.1,0.1-0.2,0.2-0.4,0.3
						c-0.8,0.6-1.6,1.2-2.6,1.8c-5.9,4-14.2,8.7-17.3,9.4c-3.7,0.8-9.1,2.7-7.6-0.9c2-4.6,12.5-12.7,18.8-17.1
						c1.4-1,2.6-1.8,3.5-2.4c0.7-0.6,1.7-0.9,2.7-0.7C515.3,124,517.2,126.6,517.3,129.5z"/>
					<path class="st11" d="M517.3,129.5c0,1.3-0.4,2.4-1,3.2c-0.1,0.2-0.3,0.4-0.5,0.5c-0.1,0.1-0.2,0.2-0.4,0.3
						c-0.8,0.6-1.6,1.2-2.6,1.8c-1.2,0-2.3-0.2-3.2-0.8c-3.1-1.9-3.5-5.2-2.9-7.8c1.4-1,2.6-1.8,3.5-2.4c0.7-0.6,1.7-0.9,2.7-0.7
						C515.3,124,517.2,126.6,517.3,129.5z"/>
					<path class="st23" d="M517,128.6c0,2.1-1.4,3.6-3.2,3.3c-1.8-0.3-3.3-2.3-3.3-4.4c0-2.1,1.4-3.6,3.2-3.3
						C515.5,124.5,517,126.4,517,128.6z"/>
					<path class="st11" d="M512.8,126.9c0.3-0.4,2.4-0.5,2.4,0c0.1,1.6-0.9,2.7-1.6,2.5C513.4,129.5,511.6,128.5,512.8,126.9z"/>
					<path class="st23" d="M489.1,145.9c-2.4,0.5,21.3-15.6,21.3-15.6s1.5,3.3,4.8,2.2C515.2,132.5,503.5,143,489.1,145.9z"/>
				</g>
				<g>
					<path class="st11" d="M538.4,134.8c0.5-0.6,0.8-1.4,0.8-2.4c0-2.1-1.5-4.1-3.2-4.3c-0.8-0.1-1.5,0.1-2,0.5
						c-3.3,2.2-14.6,10.2-16.4,14.4c-1.1,2.6,2.8,1.2,5.6,0.7c2.7-0.5,10.5-5.1,14.7-8.3c0.1-0.1,0.2-0.1,0.3-0.2l0,0
						C538.2,135.1,538.3,135,538.4,134.8z"/>
					<path class="st12" d="M539.1,132.4c0,1-0.3,1.8-0.8,2.4c-0.1,0.1-0.2,0.3-0.4,0.4c-0.1,0.1-0.2,0.1-0.3,0.2
						c-0.6,0.4-1.2,0.9-1.9,1.3c-4.3,2.9-10.5,6.4-12.8,6.9c-2.8,0.6-6.7,2-5.6-0.7c1.5-3.4,9.2-9.4,13.8-12.6
						c1.1-0.7,2-1.4,2.6-1.8c0.5-0.4,1.2-0.7,2-0.5C537.7,128.4,539.1,130.3,539.1,132.4z"/>
					<path class="st11" d="M539.1,132.4c0,1-0.3,1.8-0.8,2.4c-0.1,0.1-0.2,0.3-0.4,0.4c-0.1,0.1-0.2,0.1-0.3,0.2
						c-0.6,0.4-1.2,0.9-1.9,1.3c-0.9,0-1.7-0.2-2.4-0.6c-2.3-1.4-2.6-3.9-2.2-5.8c1.1-0.7,2-1.4,2.6-1.8c0.5-0.4,1.2-0.7,2-0.5
						C537.7,128.4,539.1,130.3,539.1,132.4z"/>
					<path class="st23" d="M538.9,131.8c0,1.6-1,2.7-2.4,2.5c-1.3-0.2-2.4-1.7-2.4-3.2c0-1.6,1-2.7,2.4-2.5
						C537.8,128.8,538.9,130.2,538.9,131.8z"/>
					<path class="st11" d="M535.8,130.6c0.2-0.3,1.7-0.4,1.8,0c0.1,1.2-0.6,2-1.2,1.9C536.3,132.4,535,131.7,535.8,130.6z"/>
					<path class="st23" d="M518.9,144.2c-1.7,0.3,15.3-11.2,15.3-11.2s1.1,2.3,3.5,1.6C537.7,134.6,529.2,142.2,518.9,144.2z"/>
				</g>
			</g>
			<g>
				<path class="st11" d="M532.1,96.4c-0.3,0.9-0.8,2.1-1.6,3.3c-1.2,1.8-3.2,3.8-6.4,5.9c-0.5,0.3-1,0.6-1.4,0.9h0
					c-2.6,1.7-5.2,3.3-6.7,4.2l-66.7,42.3c-11.5,7.3-24.1,12.8-37.3,16.1l-4.3,1.1l-22.8,5.8c-1.7,0.4-3.5,0.1-4.9-0.9l0,0l-3.3-2.4
					l18-12.7c3.5-2.4,7-4.8,10.7-7l89.5-54.1c13.3-7.5,17-7.2,24.7-5.9c4-0.8,7.7-0.7,10.1-0.5c1,0.1,1.9,0.8,2.3,1.6
					C532.2,95,532.3,95.7,532.1,96.4z"/>
				<path class="st12" d="M532.1,96.4c-0.3,0.9-0.8,2.1-1.6,3.3c-1.2,1.8-3.2,3.8-6.4,5.9c-0.5,0.3-1,0.6-1.4,0.9h0
					c0,0-0.1,0.1-0.1,0.1c0,0,0,0,0,0c-2.6,1.7-5,3.2-6.5,4.2l-20,12.7l-46.7,29.7c-0.4,0.2-0.8,0.5-1.1,0.7
					c-11.2,6.9-23.4,12.1-36.1,15.4l-4.3,1.1l-22.8,5.8c-1.7,0.4-3.5,0.1-4.9-0.9l-3.3-2.4l18-12.7c3.5-2.4,7-4.8,10.7-7l10.5-6.4
					l47.7-28.8l31.3-18.9c13.3-7.5,17-7.2,24.7-5.9c0.3-0.1,0.6-0.1,0.9-0.2c3.7-0.7,7-0.6,9.2-0.3c1,0.1,1.9,0.8,2.3,1.6
					C532.2,95,532.3,95.7,532.1,96.4z"/>
				<path class="st11" d="M532.1,96.4c-0.3,0.9-0.8,2.1-1.6,3.3c-1.2,1.8-3.2,3.8-6.4,5.9c-0.5,0.3-1,0.6-1.4,0.9h0
					c0,0-0.1,0.1-0.1,0.1c0,0,0,0,0,0c-2.8-1-5-3.3-5.3-6.9c-0.2-2.9,1.3-5.1,3.1-6.7c3.7-0.7,7-0.6,9.2-0.3c1,0.1,1.9,0.8,2.3,1.6
					C532.2,95,532.3,95.7,532.1,96.4z"/>
				<g>
					<g>
						<path class="st24" d="M401.9,158.8c0.2-0.1,0.4-0.2,0.5-0.3"/>
						<path class="st25" d="M405.1,156.9c26.4-16,71-43,90-54.5"/>
						<path class="st24" d="M496.5,101.5c0.2-0.1,0.4-0.2,0.5-0.3"/>
					</g>
				</g>
				<g>
					<path class="st13" d="M503.5,98.8l0-3c2.7-1.4,6.7-3.7,12.7-3l3.2,0.5c-5.1-0.4-10.2,2-14.6,4.7L503.5,98.8z"/>
				</g>
				<path class="st23" d="M532.1,96.4c-0.3,0.9-0.8,2.1-1.6,3.3c-1.9,1.4-4.2,3-6.9,4.7c-8.5,5.4-69.5,43.7-77.6,49.5
					c-5.9,4.2-18.4,10.5-38.3,16.6c-6.8,2.1-14.4,4.1-22.9,6c-1.6,0.4-3.3,0-4.7-0.9l-0.1-0.1c0,0,26.8-9,32.8-12.4
					c6-3.4,92.8-57,101.6-61.8c7-3.8,13.6-6.3,17.4-6.8C532.2,95,532.3,95.7,532.1,96.4z"/>
			</g>
			<g>
				<path class="st11" d="M471,124l-0.4,0.2l-4.5,2.9l-19.8,12.7c-1.2,0.8-2.6,1.2-4,1.2h-93.4l3.5-3.8c3-3.2,7-5.2,11.4-5.6l81-7.4
					l25.5-2.3C471.4,121.7,472,123.4,471,124z"/>
				<path class="st12" d="M471,124l-0.4,0.2l-4.5,2.9l-19.8,12.7c-1.2,0.8-2.6,1.2-4,1.2h-64.2c21.9-4.1,56-11.2,66.6-16.9l25.5-2.3
					C471.4,121.7,472,123.4,471,124z"/>
				<path class="st23" d="M470.6,124.3l-24.3,15.6c-1.2,0.8-2.6,1.2-4,1.2h-92.7l1.9-2.1c3-3.2,7-5.2,11.4-5.6l106.5-9.7
					C470,123.5,470.4,123.8,470.6,124.3z"/>
				<g>
					<path class="st11" d="M439.9,132.7c0.7-0.8,1-1.9,1-3.2c0-2.9-2-5.5-4.4-5.9c-1-0.2-2,0.1-2.7,0.7
						c-4.5,2.9-19.8,13.8-22.2,19.5c-1.5,3.6,3.9,1.6,7.6,0.9c3.6-0.7,14.2-7,19.9-11.2c0.1-0.1,0.2-0.2,0.4-0.3l0,0
						C439.6,133.1,439.8,132.9,439.9,132.7z"/>
					<path class="st12" d="M440.9,129.5c0,1.3-0.4,2.4-1,3.2c-0.1,0.2-0.3,0.4-0.5,0.5c-0.1,0.1-0.2,0.2-0.4,0.3
						c-0.8,0.6-1.6,1.2-2.6,1.8c-5.9,4-14.2,8.7-17.3,9.4c-3.7,0.8-9.1,2.7-7.6-0.9c2-4.6,12.5-12.7,18.8-17.1
						c1.4-1,2.6-1.8,3.5-2.4c0.7-0.6,1.7-0.9,2.7-0.7C438.9,124,440.9,126.6,440.9,129.5z"/>
					<path class="st11" d="M440.9,129.5c0,1.3-0.4,2.4-1,3.2c-0.1,0.2-0.3,0.4-0.5,0.5c-0.1,0.1-0.2,0.2-0.4,0.3
						c-0.8,0.6-1.6,1.2-2.6,1.8c-1.2,0-2.3-0.2-3.2-0.8c-3.1-1.9-3.5-5.2-2.9-7.8c1.4-1,2.6-1.8,3.5-2.4c0.7-0.6,1.7-0.9,2.7-0.7
						C438.9,124,440.9,126.6,440.9,129.5z"/>
					
						<ellipse transform="matrix(0.9441 -0.3296 0.3296 0.9441 -17.7734 151.3145)" class="st23" cx="437.4" cy="128.1" rx="3.1" ry="4"/>
					<path class="st11" d="M436.4,126.9c0.3-0.4,2.4-0.5,2.4,0c0.1,1.6-0.9,2.7-1.6,2.5C437.1,129.5,435.3,128.5,436.4,126.9z"/>
					<path class="st23" d="M412.8,145.9c-2.4,0.5,21.3-15.6,21.3-15.6s1.5,3.3,4.8,2.2C438.9,132.5,427.2,143,412.8,145.9z"/>
				</g>
				<g>
					<path class="st11" d="M402.6,134.8c0.5-0.6,0.8-1.4,0.8-2.4c0-2.1-1.5-4.1-3.2-4.3c-0.8-0.1-1.5,0.1-2,0.5
						c-3.3,2.2-14.6,10.2-16.4,14.4c-1.1,2.6,2.9,1.2,5.6,0.7c2.7-0.5,10.5-5.1,14.7-8.3c0.1-0.1,0.2-0.1,0.3-0.2l0,0
						C402.4,135.1,402.5,135,402.6,134.8z"/>
					<path class="st12" d="M403.4,132.4c0,1-0.3,1.8-0.8,2.4c-0.1,0.1-0.2,0.3-0.4,0.4c-0.1,0.1-0.2,0.1-0.3,0.2
						c-0.6,0.4-1.2,0.9-1.9,1.3c-4.3,2.9-10.5,6.4-12.8,6.9c-2.8,0.6-6.7,2-5.6-0.7c1.5-3.4,9.2-9.4,13.8-12.6
						c1.1-0.7,2-1.4,2.6-1.8c0.5-0.4,1.2-0.7,2-0.5C401.9,128.4,403.4,130.3,403.4,132.4z"/>
					<path class="st11" d="M403.4,132.4c0,1-0.3,1.8-0.8,2.4c-0.1,0.1-0.2,0.3-0.4,0.4c-0.1,0.1-0.2,0.1-0.3,0.2
						c-0.6,0.4-1.2,0.9-1.9,1.3c-0.9,0-1.7-0.2-2.4-0.6c-2.3-1.4-2.6-3.9-2.2-5.8c1.1-0.7,2-1.4,2.6-1.8c0.5-0.4,1.2-0.7,2-0.5
						C401.9,128.4,403.4,130.3,403.4,132.4z"/>
					<path class="st23" d="M403.2,131.8c0,1.6-1,2.7-2.4,2.5c-1.3-0.2-2.4-1.7-2.4-3.2c0-1.6,1-2.7,2.4-2.5
						C402.1,128.8,403.1,130.2,403.2,131.8z"/>
					<path class="st11" d="M400.1,130.6c0.2-0.3,1.7-0.4,1.8,0c0.1,1.2-0.6,2-1.2,1.9C400.6,132.4,399.2,131.7,400.1,130.6z"/>
					<path class="st23" d="M383.1,144.2c-1.7,0.3,15.3-11.2,15.3-11.2s1.1,2.3,3.5,1.6C401.9,134.6,393.5,142.2,383.1,144.2z"/>
				</g>
			</g>
			<g>
				<path class="st11" d="M351,177.1l30.5-2.2l14.6-7.1l-38.6,4.7c-1.3,0.2-2.6,0.8-3.6,1.7L351,177.1z"/>
				<path class="st11" d="M392.1,169.8c0,0-0.1,0.1-0.1,0.1l-10.4,5l-29.1,2.1l-1.4,0.1l3-2.9c1-0.9,2.2-1.5,3.6-1.7l33.9-4.1
					C392.3,168.3,392.7,169.3,392.1,169.8z"/>
				<path class="st23" d="M392.1,169.8c0,0-0.1,0.1-0.1,0.1l-10.4,5l-29.1,2.1l1.6-1.6c1-0.9,2.2-1.5,3.6-1.7l33.9-4.1
					C391.7,169.6,391.9,169.6,392.1,169.8z"/>
			</g>
		</g>
	</g>
	<g id="Character">
		<g>
			<rect x="332.9" y="285.6" class="st26" width="16.2" height="72.9"/>
			<g>
				<path class="st13" d="M336.2,469.5c-0.5,0-2.1,0-2.6,0c-2.9,0-5.2,2.2-5.2,5.1s2.3,5.1,5.2,5.1c0.5,0,2.1,0,2.6,0
					c2.9,0,5.2-2.2,5.2-5.1S339.1,469.5,336.2,469.5z"/>
				<path class="st27" d="M341.4,474.5c0,2.9-2.3,5.2-5.2,5.2s-5.2-2.3-5.2-5.2s2.3-5.2,5.2-5.2
					C339.1,469.3,341.4,471.6,341.4,474.5z"/>
			</g>
			<g>
				<path class="st13" d="M350.3,469.5c-0.5,0-2.1,0-2.6,0c-2.9,0-5.2,2.2-5.2,5.1s2.3,5.1,5.2,5.1c0.5,0,2.1,0,2.6,0
					c2.9,0,5.2-2.2,5.2-5.1S353.2,469.5,350.3,469.5z"/>
				<path class="st28" d="M355.5,474.5c0,2.9-2.3,5.2-5.2,5.2s-5.2-2.3-5.2-5.2s2.3-5.2,5.2-5.2S355.5,471.6,355.5,474.5z"/>
			</g>
			<path class="st11" d="M397.4,361.4v90.9c0,9-7.3,17.2-16.4,17.2h-45.3V344.9H381c6.3,0,11.7,3.6,14.5,8.8
				C396.7,356,397.4,358.6,397.4,361.4z"/>
			<path class="st13" d="M353.4,471.2h-21.7c-1.5,0-2.6-1.2-2.6-2.6V345.2c0-1.5,1.2-2.6,2.6-2.6h21.7c1.5,0,2.6,1.2,2.6,2.6v123.4
				C356,470,354.8,471.2,353.4,471.2z"/>
			<path class="st28" d="M343.4,471.2h-11.7c-1.5,0-2.6-1.2-2.6-2.6V345.2c0-1.5,1.2-2.6,2.6-2.6h11.7c1.5,0,2.6,1.2,2.6,2.6v123.4
				C346,470,344.8,471.2,343.4,471.2z"/>
			<path class="st23" d="M397.4,361.4v90.9c0,9-7.3,17.2-16.4,17.2h-18.2c-0.7-1.3-1.4-3.6-1.4-5.1V362.9c0-5,4.4-9,9.4-9h24.6
				C396.7,356.5,397.4,358.6,397.4,361.4z"/>
			<path class="st23" d="M340.7,468h-7.9c-1,0-1.8-0.8-1.8-1.8V347.8c0-1,0.8-1.8,1.8-1.8h7.9c1,0,1.8,0.8,1.8,1.8v118.3
				C342.5,467.1,341.7,468,340.7,468z"/>
			<path class="st13" d="M349.9,288h-18.1c-1.1,0-1.9-0.9-1.9-1.9v-2.9c0-1.1,0.9-1.9,1.9-1.9h18.1c1.1,0,1.9,0.9,1.9,1.9v2.9
				C351.8,287.2,350.9,288,349.9,288z"/>
			<path class="st28" d="M349.9,288h-18.1c-1.1,0-1.9-0.9-1.9-1.9v-2.9c0-1.1,0.9-1.9,1.9-1.9h18.1c1.1,0,1.9,0.9,1.9,1.9v2.9
				C351.8,287.2,350.9,288,349.9,288z"/>
			<path class="st23" d="M349.9,288h-2.7c-1.1,0-1.9-0.9-1.9-1.9v-2.9c0-1.1,0.9-1.9,1.9-1.9h2.7c1.1,0,1.9,0.9,1.9,1.9v2.9
				C351.8,287.2,350.9,288,349.9,288z"/>
		</g>
		<g>
			<g>
				<path class="st13" d="M291.6,208.5c-12.8-1.7-25.2-4-25.2-4l-1.1,1.2c0,0-22.3,4.4-25.8,8.5c-3.5,4.1-2.4,21.8-2.4,21.8l1.4,1.2
					c0,0-0.4,37.6,4.4,44.1c4.8,6.5,26.3,7.4,42.6,2.9C301.9,279.7,304.4,210.1,291.6,208.5z"/>
				<path class="st29" d="M285.6,284.2c-2.7,0.7-5.5,1.3-8.3,1.8c-14.6,2.3-30.2,0.8-34.3-4.6c-4.8-6.5-4.4-44.1-4.4-44.1l-1.4-1.2
					c0,0-1-17.7,2.4-21.8c2.9-3.4,18.7-7,24-8.1c1.1-0.2,1.7-0.4,1.7-0.4l1.1-1.2c0,0,12.4,2.4,25.2,4
					C304.4,210.1,301.9,279.7,285.6,284.2z"/>
				<path class="st23" d="M285.6,284.2c-2.7,0.7-5.5,1.3-8.3,1.8c-10-0.2-18.9-1.5-20.5-4.6c-2.8-5.5,0.5-28.2-1.6-44.1
					c-2.1-15.9,1.4-28.1,8.5-31l0-0.1c1.1-0.2,1.7-0.4,1.7-0.4l1.1-1.2c0,0,12.4,2.4,25.2,4C304.4,210.1,301.9,279.7,285.6,284.2z"
					/>
			</g>
			<path class="st30" d="M334.3,272l9.2,3.9l5.4,6.4l-7,1.9l-3.8-2.4c0,0-6.6-0.2-8.3-5.4L334.3,272z"/>
			<path class="st11" d="M330.6,278.1c-1.6-0.8-8.5-5.3-15.1-10.1c-5.9-4.2-11.5-8.6-13-10.8c-1.9-2.7-4-10.6-5.5-18.9
				c-2-10.3-3.2-21.2-2.3-23.1c1.7-3.3,7.9-5.2,7.9-5.2c7.5,4.4,11.1,33.6,12.6,39.1c0,0,20.3,19.9,21.1,22.2
				C337,273.7,330.6,278.1,330.6,278.1z"/>
			<path class="st29" d="M330.6,278.1c-1.6-0.8-8.5-5.3-15.1-10.1c-5.9-4.2-11.5-8.6-13-10.8c-1.9-2.7-4-10.6-5.5-18.9
				c-2-10.3-3.2-21.2-2.3-23.1c1.7-3.3,7.9-5.2,7.9-5.2c7.5,4.4,11.1,33.6,12.6,39.1c0,0,20.3,19.9,21.1,22.2
				C337,273.7,330.6,278.1,330.6,278.1z"/>
			<path class="st11" d="M345.6,479.8c-7.8,0-8.9-0.1-13.2-0.3c-3.8-0.1-4.7,0.3-7.7,0.3c-2.5,0-2.4-2.5-1.6-5.2
				c0.4-1.4,1-4.4,1.5-6.6l11.5-0.8c1.6,3.1,5.2,7.5,9.6,8.1C349.9,475.7,348.7,479.8,345.6,479.8z"/>
			<path class="st11" d="M287.8,479.8c-7.8,0-8.9-0.1-13.2-0.3c-3.8-0.1-4.7,0.3-7.7,0.3c-2.5,0-2.4-2.5-1.6-5.2
				c0.4-1.4,1-4.4,1.5-6.6l11.5-0.8c1.6,3.1,5.2,7.5,9.6,8.1C292,475.7,290.9,479.8,287.8,479.8z"/>
			<path class="st29" d="M345.6,479.8c-7.8,0-8.9-0.1-13.2-0.3c-3.8-0.1-4.7,0.3-7.7,0.3c-2.5,0-2.4-2.5-1.6-5.2
				c0.4-1.4,1-4.4,1.5-6.6l11.5-0.8c1.6,3.1,5.2,7.5,9.6,8.1C349.9,475.7,348.7,479.8,345.6,479.8z"/>
			<path class="st29" d="M287.8,479.8c-7.8,0-8.9-0.1-13.2-0.3c-3.8-0.1-4.7,0.3-7.7,0.3c-2.5,0-2.4-2.5-1.6-5.2
				c0.4-1.4,1-4.4,1.5-6.6l11.5-0.8c1.6,3.1,5.2,7.5,9.6,8.1C292,475.7,290.9,479.8,287.8,479.8z"/>
			<path class="st23" d="M315.5,268c-5.9-4.2-11.5-8.6-13-10.8c-1.9-2.7-4-10.6-5.5-18.9c2.2-4.4,3.8-7.3,3.8-7.3
				S310.5,243.9,315.5,268z"/>
			<g>
				<path class="st11" d="M264.4,156c-4-5.3-9.5-7.5-16.4-3.9c-6.9,3.6-6.9,10.4-3.3,17.4c3.6,7-7.1,9.4-4.8,16.4
					c0.9,2.8,2.9,3.5,3,8.2c0,2.8-3.6,7.6-1.2,9.4c3.1,2.3,13.1-2.4,11.3-7.1c-1.8-4.6,5.3-4,5.6-8.5c0.3-4.8-3.1-6.4-1.8-9.9
					c1.5-4.1,5.9-4,7.8-9.9C266.1,163,265.7,157.7,264.4,156z"/>
				<path class="st31" d="M264.4,156c-4-5.3-9.5-7.5-16.4-3.9c-6.9,3.6-6.9,10.4-3.3,17.4c3.6,7-7.1,9.4-4.8,16.4
					c0.9,2.8,2.9,3.5,3,8.2c0,2.8-3.6,7.6-1.2,9.4c3.1,2.3,13.1-2.4,11.3-7.1c-1.8-4.6,5.3-4,5.6-8.5c0.3-4.8-3.1-6.4-1.8-9.9
					c1.5-4.1,5.9-4,7.8-9.9C266.1,163,265.7,157.7,264.4,156z"/>
			</g>
			<g>
				<path class="st13" d="M307,268.9c0,0,10.1,61,11.8,92.4c1.8,33,12.3,85.9,17.9,106.6c-1.6,1.4-9,2-12.5,0.3
					c0,0-30.6-61-26.6-99.2c-25.5-71.9-19.4-98.9-19.4-98.9L307,268.9z"/>
			</g>
			<path class="st23" d="M290.1,346.2c-3.6-12-6.2-22.4-8.1-31.3c1.8-7,4.4-12.9,8-16.5C290,298.4,295.1,317.8,290.1,346.2z"/>
			<g>
				<path class="st13" d="M296.1,265.7c0,0-8.4,64.7-13.1,95.8c-5,32.7-5.7,85.1-4.4,106.5c-1.8,1.1-8.5,2.4-12.1,1.2
					c0,0-17.1-66.1-5.7-104.5c-10.3-75.6,4.6-94.2,4.6-94.2L296.1,265.7z"/>
			</g>
			<path class="st11" d="M307.6,261.9c0.5-9.5,0.6-16.1,0.7-22.8c0.2-9.9-0.4-13.1-0.7-17.2c-0.5-7.4-6.3-15.8-13.8-16.6
				c-2.1-0.2-4.2-0.4-6.3-0.5c-6.3-0.4-12.1,0.1-19.1,0.6c-1.8,0.1-3.6,0.4-5.2,0.6c-6.2,0.9-9.9,6.9-8,13.1
				c6.1,18.9,8.7,31.2,9.6,41c-1.1,3-6.8,19.3-4.4,21.1c2.6,2,45.2,3.6,48.5,0C311.3,278.4,308.8,266.9,307.6,261.9z"/>
			<path class="st29" d="M308.8,281.1c-3.3,3.5-46,2-48.5,0c-2.3-1.9,3.4-18.1,4.4-21.1c-0.4-4.7-1.2-9.9-2.7-16.2
				c-1-4.5-2.3-9.4-4-15.1c-0.9-3-1.9-6.2-3-9.7c-2-6.1,1.8-12.2,8-13.1c1.7-0.2,3.4-0.4,5.2-0.6c7-0.6,12.8-1,19.1-0.7
				c2.1,0.1,4.2,0.3,6.3,0.5c7.5,0.8,13.3,9.2,13.8,16.6c0.3,4.1,0.9,7.3,0.7,17.2c0,6.7-0.2,13.4-0.7,22.8
				C308.8,266.9,311.3,278.4,308.8,281.1z"/>
			<g>
				<path class="st13" d="M270.9,233c0,0-2.9,14.8-9.4,24.3l1.4,2.3c0,0,6.6-8.2,10.6-26.6L270.9,233L270.9,233z"/>
				<path class="st28" d="M270.9,233c0,0-2.9,14.8-9.4,24.3l1.4,2.3c0,0,6.6-8.2,10.6-26.6L270.9,233L270.9,233z"/>
				<path class="st13" d="M258.7,206.9c0,0,12.4,4.5,11,26.3c-0.1,1.4,1,2.7,2.5,2.7l0,0c1.1,0,2.1-0.8,2.4-1.9
					c1.4-5.7,4.1-22.6-8.2-29.6C266.4,204.4,259.9,205.3,258.7,206.9z"/>
			</g>
			<g>
				<path class="st13" d="M305.7,233c0,0,0.9,10.6,2.2,20.1l0.9-1.8c0,0-0.6-9-1.2-18.3L305.7,233L305.7,233z"/>
				<path class="st28" d="M305.7,233c0,0,0.9,10.6,2.2,20.1l0.9-1.8c0,0-0.6-9-1.2-18.3L305.7,233L305.7,233z"/>
				<path class="st13" d="M293.3,205.2c0,0,9.7,6.5,11.7,28.1c0.1,0.9,0.8,1.6,1.7,1.6l0,0c0.9,0,1.7-0.8,1.7-1.7
					c0-4.4-0.7-16.7-7.5-25.6C300.8,207.6,295.4,204.1,293.3,205.2z"/>
			</g>
			<g class="st19">
				<path d="M295.2,282C295.2,282,295.1,282,295.2,282c-0.3-0.1-0.4-0.2-0.3-0.4c2.1-7.1-1.5-18.1-1.5-18.2c0,0,0-0.1,0-0.1
					c0-0.2,2.4-20.4,0-35.2c-1.8-11.1-5.8-16.2-5.8-16.3c-0.1-0.1-0.1-0.3,0-0.4c0.1-0.1,0.3-0.1,0.5,0.1c0.2,0.2,4.1,5.3,5.9,16.6
					c2.3,14.4,0.2,34,0,35.3c0.3,1,3.6,11.4,1.5,18.5C295.5,281.9,295.3,282,295.2,282z"/>
			</g>
			<path class="st11" d="M267.5,198.2c0,0,13.2,3.6,22,1.1c8.8-2.4,5.5,11.9-2.7,11.7C278.7,210.8,262.7,202.1,267.5,198.2z"/>
			<path class="st30" d="M268.9,183.8c1.9,6.1,4.3,17.3,0.5,21.6c0,0,5.8-1.1,18.5,6.2c3.4-5.3,0.7-6.8,0.7-6.8
				c-7-1.4-7.4-6.5-6.8-11.3L268.9,183.8z"/>
			<path class="st23" d="M274.2,187.7l7.6,5.7c-0.2,1.1-0.3,2.3-0.2,3.4c-2.7-0.3-6.6-3-7.2-5.8C274.1,189.7,274,188.3,274.2,187.7z
				"/>
			<g>
				<path class="st30" d="M263.2,171.6c2.2,9.9,2.9,14.1,8.8,18.7c8.8,6.9,20.4,2.7,21.2-7.5c0.7-9.2-3-23.8-13.4-26.7
					C269.6,153.2,261,161.7,263.2,171.6z"/>
				<g>
					<path class="st11" d="M277.1,151.1c7.4,0.9,17.3,9,7.7,9.9c-0.3,3-5.8,2.6-9.7,0.7c0.4,2.3-3.7,6.3-8.6,4.6
						c2.8,1.8,2.4,9.4-1.2,9.6c-3.5,0.2-11.1,1.5-8.9-10.8C258.6,152.7,269.2,150.2,277.1,151.1z"/>
					<path class="st31" d="M277.1,151.1c7.4,0.9,17.3,9,7.7,9.9c-0.3,3-5.8,2.6-9.7,0.7c0.4,2.3-3.7,6.3-8.6,4.6
						c2.8,1.8,2.4,9.4-1.2,9.6c-3.5,0.2-11.1,1.5-8.9-10.8C258.6,152.7,269.2,150.2,277.1,151.1z"/>
				</g>
				<path class="st13" d="M276,172.8c0.1,0.8,0.7,1.5,1.2,1.4c0.5-0.1,0.9-0.8,0.7-1.6s-0.7-1.5-1.2-1.4
					C276.2,171.2,275.9,172,276,172.8z"/>
				<path class="st13" d="M286.5,171.4c0.1,0.8,0.7,1.5,1.2,1.4c0.5-0.1,0.9-0.8,0.7-1.6s-0.7-1.5-1.2-1.4
					C286.6,169.8,286.3,170.5,286.5,171.4z"/>
				<path class="st13" d="M286.9,169.8l1.9-0.8C288.8,169,288.1,170.7,286.9,169.8z"/>
				<path class="st32" d="M283.6,173.6c0,0,2,3.5,3.9,5c-0.9,1.1-2.8,0.9-2.8,0.9L283.6,173.6z"/>
				<path class="st13" d="M280.5,183.1c0.4,0,0.9,0,1.4,0c0.1,0,0.2-0.1,0.2-0.3s-0.1-0.2-0.3-0.2c-3.6,0.4-5.8-2-5.8-2
					c-0.1-0.1-0.2-0.1-0.4,0c-0.1,0.1-0.1,0.2,0,0.4C275.7,180.9,277.5,182.9,280.5,183.1z"/>
				<path class="st30" d="M261.3,180.1c1.5,1.9,3.5,2.9,5.4,3.1c2.7,0.3,3.5-2.4,2.3-5c-1.1-2.3-3.9-5.2-6.4-4.4
					C260,174.8,259.6,178,261.3,180.1z"/>
				<path class="st13" d="M273.5,167.7c0.1,0,0.2-0.1,0.3-0.2c1.4-1.6,3.2-1.4,3.2-1.4c0.3,0,0.5-0.1,0.5-0.4s-0.2-0.5-0.5-0.6
					c-0.1,0-2.4-0.4-4,1.6c-0.2,0.2-0.1,0.5,0.1,0.7C273.3,167.7,273.4,167.7,273.5,167.7z"/>
				<path class="st13" d="M289.8,165.4c0.1,0,0.2,0,0.3-0.1c0.2-0.2,0.2-0.5,0-0.7c-1.8-2.2-4-2-4.1-2c-0.3,0-0.5,0.3-0.4,0.5
					s0.3,0.5,0.6,0.5c0.1,0,1.8-0.1,3.3,1.6C289.5,165.3,289.6,165.4,289.8,165.4z"/>
				<path class="st13" d="M276.5,171.3l1.9-0.8C278.4,170.5,277.6,172.1,276.5,171.3z"/>
			</g>
			<path class="st11" d="M287.8,211.5c0,0-19.7-19.6-29.6-12.7c-5.6,3.9-2.3,8.1,0.5,8.1c2.8,0,6.6-1.3,6.6-1.3
				S272,210.3,287.8,211.5z"/>
			<path class="st11" d="M287.8,211.5c0,0,3.5-7.9,1.9-11.1s9-2.8,9.8,3.6C300.3,210.4,287.8,211.5,287.8,211.5z"/>
			<path class="st28" d="M287.8,211.5c0,0-19.7-19.6-29.6-12.7c-5.6,3.9-2.3,8.1,0.5,8.1c2.8,0,6.6-1.3,6.6-1.3
				S272,210.3,287.8,211.5z"/>
			<path class="st28" d="M287.8,211.5c0,0,3.5-7.9,1.9-11.1s9-2.8,9.8,3.6C300.3,210.4,287.8,211.5,287.8,211.5z"/>
			<g>
				<path class="st11" d="M297.2,246.1l-14.9,29.1l-18.4-7.5l0.1-0.2l-1.5-1.7l-1-0.4l15.5-30.1c0,0,16.1,6.6,17.9,7.7
					C296.6,244.1,297.2,246.1,297.2,246.1z"/>
				<path class="st33" d="M297.2,246.1l-14.9,29.1l-18.4-7.5l0.1-0.2l-1.5-1.7l-1-0.4l15.5-30.1c0,0,16.1,6.6,17.9,7.7
					c0.1,0.1,0.2,0.1,0.3,0.2C296.7,244.2,297.2,246.1,297.2,246.1z"/>
				<path class="st23" d="M297.2,246.1l-14.9,29.1l-18.4-7.5l0.1-0.2l-1.5-1.7l18.1,6.8l14.5-29.4
					C296.7,244.2,297.2,246.1,297.2,246.1z"/>
				<path class="st14" d="M281.7,274.8l-17.7-7.2l-1.5-1.7l18.1,7C281.9,274,281.7,274.8,281.7,274.8z"/>
				<g>
					<polygon class="st21" points="272.5,260.1 286.8,238.2 294,242.5 280.1,264.3 					"/>
					<polygon class="st34" points="272.5,260.1 286.8,238.2 294,242.5 280.1,264.3 					"/>
					<polygon class="st21" points="272.7,260 285.5,237.2 293,241.1 280.5,263.7 					"/>
					<polygon class="st11" points="274.3,259.1 279.9,242.6 292.2,245.6 287.1,262.2 					"/>
					<g>
						<path class="st35" d="M286.9,252.9c-0.6,1.9-2.6,3.1-4.5,2.6c-1.9-0.5-3-2.4-2.5-4.4c0.6-1.9,2.6-3.1,4.5-2.6
							S287.4,251,286.9,252.9z"/>
						<line class="st35" x1="284.4" y1="248.6" x2="282.3" y2="255.6"/>
						<path class="st36" d="M285.3,252.6c-0.6,1.9-1.9,3.3-3,3c-1.1-0.3-1.5-2.1-1-4c0.6-1.9,1.9-3.3,3-3
							C285.5,248.9,285.9,250.6,285.3,252.6z"/>
						<line class="st36" x1="279.9" y1="251.2" x2="286.9" y2="252.9"/>
					</g>
				</g>
			</g>
			<path class="st30" d="M290.9,259.3l-1.9-2.5c-0.7-0.9-1.8-1.5-3-1.5l-5.5,0.1c-2.2,0.1-4.3,1.2-5.5,3l-0.8,1.1
				c2.8,4.4,9.1,7.1,9.1,7.1l1.7,1c1.5,0.9,3.4,0.4,4.2-1.1l1.9-3.4C291.8,261.9,291.7,260.4,290.9,259.3z"/>
			<path class="st23" d="M262,243.8c-1-4.5-2.3-9.4-4-15.1c1.4-1,3-1.1,4.8,0.4C262.9,229.2,264,237.1,262,243.8z"/>
			<path class="st11" d="M258.5,208.6c-4.1-2.4-22.1,32.6-19.8,44.5c2.3,11.9,39.1,10.2,39.1,10.2s2.3-5,1.7-8.1
				c0,0-17.1-6.9-25-8.6l9.2-17.4C263.8,229.2,265.6,212.6,258.5,208.6z"/>
			<path class="st29" d="M258.5,208.6c-4.1-2.4-22.1,32.6-19.8,44.5c2.3,11.9,39.1,10.2,39.1,10.2s2.3-5,1.7-8.1
				c0,0-17.1-6.9-25-8.6l9.2-17.4C263.8,229.2,265.6,212.6,258.5,208.6z"/>
		</g>
	</g>
	<g id="Speech_bubble">
		<g>
			<g>
				<path class="st11" d="M309.7,95.8c0-19.3-15.7-35-35-35c-19.3,0-35,15.7-35,35c0,18,13.6,32.8,31,34.8l3.9,13.2l3.9-13.2
					C296.1,128.6,309.7,113.8,309.7,95.8z"/>
				<path class="st15" d="M309.7,95.8c0-19.3-15.7-35-35-35c-19.3,0-35,15.7-35,35c0,18,13.6,32.8,31,34.8l3.9,13.2l3.9-13.2
					C296.1,128.6,309.7,113.8,309.7,95.8z"/>
			</g>
			<g>
				<path class="st11" d="M289,88.2v19.7c0,1.7-6.4,3.1-14.3,3.1c-7.9,0-14.3-1.4-14.3-3.1V88.2H289z"/>
				<polygon class="st23" points="289,88.2 289,95.3 274.7,100.1 260.4,95.3 260.4,88.2 				"/>
				<polygon class="st11" points="274.7,79.4 248.7,88.2 274.7,97 300.7,88.2 				"/>
				<polyline class="st37" points="291.5,103 291.5,91.3 274.7,85.7 				"/>
				<path class="st13" d="M291.5,101.8c-0.5,0-1,0.5-1,1.1v2.5h1.9v-2.5C292.4,102.2,292,101.8,291.5,101.8z"/>
			</g>
		</g>
	</g>
</g>
</svg>
